<svg xmlns="http://www.w3.org/2000/svg" width="760" height="443"><defs><pattern id="ad7ac2d8-467d-4275-bb03-3ec46720b5cd" data-name="diaginal hash (gray)" width="50" height="50" patternTransform="translate(-114.569 75.023)" patternUnits="userSpaceOnUse"><path class="b8a32532-91b6-4b07-9da2-86d30635677d" d="M0 0h50v50H0z"/><path class="b2912b69-2ffd-44ce-a929-d2e7b48fc547" d="M50 50v.707l.707-.707H50zM54.849 50L50 54.849v1.414L56.263 50h-1.414zM60.404 50L50 60.404v1.414L61.818 50h-1.414zM65.96 50L50 65.96v1.414L67.374 50H65.96zM71.515 50L50 71.515v1.414L72.929 50h-1.414zM77.071 50L50 77.071v1.414L78.485 50h-1.414zM82.626 50L50 82.626v1.414L84.041 50h-1.415zM88.182 50L50 88.182v1.414L89.596 50h-1.414zM93.737 50L50 93.737v1.414L95.151 50h-1.414zM100 50h-.707L50 99.293V100h.707L100 50.707V50z"/><g><path class="b2912b69-2ffd-44ce-a929-d2e7b48fc547" d="M0 50v.707L.707 50H0zM4.849 50L0 54.849v1.414L6.263 50H4.849zM10.404 50L0 60.404v1.414L11.818 50h-1.414zM15.96 50L0 65.96v1.414L17.374 50H15.96zM21.515 50L0 71.515v1.414L22.929 50h-1.414zM27.071 50L0 77.071v1.414L28.485 50h-1.414zM32.626 50L0 82.626v1.414L34.041 50h-1.415zM38.182 50L0 88.182v1.414L39.596 50h-1.414zM43.737 50L0 93.737v1.414L45.151 50h-1.414zM50 50h-.707L0 99.293V100h.707L50 50.707V50z"/></g><path class="b2912b69-2ffd-44ce-a929-d2e7b48fc547" d="M0 50h-.707L-50 99.293V100h.707L0 50.707V50z"/><g><path class="b2912b69-2ffd-44ce-a929-d2e7b48fc547" d="M50 0v.707L50.707 0H50zM54.849 0L50 4.849v1.414L56.263 0h-1.414zM60.404 0L50 10.404v1.414L61.818 0h-1.414zM65.96 0L50 15.96v1.414L67.374 0H65.96zM71.515 0L50 21.515v1.414L72.929 0h-1.414zM77.071 0L50 27.071v1.414L78.485 0h-1.414zM82.626 0L50 32.626v1.414L84.041 0h-1.415zM88.182 0L50 38.182v1.414L89.596 0h-1.414zM93.737 0L50 43.737v1.414L95.151 0h-1.414zM100 0h-.707L50 49.293V50h.707L100 .707V0z"/></g><g><path class="b2912b69-2ffd-44ce-a929-d2e7b48fc547" d="M0 0v.707L.707 0H0zM4.849 0L0 4.849v1.414L6.263 0H4.849zM10.404 0L0 10.404v1.414L11.818 0h-1.414zM15.96 0L0 15.96v1.414L17.374 0H15.96zM21.515 0L0 21.515v1.414L22.929 0h-1.414zM27.071 0L0 27.071v1.414L28.485 0h-1.414zM32.626 0L0 32.626v1.414L34.041 0h-1.415zM38.182 0L0 38.182v1.414L39.596 0h-1.414zM43.737 0L0 43.737v1.414L45.151 0h-1.414zM50 0h-.707L0 49.293V50h.707L50 .707V0zM6.263 50L50 6.262V4.848L4.849 50h1.414zM11.818 50L50 11.818v-1.414L10.404 50h1.414zM17.374 50L50 17.374V15.96L15.96 50h1.414zM22.929 50L50 22.929v-1.414L21.515 50h1.414zM28.485 50L50 28.485v-1.414L27.071 50h1.414zM34.04 50L50 34.04v-1.414L32.626 50h1.414zM39.596 50L50 39.596v-1.414L38.182 50h1.414zM45.151 50L50 45.151v-1.414L43.737 50h1.414zM50 50v-.707l-.707.707H50z"/></g><g><path class="b2912b69-2ffd-44ce-a929-d2e7b48fc547" d="M0 0h-.707L-50 49.293V50h.707L0 .707V0zM-43.737 50L0 6.262V4.848L-45.151 50h1.414zM-38.182 50L0 11.818v-1.414L-39.596 50h1.414zM-32.626 50L0 17.374V15.96L-34.04 50h1.414zM-27.071 50L0 22.929v-1.414L-28.485 50h1.414zM-21.515 50L0 28.485v-1.414L-22.929 50h1.414zM-15.96 50L0 34.04v-1.414L-17.374 50h1.414zM-10.404 50L0 39.596v-1.414L-11.818 50h1.414zM-4.849 50L0 45.151v-1.414L-6.263 50h1.414zM0 50v-.707L-.707 50H0z"/></g><path class="b2912b69-2ffd-44ce-a929-d2e7b48fc547" d="M100-50h-.707L50-.707V0h.707L100-49.293V-50z"/><g><path class="b2912b69-2ffd-44ce-a929-d2e7b48fc547" d="M50-50h-.707L0-.707V0h.707L50-49.293V-50zM6.263 0L50-43.738v-1.414L4.849 0h1.414zM11.818 0L50-38.182v-1.414L10.404 0h1.414zM17.374 0L50-32.626v-1.414L15.96 0h1.414zM22.929 0L50-27.071v-1.414L21.515 0h1.414zM28.485 0L50-21.515v-1.414L27.071 0h1.414zM34.04 0L50-15.96v-1.414L32.626 0h1.414zM39.596 0L50-10.404v-1.414L38.182 0h1.414zM45.151 0L50-4.849v-1.414L43.737 0h1.414zM50 0v-.707L49.293 0H50z"/></g><g><path class="b2912b69-2ffd-44ce-a929-d2e7b48fc547" d="M0-50h-.707L-50-.707V0h.707L0-49.293V-50zM-43.737 0L0-43.738v-1.414L-45.151 0h1.414zM-38.182 0L0-38.182v-1.414L-39.596 0h1.414zM-32.626 0L0-32.626v-1.414L-34.04 0h1.414zM-27.071 0L0-27.071v-1.414L-28.485 0h1.414zM-21.515 0L0-21.515v-1.414L-22.929 0h1.414zM-15.96 0L0-15.96v-1.414L-17.374 0h1.414zM-10.404 0L0-10.404v-1.414L-11.818 0h1.414zM-4.849 0L0-4.849v-1.414L-6.263 0h1.414zM0 0v-.707L-.707 0H0z"/></g></pattern><pattern id="adbd101b-35bc-4025-99eb-97bb29fc4e30" data-name="diaginal hash (gray)" width="50" height="50" patternTransform="translate(-114.569 190.023)" patternUnits="userSpaceOnUse"><path class="b8a32532-91b6-4b07-9da2-86d30635677d" d="M0 0h50v50H0z"/><path class="b2912b69-2ffd-44ce-a929-d2e7b48fc547" d="M50 50v.707l.707-.707H50zM54.849 50L50 54.849v1.414L56.263 50h-1.414zM60.404 50L50 60.404v1.414L61.818 50h-1.414zM65.96 50L50 65.96v1.414L67.374 50H65.96zM71.515 50L50 71.515v1.414L72.929 50h-1.414zM77.071 50L50 77.071v1.414L78.485 50h-1.414zM82.626 50L50 82.626v1.414L84.041 50h-1.415zM88.182 50L50 88.182v1.414L89.596 50h-1.414zM93.737 50L50 93.737v1.414L95.151 50h-1.414zM100 50h-.707L50 99.293V100h.707L100 50.707V50z"/><g><path class="b2912b69-2ffd-44ce-a929-d2e7b48fc547" d="M0 50v.707L.707 50H0zM4.849 50L0 54.849v1.414L6.263 50H4.849zM10.404 50L0 60.404v1.414L11.818 50h-1.414zM15.96 50L0 65.96v1.414L17.374 50H15.96zM21.515 50L0 71.515v1.414L22.929 50h-1.414zM27.071 50L0 77.071v1.414L28.485 50h-1.414zM32.626 50L0 82.626v1.414L34.041 50h-1.415zM38.182 50L0 88.182v1.414L39.596 50h-1.414zM43.737 50L0 93.737v1.414L45.151 50h-1.414zM50 50h-.707L0 99.293V100h.707L50 50.707V50z"/></g><path class="b2912b69-2ffd-44ce-a929-d2e7b48fc547" d="M0 50h-.707L-50 99.293V100h.707L0 50.707V50z"/><g><path class="b2912b69-2ffd-44ce-a929-d2e7b48fc547" d="M50 0v.707L50.707 0H50zM54.849 0L50 4.849v1.414L56.263 0h-1.414zM60.404 0L50 10.404v1.414L61.818 0h-1.414zM65.96 0L50 15.96v1.414L67.374 0H65.96zM71.515 0L50 21.515v1.414L72.929 0h-1.414zM77.071 0L50 27.071v1.414L78.485 0h-1.414zM82.626 0L50 32.626v1.414L84.041 0h-1.415zM88.182 0L50 38.182v1.414L89.596 0h-1.414zM93.737 0L50 43.737v1.414L95.151 0h-1.414zM100 0h-.707L50 49.293V50h.707L100 .707V0z"/></g><g><path class="b2912b69-2ffd-44ce-a929-d2e7b48fc547" d="M0 0v.707L.707 0H0zM4.849 0L0 4.849v1.414L6.263 0H4.849zM10.404 0L0 10.404v1.414L11.818 0h-1.414zM15.96 0L0 15.96v1.414L17.374 0H15.96zM21.515 0L0 21.515v1.414L22.929 0h-1.414zM27.071 0L0 27.071v1.414L28.485 0h-1.414zM32.626 0L0 32.626v1.414L34.041 0h-1.415zM38.182 0L0 38.182v1.414L39.596 0h-1.414zM43.737 0L0 43.737v1.414L45.151 0h-1.414zM50 0h-.707L0 49.293V50h.707L50 .707V0zM6.263 50L50 6.262V4.848L4.849 50h1.414zM11.818 50L50 11.818v-1.414L10.404 50h1.414zM17.374 50L50 17.374V15.96L15.96 50h1.414zM22.929 50L50 22.929v-1.414L21.515 50h1.414zM28.485 50L50 28.485v-1.414L27.071 50h1.414zM34.04 50L50 34.04v-1.414L32.626 50h1.414zM39.596 50L50 39.596v-1.414L38.182 50h1.414zM45.151 50L50 45.151v-1.414L43.737 50h1.414zM50 50v-.707l-.707.707H50z"/></g><g><path class="b2912b69-2ffd-44ce-a929-d2e7b48fc547" d="M0 0h-.707L-50 49.293V50h.707L0 .707V0zM-43.737 50L0 6.262V4.848L-45.151 50h1.414zM-38.182 50L0 11.818v-1.414L-39.596 50h1.414zM-32.626 50L0 17.374V15.96L-34.04 50h1.414zM-27.071 50L0 22.929v-1.414L-28.485 50h1.414zM-21.515 50L0 28.485v-1.414L-22.929 50h1.414zM-15.96 50L0 34.04v-1.414L-17.374 50h1.414zM-10.404 50L0 39.596v-1.414L-11.818 50h1.414zM-4.849 50L0 45.151v-1.414L-6.263 50h1.414zM0 50v-.707L-.707 50H0z"/></g><path class="b2912b69-2ffd-44ce-a929-d2e7b48fc547" d="M100-50h-.707L50-.707V0h.707L100-49.293V-50z"/><g><path class="b2912b69-2ffd-44ce-a929-d2e7b48fc547" d="M50-50h-.707L0-.707V0h.707L50-49.293V-50zM6.263 0L50-43.738v-1.414L4.849 0h1.414zM11.818 0L50-38.182v-1.414L10.404 0h1.414zM17.374 0L50-32.626v-1.414L15.96 0h1.414zM22.929 0L50-27.071v-1.414L21.515 0h1.414zM28.485 0L50-21.515v-1.414L27.071 0h1.414zM34.04 0L50-15.96v-1.414L32.626 0h1.414zM39.596 0L50-10.404v-1.414L38.182 0h1.414zM45.151 0L50-4.849v-1.414L43.737 0h1.414zM50 0v-.707L49.293 0H50z"/></g><g><path class="b2912b69-2ffd-44ce-a929-d2e7b48fc547" d="M0-50h-.707L-50-.707V0h.707L0-49.293V-50zM-43.737 0L0-43.738v-1.414L-45.151 0h1.414zM-38.182 0L0-38.182v-1.414L-39.596 0h1.414zM-32.626 0L0-32.626v-1.414L-34.04 0h1.414zM-27.071 0L0-27.071v-1.414L-28.485 0h1.414zM-21.515 0L0-21.515v-1.414L-22.929 0h1.414zM-15.96 0L0-15.96v-1.414L-17.374 0h1.414zM-10.404 0L0-10.404v-1.414L-11.818 0h1.414zM-4.849 0L0-4.849v-1.414L-6.263 0h1.414zM0 0v-.707L-.707 0H0z"/></g></pattern><style>.a3703a03-322a-495c-9ff7-8a6dd41ea6a9,.ae54448e-0c59-47bb-bf79-c0d9892a6b1a,.b295ab99-a314-4873-a35d-14c2a7a945de,.b340bf06-ac5f-418b-a7a3-df38fab4d5c0,.b8a32532-91b6-4b07-9da2-86d30635677d,.f257fbfc-c949-4a13-8eb8-d041757f6850,.f3296b32-f41d-4f1c-9bad-5f3ff549f62d,.fb1f3fb5-65da-48d0-84bb-5568fc46efe9{fill:none}.a1b6a788-2653-4ad7-b30f-9f91244bc032,.b2912b69-2ffd-44ce-a929-d2e7b48fc547,.ed9549bf-6b41-4760-aa8c-d59d4df9d5f0,.f4a717b1-e271-4c81-b565-863e94139138{fill:#151515}.b2912b69-2ffd-44ce-a929-d2e7b48fc547,.f3296b32-f41d-4f1c-9bad-5f3ff549f62d{stroke:#151515}.b2912b69-2ffd-44ce-a929-d2e7b48fc547{stroke-miterlimit:10}.fa189e57-2a60-45de-aabe-01b0ab36ef2d,.fb1f3fb5-65da-48d0-84bb-5568fc46efe9{stroke:#06c}.a3703a03-322a-495c-9ff7-8a6dd41ea6a9,.ae54448e-0c59-47bb-bf79-c0d9892a6b1a,.b295ab99-a314-4873-a35d-14c2a7a945de,.b340bf06-ac5f-418b-a7a3-df38fab4d5c0,.e6d9255d-d4c0-4179-a244-805c71e4f320,.f257fbfc-c949-4a13-8eb8-d041757f6850,.f3296b32-f41d-4f1c-9bad-5f3ff549f62d,.fa189e57-2a60-45de-aabe-01b0ab36ef2d,.fb1f3fb5-65da-48d0-84bb-5568fc46efe9{stroke-linecap:round;stroke-linejoin:round}.a3703a03-322a-495c-9ff7-8a6dd41ea6a9,.ae54448e-0c59-47bb-bf79-c0d9892a6b1a,.b340bf06-ac5f-418b-a7a3-df38fab4d5c0,.f257fbfc-c949-4a13-8eb8-d041757f6850,.fa189e57-2a60-45de-aabe-01b0ab36ef2d,.fb1f3fb5-65da-48d0-84bb-5568fc46efe9{stroke-width:2px}.a3703a03-322a-495c-9ff7-8a6dd41ea6a9{stroke:#c0d682}.a1b6a788-2653-4ad7-b30f-9f91244bc032,.fef43285-bb31-49ee-80fd-fafbf78c74ee{font-size:11px;font-family:RedHatText,&quot;Red Hat Text&quot;,Overpass,&quot;Helvetica Neue&quot;,Arial,sans-serif;font-weight:500}.e6d9255d-d4c0-4179-a244-805c71e4f320,.fa189e57-2a60-45de-aabe-01b0ab36ef2d,.fef43285-bb31-49ee-80fd-fafbf78c74ee{fill:#fff}.b295ab99-a314-4873-a35d-14c2a7a945de,.e6d9255d-d4c0-4179-a244-805c71e4f320,.f257fbfc-c949-4a13-8eb8-d041757f6850{stroke:#5b5b5b}.b295ab99-a314-4873-a35d-14c2a7a945de,.e6d9255d-d4c0-4179-a244-805c71e4f320{stroke-width:1.5px}.ae54448e-0c59-47bb-bf79-c0d9892a6b1a{stroke:#5e40be}.a68a8df7-1dce-48c4-b5b3-a8d7db5ac2b7{fill:#e8e8e8}.f4a717b1-e271-4c81-b565-863e94139138{font-size:12px;font-family:RedHatText,&quot;Red Hat Text&quot;,Overpass,&quot;Helvetica Neue&quot;,Arial,sans-serif;font-weight:700}.b340bf06-ac5f-418b-a7a3-df38fab4d5c0{stroke:#4cb6d6}.ec624810-06b7-4ba9-a87d-ff750e478f25{fill:#5e40be}.b84ccebd-47e6-4ba1-9482-e20ab2809e0d{opacity:.35;mix-blend-mode:multiply}.b4e6e134-ce0f-424b-969e-ec3ee57cd4b7{fill:#06c}</style></defs><g style="isolation:isolate"><g id="b4e62507-467e-4e5f-862a-c6e6114e2df8" data-name="artwork"><path class="fb1f3fb5-65da-48d0-84bb-5568fc46efe9" d="M639 114.017V209.5"/><path stroke="#fff" stroke-width="10" stroke-linecap="round" stroke-linejoin="round" fill="none" d="M617.425 189.5H645.5"/><path class="a3703a03-322a-495c-9ff7-8a6dd41ea6a9" d="M760 189.5H419.832v20M659 189.5v20"/><path class="fb1f3fb5-65da-48d0-84bb-5568fc46efe9" d="M399.5 114.017V209.5"/><text class="a1b6a788-2653-4ad7-b30f-9f91244bc032" transform="translate(418.832 167.501)">Out-of-Band Management<tspan x="0" y="12">network (optional)</tspan></text><path class="fb1f3fb5-65da-48d0-84bb-5568fc46efe9" d="M689.778 114.069v20"/><text class="a1b6a788-2653-4ad7-b30f-9f91244bc032" transform="translate(672.001 164.414)">Router</text><path class="e6d9255d-d4c0-4179-a244-805c71e4f320" d="M662.278 134.069h55v13.75h-55z"/><path class="f257fbfc-c949-4a13-8eb8-d041757f6850" d="M711.398 139.966"/><path class="b295ab99-a314-4873-a35d-14c2a7a945de" d="M668.17 138.931v3.965M674.063 138.931v3.965M679.956 138.931v3.965M685.849 138.931v3.965M691.742 138.931v3.965M697.635 138.931v3.965"/><path class="a3703a03-322a-495c-9ff7-8a6dd41ea6a9" d="M689.778 169.5v20"/><path class="ae54448e-0c59-47bb-bf79-c0d9892a6b1a" d="M649 378v25M409.5 378v25"/><path class="a68a8df7-1dce-48c4-b5b3-a8d7db5ac2b7" d="M299 209.5h221V378H299z"/><text class="f4a717b1-e271-4c81-b565-863e94139138" transform="translate(314 234.604)"><tspan>Control plane nodes x3</tspan></text><path class="a68a8df7-1dce-48c4-b5b3-a8d7db5ac2b7" d="M0 209.5h281V378H0z"/><path class="ae54448e-0c59-47bb-bf79-c0d9892a6b1a" d="M0 403h760"/><path class="fb1f3fb5-65da-48d0-84bb-5568fc46efe9" d="M0 114.017h760"/><text class="a1b6a788-2653-4ad7-b30f-9f91244bc032" transform="translate(0 104.017)">Baremetal network</text><text class="a1b6a788-2653-4ad7-b30f-9f91244bc032" transform="translate(1 419.817)">Provisioning network (optional)</text><path class="ae54448e-0c59-47bb-bf79-c0d9892a6b1a" d="M22.727 403v-50.25"/><path class="fb1f3fb5-65da-48d0-84bb-5568fc46efe9" d="M22.727 114.009V264.25M436.439 94.017v20"/><path class="b340bf06-ac5f-418b-a7a3-df38fab4d5c0" d="M436.439 38.672v20"/><text class="a1b6a788-2653-4ad7-b30f-9f91244bc032" transform="translate(418.663 89.017)">Router</text><path class="e6d9255d-d4c0-4179-a244-805c71e4f320" d="M408.939 58.672h55v13.75h-55z"/><path class="f257fbfc-c949-4a13-8eb8-d041757f6850" d="M458.06 64.569"/><path class="b295ab99-a314-4873-a35d-14c2a7a945de" d="M414.832 63.535v3.964M420.725 63.535v3.964M426.618 63.535v3.964M432.511 63.535v3.964M438.403 63.535v3.964M444.296 63.535v3.964"/><path class="fb1f3fb5-65da-48d0-84bb-5568fc46efe9" d="M518.252 94.017v20"/><g><text class="a1b6a788-2653-4ad7-b30f-9f91244bc032" transform="translate(484.878 89.838)">DHCP server</text><path class="e6d9255d-d4c0-4179-a244-805c71e4f320" d="M490.684 59.493h55v13.75h-55z"/><path class="f257fbfc-c949-4a13-8eb8-d041757f6850" d="M539.805 65.39"/><path class="b295ab99-a314-4873-a35d-14c2a7a945de" d="M497.42 67.35h8.25"/></g><path class="fb1f3fb5-65da-48d0-84bb-5568fc46efe9" d="M601.063 94.017v20"/><g><text class="a1b6a788-2653-4ad7-b30f-9f91244bc032" transform="translate(571.814 89.838)">DNS server</text><path class="e6d9255d-d4c0-4179-a244-805c71e4f320" d="M573.495 59.493h55v13.75h-55z"/><path class="f257fbfc-c949-4a13-8eb8-d041757f6850" d="M622.616 65.39"/><path class="b295ab99-a314-4873-a35d-14c2a7a945de" d="M580.23 67.35h8.25"/></g><g><text transform="translate(671.202 426.017)" font-size="10" fill="#f3f3f3" font-family="RedHatText,&quot;Red Hat Text&quot;,Overpass,&quot;Helvetica Neue&quot;,Arial,sans-serif">161_OpenShift_0521</text><path class="b8a32532-91b6-4b07-9da2-86d30635677d" d="M0 403h760v40H0z"/></g><path class="b340bf06-ac5f-418b-a7a3-df38fab4d5c0" d="M0 38.672h760"/><text class="a1b6a788-2653-4ad7-b30f-9f91244bc032" transform="translate(.5 28.671)">Internet access</text><path class="a68a8df7-1dce-48c4-b5b3-a8d7db5ac2b7" d="M41.209 219.5H0V240h41.209c5.661 0 5.661-20.5 0-20.5z"/><text class="f4a717b1-e271-4c81-b565-863e94139138" transform="translate(15 234.604)">Provisioning node</text><g><path class="f3296b32-f41d-4f1c-9bad-5f3ff549f62d" d="M191.972 123.726v1.5"/><path stroke-dasharray="3 3" stroke-linecap="round" stroke-linejoin="round" stroke="#151515" fill="none" d="M191.972 128.226v16.5"/><path class="f3296b32-f41d-4f1c-9bad-5f3ff549f62d" d="M191.972 146.226v1.5h1.5"/><path stroke-dasharray="3.052 3.052" stroke-linecap="round" stroke-linejoin="round" stroke="#151515" fill="none" d="M196.524 147.726h144.95"/><path class="f3296b32-f41d-4f1c-9bad-5f3ff549f62d" d="M343 147.726h1.5v1.5"/><path stroke-dasharray="2.888 2.888" stroke-linecap="round" stroke-linejoin="round" stroke="#151515" fill="none" d="M344.5 152.114v44.766"/><path class="f3296b32-f41d-4f1c-9bad-5f3ff549f62d" d="M344.5 198.324v1.5"/><path class="ed9549bf-6b41-4760-aa8c-d59d4df9d5f0" d="M339.514 198.365L344.5 207l4.986-8.635h-9.972z"/></g><g><path class="f3296b32-f41d-4f1c-9bad-5f3ff549f62d" d="M268.255 123.726v1.5"/><path stroke-dasharray="2 2" stroke-linecap="round" stroke-linejoin="round" stroke="#151515" fill="none" d="M268.255 127.226v3"/><path class="f3296b32-f41d-4f1c-9bad-5f3ff549f62d" d="M268.255 131.226v1.5h1.5"/><path stroke-dasharray="3.043 3.043" stroke-linecap="round" stroke-linejoin="round" stroke="#151515" fill="none" d="M272.798 132.726h83.681"/><path class="f3296b32-f41d-4f1c-9bad-5f3ff549f62d" d="M358 132.726h1.5v1.5"/><path stroke-dasharray="3.052 3.052" stroke-linecap="round" stroke-linejoin="round" stroke="#151515" fill="none" d="M359.5 137.278v59.52"/><path class="f3296b32-f41d-4f1c-9bad-5f3ff549f62d" d="M359.5 198.324v1.5"/><path class="ed9549bf-6b41-4760-aa8c-d59d4df9d5f0" d="M354.514 198.365L359.5 207l4.986-8.635h-9.972z"/></g><path d="M260 290.5v36H16v-36h244m1-1H15v38h246v-38z" fill="#d5d5d5"/><text transform="translate(101.893 311.547)" fill="#c4c4c4" font-size="11" font-family="RedHatText,&quot;Red Hat Text&quot;,Overpass,&quot;Helvetica Neue&quot;,Arial,sans-serif" font-weight="500">Bootstrap VM</text><g><path class="a68a8df7-1dce-48c4-b5b3-a8d7db5ac2b7" d="M538.5 209.5h221V378h-221z"/><text class="f4a717b1-e271-4c81-b565-863e94139138" transform="translate(552.467 234.604)"><tspan>Worker nodes xN</tspan></text></g><g><path class="ec624810-06b7-4ba9-a87d-ff750e478f25" d="M161.678 342.5H.455V363h161.223c5.661 0 5.661-20.5 0-20.5z"/><path d="M161.678 342.5H.455V363h161.223c5.661 0 5.661-20.5 0-20.5z" fill="url(#ad7ac2d8-467d-4275-bb03-3ec46720b5cd)"/><text class="fef43285-bb31-49ee-80fd-fafbf78c74ee" transform="translate(55.661 356.074)">Provisioning bridge</text><path class="ec624810-06b7-4ba9-a87d-ff750e478f25" d="M41.223 342.5H0V363h41.223c5.661 0 5.661-20.5 0-20.5z"/><text class="fef43285-bb31-49ee-80fd-fafbf78c74ee" transform="translate(11.671 356.074)">eno1</text><g><path class="b4e6e134-ce0f-424b-969e-ec3ee57cd4b7" d="M161.664 254.5H.455V275h161.209c5.661 0 5.661-20.5 0-20.5z"/><path d="M161.664 254.5H.455V275h161.209c5.661 0 5.661-20.5 0-20.5z" fill="url(#adbd101b-35bc-4025-99eb-97bb29fc4e30)"/><text class="fef43285-bb31-49ee-80fd-fafbf78c74ee" transform="translate(55.677 269.349)">Baremetal bridge</text><g><path class="b4e6e134-ce0f-424b-969e-ec3ee57cd4b7" d="M41.209 254.5H0V275h41.209c5.661 0 5.661-20.5 0-20.5z"/><text class="fef43285-bb31-49ee-80fd-fafbf78c74ee" transform="translate(11.671 269.349)">eno2</text></g></g></g><circle class="fa189e57-2a60-45de-aabe-01b0ab36ef2d" cx="268.255" cy="113.371" r="9.355"/><text class="a1b6a788-2653-4ad7-b30f-9f91244bc032" transform="translate(239.271 98.016)">Ingress VIP</text><circle class="fa189e57-2a60-45de-aabe-01b0ab36ef2d" cx="191.972" cy="113.371" r="9.355"/><text class="a1b6a788-2653-4ad7-b30f-9f91244bc032" transform="translate(172.552 98.016)">API VIP</text></g></g></svg>