<svg xmlns="http://www.w3.org/2000/svg" width="760" height="443"><defs><pattern id="a8f90f31-82e1-4660-abe6-3cf7e4b47de8" data-name="diaginal hash (gray)" width="50" height="50" patternTransform="translate(-114.569 75.023)" patternUnits="userSpaceOnUse"><path class="fc1551ac-4e5c-437f-8f2a-a9e56accd637" d="M0 0h50v50H0z"/><path class="fc8fc20a-311d-479b-aa05-a96e2e28be48" d="M50 50v.707l.707-.707H50zM54.849 50L50 54.849v1.414L56.263 50h-1.414zM60.404 50L50 60.404v1.414L61.818 50h-1.414zM65.96 50L50 65.96v1.414L67.374 50H65.96zM71.515 50L50 71.515v1.414L72.929 50h-1.414zM77.071 50L50 77.071v1.414L78.485 50h-1.414zM82.626 50L50 82.626v1.414L84.041 50h-1.415zM88.182 50L50 88.182v1.414L89.596 50h-1.414zM93.737 50L50 93.737v1.414L95.151 50h-1.414zM100 50h-.707L50 99.293V100h.707L100 50.707V50z"/><g><path class="fc8fc20a-311d-479b-aa05-a96e2e28be48" d="M0 50v.707L.707 50H0zM4.849 50L0 54.849v1.414L6.263 50H4.849zM10.404 50L0 60.404v1.414L11.818 50h-1.414zM15.96 50L0 65.96v1.414L17.374 50H15.96zM21.515 50L0 71.515v1.414L22.929 50h-1.414zM27.071 50L0 77.071v1.414L28.485 50h-1.414zM32.626 50L0 82.626v1.414L34.041 50h-1.415zM38.182 50L0 88.182v1.414L39.596 50h-1.414zM43.737 50L0 93.737v1.414L45.151 50h-1.414zM50 50h-.707L0 99.293V100h.707L50 50.707V50z"/></g><path class="fc8fc20a-311d-479b-aa05-a96e2e28be48" d="M0 50h-.707L-50 99.293V100h.707L0 50.707V50z"/><g><path class="fc8fc20a-311d-479b-aa05-a96e2e28be48" d="M50 0v.707L50.707 0H50zM54.849 0L50 4.849v1.414L56.263 0h-1.414zM60.404 0L50 10.404v1.414L61.818 0h-1.414zM65.96 0L50 15.96v1.414L67.374 0H65.96zM71.515 0L50 21.515v1.414L72.929 0h-1.414zM77.071 0L50 27.071v1.414L78.485 0h-1.414zM82.626 0L50 32.626v1.414L84.041 0h-1.415zM88.182 0L50 38.182v1.414L89.596 0h-1.414zM93.737 0L50 43.737v1.414L95.151 0h-1.414zM100 0h-.707L50 49.293V50h.707L100 .707V0z"/></g><g><path class="fc8fc20a-311d-479b-aa05-a96e2e28be48" d="M0 0v.707L.707 0H0zM4.849 0L0 4.849v1.414L6.263 0H4.849zM10.404 0L0 10.404v1.414L11.818 0h-1.414zM15.96 0L0 15.96v1.414L17.374 0H15.96zM21.515 0L0 21.515v1.414L22.929 0h-1.414zM27.071 0L0 27.071v1.414L28.485 0h-1.414zM32.626 0L0 32.626v1.414L34.041 0h-1.415zM38.182 0L0 38.182v1.414L39.596 0h-1.414zM43.737 0L0 43.737v1.414L45.151 0h-1.414zM50 0h-.707L0 49.293V50h.707L50 .707V0zM6.263 50L50 6.262V4.848L4.849 50h1.414zM11.818 50L50 11.818v-1.414L10.404 50h1.414zM17.374 50L50 17.374V15.96L15.96 50h1.414zM22.929 50L50 22.929v-1.414L21.515 50h1.414zM28.485 50L50 28.485v-1.414L27.071 50h1.414zM34.04 50L50 34.04v-1.414L32.626 50h1.414zM39.596 50L50 39.596v-1.414L38.182 50h1.414zM45.151 50L50 45.151v-1.414L43.737 50h1.414zM50 50v-.707l-.707.707H50z"/></g><g><path class="fc8fc20a-311d-479b-aa05-a96e2e28be48" d="M0 0h-.707L-50 49.293V50h.707L0 .707V0zM-43.737 50L0 6.262V4.848L-45.151 50h1.414zM-38.182 50L0 11.818v-1.414L-39.596 50h1.414zM-32.626 50L0 17.374V15.96L-34.04 50h1.414zM-27.071 50L0 22.929v-1.414L-28.485 50h1.414zM-21.515 50L0 28.485v-1.414L-22.929 50h1.414zM-15.96 50L0 34.04v-1.414L-17.374 50h1.414zM-10.404 50L0 39.596v-1.414L-11.818 50h1.414zM-4.849 50L0 45.151v-1.414L-6.263 50h1.414zM0 50v-.707L-.707 50H0z"/></g><path class="fc8fc20a-311d-479b-aa05-a96e2e28be48" d="M100-50h-.707L50-.707V0h.707L100-49.293V-50z"/><g><path class="fc8fc20a-311d-479b-aa05-a96e2e28be48" d="M50-50h-.707L0-.707V0h.707L50-49.293V-50zM6.263 0L50-43.738v-1.414L4.849 0h1.414zM11.818 0L50-38.182v-1.414L10.404 0h1.414zM17.374 0L50-32.626v-1.414L15.96 0h1.414zM22.929 0L50-27.071v-1.414L21.515 0h1.414zM28.485 0L50-21.515v-1.414L27.071 0h1.414zM34.04 0L50-15.96v-1.414L32.626 0h1.414zM39.596 0L50-10.404v-1.414L38.182 0h1.414zM45.151 0L50-4.849v-1.414L43.737 0h1.414zM50 0v-.707L49.293 0H50z"/></g><g><path class="fc8fc20a-311d-479b-aa05-a96e2e28be48" d="M0-50h-.707L-50-.707V0h.707L0-49.293V-50zM-43.737 0L0-43.738v-1.414L-45.151 0h1.414zM-38.182 0L0-38.182v-1.414L-39.596 0h1.414zM-32.626 0L0-32.626v-1.414L-34.04 0h1.414zM-27.071 0L0-27.071v-1.414L-28.485 0h1.414zM-21.515 0L0-21.515v-1.414L-22.929 0h1.414zM-15.96 0L0-15.96v-1.414L-17.374 0h1.414zM-10.404 0L0-10.404v-1.414L-11.818 0h1.414zM-4.849 0L0-4.849v-1.414L-6.263 0h1.414zM0 0v-.707L-.707 0H0z"/></g></pattern><pattern id="f3266639-a90e-4fef-9ffa-80f0292e14b4" data-name="diaginal hash (gray)" width="50" height="50" patternTransform="translate(-114.569 190.023)" patternUnits="userSpaceOnUse"><path class="fc1551ac-4e5c-437f-8f2a-a9e56accd637" d="M0 0h50v50H0z"/><path class="fc8fc20a-311d-479b-aa05-a96e2e28be48" d="M50 50v.707l.707-.707H50zM54.849 50L50 54.849v1.414L56.263 50h-1.414zM60.404 50L50 60.404v1.414L61.818 50h-1.414zM65.96 50L50 65.96v1.414L67.374 50H65.96zM71.515 50L50 71.515v1.414L72.929 50h-1.414zM77.071 50L50 77.071v1.414L78.485 50h-1.414zM82.626 50L50 82.626v1.414L84.041 50h-1.415zM88.182 50L50 88.182v1.414L89.596 50h-1.414zM93.737 50L50 93.737v1.414L95.151 50h-1.414zM100 50h-.707L50 99.293V100h.707L100 50.707V50z"/><g><path class="fc8fc20a-311d-479b-aa05-a96e2e28be48" d="M0 50v.707L.707 50H0zM4.849 50L0 54.849v1.414L6.263 50H4.849zM10.404 50L0 60.404v1.414L11.818 50h-1.414zM15.96 50L0 65.96v1.414L17.374 50H15.96zM21.515 50L0 71.515v1.414L22.929 50h-1.414zM27.071 50L0 77.071v1.414L28.485 50h-1.414zM32.626 50L0 82.626v1.414L34.041 50h-1.415zM38.182 50L0 88.182v1.414L39.596 50h-1.414zM43.737 50L0 93.737v1.414L45.151 50h-1.414zM50 50h-.707L0 99.293V100h.707L50 50.707V50z"/></g><path class="fc8fc20a-311d-479b-aa05-a96e2e28be48" d="M0 50h-.707L-50 99.293V100h.707L0 50.707V50z"/><g><path class="fc8fc20a-311d-479b-aa05-a96e2e28be48" d="M50 0v.707L50.707 0H50zM54.849 0L50 4.849v1.414L56.263 0h-1.414zM60.404 0L50 10.404v1.414L61.818 0h-1.414zM65.96 0L50 15.96v1.414L67.374 0H65.96zM71.515 0L50 21.515v1.414L72.929 0h-1.414zM77.071 0L50 27.071v1.414L78.485 0h-1.414zM82.626 0L50 32.626v1.414L84.041 0h-1.415zM88.182 0L50 38.182v1.414L89.596 0h-1.414zM93.737 0L50 43.737v1.414L95.151 0h-1.414zM100 0h-.707L50 49.293V50h.707L100 .707V0z"/></g><g><path class="fc8fc20a-311d-479b-aa05-a96e2e28be48" d="M0 0v.707L.707 0H0zM4.849 0L0 4.849v1.414L6.263 0H4.849zM10.404 0L0 10.404v1.414L11.818 0h-1.414zM15.96 0L0 15.96v1.414L17.374 0H15.96zM21.515 0L0 21.515v1.414L22.929 0h-1.414zM27.071 0L0 27.071v1.414L28.485 0h-1.414zM32.626 0L0 32.626v1.414L34.041 0h-1.415zM38.182 0L0 38.182v1.414L39.596 0h-1.414zM43.737 0L0 43.737v1.414L45.151 0h-1.414zM50 0h-.707L0 49.293V50h.707L50 .707V0zM6.263 50L50 6.262V4.848L4.849 50h1.414zM11.818 50L50 11.818v-1.414L10.404 50h1.414zM17.374 50L50 17.374V15.96L15.96 50h1.414zM22.929 50L50 22.929v-1.414L21.515 50h1.414zM28.485 50L50 28.485v-1.414L27.071 50h1.414zM34.04 50L50 34.04v-1.414L32.626 50h1.414zM39.596 50L50 39.596v-1.414L38.182 50h1.414zM45.151 50L50 45.151v-1.414L43.737 50h1.414zM50 50v-.707l-.707.707H50z"/></g><g><path class="fc8fc20a-311d-479b-aa05-a96e2e28be48" d="M0 0h-.707L-50 49.293V50h.707L0 .707V0zM-43.737 50L0 6.262V4.848L-45.151 50h1.414zM-38.182 50L0 11.818v-1.414L-39.596 50h1.414zM-32.626 50L0 17.374V15.96L-34.04 50h1.414zM-27.071 50L0 22.929v-1.414L-28.485 50h1.414zM-21.515 50L0 28.485v-1.414L-22.929 50h1.414zM-15.96 50L0 34.04v-1.414L-17.374 50h1.414zM-10.404 50L0 39.596v-1.414L-11.818 50h1.414zM-4.849 50L0 45.151v-1.414L-6.263 50h1.414zM0 50v-.707L-.707 50H0z"/></g><path class="fc8fc20a-311d-479b-aa05-a96e2e28be48" d="M100-50h-.707L50-.707V0h.707L100-49.293V-50z"/><g><path class="fc8fc20a-311d-479b-aa05-a96e2e28be48" d="M50-50h-.707L0-.707V0h.707L50-49.293V-50zM6.263 0L50-43.738v-1.414L4.849 0h1.414zM11.818 0L50-38.182v-1.414L10.404 0h1.414zM17.374 0L50-32.626v-1.414L15.96 0h1.414zM22.929 0L50-27.071v-1.414L21.515 0h1.414zM28.485 0L50-21.515v-1.414L27.071 0h1.414zM34.04 0L50-15.96v-1.414L32.626 0h1.414zM39.596 0L50-10.404v-1.414L38.182 0h1.414zM45.151 0L50-4.849v-1.414L43.737 0h1.414zM50 0v-.707L49.293 0H50z"/></g><g><path class="fc8fc20a-311d-479b-aa05-a96e2e28be48" d="M0-50h-.707L-50-.707V0h.707L0-49.293V-50zM-43.737 0L0-43.738v-1.414L-45.151 0h1.414zM-38.182 0L0-38.182v-1.414L-39.596 0h1.414zM-32.626 0L0-32.626v-1.414L-34.04 0h1.414zM-27.071 0L0-27.071v-1.414L-28.485 0h1.414zM-21.515 0L0-21.515v-1.414L-22.929 0h1.414zM-15.96 0L0-15.96v-1.414L-17.374 0h1.414zM-10.404 0L0-10.404v-1.414L-11.818 0h1.414zM-4.849 0L0-4.849v-1.414L-6.263 0h1.414zM0 0v-.707L-.707 0H0z"/></g></pattern><style>.a984f3b6-12b4-4ec3-869a-d13ce48d58e3,.b458c729-da09-4f88-b922-7ff10c6bea7e,.bab51a1f-3800-4ad2-8127-54e380cd22d5,.bb9bd091-4723-4135-9b2e-a1966115b862,.bfc0a7b1-8073-4da8-8965-8b2e786eca09,.bfded149-437c-497f-9237-fd6f1b92df96,.fa2b7c84-14d5-4b21-8399-7e79109b686d,.fc1551ac-4e5c-437f-8f2a-a9e56accd637{fill:none}.a05201b3-adfc-4289-a67f-2a9510b0a454,.b5fbb3e3-9668-4991-b54f-f1c03ad9c12d,.bd8062d0-eb40-4cfe-a35f-bffd82ad969c,.fc8fc20a-311d-479b-aa05-a96e2e28be48{fill:#151515}.a984f3b6-12b4-4ec3-869a-d13ce48d58e3,.fc8fc20a-311d-479b-aa05-a96e2e28be48{stroke:#151515}.fc8fc20a-311d-479b-aa05-a96e2e28be48{stroke-miterlimit:10}.bb9bd091-4723-4135-9b2e-a1966115b862,.bfd550c0-b412-4c49-8774-c542f0ecbd4d{stroke:#06c}.a984f3b6-12b4-4ec3-869a-d13ce48d58e3,.b458c729-da09-4f88-b922-7ff10c6bea7e,.bab51a1f-3800-4ad2-8127-54e380cd22d5,.bb9bd091-4723-4135-9b2e-a1966115b862,.bfc0a7b1-8073-4da8-8965-8b2e786eca09,.bfd550c0-b412-4c49-8774-c542f0ecbd4d,.bfded149-437c-497f-9237-fd6f1b92df96,.f27a22ea-6b88-441b-af8c-4dbfbeb2eebe,.fa2b7c84-14d5-4b21-8399-7e79109b686d{stroke-linecap:round;stroke-linejoin:round}.b458c729-da09-4f88-b922-7ff10c6bea7e,.bab51a1f-3800-4ad2-8127-54e380cd22d5,.bb9bd091-4723-4135-9b2e-a1966115b862,.bfc0a7b1-8073-4da8-8965-8b2e786eca09,.bfd550c0-b412-4c49-8774-c542f0ecbd4d,.fa2b7c84-14d5-4b21-8399-7e79109b686d{stroke-width:2px}.b458c729-da09-4f88-b922-7ff10c6bea7e{stroke:#c0d682}.b5fbb3e3-9668-4991-b54f-f1c03ad9c12d,.be191529-b7a0-4569-a848-4c4a1c542d0e{font-size:11px;font-family:RedHatText,&quot;Red Hat Text&quot;,Overpass,&quot;Helvetica Neue&quot;,Arial,sans-serif;font-weight:500}.be191529-b7a0-4569-a848-4c4a1c542d0e,.bfd550c0-b412-4c49-8774-c542f0ecbd4d,.f27a22ea-6b88-441b-af8c-4dbfbeb2eebe{fill:#fff}.bfc0a7b1-8073-4da8-8965-8b2e786eca09,.bfded149-437c-497f-9237-fd6f1b92df96,.f27a22ea-6b88-441b-af8c-4dbfbeb2eebe{stroke:#5b5b5b}.bfded149-437c-497f-9237-fd6f1b92df96,.f27a22ea-6b88-441b-af8c-4dbfbeb2eebe{stroke-width:1.5px}.bab51a1f-3800-4ad2-8127-54e380cd22d5{stroke:#5e40be}.b7c3d619-72dc-481b-bfc8-32c2be74231e{fill:#e8e8e8}.bd8062d0-eb40-4cfe-a35f-bffd82ad969c{font-size:12px;font-family:RedHatText,&quot;Red Hat Text&quot;,Overpass,&quot;Helvetica Neue&quot;,Arial,sans-serif;font-weight:700}.fa2b7c84-14d5-4b21-8399-7e79109b686d{stroke:#4cb6d6}.b0742dfc-5410-4c52-a6f2-766474430bc8{fill:#5e40be}.ebc389b8-3a65-4bf8-9504-eccaac59bded{opacity:.35;mix-blend-mode:multiply}.b40f1568-686b-4070-873d-51dba31ef69e{fill:#06c}</style></defs><g style="isolation:isolate"><g id="ad6a382b-8811-4f47-afdb-0fc0ab3dcdc8" data-name="artwork"><path class="bb9bd091-4723-4135-9b2e-a1966115b862" d="M639 114.017V209.5"/><path stroke-width="10" stroke="#fff" stroke-linecap="round" stroke-linejoin="round" fill="none" d="M617.425 189.5H645.5"/><path class="b458c729-da09-4f88-b922-7ff10c6bea7e" d="M760 189.5H419.832v20M659 189.5v20"/><path class="bb9bd091-4723-4135-9b2e-a1966115b862" d="M399.5 114.017V209.5"/><text class="b5fbb3e3-9668-4991-b54f-f1c03ad9c12d" transform="translate(418.832 167.501)">Out-of-Band Management<tspan x="0" y="12">network (optional)</tspan></text><path class="bb9bd091-4723-4135-9b2e-a1966115b862" d="M689.778 114.069v20"/><text class="b5fbb3e3-9668-4991-b54f-f1c03ad9c12d" transform="translate(672.001 164.414)">Router</text><path class="f27a22ea-6b88-441b-af8c-4dbfbeb2eebe" d="M662.278 134.069h55v13.75h-55z"/><path class="bfc0a7b1-8073-4da8-8965-8b2e786eca09" d="M711.398 139.966"/><path class="bfded149-437c-497f-9237-fd6f1b92df96" d="M668.17 138.931v3.965M674.063 138.931v3.965M679.956 138.931v3.965M685.849 138.931v3.965M691.742 138.931v3.965M697.635 138.931v3.965"/><path class="b458c729-da09-4f88-b922-7ff10c6bea7e" d="M689.778 169.5v20"/><path class="bab51a1f-3800-4ad2-8127-54e380cd22d5" d="M649 378v25M409.5 378v25"/><path class="b7c3d619-72dc-481b-bfc8-32c2be74231e" d="M299 209.5h221V378H299z"/><text class="bd8062d0-eb40-4cfe-a35f-bffd82ad969c" transform="translate(314 234.604)"><tspan>Master nodes x3</tspan></text><path class="b7c3d619-72dc-481b-bfc8-32c2be74231e" d="M0 209.5h281V378H0z"/><path class="bab51a1f-3800-4ad2-8127-54e380cd22d5" d="M0 403h760"/><path class="bb9bd091-4723-4135-9b2e-a1966115b862" d="M0 114.017h760"/><text class="b5fbb3e3-9668-4991-b54f-f1c03ad9c12d" transform="translate(0 104.017)">Baremetal network</text><text class="b5fbb3e3-9668-4991-b54f-f1c03ad9c12d" transform="translate(1 419.817)">Provisioning network</text><path class="bab51a1f-3800-4ad2-8127-54e380cd22d5" d="M22.727 403v-50.25"/><path class="bb9bd091-4723-4135-9b2e-a1966115b862" d="M22.727 114.009V264.25M436.439 94.017v20"/><path class="fa2b7c84-14d5-4b21-8399-7e79109b686d" d="M436.439 38.672v20"/><text class="b5fbb3e3-9668-4991-b54f-f1c03ad9c12d" transform="translate(418.663 89.017)">Router</text><path class="f27a22ea-6b88-441b-af8c-4dbfbeb2eebe" d="M408.939 58.672h55v13.75h-55z"/><path class="bfc0a7b1-8073-4da8-8965-8b2e786eca09" d="M458.06 64.569"/><path class="bfded149-437c-497f-9237-fd6f1b92df96" d="M414.832 63.535v3.964M420.725 63.535v3.964M426.618 63.535v3.964M432.511 63.535v3.964M438.403 63.535v3.964M444.296 63.535v3.964"/><path class="bb9bd091-4723-4135-9b2e-a1966115b862" d="M518.252 94.017v20"/><g><text class="b5fbb3e3-9668-4991-b54f-f1c03ad9c12d" transform="translate(484.878 89.838)">DHCP server</text><path class="f27a22ea-6b88-441b-af8c-4dbfbeb2eebe" d="M490.684 59.493h55v13.75h-55z"/><path class="bfc0a7b1-8073-4da8-8965-8b2e786eca09" d="M539.805 65.39"/><path class="bfded149-437c-497f-9237-fd6f1b92df96" d="M497.42 67.35h8.25"/></g><path class="bb9bd091-4723-4135-9b2e-a1966115b862" d="M601.063 94.017v20"/><g><text class="b5fbb3e3-9668-4991-b54f-f1c03ad9c12d" transform="translate(571.814 89.838)">DNS server</text><path class="f27a22ea-6b88-441b-af8c-4dbfbeb2eebe" d="M573.495 59.493h55v13.75h-55z"/><path class="bfc0a7b1-8073-4da8-8965-8b2e786eca09" d="M622.616 65.39"/><path class="bfded149-437c-497f-9237-fd6f1b92df96" d="M580.23 67.35h8.25"/></g><g><text transform="translate(670.861 426.017)" font-size="10" fill="#f3f3f3" font-family="RedHatText,&quot;Red Hat Text&quot;,Overpass,&quot;Helvetica Neue&quot;,Arial,sans-serif">71_OpenShift_0920</text><path class="fc1551ac-4e5c-437f-8f2a-a9e56accd637" d="M0 403h760v40H0z"/></g><path class="fa2b7c84-14d5-4b21-8399-7e79109b686d" d="M0 38.672h760"/><text class="b5fbb3e3-9668-4991-b54f-f1c03ad9c12d" transform="translate(.5 28.671)">Internet access</text><path class="b7c3d619-72dc-481b-bfc8-32c2be74231e" d="M41.209 219.5H0V240h41.209c5.661 0 5.661-20.5 0-20.5z"/><text class="bd8062d0-eb40-4cfe-a35f-bffd82ad969c" transform="translate(15 234.604)">Provisioning node</text><g><path class="a984f3b6-12b4-4ec3-869a-d13ce48d58e3" d="M191.972 123.726v1.5"/><path stroke-dasharray="3 3" stroke-linecap="round" stroke-linejoin="round" stroke="#151515" fill="none" d="M191.972 128.226v16.5"/><path class="a984f3b6-12b4-4ec3-869a-d13ce48d58e3" d="M191.972 146.226v1.5h1.5"/><path stroke-dasharray="2.991 2.991" stroke-linecap="round" stroke-linejoin="round" stroke="#151515" fill="none" d="M196.463 147.726h160.041"/><path class="a984f3b6-12b4-4ec3-869a-d13ce48d58e3" d="M358 147.726h1.5v1.5"/><path stroke-dasharray="2.888 2.888" stroke-linecap="round" stroke-linejoin="round" stroke="#151515" fill="none" d="M359.5 152.114v44.766"/><path class="a984f3b6-12b4-4ec3-869a-d13ce48d58e3" d="M359.5 198.324v1.5"/><path class="a05201b3-adfc-4289-a67f-2a9510b0a454" d="M354.514 198.365L359.5 207l4.986-8.635h-9.972z"/></g><path stroke-width="8" stroke="#fff" stroke-linecap="round" stroke-linejoin="round" fill="none" d="M268.255 123.726v9h350.859V207"/><g><path class="a984f3b6-12b4-4ec3-869a-d13ce48d58e3" d="M268.255 123.726v1.5"/><path stroke-dasharray="2 2" stroke-linecap="round" stroke-linejoin="round" stroke="#151515" fill="none" d="M268.255 127.226v3"/><path class="a984f3b6-12b4-4ec3-869a-d13ce48d58e3" d="M268.255 131.226v1.5h1.5"/><path stroke-dasharray="3.025 3.025" stroke-linecap="round" stroke-linejoin="round" stroke="#151515" fill="none" d="M272.78 132.726h343.321"/><path class="a984f3b6-12b4-4ec3-869a-d13ce48d58e3" d="M617.614 132.726h1.5v1.5"/><path stroke-dasharray="3.052 3.052" stroke-linecap="round" stroke-linejoin="round" stroke="#151515" fill="none" d="M619.114 137.278v59.52"/><path class="a984f3b6-12b4-4ec3-869a-d13ce48d58e3" d="M619.114 198.324v1.5"/><path class="a05201b3-adfc-4289-a67f-2a9510b0a454" d="M614.127 198.365l4.987 8.635 4.986-8.635h-9.973z"/></g><path d="M260 290.5v36H16v-36h244m1-1H15v38h246v-38z" fill="#d5d5d5"/><text transform="translate(101.893 311.547)" fill="#c4c4c4" font-size="11" font-family="RedHatText,&quot;Red Hat Text&quot;,Overpass,&quot;Helvetica Neue&quot;,Arial,sans-serif" font-weight="500">Bootstrap VM</text><g><path class="b7c3d619-72dc-481b-bfc8-32c2be74231e" d="M538.5 209.5h221V378h-221z"/><text class="bd8062d0-eb40-4cfe-a35f-bffd82ad969c" transform="translate(552.467 234.604)"><tspan>Worker nodes xN</tspan></text></g><g><path class="b0742dfc-5410-4c52-a6f2-766474430bc8" d="M161.678 342.5H.455V363h161.223c5.661 0 5.661-20.5 0-20.5z"/><path d="M161.678 342.5H.455V363h161.223c5.661 0 5.661-20.5 0-20.5z" fill="url(#a8f90f31-82e1-4660-abe6-3cf7e4b47de8)"/><text class="be191529-b7a0-4569-a848-4c4a1c542d0e" transform="translate(55.661 356.074)">Provisioning bridge</text><path class="b0742dfc-5410-4c52-a6f2-766474430bc8" d="M41.223 342.5H0V363h41.223c5.661 0 5.661-20.5 0-20.5z"/><text class="be191529-b7a0-4569-a848-4c4a1c542d0e" transform="translate(11.671 356.074)">eno1</text><g><path class="b40f1568-686b-4070-873d-51dba31ef69e" d="M161.664 254.5H.455V275h161.209c5.661 0 5.661-20.5 0-20.5z"/><path d="M161.664 254.5H.455V275h161.209c5.661 0 5.661-20.5 0-20.5z" fill="url(#f3266639-a90e-4fef-9ffa-80f0292e14b4)"/><text class="be191529-b7a0-4569-a848-4c4a1c542d0e" transform="translate(55.677 269.349)">Baremetal bridge</text><g><path class="b40f1568-686b-4070-873d-51dba31ef69e" d="M41.209 254.5H0V275h41.209c5.661 0 5.661-20.5 0-20.5z"/><text class="be191529-b7a0-4569-a848-4c4a1c542d0e" transform="translate(11.671 269.349)">eno2</text></g></g></g><circle class="bfd550c0-b412-4c49-8774-c542f0ecbd4d" cx="268.255" cy="113.371" r="9.355"/><text class="b5fbb3e3-9668-4991-b54f-f1c03ad9c12d" transform="translate(239.271 98.016)">Ingress VIP</text><circle class="bfd550c0-b412-4c49-8774-c542f0ecbd4d" cx="191.972" cy="113.371" r="9.355"/><text class="b5fbb3e3-9668-4991-b54f-f1c03ad9c12d" transform="translate(172.552 98.016)">API VIP</text></g></g></svg>