<svg xmlns="http://www.w3.org/2000/svg" width="760" height="443"><defs><pattern id="b09ff08e-d3e8-46ce-b695-3b6898ffbef0" data-name="diaginal hash (gray)" width="50" height="50" patternUnits="userSpaceOnUse"><path class="bf0e407c-8a2a-458b-9f43-d287cc26b913" d="M0 0h50v50H0z"/><path class="fc93a53b-5f39-43a7-919c-6e328c8a1c68" d="M50 50v.707l.707-.707H50zM54.849 50L50 54.849v1.414L56.263 50h-1.414zM60.404 50L50 60.404v1.414L61.818 50h-1.414zM65.96 50L50 65.96v1.414L67.374 50H65.96zM71.515 50L50 71.515v1.414L72.929 50h-1.414zM77.071 50L50 77.071v1.414L78.485 50h-1.414zM82.626 50L50 82.626v1.414L84.041 50h-1.415zM88.182 50L50 88.182v1.414L89.596 50h-1.414zM93.737 50L50 93.737v1.414L95.151 50h-1.414zM100 50h-.707L50 99.293V100h.707L100 50.707V50z"/><g><path class="fc93a53b-5f39-43a7-919c-6e328c8a1c68" d="M0 50v.707L.707 50H0zM4.849 50L0 54.849v1.414L6.263 50H4.849zM10.404 50L0 60.404v1.414L11.818 50h-1.414zM15.96 50L0 65.96v1.414L17.374 50H15.96zM21.515 50L0 71.515v1.414L22.929 50h-1.414zM27.071 50L0 77.071v1.414L28.485 50h-1.414zM32.626 50L0 82.626v1.414L34.041 50h-1.415zM38.182 50L0 88.182v1.414L39.596 50h-1.414zM43.737 50L0 93.737v1.414L45.151 50h-1.414zM50 50h-.707L0 99.293V100h.707L50 50.707V50z"/></g><path class="fc93a53b-5f39-43a7-919c-6e328c8a1c68" d="M0 50h-.707L-50 99.293V100h.707L0 50.707V50z"/><g><path class="fc93a53b-5f39-43a7-919c-6e328c8a1c68" d="M50 0v.707L50.707 0H50zM54.849 0L50 4.849v1.414L56.263 0h-1.414zM60.404 0L50 10.404v1.414L61.818 0h-1.414zM65.96 0L50 15.96v1.414L67.374 0H65.96zM71.515 0L50 21.515v1.414L72.929 0h-1.414zM77.071 0L50 27.071v1.414L78.485 0h-1.414zM82.626 0L50 32.626v1.414L84.041 0h-1.415zM88.182 0L50 38.182v1.414L89.596 0h-1.414zM93.737 0L50 43.737v1.414L95.151 0h-1.414zM100 0h-.707L50 49.293V50h.707L100 .707V0z"/></g><g><path class="fc93a53b-5f39-43a7-919c-6e328c8a1c68" d="M0 0v.707L.707 0H0zM4.849 0L0 4.849v1.414L6.263 0H4.849zM10.404 0L0 10.404v1.414L11.818 0h-1.414zM15.96 0L0 15.96v1.414L17.374 0H15.96zM21.515 0L0 21.515v1.414L22.929 0h-1.414zM27.071 0L0 27.071v1.414L28.485 0h-1.414zM32.626 0L0 32.626v1.414L34.041 0h-1.415zM38.182 0L0 38.182v1.414L39.596 0h-1.414zM43.737 0L0 43.737v1.414L45.151 0h-1.414zM50 0h-.707L0 49.293V50h.707L50 .707V0zM6.263 50L50 6.262V4.848L4.849 50h1.414zM11.818 50L50 11.818v-1.414L10.404 50h1.414zM17.374 50L50 17.374V15.96L15.96 50h1.414zM22.929 50L50 22.929v-1.414L21.515 50h1.414zM28.485 50L50 28.485v-1.414L27.071 50h1.414zM34.04 50L50 34.04v-1.414L32.626 50h1.414zM39.596 50L50 39.596v-1.414L38.182 50h1.414zM45.151 50L50 45.151v-1.414L43.737 50h1.414zM50 50v-.707l-.707.707H50z"/></g><g><path class="fc93a53b-5f39-43a7-919c-6e328c8a1c68" d="M0 0h-.707L-50 49.293V50h.707L0 .707V0zM-43.737 50L0 6.262V4.848L-45.151 50h1.414zM-38.182 50L0 11.818v-1.414L-39.596 50h1.414zM-32.626 50L0 17.374V15.96L-34.04 50h1.414zM-27.071 50L0 22.929v-1.414L-28.485 50h1.414zM-21.515 50L0 28.485v-1.414L-22.929 50h1.414zM-15.96 50L0 34.04v-1.414L-17.374 50h1.414zM-10.404 50L0 39.596v-1.414L-11.818 50h1.414zM-4.849 50L0 45.151v-1.414L-6.263 50h1.414zM0 50v-.707L-.707 50H0z"/></g><path class="fc93a53b-5f39-43a7-919c-6e328c8a1c68" d="M100-50h-.707L50-.707V0h.707L100-49.293V-50z"/><g><path class="fc93a53b-5f39-43a7-919c-6e328c8a1c68" d="M50-50h-.707L0-.707V0h.707L50-49.293V-50zM6.263 0L50-43.738v-1.414L4.849 0h1.414zM11.818 0L50-38.182v-1.414L10.404 0h1.414zM17.374 0L50-32.626v-1.414L15.96 0h1.414zM22.929 0L50-27.071v-1.414L21.515 0h1.414zM28.485 0L50-21.515v-1.414L27.071 0h1.414zM34.04 0L50-15.96v-1.414L32.626 0h1.414zM39.596 0L50-10.404v-1.414L38.182 0h1.414zM45.151 0L50-4.849v-1.414L43.737 0h1.414zM50 0v-.707L49.293 0H50z"/></g><g><path class="fc93a53b-5f39-43a7-919c-6e328c8a1c68" d="M0-50h-.707L-50-.707V0h.707L0-49.293V-50zM-43.737 0L0-43.738v-1.414L-45.151 0h1.414zM-38.182 0L0-38.182v-1.414L-39.596 0h1.414zM-32.626 0L0-32.626v-1.414L-34.04 0h1.414zM-27.071 0L0-27.071v-1.414L-28.485 0h1.414zM-21.515 0L0-21.515v-1.414L-22.929 0h1.414zM-15.96 0L0-15.96v-1.414L-17.374 0h1.414zM-10.404 0L0-10.404v-1.414L-11.818 0h1.414zM-4.849 0L0-4.849v-1.414L-6.263 0h1.414zM0 0v-.707L-.707 0H0z"/></g></pattern><pattern id="b0d75383-511f-4489-968e-7833803cb5c9" data-name="diaginal hash (gray)" width="50" height="50" patternTransform="translate(-124.569 190.023)" patternUnits="userSpaceOnUse"><path class="bf0e407c-8a2a-458b-9f43-d287cc26b913" d="M0 0h50v50H0z"/><path class="fc93a53b-5f39-43a7-919c-6e328c8a1c68" d="M50 50v.707l.707-.707H50zM54.849 50L50 54.849v1.414L56.263 50h-1.414zM60.404 50L50 60.404v1.414L61.818 50h-1.414zM65.96 50L50 65.96v1.414L67.374 50H65.96zM71.515 50L50 71.515v1.414L72.929 50h-1.414zM77.071 50L50 77.071v1.414L78.485 50h-1.414zM82.626 50L50 82.626v1.414L84.041 50h-1.415zM88.182 50L50 88.182v1.414L89.596 50h-1.414zM93.737 50L50 93.737v1.414L95.151 50h-1.414zM100 50h-.707L50 99.293V100h.707L100 50.707V50z"/><g><path class="fc93a53b-5f39-43a7-919c-6e328c8a1c68" d="M0 50v.707L.707 50H0zM4.849 50L0 54.849v1.414L6.263 50H4.849zM10.404 50L0 60.404v1.414L11.818 50h-1.414zM15.96 50L0 65.96v1.414L17.374 50H15.96zM21.515 50L0 71.515v1.414L22.929 50h-1.414zM27.071 50L0 77.071v1.414L28.485 50h-1.414zM32.626 50L0 82.626v1.414L34.041 50h-1.415zM38.182 50L0 88.182v1.414L39.596 50h-1.414zM43.737 50L0 93.737v1.414L45.151 50h-1.414zM50 50h-.707L0 99.293V100h.707L50 50.707V50z"/></g><path class="fc93a53b-5f39-43a7-919c-6e328c8a1c68" d="M0 50h-.707L-50 99.293V100h.707L0 50.707V50z"/><g><path class="fc93a53b-5f39-43a7-919c-6e328c8a1c68" d="M50 0v.707L50.707 0H50zM54.849 0L50 4.849v1.414L56.263 0h-1.414zM60.404 0L50 10.404v1.414L61.818 0h-1.414zM65.96 0L50 15.96v1.414L67.374 0H65.96zM71.515 0L50 21.515v1.414L72.929 0h-1.414zM77.071 0L50 27.071v1.414L78.485 0h-1.414zM82.626 0L50 32.626v1.414L84.041 0h-1.415zM88.182 0L50 38.182v1.414L89.596 0h-1.414zM93.737 0L50 43.737v1.414L95.151 0h-1.414zM100 0h-.707L50 49.293V50h.707L100 .707V0z"/></g><g><path class="fc93a53b-5f39-43a7-919c-6e328c8a1c68" d="M0 0v.707L.707 0H0zM4.849 0L0 4.849v1.414L6.263 0H4.849zM10.404 0L0 10.404v1.414L11.818 0h-1.414zM15.96 0L0 15.96v1.414L17.374 0H15.96zM21.515 0L0 21.515v1.414L22.929 0h-1.414zM27.071 0L0 27.071v1.414L28.485 0h-1.414zM32.626 0L0 32.626v1.414L34.041 0h-1.415zM38.182 0L0 38.182v1.414L39.596 0h-1.414zM43.737 0L0 43.737v1.414L45.151 0h-1.414zM50 0h-.707L0 49.293V50h.707L50 .707V0zM6.263 50L50 6.262V4.848L4.849 50h1.414zM11.818 50L50 11.818v-1.414L10.404 50h1.414zM17.374 50L50 17.374V15.96L15.96 50h1.414zM22.929 50L50 22.929v-1.414L21.515 50h1.414zM28.485 50L50 28.485v-1.414L27.071 50h1.414zM34.04 50L50 34.04v-1.414L32.626 50h1.414zM39.596 50L50 39.596v-1.414L38.182 50h1.414zM45.151 50L50 45.151v-1.414L43.737 50h1.414zM50 50v-.707l-.707.707H50z"/></g><g><path class="fc93a53b-5f39-43a7-919c-6e328c8a1c68" d="M0 0h-.707L-50 49.293V50h.707L0 .707V0zM-43.737 50L0 6.262V4.848L-45.151 50h1.414zM-38.182 50L0 11.818v-1.414L-39.596 50h1.414zM-32.626 50L0 17.374V15.96L-34.04 50h1.414zM-27.071 50L0 22.929v-1.414L-28.485 50h1.414zM-21.515 50L0 28.485v-1.414L-22.929 50h1.414zM-15.96 50L0 34.04v-1.414L-17.374 50h1.414zM-10.404 50L0 39.596v-1.414L-11.818 50h1.414zM-4.849 50L0 45.151v-1.414L-6.263 50h1.414zM0 50v-.707L-.707 50H0z"/></g><path class="fc93a53b-5f39-43a7-919c-6e328c8a1c68" d="M100-50h-.707L50-.707V0h.707L100-49.293V-50z"/><g><path class="fc93a53b-5f39-43a7-919c-6e328c8a1c68" d="M50-50h-.707L0-.707V0h.707L50-49.293V-50zM6.263 0L50-43.738v-1.414L4.849 0h1.414zM11.818 0L50-38.182v-1.414L10.404 0h1.414zM17.374 0L50-32.626v-1.414L15.96 0h1.414zM22.929 0L50-27.071v-1.414L21.515 0h1.414zM28.485 0L50-21.515v-1.414L27.071 0h1.414zM34.04 0L50-15.96v-1.414L32.626 0h1.414zM39.596 0L50-10.404v-1.414L38.182 0h1.414zM45.151 0L50-4.849v-1.414L43.737 0h1.414zM50 0v-.707L49.293 0H50z"/></g><g><path class="fc93a53b-5f39-43a7-919c-6e328c8a1c68" d="M0-50h-.707L-50-.707V0h.707L0-49.293V-50zM-43.737 0L0-43.738v-1.414L-45.151 0h1.414zM-38.182 0L0-38.182v-1.414L-39.596 0h1.414zM-32.626 0L0-32.626v-1.414L-34.04 0h1.414zM-27.071 0L0-27.071v-1.414L-28.485 0h1.414zM-21.515 0L0-21.515v-1.414L-22.929 0h1.414zM-15.96 0L0-15.96v-1.414L-17.374 0h1.414zM-10.404 0L0-10.404v-1.414L-11.818 0h1.414zM-4.849 0L0-4.849v-1.414L-6.263 0h1.414zM0 0v-.707L-.707 0H0z"/></g></pattern><style>.a222497f-2890-4977-b4ca-388e79310214,.aa9cc1fa-ef79-4c76-a5da-bf97db65b2f4,.ad200c99-ddaa-4298-b428-7da860f5316a,.b72c25f3-11f4-4c51-b2f1-66b60b9d4c01,.bc9170c9-9185-4c65-aa1a-e3aceae4d93d,.bd31f5dd-9161-4878-b2dc-a5fb413999d7,.be5fe257-5f8a-492b-9a87-29a5001ccd1d,.beb6c92d-00f8-4ddb-8105-68be0733d373,.bf0e407c-8a2a-458b-9f43-d287cc26b913,.f5388254-faa7-42d9-a902-6ccca13af9ac,.fac0a436-0134-494a-b203-220c4e3dec82{fill:none}.b5d9c64e-4366-4eeb-ac77-7dd4251f3f0e,.b8b556ad-9555-4af3-94e4-1a6d25e7718e,.fc93a53b-5f39-43a7-919c-6e328c8a1c68{fill:#151515}.aa9cc1fa-ef79-4c76-a5da-bf97db65b2f4,.b72c25f3-11f4-4c51-b2f1-66b60b9d4c01,.bd31f5dd-9161-4878-b2dc-a5fb413999d7,.be5fe257-5f8a-492b-9a87-29a5001ccd1d,.fc93a53b-5f39-43a7-919c-6e328c8a1c68{stroke:#151515}.fc93a53b-5f39-43a7-919c-6e328c8a1c68{stroke-miterlimit:10}.ad200c99-ddaa-4298-b428-7da860f5316a{stroke:#5e40be}.a222497f-2890-4977-b4ca-388e79310214,.aa9cc1fa-ef79-4c76-a5da-bf97db65b2f4,.ad200c99-ddaa-4298-b428-7da860f5316a,.b0915b5f-1da5-4952-9fc6-12366002d9e1,.b2aca04f-d8a2-4913-9078-31af5d026822,.b72c25f3-11f4-4c51-b2f1-66b60b9d4c01,.bc9170c9-9185-4c65-aa1a-e3aceae4d93d,.bd31f5dd-9161-4878-b2dc-a5fb413999d7,.be5fe257-5f8a-492b-9a87-29a5001ccd1d,.beb6c92d-00f8-4ddb-8105-68be0733d373,.f5388254-faa7-42d9-a902-6ccca13af9ac,.fac0a436-0134-494a-b203-220c4e3dec82{stroke-linecap:round;stroke-linejoin:round}.ad200c99-ddaa-4298-b428-7da860f5316a,.b2aca04f-d8a2-4913-9078-31af5d026822,.bc9170c9-9185-4c65-aa1a-e3aceae4d93d,.beb6c92d-00f8-4ddb-8105-68be0733d373,.f5388254-faa7-42d9-a902-6ccca13af9ac,.fac0a436-0134-494a-b203-220c4e3dec82{stroke-width:2px}.eeb4abbf-012c-4b28-ba6c-2e7d8689c94c{fill:#e8e8e8}.b2aca04f-d8a2-4913-9078-31af5d026822,.bc9170c9-9185-4c65-aa1a-e3aceae4d93d{stroke:#06c}.b8b556ad-9555-4af3-94e4-1a6d25e7718e,.f7022370-7247-402c-a745-de6ca91fb9ac{font-size:11px;font-family:RedHatText,&quot;Red Hat Text&quot;,Overpass,&quot;Helvetica Neue&quot;,Arial,sans-serif;font-weight:500}.fac0a436-0134-494a-b203-220c4e3dec82{stroke:#4cb6d6}.a579c76d-9959-4c30-9166-2ca6973bf7b0{font-size:12px;font-family:RedHatText,&quot;Red Hat Text&quot;,Overpass,&quot;Helvetica Neue&quot;,Arial,sans-serif;font-weight:700}.aa9cc1fa-ef79-4c76-a5da-bf97db65b2f4{stroke-dasharray:2 2}.bd31f5dd-9161-4878-b2dc-a5fb413999d7{stroke-dasharray:3.071 3.071}.b72c25f3-11f4-4c51-b2f1-66b60b9d4c01{stroke-dasharray:2.941 2.941}.b0915b5f-1da5-4952-9fc6-12366002d9e1,.b2aca04f-d8a2-4913-9078-31af5d026822,.e60b60ad-c348-42b3-a68e-5e9d538fff33,.f7022370-7247-402c-a745-de6ca91fb9ac{fill:#fff}.beb6c92d-00f8-4ddb-8105-68be0733d373{stroke:#c0d682}.a222497f-2890-4977-b4ca-388e79310214,.b0915b5f-1da5-4952-9fc6-12366002d9e1,.f5388254-faa7-42d9-a902-6ccca13af9ac{stroke:#5b5b5b}.a222497f-2890-4977-b4ca-388e79310214,.b0915b5f-1da5-4952-9fc6-12366002d9e1{stroke-width:1.5px}.a579c76d-9959-4c30-9166-2ca6973bf7b0{fill:#dcdcdc}.a13101b8-a20d-468c-9a89-a4d38c3d611f{fill:#5e40be}.f336ff52-a0fb-417f-98bb-527c2a633de2{opacity:.35;mix-blend-mode:multiply}.e83f48e6-dff3-4379-8d05-a32e3bb700c9{fill:#06c}</style></defs><g style="isolation:isolate"><g id="f9facb27-c0e4-464c-b69f-6ae78dc0ce75" data-name="artwork"><path class="ad200c99-ddaa-4298-b428-7da860f5316a" d="M649 378v25M409.5 378v25"/><path class="eeb4abbf-012c-4b28-ba6c-2e7d8689c94c" d="M0 209.5h281V378H0z"/><path class="ad200c99-ddaa-4298-b428-7da860f5316a" d="M0 403h760"/><path class="bc9170c9-9185-4c65-aa1a-e3aceae4d93d" d="M0 114.017h760"/><text class="b8b556ad-9555-4af3-94e4-1a6d25e7718e" transform="translate(0 104.017)">Baremetal network</text><text class="b8b556ad-9555-4af3-94e4-1a6d25e7718e" transform="translate(1 419.817)">Provisioning network (optional)</text><path class="ad200c99-ddaa-4298-b428-7da860f5316a" d="M22.727 403v-50.25"/><path class="bc9170c9-9185-4c65-aa1a-e3aceae4d93d" d="M22.727 114.009V264.25"/><text transform="translate(673.981 422.834)" font-size="10" fill="#f3f3f3" font-family="RedHatText,&quot;Red Hat Text&quot;,Overpass,&quot;Helvetica Neue&quot;,Arial,sans-serif">71_OpenShift_1020</text><path class="bf0e407c-8a2a-458b-9f43-d287cc26b913" d="M0 399.817h760v40H0z"/><path class="fac0a436-0134-494a-b203-220c4e3dec82" d="M0 38.672h760"/><text class="b8b556ad-9555-4af3-94e4-1a6d25e7718e" transform="translate(.5 28.671)">Internet access</text><path class="ad200c99-ddaa-4298-b428-7da860f5316a" d="M183.217 327.5v25.25h-17.293"/><path class="bc9170c9-9185-4c65-aa1a-e3aceae4d93d" d="M183.217 289.5v-25.25h-17.293"/><path class="eeb4abbf-012c-4b28-ba6c-2e7d8689c94c" d="M41.209 219.5H0V240h41.209c5.661 0 5.661-20.5 0-20.5z"/><path fill="#d0d0d0" d="M15 289.5h246v38H15z"/><text class="b8b556ad-9555-4af3-94e4-1a6d25e7718e" transform="translate(101.893 311.547)">Bootstrap VM</text><text transform="translate(15 234.604)" font-size="12" font-family="RedHatText,&quot;Red Hat Text&quot;,Overpass,&quot;Helvetica Neue&quot;,Arial,sans-serif" font-weight="700" fill="#151515">Provisioning node</text><path class="be5fe257-5f8a-492b-9a87-29a5001ccd1d" d="M191.972 123.726v1.5"/><path class="aa9cc1fa-ef79-4c76-a5da-bf97db65b2f4" d="M191.972 127.226v3"/><path class="be5fe257-5f8a-492b-9a87-29a5001ccd1d" d="M191.972 131.226v1.5h1.5"/><path class="bd31f5dd-9161-4878-b2dc-a5fb413999d7" d="M196.543 132.726h23.035"/><path class="be5fe257-5f8a-492b-9a87-29a5001ccd1d" d="M221.114 132.726h1.5v1.5"/><path class="b72c25f3-11f4-4c51-b2f1-66b60b9d4c01" d="M222.614 137.167v139.686"/><path class="be5fe257-5f8a-492b-9a87-29a5001ccd1d" d="M222.614 278.324v1.5"/><path class="b5d9c64e-4366-4eeb-ac77-7dd4251f3f0e" d="M217.627 278.365l4.987 8.635 4.986-8.635h-9.973z"/><path class="be5fe257-5f8a-492b-9a87-29a5001ccd1d" d="M268.255 123.726v1.5"/><path class="aa9cc1fa-ef79-4c76-a5da-bf97db65b2f4" d="M268.255 127.226v3"/><path class="be5fe257-5f8a-492b-9a87-29a5001ccd1d" d="M268.255 131.226v1.5h-1.5"/><path class="bd31f5dd-9161-4878-b2dc-a5fb413999d7" d="M263.684 132.726h-23.035"/><path class="be5fe257-5f8a-492b-9a87-29a5001ccd1d" d="M239.114 132.726h-1.5v1.5"/><path class="b72c25f3-11f4-4c51-b2f1-66b60b9d4c01" d="M237.614 137.167v139.686"/><path class="be5fe257-5f8a-492b-9a87-29a5001ccd1d" d="M237.614 278.324v1.5"/><path class="b5d9c64e-4366-4eeb-ac77-7dd4251f3f0e" d="M232.627 278.365l4.987 8.635 4.986-8.635h-9.973z"/><circle class="b2aca04f-d8a2-4913-9078-31af5d026822" cx="268.255" cy="113.371" r="9.355"/><text class="b8b556ad-9555-4af3-94e4-1a6d25e7718e" transform="translate(239.271 98.016)">Ingress VIP</text><circle class="b2aca04f-d8a2-4913-9078-31af5d026822" cx="191.972" cy="113.371" r="9.355"/><text class="b8b556ad-9555-4af3-94e4-1a6d25e7718e" transform="translate(172.552 98.016)">API VIP</text><path class="bc9170c9-9185-4c65-aa1a-e3aceae4d93d" d="M639 114.017V209.5"/><path stroke="#fff" stroke-width="10" stroke-linecap="round" stroke-linejoin="round" fill="none" d="M617.425 189.5H645.5"/><path class="beb6c92d-00f8-4ddb-8105-68be0733d373" d="M760 189.5H419.832v20M659 189.5v20"/><path class="bc9170c9-9185-4c65-aa1a-e3aceae4d93d" d="M399.5 114.017V209.5"/><text class="b8b556ad-9555-4af3-94e4-1a6d25e7718e" transform="translate(418.832 167.501)">Out-of-Band Management<tspan x="0" y="12">network (optional)</tspan></text><path class="bc9170c9-9185-4c65-aa1a-e3aceae4d93d" d="M689.778 114.069v20"/><g><text class="b8b556ad-9555-4af3-94e4-1a6d25e7718e" transform="translate(672.001 164.414)">Router</text><path class="b0915b5f-1da5-4952-9fc6-12366002d9e1" d="M662.278 134.069h55v13.75h-55z"/><path class="f5388254-faa7-42d9-a902-6ccca13af9ac" d="M711.398 139.966"/><path class="a222497f-2890-4977-b4ca-388e79310214" d="M668.17 138.931v3.965M674.063 138.931v3.965M679.956 138.931v3.965M685.849 138.931v3.965M691.742 138.931v3.965M697.635 138.931v3.965"/></g><path class="beb6c92d-00f8-4ddb-8105-68be0733d373" d="M689.778 169.5v20"/><g><path class="e60b60ad-c348-42b3-a68e-5e9d538fff33" d="M299.5 210h220v167.5h-220z"/><path class="eeb4abbf-012c-4b28-ba6c-2e7d8689c94c" d="M519 210.5V377H300V210.5h219m1-1H299V378h221V209.5z"/><text class="a579c76d-9959-4c30-9166-2ca6973bf7b0" transform="translate(314 234.604)"><tspan>Control plane nodes x3</tspan></text></g><g><path class="e60b60ad-c348-42b3-a68e-5e9d538fff33" d="M539 210h220v167.5H539z"/><path class="eeb4abbf-012c-4b28-ba6c-2e7d8689c94c" d="M758.5 210.5V377h-219V210.5h219m1-1h-221V378h221V209.5z"/><text class="a579c76d-9959-4c30-9166-2ca6973bf7b0" transform="translate(552.467 234.604)"><tspan>Worker nodes xN</tspan></text></g><path class="bc9170c9-9185-4c65-aa1a-e3aceae4d93d" d="M436.439 94.017v20"/><path class="fac0a436-0134-494a-b203-220c4e3dec82" d="M436.439 38.672v20"/><g><text class="b8b556ad-9555-4af3-94e4-1a6d25e7718e" transform="translate(418.663 89.017)">Router</text><path class="b0915b5f-1da5-4952-9fc6-12366002d9e1" d="M408.939 58.672h55v13.75h-55z"/><path class="f5388254-faa7-42d9-a902-6ccca13af9ac" d="M458.06 64.569"/><path class="a222497f-2890-4977-b4ca-388e79310214" d="M414.832 63.535v3.964M420.725 63.535v3.964M426.618 63.535v3.964M432.511 63.535v3.964M438.403 63.535v3.964M444.296 63.535v3.964"/></g><path class="bc9170c9-9185-4c65-aa1a-e3aceae4d93d" d="M518.252 94.017v20"/><g><text class="b8b556ad-9555-4af3-94e4-1a6d25e7718e" transform="translate(484.878 89.838)">DHCP server</text><path class="b0915b5f-1da5-4952-9fc6-12366002d9e1" d="M490.684 59.493h55v13.75h-55z"/><path class="f5388254-faa7-42d9-a902-6ccca13af9ac" d="M539.805 65.39"/><path class="a222497f-2890-4977-b4ca-388e79310214" d="M497.42 67.35h8.25"/></g><path class="bc9170c9-9185-4c65-aa1a-e3aceae4d93d" d="M601.063 94.017v20"/><g><text class="b8b556ad-9555-4af3-94e4-1a6d25e7718e" transform="translate(571.814 89.838)">DNS server</text><path class="b0915b5f-1da5-4952-9fc6-12366002d9e1" d="M573.495 59.493h55v13.75h-55z"/><path class="f5388254-faa7-42d9-a902-6ccca13af9ac" d="M622.616 65.39"/><path class="a222497f-2890-4977-b4ca-388e79310214" d="M580.23 67.35h8.25"/></g><g><path class="a13101b8-a20d-468c-9a89-a4d38c3d611f" d="M161.678 342.5H.455V363h161.223c5.661 0 5.661-20.5 0-20.5z"/><path d="M161.678 342.5H.455V363h161.223c5.661 0 5.661-20.5 0-20.5z" fill="url(#b09ff08e-d3e8-46ce-b695-3b6898ffbef0)"/><text class="f7022370-7247-402c-a745-de6ca91fb9ac" transform="translate(55.661 356.074)">Provisioning bridge</text><path class="a13101b8-a20d-468c-9a89-a4d38c3d611f" d="M41.223 342.5H0V363h41.223c5.661 0 5.661-20.5 0-20.5z"/><text class="f7022370-7247-402c-a745-de6ca91fb9ac" transform="translate(11.671 356.074)">eno1</text></g><g><path class="e83f48e6-dff3-4379-8d05-a32e3bb700c9" d="M161.664 254.5H.455V275h161.209c5.661 0 5.661-20.5 0-20.5z"/><path d="M161.664 254.5H.455V275h161.209c5.661 0 5.661-20.5 0-20.5z" fill="url(#b0d75383-511f-4489-968e-7833803cb5c9)"/><text class="f7022370-7247-402c-a745-de6ca91fb9ac" transform="translate(55.677 269.349)">Baremetal bridge</text><g><path class="e83f48e6-dff3-4379-8d05-a32e3bb700c9" d="M41.209 254.5H0V275h41.209c5.661 0 5.661-20.5 0-20.5z"/><text class="f7022370-7247-402c-a745-de6ca91fb9ac" transform="translate(11.671 269.349)">eno2</text></g></g></g></g></svg>