<svg id="bb6b8a64-8f51-4025-bd23-a987cc715d52" data-name="artwork" xmlns="http://www.w3.org/2000/svg" width="760" height="217.136"><defs><style>.a661f964-97fe-42a8-af33-d49ae491aff5,.b030f6f9-7ff7-4cff-a60f-8a678d2cb485{fill:#151515}.b6b9ac2e-4a3f-4c5c-b5e9-66fcadc4be31{fill:#fff}.a661f964-97fe-42a8-af33-d49ae491aff5{font-size:11px;font-family:RedHatText,&quot;Red Hat Text&quot;,Overpass,&quot;Helvetica Neue&quot;,Arial,sans-serif;font-weight:500}.af96bacb-42c2-4fb5-92c3-2090573e259c{fill:none;stroke:#151515;stroke-linecap:round;stroke-linejoin:round}</style></defs><path fill="#e8e8e8" d="M0 20h620v180H0z"/><text transform="translate(25 56.788)" fill="#151515" font-size="14" font-family="RedHatText,&quot;Red Hat Text&quot;,Overpass,&quot;Helvetica Neue&quot;,Arial,sans-serif" font-weight="700">RAN boundary</text><path class="b6b9ac2e-4a3f-4c5c-b5e9-66fcadc4be31" transform="rotate(-180 505 75)" d="M415 45h180v60H415z"/><text class="a661f964-97fe-42a8-af33-d49ae491aff5" transform="translate(459.395 72.047)">Central unit (CU),<tspan x="11.764" y="12">control plane</tspan></text><path class="b6b9ac2e-4a3f-4c5c-b5e9-66fcadc4be31" transform="rotate(-180 505 145)" d="M415 115h180v60H415z"/><text class="a661f964-97fe-42a8-af33-d49ae491aff5" transform="translate(459.395 142.047)">Central unit (CU),<tspan x="17.858" y="12">user plane</tspan></text><text transform="translate(671.531 200.153)" font-size="10" fill="#f3f3f3" font-family="RedHatText,&quot;Red Hat Text&quot;,Overpass,&quot;Helvetica Neue&quot;,Arial,sans-serif">135_OpenShift_0121</text><path fill="none" d="M0 177.136h760v40H0z"/><path class="af96bacb-42c2-4fb5-92c3-2090573e259c" d="M405.324 75H390v27.5h-17.824"/><path class="b030f6f9-7ff7-4cff-a60f-8a678d2cb485" d="M403.865 70.014L412.5 75l-8.635 4.986v-9.972zM373.635 97.514L365 102.5l8.635 4.986v-9.972z"/><path class="af96bacb-42c2-4fb5-92c3-2090573e259c" d="M405.324 145H390v-27.5h-17.824"/><path class="b030f6f9-7ff7-4cff-a60f-8a678d2cb485" d="M403.865 140.014L412.5 145l-8.635 4.986v-9.972zM373.635 112.514L365 117.5l8.635 4.986v-9.972z"/><g><path class="af96bacb-42c2-4fb5-92c3-2090573e259c" d="M202.837 110h-18.148"/><path class="b030f6f9-7ff7-4cff-a60f-8a678d2cb485" d="M201.378 105.014l8.635 4.986-8.635 4.986v-9.972zM186.148 105.014L177.513 110l8.635 4.986v-9.972z"/></g><path class="b6b9ac2e-4a3f-4c5c-b5e9-66fcadc4be31" transform="rotate(-180 287.5 110)" d="M212.5 80h150v60h-150z"/><text class="a661f964-97fe-42a8-af33-d49ae491aff5" transform="translate(233.046 112.547)">Distributed unit (DU)</text><path class="b6b9ac2e-4a3f-4c5c-b5e9-66fcadc4be31" transform="rotate(-180 100 110)" d="M25 80h150v60H25z"/><text class="a661f964-97fe-42a8-af33-d49ae491aff5" transform="translate(60.45 112.547)">Radio unit (RU)</text></svg>