<svg id="af599583-8f7c-4d39-81fa-01ee3e70621d" data-name="artwork" xmlns="http://www.w3.org/2000/svg" width="760" height="632"><defs><style>.aee22aac-5020-4163-bb96-f4e5ec519370,.b1c633a7-b30c-4652-89eb-c7987bbb3627,.b26e95b2-14f7-4732-9700-a55a801966ce,.b56e02ed-034b-4d60-a013-72c07ec4d1eb,.b9320a21-4d9d-4996-aa38-8c299cce6565,.bd38a36e-5c46-4a0f-84ea-d3a181d6b760,.e97d0968-7ba7-4d12-acf0-9fae498f9f03,.f4886633-784b-41aa-a012-41e1582a5cd4{fill:none}.aee22aac-5020-4163-bb96-f4e5ec519370,.b9320a21-4d9d-4996-aa38-8c299cce6565,.e97d0968-7ba7-4d12-acf0-9fae498f9f03{stroke:#c4c4c4}.aee22aac-5020-4163-bb96-f4e5ec519370,.b1c633a7-b30c-4652-89eb-c7987bbb3627,.b26e95b2-14f7-4732-9700-a55a801966ce,.b56e02ed-034b-4d60-a013-72c07ec4d1eb,.b9320a21-4d9d-4996-aa38-8c299cce6565,.e97d0968-7ba7-4d12-acf0-9fae498f9f03{stroke-linecap:round;stroke-linejoin:round}.aee22aac-5020-4163-bb96-f4e5ec519370{stroke-dasharray:2.988 2.988}.b9320a21-4d9d-4996-aa38-8c299cce6565{stroke-dasharray:3.024 3.024}.acbc63a0-fdc8-4843-befe-7d64d31fdac6{fill:#e8e8e8}.aeeb00ec-8e82-48e5-bdc8-827a13cea504{fill:#fff}.e1c2c7b7-d5ff-4b2a-a43a-6d1c24f639b0{fill:#06c}.add0dcfc-031c-4f69-8fb1-665202889a78{font-size:11px}.a4b15b00-a93d-4ceb-b441-3b38e016ac9d,.add0dcfc-031c-4f69-8fb1-665202889a78,.b7298c53-4eec-4b9d-ab99-42d0d421e5af{fill:#151515}.add0dcfc-031c-4f69-8fb1-665202889a78{font-family:RedHatText,&quot;Red Hat Text&quot;,Overpass,&quot;Helvetica Neue&quot;,Arial,sans-serif;font-weight:500}.bd38a36e-5c46-4a0f-84ea-d3a181d6b760{stroke:#d0d0d0}.bd38a36e-5c46-4a0f-84ea-d3a181d6b760,.f4886633-784b-41aa-a012-41e1582a5cd4{stroke-miterlimit:10;stroke-width:1.5px}.b7298c53-4eec-4b9d-ab99-42d0d421e5af{font-size:14px;font-family:RedHatText,&quot;Red Hat Text&quot;,Overpass,&quot;Helvetica Neue&quot;,Arial,sans-serif;font-weight:700}.b6f46f6e-e754-4f5f-b51d-bb91a7b9cae3{fill:#f3f3f3}.b56e02ed-034b-4d60-a013-72c07ec4d1eb{stroke:#151515}.b26e95b2-14f7-4732-9700-a55a801966ce{stroke:#fff;stroke-width:8px}.b1c633a7-b30c-4652-89eb-c7987bbb3627{stroke:#06c}.f4886633-784b-41aa-a012-41e1582a5cd4{stroke:#ececec}</style></defs><path class="e97d0968-7ba7-4d12-acf0-9fae498f9f03" d="M759.5 611.489v1.5H758"/><path class="aee22aac-5020-4163-bb96-f4e5ec519370" d="M755.012 612.989H3.494"/><path class="e97d0968-7ba7-4d12-acf0-9fae498f9f03" d="M2 612.989H.5v-1.5"/><path class="b9320a21-4d9d-4996-aa38-8c299cce6565" d="M.5 608.465V337.842"/><path class="e97d0968-7ba7-4d12-acf0-9fae498f9f03" d="M.5 336.33v-1.5H2"/><path class="aee22aac-5020-4163-bb96-f4e5ec519370" d="M4.988 334.83h751.518"/><path class="e97d0968-7ba7-4d12-acf0-9fae498f9f03" d="M758 334.83h1.5v1.5"/><path class="b9320a21-4d9d-4996-aa38-8c299cce6565" d="M759.5 339.353v270.624"/><path class="acbc63a0-fdc8-4843-befe-7d64d31fdac6" d="M15.5 16h729v303.659h-729z"/><path class="aeeb00ec-8e82-48e5-bdc8-827a13cea504" d="M551.98 250.159h161v49h-161z"/><path class="e1c2c7b7-d5ff-4b2a-a43a-6d1c24f639b0" d="M712.48 250.659v48h-160v-48h160m1-1h-162v50h162v-50z"/><text class="add0dcfc-031c-4f69-8fb1-665202889a78" transform="translate(603.759 277.706)">RWO PVCs</text><path class="bd38a36e-5c46-4a0f-84ea-d3a181d6b760" d="M723.48 289.659v-50h-162"/><path class="bd38a36e-5c46-4a0f-84ea-d3a181d6b760" d="M718.48 294.659v-50h-162"/><path class="acbc63a0-fdc8-4843-befe-7d64d31fdac6" d="M15.5 424.83h729v173.159h-729z"/><path class="bd38a36e-5c46-4a0f-84ea-d3a181d6b760" d="M510.98 209.659v-65H40.48"/><path class="bd38a36e-5c46-4a0f-84ea-d3a181d6b760" d="M515.98 204.659v-65H45.48"/><text class="b7298c53-4eec-4b9d-ab99-42d0d421e5af" transform="translate(35.5 577.788)">VMware Cloud on AWS</text><text class="b7298c53-4eec-4b9d-ab99-42d0d421e5af" transform="translate(35.5 46.701)">OpenShift</text><path class="aeeb00ec-8e82-48e5-bdc8-827a13cea504" d="M35.98 500.33h510v49h-510z"/><path class="e1c2c7b7-d5ff-4b2a-a43a-6d1c24f639b0" d="M545.48 500.83v48h-509v-48h509m1-1h-511v50h511v-50z"/><text class="add0dcfc-031c-4f69-8fb1-665202889a78" transform="translate(265.015 527.876)">vSphere 7</text><path class="aeeb00ec-8e82-48e5-bdc8-827a13cea504" d="M35.98 250.159h469.5v49H35.98z"/><path class="e1c2c7b7-d5ff-4b2a-a43a-6d1c24f639b0" d="M504.98 250.659v48H36.48v-48h468.5m1-1H35.48v50h470.5v-50z"/><text class="add0dcfc-031c-4f69-8fb1-665202889a78" transform="translate(229.672 277.706)">OpenShift SDN</text><path class="b6f46f6e-e754-4f5f-b51d-bb91a7b9cae3" d="M35.48 64.659h470.5v50H35.48z"/><text class="add0dcfc-031c-4f69-8fb1-665202889a78" transform="translate(147.817 92.706)">OpenShift integrated load balancer and ingress</text><path class="b6f46f6e-e754-4f5f-b51d-bb91a7b9cae3" d="M35.48 444.83h253v50h-253z"/><text class="add0dcfc-031c-4f69-8fb1-665202889a78" transform="translate(144.386 472.783)">NSX-T</text><path class="aeeb00ec-8e82-48e5-bdc8-827a13cea504" d="M293.98 445.33h252v49h-252z"/><path class="e1c2c7b7-d5ff-4b2a-a43a-6d1c24f639b0" d="M545.48 445.83v48h-251v-48h251m1-1h-253v50h253v-50z"/><text class="add0dcfc-031c-4f69-8fb1-665202889a78" transform="translate(404.624 472.783)">VSAN</text><path class="b6f46f6e-e754-4f5f-b51d-bb91a7b9cae3" d="M551.48 444.83h173v105h-173z"/><text class="add0dcfc-031c-4f69-8fb1-665202889a78" transform="translate(617.081 500.376)">vCenter</text><path class="aeeb00ec-8e82-48e5-bdc8-827a13cea504" d="M35.48 149.659h470.5v65H35.48z"/><text transform="translate(45.5 168.921)" font-family="RedHatText,&quot;Red Hat Text&quot;,Overpass,&quot;Helvetica Neue&quot;,Arial,sans-serif" font-weight="700" fill="#151515" font-size="11">Containers</text><path class="acbc63a0-fdc8-4843-befe-7d64d31fdac6" d="M45.151 179.659h147v25h-147z"/><text class="add0dcfc-031c-4f69-8fb1-665202889a78" transform="translate(108.097 195.206)">App</text><path class="acbc63a0-fdc8-4843-befe-7d64d31fdac6" d="M197.576 179.659h147v25h-147z"/><text class="add0dcfc-031c-4f69-8fb1-665202889a78" transform="translate(260.521 195.206)">App</text><path class="acbc63a0-fdc8-4843-befe-7d64d31fdac6" d="M350 179.659h147v25H350z"/><text class="add0dcfc-031c-4f69-8fb1-665202889a78" transform="translate(412.946 195.206)">App</text><path class="acbc63a0-fdc8-4843-befe-7d64d31fdac6" d="M35.48 359.659h143v50h-143z"/><text class="add0dcfc-031c-4f69-8fb1-665202889a78" transform="translate(62.073 387.706)">Control plane VM</text><path class="acbc63a0-fdc8-4843-befe-7d64d31fdac6" d="M199.23 359.659h143v50h-143z"/><text class="add0dcfc-031c-4f69-8fb1-665202889a78" transform="translate(247.343 387.706)">Infra VM</text><path class="acbc63a0-fdc8-4843-befe-7d64d31fdac6" d="M362.98 359.659h143v50h-143z"/><text class="add0dcfc-031c-4f69-8fb1-665202889a78" transform="translate(405.628 387.706)">Worker VM</text><path class="b56e02ed-034b-4d60-a013-72c07ec4d1eb" d="M271.076 224.336v15.647"/><path class="a4b15b00-a93d-4ceb-b441-3b38e016ac9d" d="M266.089 225.794l4.987-8.635 4.986 8.635h-9.973zM266.089 238.524l4.987 8.635 4.986-8.635h-9.973z"/><path stroke-width="10" stroke="#fff" stroke-linecap="round" stroke-linejoin="round" fill="none" d="M529.399 326.474v18.9"/><path class="b26e95b2-14f7-4732-9700-a55a801966ce" d="M434.48 326.474v18.9M270.73 325.609v15.63M106.98 325.609v15.631"/><g><path class="b1c633a7-b30c-4652-89eb-c7987bbb3627" d="M529.399 444.827v-1.5"/><path stroke-dasharray="2.984 2.984" stroke="#06c" stroke-linecap="round" stroke-linejoin="round" fill="none" d="M529.399 440.343V280.698"/><path class="b1c633a7-b30c-4652-89eb-c7987bbb3627" d="M529.399 279.206v-1.5h1.5"/><path stroke-dasharray="2.726 2.726" stroke="#06c" stroke-linecap="round" stroke-linejoin="round" fill="none" d="M533.625 277.706h14.992"/><path class="b1c633a7-b30c-4652-89eb-c7987bbb3627" d="M549.98 277.706h1.5"/></g><g><path class="b56e02ed-034b-4d60-a013-72c07ec4d1eb" d="M270.73 124.336v15.647"/><path class="a4b15b00-a93d-4ceb-b441-3b38e016ac9d" d="M265.744 125.794l4.986-8.635 4.986 8.635h-9.972zM265.744 138.524l4.986 8.635 4.986-8.635h-9.972z"/></g><g><text transform="translate(632.502 580.349)" font-size="10" fill="#dcdcdc" font-family="RedHatText,&quot;Red Hat Text&quot;,Overpass,&quot;Helvetica Neue&quot;,Arial,sans-serif">150_OpenShift_0321</text><path fill="none" d="M-15.5 557.989h760v40h-760z"/></g><path class="f4886633-784b-41aa-a012-41e1582a5cd4" d="M183.48 404.659v-50h-143"/><path class="f4886633-784b-41aa-a012-41e1582a5cd4" d="M188.48 399.659v-50h-143M347.23 404.659v-50h-143"/><path class="f4886633-784b-41aa-a012-41e1582a5cd4" d="M352.23 399.659v-50h-143M510.98 404.659v-50h-143"/><path class="f4886633-784b-41aa-a012-41e1582a5cd4" d="M515.98 399.659v-50h-143"/><g><path class="b56e02ed-034b-4d60-a013-72c07ec4d1eb" d="M106.98 309.336v40.647"/><path class="a4b15b00-a93d-4ceb-b441-3b38e016ac9d" d="M101.994 310.794l4.986-8.635 4.986 8.635h-9.972zM101.994 348.524l4.986 8.635 4.986-8.635h-9.972z"/></g><g><path class="b56e02ed-034b-4d60-a013-72c07ec4d1eb" d="M434.48 309.336v40.647"/><path class="a4b15b00-a93d-4ceb-b441-3b38e016ac9d" d="M429.494 310.794l4.986-8.635 4.986 8.635h-9.972zM429.494 348.524l4.986 8.635 4.986-8.635h-9.972z"/></g><g><path class="b56e02ed-034b-4d60-a013-72c07ec4d1eb" d="M270.73 309.336v40.647"/><path class="a4b15b00-a93d-4ceb-b441-3b38e016ac9d" d="M265.744 310.794l4.986-8.635 4.986 8.635h-9.972zM265.744 348.524l4.986 8.635 4.986-8.635h-9.972z"/></g></svg>