<svg id="ae091364-f14c-4fcc-8f1b-836063d19f8d" data-name="artwork" xmlns="http://www.w3.org/2000/svg" width="760" height="563.861"><defs><style>.a511d358-3daf-473a-96bf-93836f77c0ea,.aafb6c24-a6cc-4401-9d5c-2e5afb4ba106,.ac555702-b581-4ee3-a6ce-1f827a6bcd62,.b9986558-3e31-40dd-a8e9-4ad3f57a30bb,.babc9f39-fb74-4627-b83c-2e04c1d1ab83,.bf7fa8bf-bbe6-4b37-97d4-251992a6f5a8,.e289cfa3-2f4b-48e8-96fb-249d5d2ef85a,.e2f89a6c-240f-4851-990f-ebbb68d8ecc5,.f0de41e1-937b-4669-9d37-8efcbd40aa31{fill:none}.babc9f39-fb74-4627-b83c-2e04c1d1ab83{stroke:#151515}.a511d358-3daf-473a-96bf-93836f77c0ea,.aafb6c24-a6cc-4401-9d5c-2e5afb4ba106,.ac555702-b581-4ee3-a6ce-1f827a6bcd62,.b9986558-3e31-40dd-a8e9-4ad3f57a30bb,.babc9f39-fb74-4627-b83c-2e04c1d1ab83,.bd29de18-ece5-4ccf-9c7e-3a2cb8160a1f,.bf7fa8bf-bbe6-4b37-97d4-251992a6f5a8,.e289cfa3-2f4b-48e8-96fb-249d5d2ef85a,.e2f89a6c-240f-4851-990f-ebbb68d8ecc5,.f0de41e1-937b-4669-9d37-8efcbd40aa31{stroke-linecap:round;stroke-linejoin:round}.ba0b113d-9a3d-4894-933c-5db1c3362bf0,.bd1bef4d-d16c-48cd-8375-7da737f4b6d1,.e6145cb1-714a-41be-880f-0bf15e93fbfd{fill:#151515}.aafb6c24-a6cc-4401-9d5c-2e5afb4ba106,.ac555702-b581-4ee3-a6ce-1f827a6bcd62,.f0de41e1-937b-4669-9d37-8efcbd40aa31{stroke:#c4c4c4}.ac555702-b581-4ee3-a6ce-1f827a6bcd62{stroke-dasharray:2.981 2.981}.aafb6c24-a6cc-4401-9d5c-2e5afb4ba106{stroke-dasharray:3 3}.a5f75e6c-e389-45a0-9359-9413bec2a540{fill:#e8e8e8}.ba0b113d-9a3d-4894-933c-5db1c3362bf0,.e6145cb1-714a-41be-880f-0bf15e93fbfd{font-size:11px}.e6145cb1-714a-41be-880f-0bf15e93fbfd{font-family:RedHatText,&quot;Red Hat Text&quot;,Overpass,&quot;Helvetica Neue&quot;,Arial,sans-serif;font-weight:700}.bd29de18-ece5-4ccf-9c7e-3a2cb8160a1f,.be405a6d-9841-4055-a825-444e7b3a5248{fill:#fff}.ba0b113d-9a3d-4894-933c-5db1c3362bf0{font-family:RedHatText,&quot;Red Hat Text&quot;,Overpass,&quot;Helvetica Neue&quot;,Arial,sans-serif;font-weight:500}.bf7fa8bf-bbe6-4b37-97d4-251992a6f5a8{stroke:#06c}.a511d358-3daf-473a-96bf-93836f77c0ea{stroke:#4cb6d6}.b9986558-3e31-40dd-a8e9-4ad3f57a30bb,.bd29de18-ece5-4ccf-9c7e-3a2cb8160a1f,.e2f89a6c-240f-4851-990f-ebbb68d8ecc5{stroke:#5b5b5b}.b9986558-3e31-40dd-a8e9-4ad3f57a30bb,.bd29de18-ece5-4ccf-9c7e-3a2cb8160a1f{stroke-width:1.5px}.a511d358-3daf-473a-96bf-93836f77c0ea,.bf7fa8bf-bbe6-4b37-97d4-251992a6f5a8,.e2f89a6c-240f-4851-990f-ebbb68d8ecc5{stroke-width:2px}.b824b881-79f5-40e1-8f1e-ac5bcce6e76a{fill:#4cb6d6}.b7815278-c321-40ea-ab9c-c49bb06f4acf{fill:#06c}.e289cfa3-2f4b-48e8-96fb-249d5d2ef85a{stroke:#fff;stroke-width:8px}</style></defs><path d="M759 120.086v402.775H227.5V120.086H759m1-1H226.5v404.775H760V119.086z" fill="#c4c4c4"/><path class="babc9f39-fb74-4627-b83c-2e04c1d1ab83" d="M485.25 316.189v-51.358h-39.824"/><path class="bd1bef4d-d16c-48cd-8375-7da737f4b6d1" d="M446.885 259.845l-8.635 4.986 8.635 4.986v-9.972z"/><path class="babc9f39-fb74-4627-b83c-2e04c1d1ab83" d="M664 316.189v-51.358H500.25v41.681"/><path class="bd1bef4d-d16c-48cd-8375-7da737f4b6d1" d="M495.263 305.053l4.987 8.636 4.986-8.636h-9.973z"/><path class="babc9f39-fb74-4627-b83c-2e04c1d1ab83" d="M321.5 306.512v-41.681h63.625"/><path class="bd1bef4d-d16c-48cd-8375-7da737f4b6d1" d="M326.486 305.053l-4.986 8.636-4.987-8.636h9.973z"/><path class="f0de41e1-937b-4669-9d37-8efcbd40aa31" d="M402.5 494.689v1.5H401"/><path class="ac555702-b581-4ee3-a6ce-1f827a6bcd62" d="M398.019 496.189H244.491"/><path class="f0de41e1-937b-4669-9d37-8efcbd40aa31" d="M243 496.189h-1.5v-1.5"/><path class="aafb6c24-a6cc-4401-9d5c-2e5afb4ba106" d="M241.5 491.689v-172.5"/><path class="f0de41e1-937b-4669-9d37-8efcbd40aa31" d="M241.5 317.689v-1.5h1.5"/><path class="ac555702-b581-4ee3-a6ce-1f827a6bcd62" d="M245.981 316.189h153.528"/><path class="f0de41e1-937b-4669-9d37-8efcbd40aa31" d="M401 316.189h1.5v1.5"/><path class="aafb6c24-a6cc-4401-9d5c-2e5afb4ba106" d="M402.5 320.689v172.5"/><path class="a5f75e6c-e389-45a0-9359-9413bec2a540" d="M251.5 326.189h141v155h-141z"/><text class="e6145cb1-714a-41be-880f-0bf15e93fbfd" transform="translate(261.5 346.293)">Control plane nodes <tspan x="0" y="12">(x3)</tspan></text><path class="be405a6d-9841-4055-a825-444e7b3a5248" d="M261.5 371.189h120v30h-120z"/><text class="ba0b113d-9a3d-4894-933c-5db1c3362bf0" transform="translate(297.487 389.236)">apiserver</text><path class="be405a6d-9841-4055-a825-444e7b3a5248" d="M261.5 406.189h120v30h-120z"/><text class="ba0b113d-9a3d-4894-933c-5db1c3362bf0" transform="translate(309.839 424.236)">etcd</text><path class="be405a6d-9841-4055-a825-444e7b3a5248" d="M261.5 441.189h120v30h-120z"/><text class="ba0b113d-9a3d-4894-933c-5db1c3362bf0" transform="translate(296.321 459.236)">controller</text><path class="f0de41e1-937b-4669-9d37-8efcbd40aa31" d="M573.75 494.689v1.5h-1.5"/><path class="ac555702-b581-4ee3-a6ce-1f827a6bcd62" d="M569.269 496.189H415.741"/><path class="f0de41e1-937b-4669-9d37-8efcbd40aa31" d="M414.25 496.189h-1.5v-1.5"/><path class="aafb6c24-a6cc-4401-9d5c-2e5afb4ba106" d="M412.75 491.689v-172.5"/><path class="f0de41e1-937b-4669-9d37-8efcbd40aa31" d="M412.75 317.689v-1.5h1.5"/><path class="ac555702-b581-4ee3-a6ce-1f827a6bcd62" d="M417.231 316.189h153.528"/><path class="f0de41e1-937b-4669-9d37-8efcbd40aa31" d="M572.25 316.189h1.5v1.5"/><path class="aafb6c24-a6cc-4401-9d5c-2e5afb4ba106" d="M573.75 320.689v172.5"/><path class="a5f75e6c-e389-45a0-9359-9413bec2a540" d="M422.75 326.189h141v155h-141z"/><text class="e6145cb1-714a-41be-880f-0bf15e93fbfd" transform="translate(432.75 346.293)">Worker nodes <tspan x="0" y="12">(xN)</tspan></text><path class="be405a6d-9841-4055-a825-444e7b3a5248" d="M432.75 371.189h120v30h-120z"/><text class="ba0b113d-9a3d-4894-933c-5db1c3362bf0" transform="translate(455.762 389.236)">Compute (xN)</text><path class="be405a6d-9841-4055-a825-444e7b3a5248" d="M432.75 406.189h120v30h-120z"/><text class="ba0b113d-9a3d-4894-933c-5db1c3362bf0" transform="translate(445.016 424.236)">Persistent storage</text><path stroke-width="2.07" stroke="#06c" stroke-linecap="round" stroke-linejoin="round" fill="none" d="M1 238.206h744"/><path stroke="#4cb6d6" stroke-width="2.07" stroke-linecap="round" stroke-linejoin="round" fill="none" d="M745 133.852H1"/><text class="ba0b113d-9a3d-4894-933c-5db1c3362bf0" transform="translate(0 114.684)">Public<tspan x="0" y="12">network</tspan></text><text class="ba0b113d-9a3d-4894-933c-5db1c3362bf0" transform="translate(0 251.468)">Private network</text><text class="ba0b113d-9a3d-4894-933c-5db1c3362bf0" transform="translate(387.698 288.299)">Internal<tspan x="-6.407" y="12">(API) NLB</tspan></text><path class="bd29de18-ece5-4ccf-9c7e-3a2cb8160a1f" d="M380.125 257.956h55v13.75h-55z"/><path class="e2f89a6c-240f-4851-990f-ebbb68d8ecc5" d="M429.246 263.853"/><path class="b9986558-3e31-40dd-a8e9-4ad3f57a30bb" d="M386.018 262.819v3.964M391.911 262.819v3.964M397.804 262.819v3.964M403.696 262.819v3.964M409.589 262.819v3.964M415.482 262.819v3.964"/><path class="a511d358-3daf-473a-96bf-93836f77c0ea" d="M622.534 133.861v24.324"/><path class="b824b881-79f5-40e1-8f1e-ac5bcce6e76a" d="M617.548 156.726l4.986 8.635 4.986-8.635h-9.972z"/><path class="a511d358-3daf-473a-96bf-93836f77c0ea" d="M705.534 133.861v24.324"/><path class="b824b881-79f5-40e1-8f1e-ac5bcce6e76a" d="M700.548 156.726l4.986 8.635 4.986-8.635h-9.972z"/><text class="ba0b113d-9a3d-4894-933c-5db1c3362bf0" transform="translate(684.689 199.027)">Red Hat<tspan x="-16.665" y="12">(Console) ELB</tspan></text><path class="bd29de18-ece5-4ccf-9c7e-3a2cb8160a1f" d="M678.034 168.682h55v13.75h-55z"/><path class="e2f89a6c-240f-4851-990f-ebbb68d8ecc5" d="M727.155 174.578"/><path class="b9986558-3e31-40dd-a8e9-4ad3f57a30bb" d="M683.927 173.544v3.964M689.82 173.544v3.964M695.713 173.544v3.964M701.605 173.544v3.964M707.498 173.544v3.964M713.391 173.544v3.964"/><text class="ba0b113d-9a3d-4894-933c-5db1c3362bf0" transform="translate(573.348 199.027)">External/internal<tspan x="21.603" y="12">App ELB</tspan></text><path class="bd29de18-ece5-4ccf-9c7e-3a2cb8160a1f" d="M594.966 168.682h55v13.75h-55z"/><path class="e2f89a6c-240f-4851-990f-ebbb68d8ecc5" d="M644.087 174.578"/><path class="b9986558-3e31-40dd-a8e9-4ad3f57a30bb" d="M601.701 176.539h8.25"/><path class="bf7fa8bf-bbe6-4b37-97d4-251992a6f5a8" d="M610.034 224.882v13.324"/><path class="b7815278-c321-40ea-ab9c-c49bb06f4acf" d="M605.048 226.341l4.986-8.635 4.986 8.635h-9.972z"/><path class="e289cfa3-2f4b-48e8-96fb-249d5d2ef85a" d="M625.034 217.706v61.983"/><g><path class="a511d358-3daf-473a-96bf-93836f77c0ea" d="M625.034 217.706v88.806"/><path class="b824b881-79f5-40e1-8f1e-ac5bcce6e76a" d="M620.048 305.053l4.986 8.636 4.986-8.636h-9.972z"/></g><g><path class="bf7fa8bf-bbe6-4b37-97d4-251992a6f5a8" d="M273.034 224.882v13.324"/><path class="b7815278-c321-40ea-ab9c-c49bb06f4acf" d="M268.048 226.341l4.986-8.635 4.986 8.635h-9.972z"/></g><path class="e289cfa3-2f4b-48e8-96fb-249d5d2ef85a" d="M705.534 217.706v61.983M288.034 217.706v61.983M363.533 231.116v40.174"/><g><path class="a511d358-3daf-473a-96bf-93836f77c0ea" d="M705.534 217.706v88.806"/><path class="b824b881-79f5-40e1-8f1e-ac5bcce6e76a" d="M700.548 305.053l4.986 8.636 4.986-8.636h-9.972z"/></g><g><path class="a511d358-3daf-473a-96bf-93836f77c0ea" d="M280.534 133.861v24.324"/><path class="b824b881-79f5-40e1-8f1e-ac5bcce6e76a" d="M275.548 156.726l4.986 8.635 4.986-8.635h-9.972z"/></g><g><path class="a511d358-3daf-473a-96bf-93836f77c0ea" d="M363.534 133.861v24.324"/><path class="b824b881-79f5-40e1-8f1e-ac5bcce6e76a" d="M358.548 156.726l4.986 8.635 4.986-8.635h-9.972z"/></g><g><text class="ba0b113d-9a3d-4894-933c-5db1c3362bf0" transform="translate(342.689 199.027)">Red Hat<tspan x="-4.829" y="12">(API) ELB</tspan></text><path class="bd29de18-ece5-4ccf-9c7e-3a2cb8160a1f" d="M336.034 168.682h55v13.75h-55z"/><path class="e2f89a6c-240f-4851-990f-ebbb68d8ecc5" d="M385.155 174.578"/><path class="b9986558-3e31-40dd-a8e9-4ad3f57a30bb" d="M341.927 173.544v3.964M347.82 173.544v3.964M353.713 173.544v3.964M359.605 173.544v3.964M365.498 173.544v3.964M371.391 173.544v3.964"/></g><g><text class="ba0b113d-9a3d-4894-933c-5db1c3362bf0" transform="translate(236.348 199.027)">External/internal<tspan x="17.853" y="12">(API) NLB</tspan></text><path class="bd29de18-ece5-4ccf-9c7e-3a2cb8160a1f" d="M252.966 168.682h55v13.75h-55z"/><path class="e2f89a6c-240f-4851-990f-ebbb68d8ecc5" d="M302.087 174.578"/><path class="b9986558-3e31-40dd-a8e9-4ad3f57a30bb" d="M259.701 176.539h8.25"/></g><g><path class="a511d358-3daf-473a-96bf-93836f77c0ea" d="M363.534 217.706v88.806"/><path class="b824b881-79f5-40e1-8f1e-ac5bcce6e76a" d="M358.548 305.053l4.986 8.636 4.986-8.636h-9.972z"/></g><g><path class="bf7fa8bf-bbe6-4b37-97d4-251992a6f5a8" d="M184.258 215.724v11.823"/><path class="b7815278-c321-40ea-ab9c-c49bb06f4acf" d="M179.272 226.088l4.986 8.636 4.987-8.636h-9.973z"/></g><g><path class="a511d358-3daf-473a-96bf-93836f77c0ea" d="M184.258 144.537v24.324"/><path class="b824b881-79f5-40e1-8f1e-ac5bcce6e76a" d="M179.272 145.996l4.986-8.635 4.987 8.635h-9.973z"/></g><g><text class="ba0b113d-9a3d-4894-933c-5db1c3362bf0" transform="translate(162.055 199.026)">Route53<tspan x="10.433" y="12">DNS</tspan></text><path class="bd29de18-ece5-4ccf-9c7e-3a2cb8160a1f" d="M154.258 168.681h60v13.75h-60z"/><path class="e2f89a6c-240f-4851-990f-ebbb68d8ecc5" d="M208.379 174.578"/><path class="b9986558-3e31-40dd-a8e9-4ad3f57a30bb" d="M160.151 173.544v3.964M171.044 173.544v3.964M176.937 173.544v3.964M182.83 173.544v3.964M188.723 173.544v3.964M194.615 173.544v3.964"/></g><g><path class="f0de41e1-937b-4669-9d37-8efcbd40aa31" d="M745 494.689v1.5h-1.5"/><path class="ac555702-b581-4ee3-a6ce-1f827a6bcd62" d="M740.519 496.189H586.991"/><path class="f0de41e1-937b-4669-9d37-8efcbd40aa31" d="M585.5 496.189H584v-1.5"/><path class="aafb6c24-a6cc-4401-9d5c-2e5afb4ba106" d="M584 491.689v-172.5"/><path class="f0de41e1-937b-4669-9d37-8efcbd40aa31" d="M584 317.689v-1.5h1.5"/><path class="ac555702-b581-4ee3-a6ce-1f827a6bcd62" d="M588.481 316.189h153.528"/><path class="f0de41e1-937b-4669-9d37-8efcbd40aa31" d="M743.5 316.189h1.5v1.5"/><path class="aafb6c24-a6cc-4401-9d5c-2e5afb4ba106" d="M745 320.689v172.5"/></g><path class="a5f75e6c-e389-45a0-9359-9413bec2a540" d="M594 326.189h141v155H594z"/><text class="e6145cb1-714a-41be-880f-0bf15e93fbfd" transform="translate(604 346.293)">Infra nodes <tspan x="0" y="12">(x2, x3)</tspan></text><path class="be405a6d-9841-4055-a825-444e7b3a5248" d="M604 371.189h120v30H604z"/><text class="ba0b113d-9a3d-4894-933c-5db1c3362bf0" transform="translate(643.925 389.236)">registry</text><path class="be405a6d-9841-4055-a825-444e7b3a5248" d="M604 406.189h120v30H604z"/><text class="ba0b113d-9a3d-4894-933c-5db1c3362bf0" transform="translate(647.758 424.236)">router</text><path class="be405a6d-9841-4055-a825-444e7b3a5248" d="M604 441.189h120v30H604z"/><text class="ba0b113d-9a3d-4894-933c-5db1c3362bf0" transform="translate(635.642 459.236)">monitoring</text><g><text transform="translate(702.797 104.086)" font-size="12" font-family="RedHatText,&quot;Red Hat Text&quot;,Overpass,&quot;Helvetica Neue&quot;,Arial,sans-serif" font-weight="700" fill="#151515">AWS VPC</text><path class="babc9f39-fb74-4627-b83c-2e04c1d1ab83" d="M699.599 99.558l-22.865 19.528"/></g><path class="be405a6d-9841-4055-a825-444e7b3a5248" d="M274.429 488.432h95.143v14.513h-95.143zM445.679 488.432h95.143v14.513h-95.143zM616.929 488.432h95.143v14.513h-95.143z"/><text class="ba0b113d-9a3d-4894-933c-5db1c3362bf0" transform="translate(280.085 498.736)">Availability zone<tspan x="23.683" y="12">(x1, x3)</tspan></text><text class="ba0b113d-9a3d-4894-933c-5db1c3362bf0" transform="translate(451.336 498.736)">Availability zone<tspan x="23.683" y="12">(x1, x3)</tspan></text><text class="ba0b113d-9a3d-4894-933c-5db1c3362bf0" transform="translate(622.585 498.736)">Availability zone<tspan x="23.683" y="12">(x1, x3)</tspan></text><g><path class="babc9f39-fb74-4627-b83c-2e04c1d1ab83" d="M98.403 108.328V95.787H74.594V69.41"/><path class="bd1bef4d-d16c-48cd-8375-7da737f4b6d1" d="M103.39 106.869l-4.987 8.635-4.986-8.635h9.973z"/></g><path class="e289cfa3-2f4b-48e8-96fb-249d5d2ef85a" d="M64.595 142.502v-21.534"/><g><path class="babc9f39-fb74-4627-b83c-2e04c1d1ab83" d="M64.594 227.547V69.41"/><path class="bd1bef4d-d16c-48cd-8375-7da737f4b6d1" d="M69.581 226.088l-4.987 8.636-4.986-8.636h9.973z"/></g><g><text class="ba0b113d-9a3d-4894-933c-5db1c3362bf0" transform="translate(84.96 161.907)">Internet</text><path class="bd29de18-ece5-4ccf-9c7e-3a2cb8160a1f" d="M120.963 132.06a13.4 13.4 0 00-25.034-6.507 10.127 10.127 0 00-1.729-.153 9.968 9.968 0 100 19.935h26.76a6.636 6.636 0 100-13.271z"/></g><g><text class="ba0b113d-9a3d-4894-933c-5db1c3362bf0" transform="translate(128.749 64.097)">Red Hat<tspan x="-13.25" y="12">Management</tspan></text><path class="bd29de18-ece5-4ccf-9c7e-3a2cb8160a1f" d="M168.043 47.529a18.451 18.451 0 00-36.9 0z"/><ellipse class="bd29de18-ece5-4ccf-9c7e-3a2cb8160a1f" cx="149.594" cy="20.175" rx="9.262" ry="9.148"/></g><g><path class="babc9f39-fb74-4627-b83c-2e04c1d1ab83" d="M113.403 108.328V95.787h36.191V82.54"/><path class="bd1bef4d-d16c-48cd-8375-7da737f4b6d1" d="M118.39 106.869l-4.987 8.635-4.986-8.635h9.973z"/></g><g><text class="ba0b113d-9a3d-4894-933c-5db1c3362bf0" transform="translate(42.881 64.097)">Developer</text><path class="bd29de18-ece5-4ccf-9c7e-3a2cb8160a1f" d="M88.043 47.529a18.451 18.451 0 00-36.9 0z"/><ellipse class="bd29de18-ece5-4ccf-9c7e-3a2cb8160a1f" cx="69.594" cy="20.175" rx="9.262" ry="9.148"/></g><g><text transform="translate(668.082 546.878)" font-size="10" fill="#ececec" font-family="RedHatText,&quot;Red Hat Text&quot;,Overpass,&quot;Helvetica Neue&quot;,Arial,sans-serif">156_OpenShift_0621</text><path fill="none" d="M0 523.861h760v40H0z"/></g><g><path class="a511d358-3daf-473a-96bf-93836f77c0ea" d="M288.034 217.706v88.806"/><path class="b824b881-79f5-40e1-8f1e-ac5bcce6e76a" d="M283.048 305.053l4.986 8.636 4.986-8.636h-9.972z"/></g></svg>