<svg id="aad358dc-2084-4007-b646-07014f8937a4" data-name="artwork" xmlns="http://www.w3.org/2000/svg" width="760" height="657.032"><defs><style>.b7e1cc87-f2dc-42ee-972f-614e1c973559{fill:#f3f3f3}.aebd3131-c2bb-4fab-8be4-249644d1e574,.b04c2467-22dd-405c-9c16-51bf486ef9e4{font-size:11px}.a08abd65-09ec-4c47-8e0c-23b88c6516f4,.a423d674-ff42-417c-97af-70dedc4bda64,.a6d20bfa-c9ec-40e2-8524-8c1584293ece,.aebd3131-c2bb-4fab-8be4-249644d1e574,.f16fb1c3-2186-44fd-865c-b7e7ac720b67{fill:#151515}.a08abd65-09ec-4c47-8e0c-23b88c6516f4,.aebd3131-c2bb-4fab-8be4-249644d1e574,.b04c2467-22dd-405c-9c16-51bf486ef9e4,.f9de0ffc-486b-4648-92e5-9a930d997bc6{font-family:RedHatText,&quot;Red Hat Text&quot;,Overpass,&quot;Helvetica Neue&quot;,Arial,sans-serif;font-weight:700}.e7501fa3-f073-475a-bfb3-69fd3592c927{letter-spacing:.008em}.b405eaa2-98a2-425c-b9e4-e9302572f6c3{letter-spacing:.012em}.e1ca02a3-e6f8-41e9-ab73-84183669693b{letter-spacing:.009em}.a49a2094-a5c7-47e5-a0a5-504a0d4da4fd{letter-spacing:.012em}.ed2424ec-1530-41b2-a10f-d09bc38aa31d{letter-spacing:.002em}.e623f7f4-2b0e-454b-ac4f-98ef2bfd71f2{letter-spacing:.007em}.e4ac5420-bdab-4eb8-9ed7-8b73af36efb9{letter-spacing:-.005em}.bb97b259-8816-4e65-bf48-8e063017c663{letter-spacing:-.018em}.f8256d2c-74a4-4574-8da5-8fc2c8ebf6b8{letter-spacing:-.069em}.ab9d4d1f-72ae-49cf-9b52-9332f72ae151{letter-spacing:.008em}.eb969b77-9918-48f1-acf3-f0b533af3354{letter-spacing:.004em}.f800bb8b-1a8f-4a8b-9b67-1a5bf15742dd{letter-spacing:.01em}.a8c0d35f-6d6c-4e51-812f-b242564abb57{letter-spacing:.015em}.b6d9919d-e4b7-4a6f-9e85-3e79ff2fe6cf{letter-spacing:.012em}.be57c5dd-b6c1-4fb1-987f-51f7ca0aeb33{letter-spacing:.011em}.b357bef6-eecb-4e05-90d6-8449c6ccfc32{letter-spacing:-.002em}.f6091ffd-997a-4965-84d0-b8207c258fab{letter-spacing:.013em}.ad7f6711-34d5-43b0-acb1-235f1ff691f9{letter-spacing:.001em}.b9d9a574-31ca-4ec9-ad52-5a440b4b2a06{letter-spacing:.022em}.fdd8ff91-f728-46a4-8de8-d7e867eb7769{letter-spacing:.007em}.fc25368f-e48e-4840-8247-8679b20e0daf{letter-spacing:.01em}.bba596b6-390d-44f3-a190-6cb3a460b4f3{letter-spacing:-.002em}.b6c9f4bf-db96-4ea4-b37e-f59527afd63a{letter-spacing:.02em}.a75e106e-9ce9-4d9b-8fa9-8201aade40fa{letter-spacing:.006em}.efd8c3f7-d6a4-4b1e-b677-9eaa7b7964a2{fill:#dfeac0}.a423d674-ff42-417c-97af-70dedc4bda64,.f16fb1c3-2186-44fd-865c-b7e7ac720b67{font-size:10px}.a423d674-ff42-417c-97af-70dedc4bda64{font-family:LiberationMono,&quot;Liberation Mono&quot;,Consolas,Monaco,&quot;Andale Mono&quot;,monospace}.a397e369-c629-4374-830d-c3bd883604c2,.b04c2467-22dd-405c-9c16-51bf486ef9e4,.f9de0ffc-486b-4648-92e5-9a930d997bc6{fill:#fff}.a65df10d-ed50-4ca4-a16a-1c70f4ad6043,.b84c9e21-f001-4c18-8a24-ded092a6e94a{letter-spacing:.005em}.a3c39029-43c2-4440-9ee2-de84b0bd6293{letter-spacing:.012em}.e23f9b64-ae85-477a-845b-10a60485d1b5{letter-spacing:.027em}.bc936572-a8b7-4d19-8812-6d62ea862f28{letter-spacing:.008em}.f57d220a-1b68-4f7c-a2a6-2d2846899ea0{letter-spacing:.016em}.fe6228b9-dd07-42ab-80d5-f08c89e57915{letter-spacing:.013em}.acd43f6f-f4f0-4cbe-8e41-2d26efb11218{letter-spacing:0}.a88ee6b3-639c-4140-9053-d212bfdef2eb,.e9b6315b-f773-43e2-8baa-123270f31e9f{fill:none}.e9b6315b-f773-43e2-8baa-123270f31e9f{stroke:#151515}.a397e369-c629-4374-830d-c3bd883604c2,.e9b6315b-f773-43e2-8baa-123270f31e9f{stroke-linecap:round;stroke-linejoin:round}.a88ee6b3-639c-4140-9053-d212bfdef2eb{stroke:#f3f3f3;stroke-miterlimit:10}.a397e369-c629-4374-830d-c3bd883604c2,.a88ee6b3-639c-4140-9053-d212bfdef2eb{stroke-width:1.5px}.a08abd65-09ec-4c47-8e0c-23b88c6516f4{font-size:12px}.f88f16ca-bb58-4494-ab7d-28b68eb2c108{letter-spacing:.004em}.ab4a735e-e180-41e6-a779-8fba3f86c5e9{letter-spacing:.009em}.e7ad229a-45c1-4830-a567-1a6eb2da2e58{letter-spacing:.005em}.b2b22065-2af1-4592-b104-50dc3cd29a92{letter-spacing:.008em}.f865be7b-e6da-464f-ac5e-a134917ee505{letter-spacing:-.002em}.fab86e28-0800-4c26-81fd-ad7be4beec0f{letter-spacing:.003em}.e57c801c-7395-4e3b-8020-2f8e2a278b09{letter-spacing:-.009em}.e6dff30f-1adc-40b5-a636-df7edb640e8b{letter-spacing:-.023em}.b39526ee-a120-4404-a47b-e8da0abd312d{letter-spacing:-.074em}.a4eca8f7-f26d-4f6f-90f8-81328c2312c3{letter-spacing:.004em}.b4a5e229-2868-4714-9ef7-a6d5f73275bc{letter-spacing:.006em}.a73ba34a-4e91-4482-ac38-4c21479e6f80{letter-spacing:.011em}.ba3ec486-b934-440a-a12a-04d9296f2481{letter-spacing:.008em}.f242c612-aa2b-432c-9b91-ef11998df8d7{letter-spacing:-.006em}.bff60321-1060-4cc4-88e6-cd2a402a4cf5{letter-spacing:.01em}.f70a4fe1-ca11-4d77-8bb8-e8c11771f734{letter-spacing:-.003em}.bd6c0916-9f91-4866-92ce-3820d84d51f9{letter-spacing:.007em}.ffe70401-6de0-4a4a-8871-31c304960615{letter-spacing:.005em}.f6135044-c433-40eb-83e9-104f7d60f8ba{letter-spacing:.008em}.fce2825a-9724-426b-93ad-8cf55768fc1f{letter-spacing:-.001em}.ae28c545-8218-484d-9a64-77be44c545b9{letter-spacing:.006em}.f9de0ffc-486b-4648-92e5-9a930d997bc6{font-size:9.9px}.f16fb1c3-2186-44fd-865c-b7e7ac720b67{font-family:RedHatText,&quot;Red Hat Text&quot;,Overpass,&quot;Helvetica Neue&quot;,Arial,sans-serif;font-weight:500}.a25f08b1-4afc-4bc2-b9b7-3a162b286ef4{letter-spacing:-.015em}.e799acfd-4707-4191-b36e-c9d27447b738{letter-spacing:0}.fd8a23d7-c2c2-4675-87b2-f287ec565dc1{letter-spacing:-.024em}.bf8f2577-c849-4e6e-b2cd-d31617b33253{letter-spacing:-.015em}.f2c31147-0c85-463e-8cb4-24f73d0377ca{letter-spacing:0}.a397e369-c629-4374-830d-c3bd883604c2{stroke:#5b5b5b}</style></defs><path class="b7e1cc87-f2dc-42ee-972f-614e1c973559" d="M590 56.711h170v120H590z"/><text class="aebd3131-c2bb-4fab-8be4-249644d1e574" transform="translate(605 82.535)"><tspan class="e7501fa3-f073-475a-bfb3-69fd3592c927">n</tspan><tspan class="b405eaa2-98a2-425c-b9e4-e9302572f6c3" x="6.883" y="0">a</tspan><tspan class="e1ca02a3-e6f8-41e9-ab73-84183669693b" x="13.388" y="0">me</tspan><tspan class="a49a2094-a5c7-47e5-a0a5-504a0d4da4fd" x="30.135" y="0">s</tspan><tspan class="ed2424ec-1530-41b2-a10f-d09bc38aa31d" x="35.887" y="0">p</tspan><tspan class="e623f7f4-2b0e-454b-ac4f-98ef2bfd71f2" x="42.993" y="0">a</tspan><tspan class="e4ac5420-bdab-4eb8-9ed7-8b73af36efb9" x="49.441" y="0">c</tspan><tspan class="bb97b259-8816-4e65-bf48-8e063017c663" x="55.317" y="0">e</tspan><tspan class="f8256d2c-74a4-4574-8da5-8fc2c8ebf6b8" x="61.629" y="0">/</tspan><tspan class="ab9d4d1f-72ae-49cf-9b52-9332f72ae151" x="66.745" y="0">o</tspan><tspan class="eb969b77-9918-48f1-acf3-f0b533af3354" x="73.638" y="0">p</tspan><tspan class="f800bb8b-1a8f-4a8b-9b67-1a5bf15742dd" x="80.767" y="0">e</tspan><tspan class="a8c0d35f-6d6c-4e51-812f-b242564abb57" x="87.386" y="0">n</tspan><tspan class="b6d9919d-e4b7-4a6f-9e85-3e79ff2fe6cf" x="94.345" y="0">s</tspan><tspan class="be57c5dd-b6c1-4fb1-987f-51f7ca0aeb33" x="100.098" y="0">h</tspan><tspan class="b357bef6-eecb-4e05-90d6-8449c6ccfc32" x="107.021" y="0">i</tspan><tspan class="f6091ffd-997a-4965-84d0-b8207c258fab" x="110.167" y="0">f</tspan><tspan class="ad7f6711-34d5-43b0-acb1-235f1ff691f9" x="115.374" y="0">t</tspan><tspan x="120.426" y="0">-</tspan><tspan x="0" y="12" letter-spacing=".012em">a</tspan><tspan x="6.496" y="12" letter-spacing=".001em">u</tspan><tspan class="b9d9a574-31ca-4ec9-ad52-5a440b4b2a06" x="13.31" y="12">t</tspan><tspan class="fdd8ff91-f728-46a4-8de8-d7e867eb7769" x="18.593" y="12">h</tspan><tspan class="fc25368f-e48e-4840-8247-8679b20e0daf" x="25.471" y="12">e</tspan><tspan class="bba596b6-390d-44f3-a190-6cb3a460b4f3" x="32.089" y="12">n</tspan><tspan x="38.861" y="12" letter-spacing=".02em">t</tspan><tspan x="44.12" y="12" letter-spacing=".006em">i</tspan><tspan x="47.352" y="12" letter-spacing=".009em">c</tspan><tspan x="53.385" y="12" letter-spacing="-.003em">a</tspan><tspan class="b6c9f4bf-db96-4ea4-b37e-f59527afd63a" x="59.717" y="12">t</tspan><tspan class="a75e106e-9ce9-4d9b-8fa9-8201aade40fa" x="64.977" y="12">i</tspan><tspan class="ab9d4d1f-72ae-49cf-9b52-9332f72ae151" x="68.207" y="12">o</tspan><tspan x="75.1" y="12">n</tspan></text><path class="efd8c3f7-d6a4-4b1e-b677-9eaa7b7964a2" d="M604.75 111.711h140v50h-140z"/><text class="a423d674-ff42-417c-97af-70dedc4bda64" transform="translate(614.74 135.856)">secrets/v4-0-config-<tspan x="3.001" y="12">system-router-certs</tspan></text><circle class="a6d20bfa-c9ec-40e2-8524-8c1584293ece" cx="674.75" cy="111.711" r="9"/><text class="b04c2467-22dd-405c-9c16-51bf486ef9e4" transform="translate(670.265 115.496)">11</text><path class="b7e1cc87-f2dc-42ee-972f-614e1c973559" d="M590 491.622h170v125H590z"/><text class="aebd3131-c2bb-4fab-8be4-249644d1e574" transform="translate(605 514.947)"><tspan class="e7501fa3-f073-475a-bfb3-69fd3592c927">n</tspan><tspan class="b405eaa2-98a2-425c-b9e4-e9302572f6c3" x="6.883" y="0">a</tspan><tspan class="e1ca02a3-e6f8-41e9-ab73-84183669693b" x="13.388" y="0">me</tspan><tspan class="a49a2094-a5c7-47e5-a0a5-504a0d4da4fd" x="30.135" y="0">s</tspan><tspan class="ed2424ec-1530-41b2-a10f-d09bc38aa31d" x="35.887" y="0">p</tspan><tspan class="e623f7f4-2b0e-454b-ac4f-98ef2bfd71f2" x="42.993" y="0">a</tspan><tspan class="e4ac5420-bdab-4eb8-9ed7-8b73af36efb9" x="49.441" y="0">c</tspan><tspan class="bb97b259-8816-4e65-bf48-8e063017c663" x="55.317" y="0">e</tspan><tspan class="f8256d2c-74a4-4574-8da5-8fc2c8ebf6b8" x="61.629" y="0">/</tspan><tspan class="ab9d4d1f-72ae-49cf-9b52-9332f72ae151" x="66.745" y="0">o</tspan><tspan class="eb969b77-9918-48f1-acf3-f0b533af3354" x="73.638" y="0">p</tspan><tspan class="f800bb8b-1a8f-4a8b-9b67-1a5bf15742dd" x="80.767" y="0">e</tspan><tspan class="a8c0d35f-6d6c-4e51-812f-b242564abb57" x="87.386" y="0">n</tspan><tspan class="b6d9919d-e4b7-4a6f-9e85-3e79ff2fe6cf" x="94.345" y="0">s</tspan><tspan class="be57c5dd-b6c1-4fb1-987f-51f7ca0aeb33" x="100.098" y="0">h</tspan><tspan class="b357bef6-eecb-4e05-90d6-8449c6ccfc32" x="107.021" y="0">i</tspan><tspan class="f6091ffd-997a-4965-84d0-b8207c258fab" x="110.167" y="0">f</tspan><tspan class="ad7f6711-34d5-43b0-acb1-235f1ff691f9" x="115.374" y="0">t</tspan><tspan x="120.426" y="0">-</tspan><tspan class="e4ac5420-bdab-4eb8-9ed7-8b73af36efb9" x="0" y="12">c</tspan><tspan class="ab9d4d1f-72ae-49cf-9b52-9332f72ae151" x="5.876" y="12">o</tspan><tspan x="12.769" y="12" letter-spacing=".015em">n</tspan><tspan class="b84c9e21-f001-4c18-8a24-ded092a6e94a" x="19.729" y="12">s</tspan><tspan class="ab9d4d1f-72ae-49cf-9b52-9332f72ae151" x="25.409" y="12">ol</tspan><tspan x="35.554" y="12">e</tspan></text><path class="efd8c3f7-d6a4-4b1e-b677-9eaa7b7964a2" d="M605 551.622h140v50H605z"/><text class="a423d674-ff42-417c-97af-70dedc4bda64" transform="translate(617.991 575.768)">configmaps/default-<tspan x="21.003" y="12">ingress-cert</tspan></text><circle class="a6d20bfa-c9ec-40e2-8524-8c1584293ece" cx="675" cy="551.622" r="9"/><text class="b04c2467-22dd-405c-9c16-51bf486ef9e4" transform="translate(670.515 555.408)">11</text><path class="b7e1cc87-f2dc-42ee-972f-614e1c973559" d="M590 196.711h170v120H590z"/><path class="efd8c3f7-d6a4-4b1e-b677-9eaa7b7964a2" d="M604.75 251.622h140v50h-140z"/><text class="a423d674-ff42-417c-97af-70dedc4bda64" transform="translate(641.745 275.768)">configmaps/<tspan x="-15.003" y="12">serviceacount-ca</tspan></text><circle class="a6d20bfa-c9ec-40e2-8524-8c1584293ece" cx="674.75" cy="251.622" r="9"/><text class="b04c2467-22dd-405c-9c16-51bf486ef9e4" transform="translate(670.265 255.408)">11</text><text class="aebd3131-c2bb-4fab-8be4-249644d1e574" transform="translate(605 222.379)"><tspan class="e7501fa3-f073-475a-bfb3-69fd3592c927">n</tspan><tspan class="b405eaa2-98a2-425c-b9e4-e9302572f6c3" x="6.883" y="0">a</tspan><tspan class="e1ca02a3-e6f8-41e9-ab73-84183669693b" x="13.388" y="0">me</tspan><tspan class="a49a2094-a5c7-47e5-a0a5-504a0d4da4fd" x="30.135" y="0">s</tspan><tspan class="ed2424ec-1530-41b2-a10f-d09bc38aa31d" x="35.887" y="0">p</tspan><tspan class="e623f7f4-2b0e-454b-ac4f-98ef2bfd71f2" x="42.993" y="0">a</tspan><tspan class="e4ac5420-bdab-4eb8-9ed7-8b73af36efb9" x="49.441" y="0">c</tspan><tspan class="bb97b259-8816-4e65-bf48-8e063017c663" x="55.317" y="0">e</tspan><tspan class="f8256d2c-74a4-4574-8da5-8fc2c8ebf6b8" x="61.629" y="0">/</tspan><tspan class="ab9d4d1f-72ae-49cf-9b52-9332f72ae151" x="66.745" y="0">o</tspan><tspan class="eb969b77-9918-48f1-acf3-f0b533af3354" x="73.638" y="0">p</tspan><tspan class="f800bb8b-1a8f-4a8b-9b67-1a5bf15742dd" x="80.767" y="0">e</tspan><tspan class="a8c0d35f-6d6c-4e51-812f-b242564abb57" x="87.386" y="0">n</tspan><tspan class="b6d9919d-e4b7-4a6f-9e85-3e79ff2fe6cf" x="94.345" y="0">s</tspan><tspan class="be57c5dd-b6c1-4fb1-987f-51f7ca0aeb33" x="100.098" y="0">h</tspan><tspan class="b357bef6-eecb-4e05-90d6-8449c6ccfc32" x="107.021" y="0">i</tspan><tspan class="f6091ffd-997a-4965-84d0-b8207c258fab" x="110.167" y="0">f</tspan><tspan class="ad7f6711-34d5-43b0-acb1-235f1ff691f9" x="115.374" y="0">t</tspan><tspan x="120.426" y="0">-</tspan><tspan class="a65df10d-ed50-4ca4-a16a-1c70f4ad6043" x="0" y="12">k</tspan><tspan class="a3c39029-43c2-4440-9ee2-de84b0bd6293" x="6.693" y="12">u</tspan><tspan class="eb969b77-9918-48f1-acf3-f0b533af3354" x="13.62" y="12">b</tspan><tspan class="e23f9b64-ae85-477a-845b-10a60485d1b5" x="20.749" y="12">e</tspan><tspan x="27.556" y="12" letter-spacing=".025em">-</tspan><tspan class="e4ac5420-bdab-4eb8-9ed7-8b73af36efb9" x="33.004" y="12">c</tspan><tspan class="ab9d4d1f-72ae-49cf-9b52-9332f72ae151" x="38.88" y="12">o</tspan><tspan class="bba596b6-390d-44f3-a190-6cb3a460b4f3" x="45.772" y="12">n</tspan><tspan class="b9d9a574-31ca-4ec9-ad52-5a440b4b2a06" x="52.545" y="12">t</tspan><tspan x="57.828" y="12" letter-spacing=".002em">r</tspan><tspan class="ab9d4d1f-72ae-49cf-9b52-9332f72ae151" x="62.718" y="12">o</tspan><tspan x="69.61" y="12" letter-spacing=".011em">l</tspan><tspan class="bc936572-a8b7-4d19-8812-6d62ea862f28" x="72.896" y="12">l</tspan><tspan class="f800bb8b-1a8f-4a8b-9b67-1a5bf15742dd" x="76.149" y="12">e</tspan><tspan x="82.769" y="12" letter-spacing=".004em">r</tspan><tspan x="87.673" y="12" letter-spacing=".018em">-</tspan><tspan x="93.037" y="12" letter-spacing=".009em">m</tspan><tspan class="b405eaa2-98a2-425c-b9e4-e9302572f6c3" x="103.182" y="12">a</tspan><tspan class="e7501fa3-f073-475a-bfb3-69fd3592c927" x="109.687" y="12">n</tspan><tspan class="e623f7f4-2b0e-454b-ac4f-98ef2bfd71f2" x="116.569" y="12">a</tspan><tspan x="123.018" y="12" letter-spacing=".009em">ge</tspan><tspan x="136.796" y="12">r</tspan></text><path class="b7e1cc87-f2dc-42ee-972f-614e1c973559" d="M590 341.622h170v125H590z"/><path class="efd8c3f7-d6a4-4b1e-b677-9eaa7b7964a2" d="M605 401.82h140v50H605z"/><text class="a423d674-ff42-417c-97af-70dedc4bda64" transform="translate(641.995 424.742)">configmaps/<tspan x="-15.003" y="12">serviceacount-ca</tspan></text><circle class="a6d20bfa-c9ec-40e2-8524-8c1584293ece" cx="675" cy="401.82" r="9"/><text class="b04c2467-22dd-405c-9c16-51bf486ef9e4" transform="translate(670.515 405.605)">11</text><text class="aebd3131-c2bb-4fab-8be4-249644d1e574" transform="translate(605 366.791)"><tspan class="e7501fa3-f073-475a-bfb3-69fd3592c927">n</tspan><tspan class="b405eaa2-98a2-425c-b9e4-e9302572f6c3" x="6.883" y="0">a</tspan><tspan class="e1ca02a3-e6f8-41e9-ab73-84183669693b" x="13.388" y="0">me</tspan><tspan class="a49a2094-a5c7-47e5-a0a5-504a0d4da4fd" x="30.135" y="0">s</tspan><tspan class="ed2424ec-1530-41b2-a10f-d09bc38aa31d" x="35.887" y="0">p</tspan><tspan class="e623f7f4-2b0e-454b-ac4f-98ef2bfd71f2" x="42.993" y="0">a</tspan><tspan class="e4ac5420-bdab-4eb8-9ed7-8b73af36efb9" x="49.441" y="0">c</tspan><tspan class="bb97b259-8816-4e65-bf48-8e063017c663" x="55.317" y="0">e</tspan><tspan class="f8256d2c-74a4-4574-8da5-8fc2c8ebf6b8" x="61.629" y="0">/</tspan><tspan class="ab9d4d1f-72ae-49cf-9b52-9332f72ae151" x="66.745" y="0">o</tspan><tspan class="eb969b77-9918-48f1-acf3-f0b533af3354" x="73.638" y="0">p</tspan><tspan class="f800bb8b-1a8f-4a8b-9b67-1a5bf15742dd" x="80.767" y="0">e</tspan><tspan class="a8c0d35f-6d6c-4e51-812f-b242564abb57" x="87.386" y="0">n</tspan><tspan class="b6d9919d-e4b7-4a6f-9e85-3e79ff2fe6cf" x="94.345" y="0">s</tspan><tspan class="be57c5dd-b6c1-4fb1-987f-51f7ca0aeb33" x="100.098" y="0">h</tspan><tspan class="b357bef6-eecb-4e05-90d6-8449c6ccfc32" x="107.021" y="0">i</tspan><tspan class="f6091ffd-997a-4965-84d0-b8207c258fab" x="110.167" y="0">f</tspan><tspan class="ad7f6711-34d5-43b0-acb1-235f1ff691f9" x="115.374" y="0">t</tspan><tspan x="120.426" y="0">-</tspan><tspan class="a65df10d-ed50-4ca4-a16a-1c70f4ad6043"><tspan x="0" y="12">k</tspan><tspan class="a3c39029-43c2-4440-9ee2-de84b0bd6293" x="6.693" y="12">u</tspan><tspan class="eb969b77-9918-48f1-acf3-f0b533af3354" x="13.62" y="12">b</tspan><tspan class="e23f9b64-ae85-477a-845b-10a60485d1b5" x="20.749" y="12">e</tspan><tspan class="f57d220a-1b68-4f7c-a2a6-2d2846899ea0" x="27.556" y="12">-</tspan><tspan x="32.898" y="12" letter-spacing=".006em">s</tspan><tspan x="38.58" y="12" letter-spacing=".008em">c</tspan><tspan class="fdd8ff91-f728-46a4-8de8-d7e867eb7769" x="44.6" y="12">he</tspan><tspan class="fe6228b9-dd07-42ab-80d5-f08c89e57915" x="58.068" y="12">d</tspan><tspan class="a3c39029-43c2-4440-9ee2-de84b0bd6293" x="65.287" y="12">u</tspan><tspan class="bc936572-a8b7-4d19-8812-6d62ea862f28" x="72.214" y="12">l</tspan><tspan class="f800bb8b-1a8f-4a8b-9b67-1a5bf15742dd" x="75.468" y="12">e</tspan><tspan class="acd43f6f-f4f0-4cbe-8e41-2d26efb11218" x="82.087" y="12">r</tspan></tspan></text><path class="b7e1cc87-f2dc-42ee-972f-614e1c973559" d="M195 491.622h170v125H195zM390 341.622h170v125H390z"/><path class="efd8c3f7-d6a4-4b1e-b677-9eaa7b7964a2" d="M405 402.034h140v50H405z"/><text class="a423d674-ff42-417c-97af-70dedc4bda64" transform="translate(441.994 425.18)">configmaps/<tspan x="9.001" y="14">proxy-ca</tspan></text><circle class="a6d20bfa-c9ec-40e2-8524-8c1584293ece" cx="475" cy="401.534" r="9"/><text class="b04c2467-22dd-405c-9c16-51bf486ef9e4" transform="translate(468.832 405.319)">10</text><path class="b7e1cc87-f2dc-42ee-972f-614e1c973559" d="M195 341.622h170v125H195z"/><path class="efd8c3f7-d6a4-4b1e-b677-9eaa7b7964a2" d="M210 401.534h140v50H210z"/><text class="a423d674-ff42-417c-97af-70dedc4bda64" transform="translate(237.993 425.68)">configmaps/my-<tspan x="9.002" y="12">certificate</tspan></text><path class="e9b6315b-f773-43e2-8baa-123270f31e9f" d="M280 461.211v1.5"/><path stroke-dasharray="2.901 2.901" stroke-linecap="round" stroke-linejoin="round" stroke="#151515" fill="none" d="M280 465.611v73.973"/><path class="e9b6315b-f773-43e2-8baa-123270f31e9f" d="M280 541.034v1.5"/><path class="a6d20bfa-c9ec-40e2-8524-8c1584293ece" d="M275.014 462.669l4.986-8.635 4.986 8.635h-9.972z"/><path class="a88ee6b3-639c-4140-9053-d212bfdef2eb" d="M570 351.622v125H400"/><path class="a88ee6b3-639c-4140-9053-d212bfdef2eb" d="M565 346.622v125H395"/><path class="b7e1cc87-f2dc-42ee-972f-614e1c973559" d="M390 56.711h170v260H390zM195 56.711h170v260H195zM0 56.711h170v260H0z"/><text class="a08abd65-09ec-4c47-8e0c-23b88c6516f4" transform="translate(210 80.035)"><tspan class="f88f16ca-bb58-4494-ab7d-28b68eb2c108">n</tspan><tspan class="ab4a735e-e180-41e6-a779-8fba3f86c5e9" x="7.462" y="0">a</tspan><tspan class="e7ad229a-45c1-4830-a567-1a6eb2da2e58" x="14.513" y="0">me</tspan><tspan class="b2b22065-2af1-4592-b104-50dc3cd29a92" x="32.688" y="0">s</tspan><tspan class="f865be7b-e6da-464f-ac5e-a134917ee505" x="38.918" y="0">p</tspan><tspan class="fab86e28-0800-4c26-81fd-ad7be4beec0f" x="46.622" y="0">a</tspan><tspan class="e57c801c-7395-4e3b-8020-2f8e2a278b09" x="53.609" y="0">c</tspan><tspan class="e6dff30f-1adc-40b5-a636-df7edb640e8b" x="59.971" y="0">e</tspan><tspan class="b39526ee-a120-4404-a47b-e8da0abd312d" x="66.801" y="0">/</tspan><tspan class="a4eca8f7-f26d-4f6f-90f8-81328c2312c3" x="72.318" y="0">o</tspan><tspan x="79.791" y="0">p</tspan><tspan class="b4a5e229-2868-4714-9ef7-a6d5f73275bc" x="87.519" y="0">e</tspan><tspan class="a73ba34a-4e91-4482-ac38-4c21479e6f80" x="94.693" y="0">n</tspan><tspan class="b2b22065-2af1-4592-b104-50dc3cd29a92" x="102.24" y="0">s</tspan><tspan class="ba3ec486-b934-440a-a12a-04d9296f2481" x="108.471" y="0">h</tspan><tspan class="f242c612-aa2b-432c-9b91-ef11998df8d7" x="115.979" y="0">i</tspan><tspan class="bff60321-1060-4cc4-88e6-cd2a402a4cf5" x="119.362" y="0">f</tspan><tspan class="f70a4fe1-ca11-4d77-8bb8-e8c11771f734" x="124.998" y="0">t</tspan><tspan x="130.458" y="0">-</tspan><tspan class="bd6c0916-9f91-4866-92ce-3820d84d51f9" x="0" y="12">i</tspan><tspan class="ffe70401-6de0-4a4a-8871-31c304960615" x="3.545" y="12">n</tspan><tspan class="f6135044-c433-40eb-83e9-104f7d60f8ba" x="11.023" y="12">g</tspan><tspan class="fce2825a-9724-426b-93ad-8cf55768fc1f" x="18.828" y="12">r</tspan><tspan class="e7ad229a-45c1-4830-a567-1a6eb2da2e58" x="24.115" y="12">e</tspan><tspan class="ae28c545-8218-484d-9a64-77be44c545b9" x="31.276" y="12">s</tspan><tspan x="37.481" y="12">s</tspan></text><text class="a08abd65-09ec-4c47-8e0c-23b88c6516f4" transform="translate(15 80.035)"><tspan class="f88f16ca-bb58-4494-ab7d-28b68eb2c108">n</tspan><tspan class="ab4a735e-e180-41e6-a779-8fba3f86c5e9" x="7.462" y="0">a</tspan><tspan class="e7ad229a-45c1-4830-a567-1a6eb2da2e58" x="14.513" y="0">me</tspan><tspan class="b2b22065-2af1-4592-b104-50dc3cd29a92" x="32.688" y="0">s</tspan><tspan class="f865be7b-e6da-464f-ac5e-a134917ee505" x="38.918" y="0">p</tspan><tspan class="fab86e28-0800-4c26-81fd-ad7be4beec0f" x="46.622" y="0">a</tspan><tspan class="e57c801c-7395-4e3b-8020-2f8e2a278b09" x="53.609" y="0">c</tspan><tspan class="e6dff30f-1adc-40b5-a636-df7edb640e8b" x="59.971" y="0">e</tspan><tspan class="b39526ee-a120-4404-a47b-e8da0abd312d" x="66.801" y="0">/</tspan><tspan class="a4eca8f7-f26d-4f6f-90f8-81328c2312c3" x="72.318" y="0">o</tspan><tspan x="79.791" y="0">p</tspan><tspan class="b4a5e229-2868-4714-9ef7-a6d5f73275bc" x="87.519" y="0">e</tspan><tspan class="a73ba34a-4e91-4482-ac38-4c21479e6f80" x="94.693" y="0">n</tspan><tspan class="b2b22065-2af1-4592-b104-50dc3cd29a92" x="102.24" y="0">s</tspan><tspan class="ba3ec486-b934-440a-a12a-04d9296f2481" x="108.471" y="0">h</tspan><tspan class="f242c612-aa2b-432c-9b91-ef11998df8d7" x="115.979" y="0">i</tspan><tspan class="bff60321-1060-4cc4-88e6-cd2a402a4cf5" x="119.362" y="0">f</tspan><tspan class="f70a4fe1-ca11-4d77-8bb8-e8c11771f734" x="124.998" y="0">t</tspan><tspan x="130.458" y="0">-</tspan><tspan class="bd6c0916-9f91-4866-92ce-3820d84d51f9" x="0" y="12">i</tspan><tspan class="ffe70401-6de0-4a4a-8871-31c304960615" x="3.545" y="12">n</tspan><tspan class="f6135044-c433-40eb-83e9-104f7d60f8ba" x="11.023" y="12">g</tspan><tspan class="fce2825a-9724-426b-93ad-8cf55768fc1f" x="18.828" y="12">r</tspan><tspan class="e7ad229a-45c1-4830-a567-1a6eb2da2e58" x="24.115" y="12">e</tspan><tspan class="ae28c545-8218-484d-9a64-77be44c545b9" x="31.276" y="12">s</tspan><tspan x="37.481" y="12" letter-spacing=".003em">s</tspan><tspan x="43.653" y="12" letter-spacing=".022em">-</tspan><tspan class="a4eca8f7-f26d-4f6f-90f8-81328c2312c3" x="49.552" y="12">o</tspan><tspan x="57.024" y="12">p</tspan><tspan class="b4a5e229-2868-4714-9ef7-a6d5f73275bc" x="64.752" y="12">e</tspan><tspan x="71.927" y="12" letter-spacing="-.001em">r</tspan><tspan x="77.22" y="12" letter-spacing="-.007em">a</tspan><tspan x="84.079" y="12" letter-spacing=".003em">to</tspan><tspan x="97.087" y="12">r</tspan></text><text class="a08abd65-09ec-4c47-8e0c-23b88c6516f4" transform="translate(405 80.035)"><tspan class="f88f16ca-bb58-4494-ab7d-28b68eb2c108">n</tspan><tspan class="ab4a735e-e180-41e6-a779-8fba3f86c5e9" x="7.462" y="0">a</tspan><tspan class="e7ad229a-45c1-4830-a567-1a6eb2da2e58" x="14.513" y="0">me</tspan><tspan class="b2b22065-2af1-4592-b104-50dc3cd29a92" x="32.688" y="0">s</tspan><tspan class="f865be7b-e6da-464f-ac5e-a134917ee505" x="38.918" y="0">p</tspan><tspan class="fab86e28-0800-4c26-81fd-ad7be4beec0f" x="46.622" y="0">a</tspan><tspan class="e57c801c-7395-4e3b-8020-2f8e2a278b09" x="53.609" y="0">c</tspan><tspan class="e6dff30f-1adc-40b5-a636-df7edb640e8b" x="59.971" y="0">e</tspan><tspan class="b39526ee-a120-4404-a47b-e8da0abd312d" x="66.801" y="0">/</tspan><tspan class="a4eca8f7-f26d-4f6f-90f8-81328c2312c3" x="72.318" y="0">o</tspan><tspan x="79.791" y="0">p</tspan><tspan class="b4a5e229-2868-4714-9ef7-a6d5f73275bc" x="87.519" y="0">e</tspan><tspan class="a73ba34a-4e91-4482-ac38-4c21479e6f80" x="94.693" y="0">n</tspan><tspan class="b2b22065-2af1-4592-b104-50dc3cd29a92" x="102.24" y="0">s</tspan><tspan class="ba3ec486-b934-440a-a12a-04d9296f2481" x="108.471" y="0">h</tspan><tspan class="f242c612-aa2b-432c-9b91-ef11998df8d7" x="115.979" y="0">i</tspan><tspan class="bff60321-1060-4cc4-88e6-cd2a402a4cf5" x="119.362" y="0">f</tspan><tspan class="f70a4fe1-ca11-4d77-8bb8-e8c11771f734" x="124.998" y="0">t</tspan><tspan x="130.458" y="0">-</tspan><tspan class="e57c801c-7395-4e3b-8020-2f8e2a278b09" x="0" y="12">c</tspan><tspan x="6.361" y="12" letter-spacing=".004em">o</tspan><tspan x="13.833" y="12" letter-spacing="-.007em">n</tspan><tspan x="21.166" y="12" letter-spacing="-.001em">f</tspan><tspan x="26.67" y="12" letter-spacing=".002em">i</tspan><tspan x="30.147" y="12" letter-spacing=".015em">g</tspan><tspan x="38.028" y="12" letter-spacing=".014em">-</tspan><tspan x="43.834" y="12" letter-spacing=".005em">m</tspan><tspan class="ab4a735e-e180-41e6-a779-8fba3f86c5e9" x="54.854" y="12">a</tspan><tspan class="f88f16ca-bb58-4494-ab7d-28b68eb2c108" x="61.904" y="12">n</tspan><tspan class="fab86e28-0800-4c26-81fd-ad7be4beec0f" x="69.366" y="12">a</tspan><tspan x="76.354" y="12" letter-spacing=".005em">g</tspan><tspan x="84.123" y="12" letter-spacing=".003em">e</tspan><tspan x="91.264" y="12">d</tspan></text><path class="efd8c3f7-d6a4-4b1e-b677-9eaa7b7964a2" d="M210 111.622h140v110H210z"/><text class="a423d674-ff42-417c-97af-70dedc4bda64" transform="translate(220 132.797)">deployments/router-<tspan x="0" y="12">default</tspan></text><circle class="a6d20bfa-c9ec-40e2-8524-8c1584293ece" cx="280" cy="111.622" r="9"/><text class="b04c2467-22dd-405c-9c16-51bf486ef9e4" transform="translate(276.268 115.408)">3</text><path class="e9b6315b-f773-43e2-8baa-123270f31e9f" d="M395.324 136.622H380v50"/><path class="a6d20bfa-c9ec-40e2-8524-8c1584293ece" d="M393.865 131.636l8.635 4.986-8.635 4.987v-9.973z"/><path class="e9b6315b-f773-43e2-8baa-123270f31e9f" d="M395.324 206.622H380v-20h-40"/><path class="a6d20bfa-c9ec-40e2-8524-8c1584293ece" d="M393.865 201.636l8.635 4.986-8.635 4.987v-9.973z"/><path fill="#c9dc95" d="M220 161.622h120v50H220z"/><text class="a423d674-ff42-417c-97af-70dedc4bda64" transform="translate(246.995 182.797)">secrets/my-<tspan x="0" y="12">certificate</tspan></text><circle class="a6d20bfa-c9ec-40e2-8524-8c1584293ece" cx="280" cy="161.622" r="9"/><text class="f9de0ffc-486b-4648-92e5-9a930d997bc6" transform="translate(276.82 165.03)">2</text><path class="e9b6315b-f773-43e2-8baa-123270f31e9f" d="M279.775 405.634V276.622h115.549"/><path class="a6d20bfa-c9ec-40e2-8524-8c1584293ece" d="M393.865 281.609l8.635-4.987-8.635-4.986v9.973z"/><path class="e9b6315b-f773-43e2-8baa-123270f31e9f" d="M475 382.858v-81.236"/><path class="a6d20bfa-c9ec-40e2-8524-8c1584293ece" d="M479.986 381.399L475 390.034l-4.986-8.635h9.972z"/><path class="e9b6315b-f773-43e2-8baa-123270f31e9f" d="M210.324 194.122H84.75v138.5"/><path class="a6d20bfa-c9ec-40e2-8524-8c1584293ece" d="M208.865 189.136l8.635 4.986-8.635 4.987v-9.973z"/><path class="e9b6315b-f773-43e2-8baa-123270f31e9f" d="M210.324 179.122h-1.5"/><path stroke-dasharray="2.99 2.99" stroke-linecap="round" stroke-linejoin="round" stroke="#151515" fill="none" d="M205.834 179.122H87.745"/><path class="e9b6315b-f773-43e2-8baa-123270f31e9f" d="M86.25 179.122h-1.5v-1.5"/><path stroke-dasharray="2.9 2.9" stroke-linecap="round" stroke-linejoin="round" stroke="#151515" fill="none" d="M84.75 174.722v-10.15"/><path class="e9b6315b-f773-43e2-8baa-123270f31e9f" d="M84.75 163.122v-1.5"/><path class="a6d20bfa-c9ec-40e2-8524-8c1584293ece" d="M208.865 174.136l8.635 4.986-8.635 4.987v-9.973z"/><path class="efd8c3f7-d6a4-4b1e-b677-9eaa7b7964a2" d="M15 111.622h140v50H15z"/><text class="a423d674-ff42-417c-97af-70dedc4bda64" transform="translate(27.991 135.768)">ingresscontrollers/<tspan x="36.006" y="12">default</tspan></text><text class="f16fb1c3-2186-44fd-865c-b7e7ac720b67" transform="translate(33.927 28.42)"><tspan letter-spacing="-.025em">R</tspan><tspan class="a25f08b1-4afc-4bc2-b9b7-3a162b286ef4" x="6.47" y="0">e</tspan><tspan x="12.05" y="0" letter-spacing="-.017em">f</tspan><tspan class="e799acfd-4707-4191-b36e-c9d27447b738" x="15.99" y="0">e</tspan><tspan class="fd8a23d7-c2c2-4675-87b2-f287ec565dc1" x="21.72" y="0">r</tspan><tspan x="25.41" y="0">en</tspan><tspan class="a25f08b1-4afc-4bc2-b9b7-3a162b286ef4" x="36.96" y="0">c</tspan><tspan class="e799acfd-4707-4191-b36e-c9d27447b738" x="42.04" y="0">e</tspan></text><path class="e9b6315b-f773-43e2-8baa-123270f31e9f" d="M20.824 25.134h-1.5"/><path stroke-dasharray="3.465 3.465" stroke-linecap="round" stroke-linejoin="round" stroke="#151515" fill="none" d="M15.859 25.134H3.732"/><path class="e9b6315b-f773-43e2-8baa-123270f31e9f" d="M2 25.134H.5"/><path class="a6d20bfa-c9ec-40e2-8524-8c1584293ece" d="M19.365 20.148L28 25.134l-8.635 4.987v-9.973z"/><text class="f16fb1c3-2186-44fd-865c-b7e7ac720b67" transform="translate(137.697 28.42)"><tspan class="bf8f2577-c849-4e6e-b2cd-d31617b33253">C</tspan><tspan x="7.08" y="0">o</tspan><tspan class="a25f08b1-4afc-4bc2-b9b7-3a162b286ef4" x="13.06" y="0">n</tspan><tspan x="18.729" y="0" letter-spacing="-.007em">t</tspan><tspan x="22.8" y="0">e</tspan><tspan class="bf8f2577-c849-4e6e-b2cd-d31617b33253" x="28.53" y="0">n</tspan><tspan x="34.2" y="0" letter-spacing=".01em">t</tspan><tspan x="38.439" y="0" letter-spacing="0">s a</tspan><tspan class="fd8a23d7-c2c2-4675-87b2-f287ec565dc1" x="50.979" y="0">r</tspan><tspan x="54.669" y="0">e </tspan><tspan class="bf8f2577-c849-4e6e-b2cd-d31617b33253" x="62.649" y="0">c</tspan><tspan x="67.729" y="0">opi</tspan><tspan x="82.339" y="0" letter-spacing=".003em">e</tspan><tspan x="88.099" y="0">d</tspan></text><path class="e9b6315b-f773-43e2-8baa-123270f31e9f" d="M124.594 25.134h-20.323"/><path class="a6d20bfa-c9ec-40e2-8524-8c1584293ece" d="M123.135 20.148l8.636 4.986-8.636 4.987v-9.973z"/><path class="e9b6315b-f773-43e2-8baa-123270f31e9f" d="M595.327 136.622H544.94"/><path class="a6d20bfa-c9ec-40e2-8524-8c1584293ece" d="M593.868 131.636l8.635 4.986-8.635 4.987v-9.973z"/><g><circle class="a6d20bfa-c9ec-40e2-8524-8c1584293ece" cx="85" cy="111.622" r="9"/><text class="b04c2467-22dd-405c-9c16-51bf486ef9e4" transform="translate(80.949 115.408)">0</text></g><g><path class="e9b6315b-f773-43e2-8baa-123270f31e9f" d="M579.942 279.122h15.385"/><path class="a6d20bfa-c9ec-40e2-8524-8c1584293ece" d="M593.868 284.109l8.635-4.987-8.635-4.986v9.973z"/></g><g><path class="e9b6315b-f773-43e2-8baa-123270f31e9f" d="M579.942 424.32h15.385"/><path class="a6d20bfa-c9ec-40e2-8524-8c1584293ece" d="M593.868 429.306l8.635-4.986-8.635-4.987v9.973z"/></g><g><path class="e9b6315b-f773-43e2-8baa-123270f31e9f" d="M170 426.534h30.324"/><path class="a6d20bfa-c9ec-40e2-8524-8c1584293ece" d="M198.865 431.521l8.635-4.987-8.635-4.986v9.973z"/></g><g><path class="e9b6315b-f773-43e2-8baa-123270f31e9f" d="M595.327 576.622h-15.336v-370H545"/><path class="a6d20bfa-c9ec-40e2-8524-8c1584293ece" d="M593.868 571.636l8.635 4.986-8.635 4.987v-9.973z"/></g><path class="b7e1cc87-f2dc-42ee-972f-614e1c973559" d="M263.786 352.821h31.927v18.357h-31.927zM457.327 352.821h31.927v18.357h-31.927zM263.786 504.666h31.927v18.235h-31.927z"/><text class="aebd3131-c2bb-4fab-8be4-249644d1e574" transform="translate(210 364.947)"><tspan class="e7501fa3-f073-475a-bfb3-69fd3592c927">n</tspan><tspan class="b405eaa2-98a2-425c-b9e4-e9302572f6c3" x="6.883" y="0">a</tspan><tspan class="e1ca02a3-e6f8-41e9-ab73-84183669693b" x="13.388" y="0">me</tspan><tspan class="a49a2094-a5c7-47e5-a0a5-504a0d4da4fd" x="30.135" y="0">s</tspan><tspan class="ed2424ec-1530-41b2-a10f-d09bc38aa31d" x="35.887" y="0">p</tspan><tspan class="e623f7f4-2b0e-454b-ac4f-98ef2bfd71f2" x="42.993" y="0">a</tspan><tspan class="e4ac5420-bdab-4eb8-9ed7-8b73af36efb9" x="49.441" y="0">c</tspan><tspan class="bb97b259-8816-4e65-bf48-8e063017c663" x="55.317" y="0">e</tspan><tspan class="f8256d2c-74a4-4574-8da5-8fc2c8ebf6b8" x="61.629" y="0">/</tspan><tspan class="ab9d4d1f-72ae-49cf-9b52-9332f72ae151" x="66.745" y="0">o</tspan><tspan class="eb969b77-9918-48f1-acf3-f0b533af3354" x="73.638" y="0">p</tspan><tspan class="f800bb8b-1a8f-4a8b-9b67-1a5bf15742dd" x="80.767" y="0">e</tspan><tspan class="a8c0d35f-6d6c-4e51-812f-b242564abb57" x="87.386" y="0">n</tspan><tspan class="b6d9919d-e4b7-4a6f-9e85-3e79ff2fe6cf" x="94.345" y="0">s</tspan><tspan class="be57c5dd-b6c1-4fb1-987f-51f7ca0aeb33" x="100.098" y="0">h</tspan><tspan class="b357bef6-eecb-4e05-90d6-8449c6ccfc32" x="107.021" y="0">i</tspan><tspan class="f6091ffd-997a-4965-84d0-b8207c258fab" x="110.167" y="0">f</tspan><tspan class="ad7f6711-34d5-43b0-acb1-235f1ff691f9" x="115.374" y="0">t</tspan><tspan x="120.426" y="0">-</tspan><tspan class="e4ac5420-bdab-4eb8-9ed7-8b73af36efb9"><tspan x="0" y="12">c</tspan><tspan class="ab9d4d1f-72ae-49cf-9b52-9332f72ae151" x="5.876" y="12">o</tspan><tspan x="12.769" y="12" letter-spacing="-.003em">n</tspan><tspan x="19.536" y="12" letter-spacing=".003em">f</tspan><tspan class="a75e106e-9ce9-4d9b-8fa9-8201aade40fa" x="24.624" y="12">i</tspan><tspan class="f2c31147-0c85-463e-8cb4-24f73d0377ca" x="27.854" y="12">g</tspan></tspan></text><g><circle class="a6d20bfa-c9ec-40e2-8524-8c1584293ece" cx="280" cy="401.534" r="9"/><text class="b04c2467-22dd-405c-9c16-51bf486ef9e4" transform="translate(276.241 405.32)">8</text></g><path class="efd8c3f7-d6a4-4b1e-b677-9eaa7b7964a2" d="M210 551.534h140v50H210z"/><text class="a423d674-ff42-417c-97af-70dedc4bda64" transform="translate(234.992 581.679)">proxies/cluster</text><g><circle class="a6d20bfa-c9ec-40e2-8524-8c1584293ece" cx="280" cy="551.534" r="9"/><text class="f9de0ffc-486b-4648-92e5-9a930d997bc6" transform="translate(276.572 554.941)">9</text></g><path class="b7e1cc87-f2dc-42ee-972f-614e1c973559" d="M0 341.622h170v125H0z"/><g><text transform="translate(73.043 430.789)" font-family="RedHatText,&quot;Red Hat Text&quot;,Overpass,&quot;Helvetica Neue&quot;,Arial,sans-serif" font-weight="500" fill="#151515" font-size="11">User</text><path class="a397e369-c629-4374-830d-c3bd883604c2" d="M104.75 414.221a19.751 19.751 0 00-39.5 0z"/><ellipse class="a397e369-c629-4374-830d-c3bd883604c2" cx="85" cy="384.858" rx="9.916" ry="9.82"/></g><g><circle class="a6d20bfa-c9ec-40e2-8524-8c1584293ece" cx="85" cy="341.61" r="9"/><text class="b04c2467-22dd-405c-9c16-51bf486ef9e4" transform="translate(81.601 345.396)">7</text></g><text transform="translate(210 514.947)" letter-spacing=".008em" font-family="RedHatText,&quot;Red Hat Text&quot;,Overpass,&quot;Helvetica Neue&quot;,Arial,sans-serif" font-weight="700" fill="#151515" font-size="11">c<tspan x="6.021" y="0" letter-spacing=".012em">l</tspan><tspan x="9.318" y="0" letter-spacing=".016em">u</tspan><tspan x="16.296" y="0" letter-spacing=".002em">s</tspan><tspan x="21.94" y="0" letter-spacing=".007em">t</tspan><tspan class="fc25368f-e48e-4840-8247-8679b20e0daf" x="27.06" y="0">e</tspan><tspan x="33.678" y="0" letter-spacing=".004em">r</tspan><tspan class="f57d220a-1b68-4f7c-a2a6-2d2846899ea0" x="38.583" y="0">-</tspan><tspan class="b84c9e21-f001-4c18-8a24-ded092a6e94a" x="43.926" y="0">s</tspan><tspan class="e4ac5420-bdab-4eb8-9ed7-8b73af36efb9" x="49.606" y="0">c</tspan><tspan class="ab9d4d1f-72ae-49cf-9b52-9332f72ae151" x="55.482" y="0">o</tspan><tspan class="eb969b77-9918-48f1-acf3-f0b533af3354" x="62.375" y="0">p</tspan><tspan x="69.504" y="0" letter-spacing=".007em">e</tspan><tspan class="acd43f6f-f4f0-4cbe-8e41-2d26efb11218" x="76.094" y="0">d</tspan></text><path class="efd8c3f7-d6a4-4b1e-b677-9eaa7b7964a2" d="M405 111.622h140v50H405z"/><text class="a423d674-ff42-417c-97af-70dedc4bda64" transform="translate(429.993 135.768)">secrets/router-<tspan x="30.004" y="12">certs</tspan></text><g><circle class="a6d20bfa-c9ec-40e2-8524-8c1584293ece" cx="475" cy="111.622" r="9"/><text class="b04c2467-22dd-405c-9c16-51bf486ef9e4" transform="translate(470.955 115.408)">4</text></g><path class="efd8c3f7-d6a4-4b1e-b677-9eaa7b7964a2" d="M405 181.622h140v50H405z"/><text class="a423d674-ff42-417c-97af-70dedc4bda64" transform="translate(417.991 205.768)">configmaps/default-<tspan x="21.003" y="12">ingress-cert</tspan></text><g><circle class="a6d20bfa-c9ec-40e2-8524-8c1584293ece" cx="475" cy="181.622" r="9"/><text class="b04c2467-22dd-405c-9c16-51bf486ef9e4" transform="translate(471.362 185.408)">5</text></g><path class="efd8c3f7-d6a4-4b1e-b677-9eaa7b7964a2" d="M405 251.622h140v50H405z"/><text class="a423d674-ff42-417c-97af-70dedc4bda64" transform="translate(417.991 275.768)">configmaps/trusted-<tspan x="30.004" y="12">ca-bundle</tspan></text><g><circle class="a6d20bfa-c9ec-40e2-8524-8c1584293ece" cx="475" cy="251.622" r="9"/><text class="b04c2467-22dd-405c-9c16-51bf486ef9e4" transform="translate(471.17 255.408)">6</text></g><text transform="translate(405 364.947)" letter-spacing=".006em" font-family="RedHatText,&quot;Red Hat Text&quot;,Overpass,&quot;Helvetica Neue&quot;,Arial,sans-serif" font-weight="700" fill="#151515" font-size="11">R<tspan x="7.798" y="0" letter-spacing=".007em">e</tspan><tspan class="fe6228b9-dd07-42ab-80d5-f08c89e57915" x="14.387" y="0">q</tspan><tspan x="21.605" y="0" letter-spacing=".009em">ue</tspan><tspan class="ed2424ec-1530-41b2-a10f-d09bc38aa31d" x="35.109" y="0">s</tspan><tspan class="b6c9f4bf-db96-4ea4-b37e-f59527afd63a" x="40.753" y="0">t</tspan><tspan x="46.013" y="0" letter-spacing=".011em">i</tspan><tspan x="49.304" y="0" letter-spacing=".009em">n</tspan><tspan class="f2c31147-0c85-463e-8cb4-24f73d0377ca" x="56.2" y="0">g </tspan><tspan class="e7501fa3-f073-475a-bfb3-69fd3592c927" x="65.627" y="0">n</tspan><tspan x="72.51" y="0" letter-spacing=".012em">a</tspan><tspan class="e1ca02a3-e6f8-41e9-ab73-84183669693b" x="79.016" y="0">me</tspan><tspan class="b6d9919d-e4b7-4a6f-9e85-3e79ff2fe6cf" x="95.762" y="0">s</tspan><tspan x="101.515" y="0" letter-spacing=".002em">p</tspan><tspan class="e623f7f4-2b0e-454b-ac4f-98ef2bfd71f2" x="108.62" y="0">a</tspan><tspan class="e4ac5420-bdab-4eb8-9ed7-8b73af36efb9" x="115.068" y="0">c</tspan><tspan x="120.944" y="0" letter-spacing=".009em">e</tspan><tspan class="acd43f6f-f4f0-4cbe-8e41-2d26efb11218" x="127.553" y="0">s</tspan></text><g><text transform="translate(668.722 640.049)" font-family="RedHatText,&quot;Red Hat Text&quot;,Overpass,&quot;Helvetica Neue&quot;,Arial,sans-serif" font-size="10" fill="#f3f3f3">75_OpenShift_0520</text><path fill="none" d="M0 617.032h760v40H0z"/></g></svg>