<?xml version="1.0" encoding="UTF-8" standalone="no"?>
<svg id="b6bdd2b4-52ab-488a-9a30-1e6d1d7dd2d4" data-name="Layer 1" viewBox="0 0 967.34145 227.68416" version="1.1" sodipodi:docname="logo.svg" inkscape:version="1.1.1 (3bf5ae0d25, 2021-09-20)" width="967.34143" height="227.68416" xmlns:inkscape="http://www.inkscape.org/namespaces/inkscape" xmlns:sodipodi="http://sodipodi.sourceforge.net/DTD/sodipodi-0.dtd" xmlns="http://www.w3.org/2000/svg" xmlns:svg="http://www.w3.org/2000/svg" xmlns:rdf="http://www.w3.org/1999/02/22-rdf-syntax-ns#" xmlns:cc="http://creativecommons.org/ns#" xmlns:dc="http://purl.org/dc/elements/1.1/">
   <metadata id="metadata15">
      <rdf:RDF>
         <cc:Work rdf:about="">
            <dc:format>image/svg+xml</dc:format>
            <dc:type rdf:resource="http://purl.org/dc/dcmitype/StillImage" />
         </cc:Work>
      </rdf:RDF>
   </metadata>
   <sodipodi:namedview pagecolor="#ffffff" bordercolor="#666666" borderopacity="1" objecttolerance="10" gridtolerance="10" guidetolerance="10" inkscape:pageopacity="0" inkscape:pageshadow="2" inkscape:window-width="1920" inkscape:window-height="1011" id="namedview13" showgrid="false" inkscape:zoom="2.2638117" inkscape:cx="648.24296" inkscape:cy="155.9317" inkscape:window-x="0" inkscape:window-y="0" inkscape:window-maximized="1" inkscape:current-layer="b6bdd2b4-52ab-488a-9a30-1e6d1d7dd2d4" fit-margin-top="0" fit-margin-left="0" fit-margin-right="0" fit-margin-bottom="0" />
   <defs id="defs4">
      <style id="style2">.a737459c-e8c7-4afa-8008-f6cfd15ccda2{fill:#e00;}</style>
   </defs>
   <path d="m 915.79629,145.93922 c 0,18.81557 11.38421,27.98618 31.93903,27.98618 a 84.417065,84.417065 0 0 0 18.81557,-2.68794 v -21.81973 a 39.955408,39.955408 0 0 1 -12.17478,1.89737 c -8.53816,0 -11.70044,-2.68794 -11.70044,-10.59364 v -33.52017 h 24.66579 V 84.749105 H 942.67567 V 56.288584 l -26.87938,5.850218 v 22.610303 h -17.86688 v 22.452185 h 17.70877 z m -83.80042,0.47434 c 0,-5.85021 5.85022,-8.69627 14.7046,-8.69627 a 60.636719,60.636719 0 0 1 15.96952,2.05549 v 11.38421 a 32.919335,32.919335 0 0 1 -16.76009,4.11096 c -8.69627,0 -13.91403,-3.32039 -13.91403,-8.85439 m 8.22193,27.82807 a 42.200627,42.200627 0 0 0 24.34955,-6.7989 v 5.37587 h 26.56316 v -56.4467 c 0,-21.503499 -14.38838,-33.203935 -38.57982,-33.203935 -13.43969,0 -26.72127,3.16228 -41.10964,9.644954 l 9.64495,19.764251 c 10.27741,-4.26908 18.97368,-6.95702 26.56316,-6.95702 11.06798,0 16.76008,4.26908 16.76008,13.12347 v 4.26907 a 77.349369,77.349369 0 0 0 -19.92236,-2.52982 c -22.61031,0 -36.20811,9.48684 -36.20811,26.40504 0,15.49517 12.33289,27.35372 31.93903,27.35372 M 694.12046,172.8186 h 28.61864 v -45.69494 h 47.90854 v 45.53683 h 28.61863 V 56.288584 H 770.64764 V 101.03485 H 722.7391 V 56.288584 H 694.12046 Z M 585.17992,128.7048 c 0,-12.64912 9.96118,-22.29408 23.08464,-22.29408 a 28.017801,28.017801 0 0 1 18.65745,6.79891 v 30.83222 a 26.278547,26.278547 0 0 1 -18.65745,7.11514 c -12.96535,-0.15812 -23.08464,-9.80307 -23.08464,-22.45219 m 42.05832,44.1138 h 26.56315 V 50.438366 l -26.87938,5.850218 v 33.045827 a 44.49328,44.49328 0 0 0 -22.45219,-5.850218 c -25.61446,0 -45.69494,19.764247 -45.69494,45.062487 a 44.667205,44.667205 0 0 0 44.1138,45.22061 h 0.79057 a 40.255825,40.255825 0 0 0 23.55899,-7.58948 z M 505.17423,105.14581 c 8.53816,0 15.65329,5.53399 18.49934,13.91403 h -36.68245 a 18.277978,18.277978 0 0 1 18.18311,-13.91403 m -45.37872,23.7171 c 0,25.61447 20.87105,45.53683 47.90855,45.53683 14.86271,0 25.61446,-3.95285 36.68244,-13.28157 l -17.86688,-15.8114 c -4.11096,4.26907 -10.27741,6.64078 -17.55065,6.64078 a 22.720982,22.720982 0 0 1 -21.66162,-13.91403 h 62.61314 v -6.64078 c 0,-27.98618 -18.81556,-48.066661 -44.43003,-48.066661 a 45.188981,45.188981 0 0 0 -45.85306,44.430031 2.3400872,2.3400872 0 0 1 0.15811,1.1068 m -46.3274,-48.066655 c 9.48684,0 14.86272,6.008331 14.86272,13.123462 0,7.115133 -5.37588,13.123463 -14.86272,13.123463 h -28.3024 V 80.796255 Z m -56.92104,91.864235 h 28.61864 v -42.37455 h 21.81973 l 21.97784,42.37455 h 31.93903 l -25.61447,-46.64363 a 35.291045,35.291045 0 0 0 21.97785,-32.729599 c 0,-20.871049 -16.44386,-37.156791 -41.10964,-37.156791 h -59.60898 z" id="path6" style="fill:#ffffff;stroke-width:1.58114" />
   <path class="a737459c-e8c7-4afa-8008-f6cfd15ccda2" d="m 200.80478,131.23462 c 19.76425,0 48.38288,-4.11096 48.38288,-27.66995 a 30.879664,30.879664 0 0 0 -0.47434,-5.375875 L 237.01289,46.959858 C 234.32495,35.733764 231.95324,30.516002 212.18899,20.712934 196.85193,12.807234 163.48988,0 153.52869,0 c -9.32872,0 -12.01666,11.85855 -22.92653,11.85855 -10.59363,0 -18.34122,-8.854384 -28.3024,-8.854384 -9.486842,0 -15.653288,6.482674 -20.396708,19.76425 0,0 -13.281576,37.473018 -15.02083,43.007008 a 9.724011,9.724011 0 0 0 -0.316228,3.004166 c -0.158114,14.546489 57.237266,62.29692 134.238786,62.45503 m 51.38705,-18.02499 c 2.68794,12.96534 2.68794,14.38837 2.68794,15.96951 0,22.13596 -24.8239,34.46885 -57.5535,34.46885 -73.99735,0 -138.665976,-43.32323 -138.665976,-71.941869 a 29.013919,29.013919 0 0 1 2.37171,-11.542322 C 34.468852,81.428711 0,86.172131 0,116.53002 c 0,49.80591 117.95304,111.15414 211.2403,111.15414 71.62565,0 89.65064,-32.41337 89.65064,-58.02784 0,-20.08047 -17.39254,-42.84889 -48.69911,-56.44669" id="path8" style="stroke-width:1.58114" />
   <path d="m 252.19183,113.20963 c 2.68794,12.96534 2.68794,14.38837 2.68794,15.96951 0,22.13596 -24.8239,34.46885 -57.5535,34.46885 -73.99735,0 -138.665976,-43.32323 -138.665976,-71.941869 a 29.013919,29.013919 0 0 1 2.37171,-11.542322 l 5.850218,-14.388375 a 9.724011,9.724011 0 0 0 -0.316228,3.004166 c 0,14.546489 57.395386,62.29692 134.238786,62.29692 19.76425,0 48.38288,-4.11097 48.38288,-27.66995 a 30.879664,30.879664 0 0 0 -0.47434,-5.375879 z" id="path10" style="stroke-width:1.58114" />
</svg>