<?xml version="1.0" encoding="utf-8"?>
<!-- Generator: Adobe Illustrator 16.0.4, SVG Export Plug-In . SVG Version: 6.00 Build 0)  -->
<!DOCTYPE svg PUBLIC "-//W3C//DTD SVG 1.1//EN" "http://www.w3.org/Graphics/SVG/1.1/DTD/svg11.dtd">
<svg version="1.1"
	 id="Layer_1" xmlns:dc="http://purl.org/dc/elements/1.1/" xmlns:rdf="http://www.w3.org/1999/02/22-rdf-syntax-ns#" xmlns:cc="http://creativecommons.org/ns#"
	 xmlns="http://www.w3.org/2000/svg" xmlns:xlink="http://www.w3.org/1999/xlink" x="0px" y="0px" width="220px" height="39px"
	 viewBox="0 0 220 39" enable-background="new 0 0 220 39" xml:space="preserve">
<g>
	<path d="M61.933,13.025c-2.86,0-4.756,2.304-4.756,6.443c0,4.138,1.985,6.5,4.847,6.5c2.86,0,4.753-2.303,4.753-6.445
		C66.776,15.387,64.791,13.025,61.933,13.025 M61.961,30.018c-5.34,0-8.988-3.904-8.988-10.494c0-6.582,3.706-10.55,9.051-10.55
		c5.307,0,8.958,3.904,8.958,10.492C70.982,26.055,67.272,30.018,61.961,30.018"/>
	<path d="M83.67,13.258h-4.698v5.249h4.757c1.895,0,2.918-0.875,2.918-2.657C86.647,14.073,85.479,13.258,83.67,13.258
		 M83.467,22.47h-4.496v7.228h-4.085V9.295h8.929c3.851,0,7.033,2.129,7.033,6.471C90.847,20.489,87.697,22.47,83.467,22.47"/>
	<polygon points="95.077,29.696 95.077,9.295 109.256,9.295 109.256,13.289 99.159,13.289 99.159,16.815 105.023,16.815 
		105.023,20.777 99.159,20.777 99.159,25.701 109.694,25.701 109.694,29.696 	"/>
	<path d="M127.284,29.696l-7.501-11.131c-0.498-0.757-1.166-1.778-1.428-2.301c0,0.757,0.056,3.321,0.056,4.461v8.972h-4.023V9.295
		h3.904l7.239,10.787c0.498,0.755,1.169,1.782,1.43,2.301c0-0.762-0.057-3.323-0.057-4.459v-8.63h4.023v20.401L127.284,29.696
		L127.284,29.696z"/>
	<path d="M142.808,30.018c-2.769,0-5.25-1.198-6.854-2.826l1.515-1.69c1.548,1.485,3.328,2.449,5.428,2.449
		c2.717,0,4.41-1.339,4.41-3.497c0-1.897-1.139-2.972-4.875-4.312c-4.405-1.576-5.898-3.003-5.898-5.949
		c0-3.268,2.568-5.217,6.394-5.217c2.745,0,4.496,0.814,6.217,2.188l-1.458,1.777c-1.487-1.227-2.861-1.899-4.905-1.899
		c-2.8,0-3.97,1.4-3.97,3.002c0,1.694,0.762,2.654,4.844,4.112c4.525,1.633,5.926,3.149,5.926,6.179
		C149.584,27.543,147.072,30.018,142.808,30.018"/>
	<polygon points="167.085,29.696 167.085,20.082 156.93,20.082 156.93,29.696 154.654,29.696 154.654,9.295 156.93,9.295 
		156.93,18.009 167.085,18.009 167.085,9.295 169.36,9.295 169.36,29.696 	"/>
	<rect x="175.215" y="9.296" width="2.277" height="20.401"/>
	<polygon points="185.631,11.364 185.631,18.127 191.23,18.127 191.23,20.199 185.631,20.199 185.631,29.696 183.354,29.696 
		183.354,9.295 195.35,9.295 195.35,11.364 	"/>
	<polygon points="207.722,11.364 207.722,29.696 205.444,29.696 205.444,11.364 199.435,11.364 199.435,9.295 213.731,9.295 
		213.731,11.364 	"/>
	<path fill="#BC1C29" d="M12.35,17.49l-6.83,2.481c0.088,1.093,0.275,2.173,0.54,3.233l6.484-2.365
		C12.335,19.749,12.261,18.621,12.35,17.49"/>
	<path fill="#BC1C29" d="M42.517,9.952c-0.476-0.979-1.024-1.929-1.665-2.824l-6.827,2.481c0.795,0.813,1.463,1.723,2.007,2.699
		L42.517,9.952z"/>
	<path fill="#E22434" d="M27.498,8.022c1.418,0.662,2.652,1.562,3.687,2.621l6.828-2.483c-1.895-2.649-4.468-4.862-7.62-6.333
		C20.635-2.719,8.989,1.513,4.446,11.258c-1.477,3.15-2.024,6.503-1.769,9.746l6.829-2.484c0.11-1.475,0.475-2.955,1.138-4.375
		C13.597,7.816,21.162,5.067,27.498,8.022"/>
	<path fill="#E22434" d="M6.486,23.05L0,25.408c0.597,2.359,1.631,4.605,3.051,6.598l6.814-2.473
		C8.115,27.738,6.949,25.473,6.486,23.05"/>
	<path fill="#E22434" d="M34.778,20.478c-0.109,1.475-0.478,2.958-1.144,4.378c-2.956,6.336-10.518,9.084-16.86,6.131
		c-1.419-0.667-2.66-1.563-3.695-2.624l-6.81,2.479c1.887,2.647,4.46,4.861,7.614,6.333c9.757,4.544,21.399,0.313,25.952-9.434
		c1.472-3.149,2.015-6.499,1.757-9.741L34.778,20.478z"/>
	<path fill="#E22434" d="M36.458,12.152l-6.486,2.364c1.206,2.152,1.772,4.638,1.589,7.134l6.812-2.479
		C38.176,16.729,37.524,14.347,36.458,12.152"/>
	<path fill="#97101B" d="M12.321,18.86c-0.016-0.455-0.01-0.913,0.028-1.371l-6.83,2.481c0.033,0.435,0.088,0.868,0.154,1.3
		L12.321,18.86z"/>
	<path fill="#97101B" d="M41.532,8.156c-0.217-0.346-0.44-0.694-0.678-1.029l-6.825,2.481c0.3,0.307,0.578,0.634,0.842,0.965
		L41.532,8.156z"/>
	<path fill="#BC1C29" d="M6.271,30.841c0.523,0.734,1.105,1.443,1.736,2.104l7.414-2.696c-0.868-0.548-1.65-1.176-2.342-1.882
		L6.271,30.841z M41.593,18.001l-6.815,2.476c-0.072,0.983-0.263,1.964-0.576,2.927l7.41-2.697
		C41.67,19.798,41.659,18.896,41.593,18.001"/>
	<path d="M219.25,10.993c-0.071,0.172-0.168,0.319-0.293,0.443c-0.129,0.122-0.274,0.217-0.445,0.284
		c-0.171,0.067-0.355,0.1-0.56,0.1c-0.197,0-0.38-0.034-0.553-0.1c-0.17-0.068-0.318-0.163-0.449-0.284
		c-0.12-0.123-0.223-0.271-0.289-0.443c-0.075-0.171-0.112-0.362-0.112-0.573c0-0.209,0.037-0.4,0.112-0.57
		c0.066-0.172,0.169-0.32,0.289-0.444c0.127-0.125,0.276-0.216,0.449-0.285c0.169-0.067,0.356-0.1,0.553-0.1
		c0.204,0,0.39,0.033,0.56,0.1c0.169,0.069,0.313,0.163,0.445,0.285c0.125,0.124,0.222,0.271,0.293,0.444
		c0.071,0.17,0.106,0.361,0.106,0.57C219.356,10.631,219.322,10.821,219.25,10.993 M219.074,9.926
		c-0.062-0.151-0.147-0.279-0.258-0.384c-0.105-0.109-0.234-0.193-0.384-0.252c-0.145-0.059-0.308-0.091-0.48-0.091
		c-0.166,0-0.323,0.033-0.475,0.091c-0.145,0.06-0.272,0.144-0.381,0.252c-0.109,0.105-0.197,0.234-0.258,0.384
		c-0.062,0.151-0.096,0.312-0.096,0.495c0,0.18,0.033,0.348,0.096,0.498c0.06,0.148,0.148,0.278,0.258,0.387
		c0.108,0.106,0.236,0.188,0.381,0.246c0.152,0.062,0.307,0.092,0.475,0.092c0.171,0,0.336-0.029,0.48-0.092
		c0.148-0.058,0.278-0.142,0.384-0.246c0.11-0.109,0.195-0.237,0.258-0.387c0.063-0.15,0.093-0.317,0.093-0.498
		C219.169,10.238,219.138,10.072,219.074,9.926 M218.479,10.355c-0.062,0.073-0.147,0.125-0.258,0.151l0.347,0.662h-0.24
		l-0.333-0.647h-0.336v0.647h-0.204V9.622h0.629c0.144,0,0.258,0.038,0.352,0.107c0.099,0.075,0.146,0.186,0.146,0.337
		C218.577,10.182,218.544,10.279,218.479,10.355 M218.294,9.871c-0.052-0.043-0.127-0.067-0.227-0.067h-0.413v0.524h0.388
		c0.221,0,0.329-0.089,0.329-0.263C218.374,9.98,218.344,9.911,218.294,9.871"/>
</g>
</svg>
