<svg xmlns="http://www.w3.org/2000/svg" xmlns:xlink="http://www.w3.org/1999/xlink" xmlns:lucid="lucid" width="1462.79" height="1200"><g transform="translate(-138.68043131791035 100)" lucid:page-tab-id="0_0"><path d="M158.68-74a6 6 0 0 1 6-6H1314a6 6 0 0 1 6 6v1148a6 6 0 0 1-6 6H164.68a6 6 0 0 1-6-6z" fill="#fff"/><path d="M193.24-79.93h29.5m14.74 0h29.5m14.74 0h29.5m14.74 0h29.5m14.74 0h29.5m14.74 0h29.5m14.74-.02h29.5m14.74 0h29.5m14.74 0h29.5m14.74 0h29.5m14.74 0h29.5m14.74 0h29.5m14.74 0h29.5m14.74 0l29.5-.02m14.75 0h29.5m14.75 0h29.5m14.74 0h29.48m14.75 0h29.5m14.74 0h29.5m14.74 0h29.5m14.75 0l29.5-.02m14.74 0h29.48m14.75 0h29.5m14.74 0h29.5m14.74 0h29.5m14.75 0H1314l.94.07.9.22.88.35.8.5.72.6.6.72.5.8.37.88.23.9v14.74m0 14.72v29.46m0 14.73v29.47m0 14.73v29.46m0 14.73v29.45m0 14.73v29.46m0 14.73v29.46m.02 14.73v29.46m0 14.73v29.46m0 14.74v29.46m0 14.73v29.46m0 14.72v29.46m0 14.73v29.47m0 14.73v29.46m0 14.73l.02 29.45m0 14.73v29.46m0 14.73v29.46m0 14.73v29.46m0 14.73v29.46m0 14.74v29.46m0 14.73v29.46m0 14.72l.02 29.46m0 14.73v29.47m0 14.73v29.46m0 14.73v29.45m0 14.73v29.46m0 14.73V1074l-.07.94-.22.9-.35.88-.5.8-.6.72-.72.6-.8.5-.88.37-.9.23h-14.76m-14.76 0h-29.5m-14.74 0h-29.5m-14.74 0h-29.5m-14.74 0h-29.5m-14.74 0h-29.5m-14.74 0h-29.5m-14.74.02h-29.5m-14.74 0h-29.5m-14.74 0h-29.5m-14.74 0h-29.5m-14.74 0h-29.5m-14.74 0h-29.5m-14.74 0h-29.5m-14.74 0l-29.5.02m-14.74 0h-29.5m-14.75 0h-29.5m-14.74 0h-29.5m-14.75 0h-29.5m-14.74 0h-29.48m-14.75 0h-29.5m-14.74 0l-29.5.02m-14.74 0h-29.5m-14.75 0h-29.5m-14.74 0h-29.5m-14.73 0h-29.5m-14.74 0h-14.75l-.94-.07-.9-.22-.88-.35-.8-.5-.72-.6-.6-.72-.5-.8-.37-.88-.22-.9v-14.74m0-14.72v-29.46m0-14.73v-29.47m0-14.73v-29.46m0-14.73v-29.45m0-14.73v-29.46m0-14.73v-29.46m0-14.73l-.02-29.46m0-14.73V706.7m0-14.74V662.5m0-14.73V618.3m0-14.72v-29.46m0-14.73v-29.47m0-14.73v-29.46m0-14.73l-.02-29.45m0-14.73v-29.46m0-14.73v-29.46m0-14.73v-29.46m0-14.73V264.8m0-14.74V220.6m0-14.73V176.4m0-14.72v-29.46m0-14.73V88.02m0-14.73V43.84m0-14.73V-.34m-.02-14.73v-29.46m0-14.73V-74l.07-.94.22-.9.36-.88.5-.8.6-.72.72-.6.8-.5.88-.37.9-.23h14.76" stroke="#5e5e5e" stroke-width="3" fill="none"/><use xlink:href="#a" transform="matrix(1,0,0,1,163.68043131791035,-75) translate(478.62345679012344 17.77777777777778)"/><use xlink:href="#b" transform="matrix(1,0,0,1,163.68043131791035,-75) translate(516.895061728395 17.77777777777778)"/><use xlink:href="#c" transform="matrix(1,0,0,1,163.68043131791035,-75) translate(603.1913580246913 17.77777777777778)"/><path d="M178.68-34a6 6 0 0 1 6-6H1274a6 6 0 0 1 6 6v494a6 6 0 0 1-6 6H184.68a6 6 0 0 1-6-6z" fill="#e5e5e5"/><path d="M214.03-39.93h30.28m15.15 0h30.3m15.13 0h30.3m15.13 0h30.3m15.14 0h30.28m15.14 0l30.3-.02m15.13 0h30.28m15.14 0h30.28m15.15 0h30.28m15.14 0h30.3m15.13 0h30.3m15.13 0H744m15.16-.02h30.28m15.14 0h30.3m15.13 0h30.3m15.14 0h30.28m15.15 0h30.28m15.14 0h30.28m15.14 0l30.3-.02m15.13 0h30.28m15.15 0h30.28m15.14 0h30.3m15.13 0h30.3m15.13 0H1274l.94.07.9.22.88.35.8.5.72.6.6.72.5.8.37.88.23.9v15m0 15v30m0 15v30m0 15l.02 30m0 15v30m0 15v29.98m0 15l.02 30m0 15v30m0 15v30m0 15L1280 385m0 15v30m0 15v15l-.07.94-.22.92-.35.87-.5.8-.6.72-.72.6-.8.5-.88.36-.9.23h-15.15m-15.15 0h-30.28m-15.14 0h-30.3m-15.13 0h-30.3m-15.13 0h-30.28m-15.16 0l-30.28.02m-15.14 0h-30.3m-15.13 0h-30.3m-15.14 0h-30.28m-15.15 0h-30.28m-15.14 0h-30.28m-15.14 0h-30.3m-15.13.02h-30.28m-15.15 0h-30.28m-15.14 0h-30.3m-15.13 0h-30.3m-15.13 0h-30.28m-15.15 0h-30.27m-15.14 0l-30.3.02m-15.14 0h-30.28m-15.15 0h-30.28m-15.14 0h-30.28m-15.14 0h-30.3m-15.13 0h-30.28m-15.15 0h-15.14l-.94-.07-.9-.22-.88-.35-.8-.5-.72-.6-.6-.72-.5-.8-.37-.87-.22-.92v-15m0-15v-30m0-15v-30m0-14.98l-.02-30m0-15v-30m0-15v-30m0-15L178.7 176m0-15v-30m0-15v-30m0-15V41m0-15L178.67-4m0-15v-15l.07-.94.22-.9.36-.88.5-.8.6-.72.72-.6.8-.5.88-.37.9-.23h15.15" stroke="#5e5e5e" stroke-width="3" fill="none"/><use xlink:href="#d" transform="matrix(1,0,0,1,183.68043131791035,-35) translate(484.91975308641975 17.77777777777778)"/><use xlink:href="#e" transform="matrix(1,0,0,1,183.68043131791035,-35) translate(583.6234567901234 17.77777777777778)"/><path d="M220 106a6 6 0 0 1 6-6h128a6 6 0 0 1 6 6v68a6 6 0 0 1-6 6H226a6 6 0 0 1-6-6z" stroke="#5e5e5e" stroke-width="3" fill="#fff"/><use xlink:href="#f" transform="matrix(1,0,0,1,225.01376465124372,105) translate(48.7283950617284 14.222222222222221)"/><use xlink:href="#g" transform="matrix(1,0,0,1,225.01376465124372,105) translate(23.074074074074083 35.55555555555556)"/><use xlink:href="#h" transform="matrix(1,0,0,1,225.01376465124372,105) translate(53.41975308641976 49.77777777777777)"/><path d="M300 186a6 6 0 0 1 6-6h108a6 6 0 0 1 6 6v85.83a6 6 0 0 1-6 6H306a6 6 0 0 1-6-6z" stroke="#5e5e5e" stroke-width="3" fill="#fff"/><use xlink:href="#f" transform="matrix(1,0,0,1,305.0137646512437,185) translate(38.7283950617284 14.222222222222221)"/><use xlink:href="#i" transform="matrix(1,0,0,1,305.0137646512437,185) translate(27.716049382716054 35.55555555555556)"/><use xlink:href="#j" transform="matrix(1,0,0,1,305.0137646512437,185) translate(30.358024691358032 56.888888888888886)"/><use xlink:href="#k" transform="matrix(1,0,0,1,305.0137646512437,185) translate(35.33333333333334 71.11111111111111)"/><use xlink:href="#l" transform="matrix(1,0,0,1,305.0137646512437,185) translate(56.02469135802469 71.11111111111111)"/><path d="M200 180.5a6 6 0 0 1 6-6h88a6 6 0 0 1 6 6v68a6 6 0 0 1-6 6h-88a6 6 0 0 1-6-6z" stroke="#5e5e5e" stroke-width="3" fill="#c3f7c8"/><use xlink:href="#m" transform="matrix(1,0,0,1,205.01376465124372,179.50365242179748) translate(18.98765432098766 39.65277777777778)"/><path d="M158.68 324.5a6 6 0 0 1 6-6H254a6 6 0 0 1 6 6v131.34a6 6 0 0 1-6 6H164.7a6 6 0 0 1-6-6z" stroke="#5e5e5e" stroke-width="3" fill="#c3f7c8"/><use xlink:href="#n" transform="matrix(1,0,0,1,163.68043131791035,323.5036524217975) translate(27.694444444444446 45.3125)"/><use xlink:href="#o" transform="matrix(1,0,0,1,163.68043131791035,323.5036524217975) translate(13.250000000000007 69.3125)"/><use xlink:href="#p" transform="matrix(1,0,0,1,163.68043131791035,323.5036524217975) translate(6.583333333333336 93.3125)"/><path d="M500 180.5a6 6 0 0 1 6-6h118a6 6 0 0 1 6 6v55.34a6 6 0 0 1-6 6H506a6 6 0 0 1-6-6z" stroke="#5e5e5e" stroke-width="3" fill="#fff"/><use xlink:href="#q" transform="matrix(1,0,0,1,505.0137646512437,179.50365242179748) translate(25.4567901234568 21.47222222222222)"/><use xlink:href="#r" transform="matrix(1,0,0,1,505.0137646512437,179.50365242179748) translate(16.09876543209878 42.80555555555556)"/><path d="M608.68 217.17a6 6 0 0 1 6-6h108a6 6 0 0 1 6 6v48a6 6 0 0 1-6 6h-108a6 6 0 0 1-6-6z" stroke="#5e5e5e" stroke-width="3" fill="#c1e4f7"/><use xlink:href="#s" transform="matrix(1,0,0,1,613.6804313179105,216.17031908846417) translate(7.53086419753086 30.27777777777778)"/><path d="M880 180.5a6 6 0 0 1 6-6h118a6 6 0 0 1 6 6v55.34a6 6 0 0 1-6 6H886a6 6 0 0 1-6-6z" stroke="#5e5e5e" stroke-width="3" fill="#fff"/><use xlink:href="#q" transform="matrix(1,0,0,1,885,179.50365242179748) translate(25.4567901234568 21.47222222222222)"/><use xlink:href="#t" transform="matrix(1,0,0,1,885,179.50365242179748) translate(22.567901234567913 42.80555555555556)"/><path d="M780 218.34a6 6 0 0 1 6-6h108a6 6 0 0 1 6 6v48a6 6 0 0 1-6 6H786a6 6 0 0 1-6-6z" stroke="#5e5e5e" stroke-width="3" fill="#c1e4f7"/><use xlink:href="#u" transform="matrix(1,0,0,1,785,217.33698575513074) translate(9.444444444444436 30.27777777777778)"/><path d="M946.5 376.5h-3v-44.66h3zm0-66h-3v-46.58h3z" stroke="#5e5e5e" stroke-width=".05" fill="#5e5e5e"/><path d="M946.5 378h-3v-1.54h3z" stroke="#5e5e5e" stroke-width=".05" fill="#5e5e5e"/><path d="M949.64 262.42h-9.28l4.64-14.27z" fill="#5e5e5e"/><path d="M951.7 263.92h-13.4l6.7-20.62zm-9.27-3h5.14l-2.57-7.9z" stroke="#5e5e5e" stroke-width=".05" fill="#5e5e5e"/><use xlink:href="#v" transform="matrix(1,0,0,1,918.8518518518518,310.5068975759714) translate(0 14.222222222222223)"/><path d="M491.5 376.5h-3v-1.67h3zm-6.38-149l1.2.28 1.1.45 1 .62.9.76.75.9.62 1 .44 1.1.27 1.14.1 1.12V353.5h-3V234.98l-.06-.77-.16-.67-.27-.65-.36-.6-.46-.54-.54-.46-.6-.37-.65-.26-.64-.15-42.68-.08v-3z" stroke="#5e5e5e" stroke-width=".05" fill="#5e5e5e"/><path d="M491.5 378h-3v-1.54h3z" stroke="#5e5e5e" stroke-width=".05" fill="#5e5e5e"/><path d="M440.58 233.55l-14.26-4.63 14.26-4.64z" fill="#5e5e5e"/><path d="M442.08 235.62l-20.62-6.7 20.62-6.7zm-10.9-6.7l7.9 2.57v-5.15z" stroke="#5e5e5e" stroke-width=".05" fill="#5e5e5e"/><path d="M492.82 375.18l.54.46.6.37.65.28.7.16.76.06h569.8v3H495.94l-1.1-.1-1.16-.26-1.1-.45-1-.63-.9-.76-.75-.9-.62-1-.23-.57h3.45zm-7.7-236.6l1.2.28 1.1.45 1 .63.9.76.75.9.62 1 .44 1.08.27 1.15.1 1.1.07 207.57h-3l-.07-207.44-.06-.76-.16-.7-.27-.64-.36-.6-.46-.54-.54-.46-.6-.37-.65-.28-.64-.15-102.66-.07v-3z" stroke="#5e5e5e" stroke-width=".05" fill="#5e5e5e"/><path d="M1067.36 379.5h-1.54v-3h1.53z" fill="#5e5e5e"/><path d="M1067.38 379.52h-1.6v-3.04h1.6zm-1.54-3v2.96h1.5v-2.96z" stroke="#5e5e5e" stroke-width=".05" fill="#5e5e5e"/><path d="M380.6 144.64L366.33 140l14.27-4.64z" fill="#5e5e5e"/><path d="M382.1 146.7l-20.62-6.7 20.62-6.7zm-10.9-6.7l7.9 2.57v-5.14z" stroke="#5e5e5e" stroke-width=".05" fill="#5e5e5e"/><use xlink:href="#w" transform="matrix(1,0,0,1,458.91358024691357,353.49728803851696) translate(0 14.222222222222223)"/><path d="M245.13 287.93l-29.72.07-.76.06-.68.17-.65.27-.6.37-.53.45-.46.54-.36.6-.27.65-.15.65-.07 4.7-3-.05.07-5.02.3-1.2.44-1.08.62-1 .23-.28h36.1zm6.38-21.45h-3v-9h3z" stroke="#5e5e5e" stroke-width=".05" fill="#5e5e5e"/><path d="M251.5 257.5h-3v-1.53h3z" fill="#5e5e5e"/><path d="M251.54 257.53h-3.05v-1.6h3.04zm-3-1.54v1.48h2.95v-1.5z" stroke="#5e5e5e" stroke-width=".05" fill="#5e5e5e"/><path d="M209.35 312.2l-4.64-14.28H214z" fill="#5e5e5e"/><path d="M209.35 317.04l-6.7-20.62h13.4zm-2.57-17.62l2.57 7.9 2.57-7.9z" stroke="#5e5e5e" stroke-width=".05" fill="#5e5e5e"/><use xlink:href="#x" transform="matrix(1,0,0,1,204.70512267593506,266.4823013611441) translate(0 14.222222222222223)"/><path d="M178.68 492a6 6 0 0 1 6-6H1274a6 6 0 0 1 6 6v562a6 6 0 0 1-6 6H184.68a6 6 0 0 1-6-6z" fill="#e5e5e5"/><path d="M214.03 486.08h30.28m15.15 0h30.3m15.13 0h30.3m15.13 0l30.3-.02m15.14 0h30.28m15.14 0h30.3m15.13 0h30.28m15.14 0h30.28m15.15 0h30.28m15.14 0h30.3m15.13-.02h30.3m15.13 0H744m15.16 0h30.28m15.14 0h30.3m15.13 0h30.3m15.14 0h30.28m15.15 0l30.28-.02m15.14 0h30.28m15.14 0h30.3m15.13 0h30.28m15.15 0h30.28m15.14 0h30.3m15.13 0h30.3m15.13-.02H1274l.94.08.9.22.88.36.8.5.72.6.6.72.5.8.37.87.23.92v14.43m0 14.43v28.87m0 14.44v28.86m0 14.44l.02 28.87m0 14.44v28.87m0 14.44V722m0 14.45v28.87m0 14.43l.02 28.87m0 14.43v28.87m0 14.44v28.86m0 14.44v28.87m.02 14.43v28.87m0 14.43v28.87m0 14.44V1054l-.07.94-.22.9-.35.88-.5.8-.6.72-.72.6-.8.5-.88.37-.9.23h-15.15m-15.15 0h-30.28m-15.14 0h-30.3m-15.13 0h-30.3m-15.13 0h-30.28m-15.16 0h-30.28m-15.14 0l-30.3.02m-15.13 0h-30.3m-15.14 0h-30.28m-15.15 0h-30.28m-15.14 0h-30.28m-15.14 0h-30.3m-15.13 0h-30.28m-15.15.02h-30.28m-15.14 0h-30.3m-15.13 0h-30.3m-15.13 0h-30.28m-15.15 0h-30.27m-15.14 0h-30.3m-15.14 0l-30.28.02m-15.15 0h-30.28m-15.14 0h-30.28m-15.14 0h-30.3m-15.13 0h-30.28m-15.15 0h-15.14l-.94-.07-.9-.22-.88-.35-.8-.5-.72-.6-.6-.72-.5-.8-.37-.88-.22-.9v-14.45m0-14.43V997.2m0-14.43V953.9m0-14.44V910.6m-.02-14.44V867.3m0-14.44V824m0-14.44V780.7m0-14.45l-.02-28.86m0-14.45v-28.87m0-14.43v-28.87m0-14.43v-28.87m0-14.44v-28.87m0-14.43l-.02-28.87m0-14.43V492l.07-.93.22-.92.36-.87.5-.8.6-.72.72-.6.8-.5.88-.36.9-.22h15.15" stroke="#5e5e5e" stroke-width="3" fill="none"/><use xlink:href="#y" transform="matrix(1,0,0,1,183.6804313179104,491.0036524217976) translate(427.0185185185185 17.77777777777778)"/><use xlink:href="#z" transform="matrix(1,0,0,1,183.6804313179104,491.0036524217976) translate(524.4259259259259 17.77777777777778)"/><path d="M840.65 526a6 6 0 0 1 6-6h244.06a6 6 0 0 1 6 6v203.9a6 6 0 0 1-6 6H846.66a6 6 0 0 1-6-6z" fill="#f2f3f5"/><path d="M878.38 520.06h32.67m16.33 0l32.66-.02m16.34 0l32.66-.02m16.34 0h32.66m16.34-.02h16.33l.95.07.9.22.88.35.8.5.72.6.6.72.5.8.37.88.22.9v13.67m0 13.65l.02 27.32m0 13.64v27.3m.02 13.67v27.32m0 13.66l.02 27.3m0 13.67v13.65l-.06.94-.22.92-.36.87-.5.8-.6.72-.72.6-.8.5-.88.36-.9.23h-16.34m-16.34 0l-32.66.02m-16.34 0h-32.66m-16.34.02h-32.66m-16.34 0l-32.66.02m-16.34 0h-16.33l-.94-.07-.9-.22-.87-.35-.8-.5-.72-.6-.6-.72-.5-.8-.36-.87-.2-.92-.02-13.65m0-13.67v-27.3m-.02-13.67v-27.3m0-13.67l-.02-27.32m0-13.66l-.02-27.3m0-13.66V526l.07-.94.2-.9.38-.88.5-.8.6-.72.72-.6.8-.5.88-.37.9-.23h16.35" stroke="#5e5e5e" stroke-width="3" fill="none"/><use xlink:href="#A" transform="matrix(1,0,0,1,845.6511925390628,525) translate(66.75925925925927 14.222222222222221)"/><use xlink:href="#B" transform="matrix(1,0,0,1,845.6511925390628,525) translate(100.3395061728395 14.222222222222221)"/><path d="M1580 627.5c0 27.62-22.4 50-50 50s-50-22.38-50-50c0-27.6 22.4-50 50-50s50 22.4 50 50z" stroke="#5e5e5e" stroke-width="3" fill="#fff"/><use xlink:href="#C" transform="matrix(1,0,0,1,1485,582.5036524217976) translate(27.098765432098766 36.111111111111114)"/><use xlink:href="#D" transform="matrix(1,0,0,1,1485,582.5036524217976) translate(-5.524691358024697 62.77777777777778)"/><path d="M836.7 830.16a6 6 0 0 1 6-6h248a6 6 0 0 1 6 6v154.17a6 6 0 0 1-6 6h-248a6 6 0 0 1-6-6z" fill="#f2f3f5"/><path d="M869.43 824.23h27.66m13.82 0l27.66-.02m13.83 0h27.67m13.83 0l27.66-.02m13.83 0h27.65m13.83 0l13.83-.02.95.08.9.22.88.36.8.5.72.6.6.72.5.8.37.87.22.92v17.24m0 17.23l.03 34.46m0 17.23l.02 34.46m0 17.23v17.23l-.06.93-.22.92-.36.87-.5.8-.6.72-.72.6-.8.5-.88.36-.9.22h-13.84m-13.83 0l-27.67.02m-13.83 0h-27.66m-13.83 0l-27.65.02m-13.83 0h-27.66m-13.83 0l-27.66.02m-13.83 0H842.7l-.93-.07-.9-.22-.88-.36-.82-.5-.7-.6-.62-.72-.5-.8-.36-.87-.22-.92v-17.23m0-17.23l-.03-34.47m0-17.23l-.02-34.47m0-17.23l-.02-17.24.08-.94.22-.9.36-.88.5-.8.6-.72.72-.6.8-.5.88-.36.9-.22h13.84" stroke="#5e5e5e" stroke-width="3" fill="none"/><use xlink:href="#E" transform="matrix(1,0,0,1,841.7096700967577,829.1630142448691) translate(49.543209876543216 14.222222222222221)"/><use xlink:href="#F" transform="matrix(1,0,0,1,841.7096700967577,829.1630142448691) translate(115.61728395061728 14.222222222222221)"/><path d="M904.93 886a6 6 0 0 1 6-6h103a6 6 0 0 1 6 6v50.67a6 6 0 0 1-6 6h-103a6 6 0 0 1-6-6z" stroke="#5e5e5e" stroke-width="3" fill="#fff"/><use xlink:href="#G" transform="matrix(1,0,0,1,909.9304313179102,885) translate(7.611111111111121 20.84722222222222)"/><use xlink:href="#H" transform="matrix(1,0,0,1,909.9304313179102,885) translate(5.6851851851851976 42.18055555555556)"/><path d="M942.15 441.47l-136.1.03-.75.06-.7.16-.64.27-.6.36-.54.46-.46.54-.37.6-.28.65-.15.64-.07 460.03.06.77.16.68.27.65.36.6.46.54.54.47.6.37.65.27.64.16 77.6.07v3l-77.96-.07-1.2-.3-1.1-.44-1-.62-.9-.76-.75-.9-.62-1-.44-1.1-.27-1.13-.1-1.1.07-460.52.3-1.2.44-1.1.63-1 .76-.9.9-.75 1-.62 1.08-.44 1.15-.27 1.1-.1 136.22-.03zm198.17-7.4l-.1 1.1-.26 1.15-.45 1.1-.6 1-.77.9-.9.75-1 .62-1.1.44-1.2.3H1012.2v-3h121.4l.63-.16.66-.27.6-.36.54-.46.46-.54.36-.6.27-.65.16-.7.06-.76v-14.98h3z" stroke="#5e5e5e" stroke-width=".05" fill="#5e5e5e"/><path d="M1140.32 419h-3v-1.54h3z" fill="#5e5e5e"/><path d="M1140.34 419.03h-3.05v-1.6h3.04zm-3-1.54v1.48h2.95v-1.5z" stroke="#5e5e5e" stroke-width=".05" fill="#5e5e5e"/><path d="M898.6 911.33l-14.25 4.64v-9.27z" fill="#5e5e5e"/><path d="M903.47 911.33l-20.62 6.7v-13.4zm-17.62 2.57l7.9-2.57-7.9-2.57zM1359.95 629h-163.9l-.75.06-.7.17-.64.27-.6.37-.54.45-.46.54-.37.6-.28.65-.15.64-.07 268.56-.1 1.12-.26 1.14-.45 1.1-.63 1-.76.9-.9.76-1 .6-1.08.46-1.2.3-66.33.06v-3l65.96-.07.63-.15.64-.27.6-.37.54-.46.46-.53.37-.6.28-.67.16-.68.06-.76.07-268.8.3-1.22.44-1.08.63-1 .76-.9.9-.77 1-.6 1.08-.46 1.15-.28 1.1-.1h164.02zm117.05 0h-51.96v-3H1477z" stroke="#5e5e5e" stroke-width=".05" fill="#5e5e5e"/><path d="M1478.5 627.5l.05 1.5h-1.6v-3h1.62z" fill="#5e5e5e"/><path d="M1478.52 627.5l.06 1.53h-1.64v-3.05h1.66zm-1.53-1.47v2.95h1.53l-.06-1.5.08-1.45z" stroke="#5e5e5e" stroke-width=".05" fill="#5e5e5e"/><path d="M1117.3 911.88l-14.27-4.64 14.26-4.63z" fill="#5e5e5e"/><path d="M1118.8 913.94l-20.63-6.7 20.62-6.7zm-10.92-6.7l7.9 2.58v-5.15z" stroke="#5e5e5e" stroke-width=".05" fill="#5e5e5e"/><path d="M486 67.17a6 6 0 0 1 6-6h118a6 6 0 0 1 6 6v48a6 6 0 0 1-6 6H492a6 6 0 0 1-6-6z" stroke="#5e5e5e" stroke-width="3" fill="#fff"/><use xlink:href="#q" transform="matrix(1,0,0,1,491.01376465124326,66.17031908846417) translate(25.4567901234568 14.222222222222221)"/><use xlink:href="#I" transform="matrix(1,0,0,1,491.01376465124326,66.17031908846417) translate(22.024691358024697 35.55555555555556)"/><path d="M1360 .5a6 6 0 0 1 6-6h208a6 6 0 0 1 6 6v168a6 6 0 0 1-6 6h-208a6 6 0 0 1-6-6z" stroke="#5e5e5e" stroke-width="3" fill="#e5e5e5" fill-opacity=".48"/><use xlink:href="#J" transform="matrix(1,0,0,1,1365,-0.49634757820251707) translate(67.96296296296296 17.77777777777778)"/><path d="M1390 37.17a6 6 0 0 1 6-6h148a6 6 0 0 1 6 6v8a6 6 0 0 1-6 6h-148a6 6 0 0 1-6-6z" stroke="#5e5e5e" stroke-width="3" fill="#c3f7c8"/><use xlink:href="#K" transform="matrix(1,0,0,1,1395,36.17031908846417) translate(61.21604938271605 12.444444444444443)"/><path d="M1390 67.17a6 6 0 0 1 6-6h148a6 6 0 0 1 6 6v8a6 6 0 0 1-6 6h-148a6 6 0 0 1-6-6z" stroke="#5e5e5e" stroke-width="3" fill="#c1e4f7"/><use xlink:href="#L" transform="matrix(1,0,0,1,1395,66.17031908846417) translate(43.4783950617284 12.444444444444443)"/><path d="M1390 106a6 6 0 0 1 6-6h148a6 6 0 0 1 6 6v8a6 6 0 0 1-6 6h-148a6 6 0 0 1-6-6z" stroke="#5e5e5e" stroke-width="3" fill="#fff"/><use xlink:href="#M" transform="matrix(1,0,0,1,1395,105) translate(12.864197530864217 12.444444444444443)"/><use xlink:href="#N" transform="matrix(1,0,0,1,1395,105) translate(70.67901234567901 12.444444444444443)"/><path d="M608.68 75.5a6 6 0 0 1 6-6h108a6 6 0 0 1 6 6v51.34a6 6 0 0 1-6 6h-108a6 6 0 0 1-6-6z" stroke="#5e5e5e" stroke-width="3" fill="#c1e4f7"/><use xlink:href="#O" transform="matrix(1,0,0,1,613.6804313179102,74.50365242179751) translate(7.53086419753086 21.15277777777778)"/><use xlink:href="#P" transform="matrix(1,0,0,1,613.6804313179102,74.50365242179751) translate(11.23456790123457 47.81944444444444)"/><path d="M670.18 189.1h-3v-22.6h3zm0-43.93h-3v-9.37h3z" stroke="#5e5e5e" stroke-width=".05" fill="#5e5e5e"/><path d="M670.18 135.84h-3v-1.54h3z" fill="#5e5e5e"/><path d="M670.2 135.86h-3.04v-1.58h3.05zm-3-1.53v1.48h2.96v-1.48z" stroke="#5e5e5e" stroke-width=".05" fill="#5e5e5e"/><path d="M668.68 204.85l-4.63-14.26h9.27z" fill="#5e5e5e"/><path d="M668.68 209.7l-6.7-20.6h13.4zm-2.57-17.6l2.58 7.9 2.57-7.9z" stroke="#5e5e5e" stroke-width=".05" fill="#5e5e5e"/><use xlink:href="#Q" transform="matrix(1,0,0,1,630.2112955154411,145.16535433070916) translate(0 14.222222222222223)"/><path d="M880 57.17a6 6 0 0 1 6-6h118a6 6 0 0 1 6 6v48a6 6 0 0 1-6 6H886a6 6 0 0 1-6-6z" stroke="#5e5e5e" stroke-width="3" fill="#fff"/><use xlink:href="#q" transform="matrix(1,0,0,1,885,56.17031908846417) translate(25.4567901234568 17.34722222222222)"/><use xlink:href="#R" transform="matrix(1,0,0,1,885,56.17031908846417) translate(23.555555555555557 38.68055555555556)"/><path d="M780 75.5a6 6 0 0 1 6-6h108a6 6 0 0 1 6 6v51.34a6 6 0 0 1-6 6H786a6 6 0 0 1-6-6z" stroke="#5e5e5e" stroke-width="3" fill="#c1e4f7"/><use xlink:href="#S" transform="matrix(1,0,0,1,785,74.50365242179754) translate(9.444444444444436 21.15277777777778)"/><use xlink:href="#T" transform="matrix(1,0,0,1,785,74.50365242179754) translate(11.23456790123457 47.81944444444444)"/><path d="M841.5 190.25h-3v-18.42h3zm0-39.75h-3v-14.7h3z" stroke="#5e5e5e" stroke-width=".05" fill="#5e5e5e"/><path d="M841.5 135.84h-3v-1.54h3z" fill="#5e5e5e"/><path d="M841.52 135.86h-3.04v-1.58h3.04zm-3-1.53v1.48h2.96v-1.48z" stroke="#5e5e5e" stroke-width=".05" fill="#5e5e5e"/><path d="M840 206.02l-4.64-14.27h9.28z" fill="#5e5e5e"/><path d="M840 210.87l-6.7-20.62h13.4zm-2.57-17.62l2.57 7.92 2.57-7.92z" stroke="#5e5e5e" stroke-width=".05" fill="#5e5e5e"/><use xlink:href="#Q" transform="matrix(1,0,0,1,801.5308641975308,150.49868766404242) translate(0 14.222222222222223)"/><path d="M900 566a6 6 0 0 1 6-6h156.82a6 6 0 0 1 6 6v50.67a6 6 0 0 1-6 6H906a6 6 0 0 1-6-6z" stroke="#5e5e5e" stroke-width="3" fill="#fff"/><use xlink:href="#U" transform="matrix(1,0,0,1,905,565) translate(35.59876543209878 20.84722222222222)"/><use xlink:href="#V" transform="matrix(1,0,0,1,905,565) translate(37.57407407407408 42.18055555555556)"/><g transform="matrix(1,0,0,1,905,565)"><a xlink:href="http://Kuadrant.io" target="_blank"><path class="lucid-link lucid-hotspot lucid-overlay-hotspot" fill-opacity="0" d="M35.6 6.63h8.9v21.33h-8.9z"/></a><a xlink:href="http://Kuadrant.io" target="_blank"><path class="lucid-link lucid-hotspot lucid-overlay-hotspot" fill-opacity="0" d="M44.5 6.63h78.9v21.33H44.5z"/></a></g><path d="M900 646a6 6 0 0 1 6-6h156.82a6 6 0 0 1 6 6v62a6 6 0 0 1-6 6H906a6 6 0 0 1-6-6z" stroke="#5e5e5e" stroke-width="3" fill="#fff"/><use xlink:href="#W" transform="matrix(1,0,0,1,905,645) translate(35.59876543209878 26.22222222222222)"/><use xlink:href="#X" transform="matrix(1,0,0,1,905,645) translate(18.413580246913604 47.55555555555555)"/><path d="M1359.95 629H1118.8v-3h241.15zm117.05 0h-51.96v-3H1477z" stroke="#5e5e5e" stroke-width=".05" fill="#5e5e5e"/><path d="M1478.5 627.5l.05 1.5h-1.6v-3h1.62z" fill="#5e5e5e"/><path d="M1478.52 627.5l.06 1.53h-1.64v-3.05h1.66zm-1.53-1.47v2.95h1.53l-.06-1.5.08-1.45z" stroke="#5e5e5e" stroke-width=".05" fill="#5e5e5e"/><path d="M1117.3 632.14l-14.27-4.64 14.26-4.63z" fill="#5e5e5e"/><path d="M1118.8 634.2l-20.63-6.7 20.62-6.7zm-10.92-6.7l7.9 2.57v-5.14z" stroke="#5e5e5e" stroke-width=".05" fill="#5e5e5e"/><use xlink:href="#Y" transform="matrix(1,0,0,1,1359.9517358090638,616.836985755131) translate(0 14.222222222222223)"/><path d="M942.15 441.5h-136.1l-.75.06-.7.16-.64.27-.6.36-.54.46-.46.54-.37.6-.28.65-.15.64-.07 225.7.06.76.16.7.27.64.36.6.46.54.54.46.6.37.65.28.64.15 72.68.07v3l-73.04-.07-1.2-.3-1.1-.44-1-.63-.9-.76-.75-.9-.62-1-.44-1.08-.27-1.15-.1-1.1.07-226.2.3-1.2.44-1.08.63-1 .76-.9.9-.77 1-.62 1.08-.44 1.15-.27 1.1-.1h136.22zm174.13 0h-104.1v-3h104.1z" stroke="#5e5e5e" stroke-width=".05" fill="#5e5e5e"/><path d="M1117.78 441.5h-1.54v-3h1.54z" stroke="#5e5e5e" stroke-width=".05" fill="#5e5e5e"/><path d="M893.68 677l-14.26 4.64v-9.28z" fill="#5e5e5e"/><path d="M898.54 677l-20.62 6.7v-13.4zm-17.62 2.57l7.9-2.57-7.9-2.57z" stroke="#5e5e5e" stroke-width=".05" fill="#5e5e5e"/><use xlink:href="#Z" transform="matrix(1,0,0,1,942.1514821367849,429.3333333333333) translate(0 14.222222222222223)"/><path d="M651.57 964.76l.15.63.27.64.36.6.46.54.54.46.6.37.65.28.7.16.76.06 301.13-.07.62-.15.65-.27.6-.36.54-.46.47-.54.37-.6.27-.65.17-.7.06-.76v-18.3h3v18.42l-.1 1.1-.26 1.16-.45 1.1-.62 1-.76.9-.9.75-1 .62-1.1.44-1.2.3-301.6.06-1.1-.1-1.16-.26-1.1-.45-1-.63-.9-.76-.75-.9-.62-1-.44-1.08-.3-1.2-.05-299.47h3zm-354.95-576l1.2.27 1.1.45 1 .62.9.76.75.9.62 1 .44 1.1.27 1.14.1 1.1.1 217.16.14.63.27.64.38.6.45.54.54.46.6.37.65.28.7.16.75.06 337.55.08 1.2.3 1.1.44 1 .6.9.78.75.9.62 1 .44 1.08.27 1.15.1 1.1v19.88h-3v-19.74l-.06-.76-.16-.7-.27-.64-.36-.6-.46-.54-.54-.45-.6-.37-.65-.27-.64-.15-337.3-.08-1.12-.08-1.15-.28-1.1-.45-1-.62-.9-.77-.76-.9-.6-1-.46-1.08-.3-1.2-.08-217.4-.06-.75-.16-.7-.27-.64-.36-.6-.46-.54-.54-.47-.6-.37-.65-.27-.64-.16-14.17-.07v-3z" stroke="#5e5e5e" stroke-width=".05" fill="#5e5e5e"/><path d="M963.93 945.67h-3v-1.54h3z" fill="#5e5e5e"/><path d="M963.96 945.7h-3.05v-1.6h3.06zm-3-1.54v1.48h2.95v-1.5z" stroke="#5e5e5e" stroke-width=".05" fill="#5e5e5e"/><path d="M280.6 394.8l-14.27-4.63 14.27-4.63z" fill="#5e5e5e"/><path d="M282.1 396.87l-20.62-6.7 20.62-6.7zm-10.9-6.7l7.9 2.57v-5.14z" stroke="#5e5e5e" stroke-width=".05" fill="#5e5e5e"/><use xlink:href="#aa" transform="matrix(1,0,0,1,613.5555555555555,644.3139320071568) translate(0 14.222222222222223)"/><path d="M566.1 372.82l.16.72.3.73.4.67.52.6.6.5.67.4.72.3.76.2.82.06h495.3v2H570.98l-1.05-.08-1.07-.26-1.02-.42-.93-.57-.84-.72-.7-.83-.6-.94-.4-1.02-.27-1.1-.02-16.72h2zm-.04-37.8h-2L564 261.8h2z" stroke="#5e5e5e" stroke-width=".05" fill="#5e5e5e"/><path d="M1067.36 379h-1.03v-2h1.02z" fill="#5e5e5e"/><path d="M1067.38 379.02h-1.07v-2.04h1.08zm-1.02-2v1.96h.97v-1.96z" stroke="#5e5e5e" stroke-width=".05" fill="#5e5e5e"/><path d="M569.65 260.8h-9.27l4.63-14.26z" fill="#5e5e5e"/><path d="M571.03 261.8H559l6-18.5zm-9.28-2h6.52L565 249.77z" stroke="#5e5e5e" stroke-width=".05" fill="#5e5e5e"/><use xlink:href="#v" transform="matrix(1,0,0,1,538.8656165030956,335.0105709064862) translate(0 14.222222222222223)"/><path d="M942.15 440.97l-136.1.03-.83.06-.76.2-.73.3-.67.4-.6.5-.5.6-.4.67-.3.73-.2.72-.06 140.1.06.84.2.76.3.72.4.67.5.6.6.5.67.42.73.3.72.16 74.86.07v2l-75.1-.07-1.1-.27-1.02-.43-.94-.57-.83-.7-.72-.85-.57-.94-.42-1-.26-1.07-.08-1.06.07-140.43.27-1.1.42-1.02.57-.94.72-.83.83-.72.94-.57 1.02-.42 1.06-.26 1.06-.08 136.2-.03zm197.67-6.93l-.08 1.06-.26 1.06-.42 1.02-.57.94-.73.83-.83.72-.94.57-1.02.42-1.1.27-121.7.02v-2l121.46-.02.72-.18.73-.3.66-.4.6-.52.5-.6.4-.66.3-.73.2-.76.06-.82v-15.5h2z" stroke="#5e5e5e" stroke-width=".05" fill="#5e5e5e"/><path d="M1139.82 418.5h-2v-1.04h2z" fill="#5e5e5e"/><path d="M1139.84 418.5h-2.05v-1.06h2.04zm-2-1v.96h1.95v-.97z" stroke="#5e5e5e" stroke-width=".05" fill="#5e5e5e"/><path d="M895.3 591.33l-14.27 4.64v-9.27z" fill="#5e5e5e"/><path d="M898.54 591.33l-18.5 6.02v-12.03zm-16.5 3.26l10.02-3.27-10.03-3.26z" stroke="#5e5e5e" stroke-width=".05" fill="#5e5e5e"/><path d="M1140 306a6 6 0 0 1 6-6h118a6 6 0 0 1 6 6v48a6 6 0 0 1-6 6h-118a6 6 0 0 1-6-6z" stroke="#5e5e5e" stroke-width="3" fill="#fff"/><g><use xlink:href="#ab" transform="matrix(1,0,0,1,1145,305) translate(23.975308641975317 29.84722222222222)"/></g><path d="M1068.82 346a6 6 0 0 1 6-6h128a6 6 0 0 1 6 6v64a6 6 0 0 1-6 6h-128a6 6 0 0 1-6-6z" stroke="#5e5e5e" stroke-width="3" fill="#c1e4f7"/><g><use xlink:href="#ac" transform="matrix(1,0,0,1,1073.8195686820898,345) translate(19.96913580246914 24.05902777777778)"/><use xlink:href="#P" transform="matrix(1,0,0,1,1073.8195686820898,345) translate(21.23456790123457 50.72569444444445)"/></g><path d="M1051.07 372.82l.18.72.3.73.4.67.52.6.6.5.66.4.73.3.76.2.82.06h10.32v2h-10.4l-1.06-.08-1.06-.26-1.02-.42-.94-.57-.83-.72-.72-.83-.57-.94-.42-1.02-.27-1.1V339.5h2zm-6-292.58l1.1.27 1 .43.95.57.83.72.72.83.57.94.42 1 .26 1.07.08 1.06.06 231.04h-2L1049 87.2l-.06-.8-.2-.77-.3-.73-.4-.67-.5-.6-.6-.5-.67-.4-.73-.3-.72-.2-14.86-.06v-2z" stroke="#5e5e5e" stroke-width=".05" fill="#5e5e5e"/><path d="M1067.36 379h-1.03v-2h1.02z" fill="#5e5e5e"/><path d="M1067.38 379.02h-1.07v-2.04h1.08zm-1.02-2v1.96h.97v-1.96z" stroke="#5e5e5e" stroke-width=".05" fill="#5e5e5e"/><path d="M1028.97 85.8l-14.27-4.63 14.27-4.63z" fill="#5e5e5e"/><path d="M1029.97 87.18l-18.5-6 18.5-6.02zm-12.03-6l10.03 3.25V77.9z" stroke="#5e5e5e" stroke-width=".05" fill="#5e5e5e"/><path d="M1051.07 372.82l.18.72.3.73.4.67.52.6.6.5.66.4.73.3.76.2.82.06h10.32v2h-10.4l-1.06-.08-1.06-.26-1.02-.42-.94-.57-.83-.72-.72-.83-.57-.94-.42-1.02-.27-1.1V339.5h2zm-6-354.04l1.1.27 1 .42.95.57.83.72.72.83.57.93.42 1 .26 1.08.08 1.07.06 292.5h-2L1049 25.75l-.06-.82-.2-.77-.3-.72-.4-.67-.5-.6-.6-.5-.67-.42-.73-.3-.72-.17-487.77-.07-.82.07-.76.18-.72.3-.67.4-.6.52-.5.6-.42.67-.3.72-.17.73-.1 16.3h-2l.1-16.55.25-1.1.42-1.02.58-.94.7-.84.85-.72.93-.57 1.02-.42 1.07-.26 1.05-.1z" stroke="#5e5e5e" stroke-width=".05" fill="#5e5e5e"/><path d="M1067.36 379h-1.03v-2h1.02z" fill="#5e5e5e"/><path d="M1067.38 379.02h-1.07v-2.04h1.08zm-1.02-2v1.96h.97v-1.96z" stroke="#5e5e5e" stroke-width=".05" fill="#5e5e5e"/><path d="M551 56.47L546.4 42.2h9.27z" fill="#5e5e5e"/><path d="M551 59.7l-6-18.5h12.03zm-3.25-16.5L551 53.24l3.27-10.02z" stroke="#5e5e5e" stroke-width=".05" fill="#5e5e5e"/><g><use xlink:href="#Q" transform="matrix(1,0,0,1,1011.5308641975308,318.1722221444755) translate(0 14.222222222222223)"/></g><path d="M969.68 804.2h-2v-19.03h2zm0-40.37h-2v-25.46h2z" stroke="#5e5e5e" stroke-width=".05" fill="#5e5e5e"/><path d="M969.68 738.4h-2v-1.03h2z" fill="#5e5e5e"/><path d="M969.7 738.42h-2.04v-1.08h2.05zm-2-1.03v.97h1.96v-.98z" stroke="#5e5e5e" stroke-width=".05" fill="#5e5e5e"/><path d="M968.68 819.46l-4.63-14.26h9.27z" fill="#5e5e5e"/><path d="M968.68 822.7l-6-18.5h12zm-3.26-16.5l3.26 10.03 3.26-10.03z" stroke="#5e5e5e" stroke-width=".05" fill="#5e5e5e"/><g><use xlink:href="#ad" transform="matrix(1,0,0,1,905.1495672093286,763.8320209973762) translate(0 14.222222222222223)"/></g><path d="M1390 138.84a6 6 0 0 1 6-6h148a6 6 0 0 1 6 6v8a6 6 0 0 1-6 6h-148a6 6 0 0 1-6-6z" stroke="#5e5e5e" stroke-width="3" fill="#979ea8"/><g><use xlink:href="#ae" transform="matrix(1,0,0,1,1395,137.83698575513085) translate(20.14506172839507 12.444444444444443)"/></g><defs><path fill="#333" d="M140-251c81 0 123 46 123 126C263-46 219 4 140 4 59 4 17-45 17-125s42-126 123-126zm0 227c63 0 89-41 89-101s-29-99-89-99c-61 0-89 39-89 99S79-25 140-24" id="af"/><path fill="#333" d="M185-189c-5-48-123-54-124 2 14 75 158 14 163 119 3 78-121 87-175 55-17-10-28-26-33-46l33-7c5 56 141 63 141-1 0-78-155-14-162-118-5-82 145-84 179-34 5 7 8 16 11 25" id="ag"/><g id="a"><use transform="matrix(0.06172839506172839,0,0,0.06172839506172839,0,0)" xlink:href="#af"/><use transform="matrix(0.06172839506172839,0,0,0.06172839506172839,17.28395061728395,0)" xlink:href="#ag"/></g><path fill="#333" d="M115-194c55 1 70 41 70 98S169 2 115 4C84 4 66-9 55-30l1 105H24l-1-265h31l2 30c10-21 28-34 59-34zm-8 174c40 0 45-34 45-75s-6-73-45-74c-42 0-51 32-51 76 0 43 10 73 51 73" id="ah"/><path fill="#333" d="M106-169C34-169 62-67 57 0H25v-261h32l-1 103c12-21 28-36 61-36 89 0 53 116 60 194h-32v-121c2-32-8-49-39-48" id="ai"/><path fill="#333" d="M179-190L93 31C79 59 56 82 12 73V49c39 6 53-20 64-50L1-190h34L92-34l54-156h33" id="aj"/><path fill="#333" d="M135-143c-3-34-86-38-87 0 15 53 115 12 119 90S17 21 10-45l28-5c4 36 97 45 98 0-10-56-113-15-118-90-4-57 82-63 122-42 12 7 21 19 24 35" id="ak"/><path fill="#333" d="M24-231v-30h32v30H24zM24 0v-190h32V0H24" id="al"/><path fill="#333" d="M96-169c-40 0-48 33-48 73s9 75 48 75c24 0 41-14 43-38l32 2c-6 37-31 61-74 61-59 0-76-41-82-99-10-93 101-131 147-64 4 7 5 14 7 22l-32 3c-4-21-16-35-41-35" id="am"/><path fill="#333" d="M141-36C126-15 110 5 73 4 37 3 15-17 15-53c-1-64 63-63 125-63 3-35-9-54-41-54-24 1-41 7-42 31l-33-3c5-37 33-52 76-52 45 0 72 20 72 64v82c-1 20 7 32 28 27v20c-31 9-61-2-59-35zM48-53c0 20 12 33 32 33 41-3 63-29 60-74-43 2-92-5-92 41" id="an"/><path fill="#333" d="M24 0v-261h32V0H24" id="ao"/><g id="b"><use transform="matrix(0.06172839506172839,0,0,0.06172839506172839,0,0)" xlink:href="#ah"/><use transform="matrix(0.06172839506172839,0,0,0.06172839506172839,12.345679012345679,0)" xlink:href="#ai"/><use transform="matrix(0.06172839506172839,0,0,0.06172839506172839,24.691358024691358,0)" xlink:href="#aj"/><use transform="matrix(0.06172839506172839,0,0,0.06172839506172839,35.80246913580247,0)" xlink:href="#ak"/><use transform="matrix(0.06172839506172839,0,0,0.06172839506172839,46.91358024691358,0)" xlink:href="#al"/><use transform="matrix(0.06172839506172839,0,0,0.06172839506172839,51.79012345679013,0)" xlink:href="#am"/><use transform="matrix(0.06172839506172839,0,0,0.06172839506172839,62.90123456790124,0)" xlink:href="#an"/><use transform="matrix(0.06172839506172839,0,0,0.06172839506172839,75.24691358024693,0)" xlink:href="#ao"/></g><path fill="#333" d="M212-179c-10-28-35-45-73-45-59 0-87 40-87 99 0 60 29 101 89 101 43 0 62-24 78-52l27 14C228-24 195 4 139 4 59 4 22-46 18-125c-6-104 99-153 187-111 19 9 31 26 39 46" id="ap"/><path fill="#333" d="M84 4C-5 8 30-112 23-190h32v120c0 31 7 50 39 49 72-2 45-101 50-169h31l1 190h-30c-1-10 1-25-2-33-11 22-28 36-60 37" id="aq"/><path fill="#333" d="M59-47c-2 24 18 29 38 22v24C64 9 27 4 27-40v-127H5v-23h24l9-43h21v43h35v23H59v120" id="ar"/><path fill="#333" d="M100-194c63 0 86 42 84 106H49c0 40 14 67 53 68 26 1 43-12 49-29l28 8c-11 28-37 45-77 45C44 4 14-33 15-96c1-61 26-98 85-98zm52 81c6-60-76-77-97-28-3 7-6 17-6 28h103" id="as"/><path fill="#333" d="M114-163C36-179 61-72 57 0H25l-1-190h30c1 12-1 29 2 39 6-27 23-49 58-41v29" id="at"/><g id="c"><use transform="matrix(0.06172839506172839,0,0,0.06172839506172839,0,0)" xlink:href="#ap"/><use transform="matrix(0.06172839506172839,0,0,0.06172839506172839,15.987654320987653,0)" xlink:href="#ao"/><use transform="matrix(0.06172839506172839,0,0,0.06172839506172839,20.864197530864196,0)" xlink:href="#aq"/><use transform="matrix(0.06172839506172839,0,0,0.06172839506172839,33.20987654320987,0)" xlink:href="#ak"/><use transform="matrix(0.06172839506172839,0,0,0.06172839506172839,44.32098765432099,0)" xlink:href="#ar"/><use transform="matrix(0.06172839506172839,0,0,0.06172839506172839,50.49382716049383,0)" xlink:href="#as"/><use transform="matrix(0.06172839506172839,0,0,0.06172839506172839,62.839506172839506,0)" xlink:href="#at"/></g><path fill="#333" d="M210-169c-67 3-38 105-44 169h-31v-121c0-29-5-50-35-48C34-165 62-65 56 0H25l-1-190h30c1 10-1 24 2 32 10-44 99-50 107 0 11-21 27-35 58-36 85-2 47 119 55 194h-31v-121c0-29-5-49-35-48" id="au"/><path fill="#333" d="M117-194c89-4 53 116 60 194h-32v-121c0-31-8-49-39-48C34-167 62-67 57 0H25l-1-190h30c1 10-1 24 2 32 11-22 29-35 61-36" id="av"/><path fill="#333" d="M177-190C167-65 218 103 67 71c-23-6-38-20-44-43l32-5c15 47 100 32 89-28v-30C133-14 115 1 83 1 29 1 15-40 15-95c0-56 16-97 71-98 29-1 48 16 59 35 1-10 0-23 2-32h30zM94-22c36 0 50-32 50-73 0-42-14-75-50-75-39 0-46 34-46 75s6 73 46 73" id="aw"/><path fill="#333" d="M85-194c31 0 48 13 60 33l-1-100h32l1 261h-30c-2-10 0-23-3-31C134-8 116 4 85 4 32 4 16-35 15-94c0-66 23-100 70-100zm9 24c-40 0-46 34-46 75 0 40 6 74 45 74 42 0 51-32 51-76 0-42-9-74-50-73" id="ax"/><g id="d"><use transform="matrix(0.06172839506172839,0,0,0.06172839506172839,0,0)" xlink:href="#au"/><use transform="matrix(0.06172839506172839,0,0,0.06172839506172839,18.456790123456788,0)" xlink:href="#an"/><use transform="matrix(0.06172839506172839,0,0,0.06172839506172839,30.80246913580247,0)" xlink:href="#av"/><use transform="matrix(0.06172839506172839,0,0,0.06172839506172839,43.148148148148145,0)" xlink:href="#an"/><use transform="matrix(0.06172839506172839,0,0,0.06172839506172839,55.49382716049382,0)" xlink:href="#aw"/><use transform="matrix(0.06172839506172839,0,0,0.06172839506172839,67.8395061728395,0)" xlink:href="#as"/><use transform="matrix(0.06172839506172839,0,0,0.06172839506172839,80.18518518518519,0)" xlink:href="#ax"/></g><g id="e"><use transform="matrix(0.06172839506172839,0,0,0.06172839506172839,0,0)" xlink:href="#av"/><use transform="matrix(0.06172839506172839,0,0,0.06172839506172839,12.345679012345679,0)" xlink:href="#ak"/></g><path fill="#333" d="M33 0v-248h34V0H33" id="ay"/><path fill="#333" d="M100-194c62-1 85 37 85 99 1 63-27 99-86 99S16-35 15-95c0-66 28-99 85-99zM99-20c44 1 53-31 53-75 0-43-8-75-51-75s-53 32-53 75 10 74 51 75" id="az"/><g id="f"><use transform="matrix(0.049382716049382706,0,0,0.049382716049382706,0,0)" xlink:href="#ay"/><use transform="matrix(0.049382716049382706,0,0,0.049382716049382706,4.93827160493827,0)" xlink:href="#ak"/><use transform="matrix(0.049382716049382706,0,0,0.049382716049382706,13.827160493827158,0)" xlink:href="#ar"/><use transform="matrix(0.049382716049382706,0,0,0.049382716049382706,18.76543209876543,0)" xlink:href="#al"/><use transform="matrix(0.049382716049382706,0,0,0.049382716049382706,22.666666666666664,0)" xlink:href="#az"/></g><path fill="#333" d="M205 0l-28-72H64L36 0H1l101-248h38L239 0h-34zm-38-99l-47-123c-12 45-31 82-46 123h93" id="aA"/><path fill="#333" d="M30-248c87 1 191-15 191 75 0 78-77 80-158 76V0H30v-248zm33 125c57 0 124 11 124-50 0-59-68-47-124-48v98" id="aB"/><g id="g"><use transform="matrix(0.049382716049382706,0,0,0.049382716049382706,0,0)" xlink:href="#aA"/><use transform="matrix(0.049382716049382706,0,0,0.049382716049382706,11.85185185185185,0)" xlink:href="#aq"/><use transform="matrix(0.049382716049382706,0,0,0.049382716049382706,21.728395061728392,0)" xlink:href="#ar"/><use transform="matrix(0.049382716049382706,0,0,0.049382716049382706,26.666666666666668,0)" xlink:href="#ai"/><use transform="matrix(0.049382716049382706,0,0,0.049382716049382706,36.5432098765432,0)" xlink:href="#aB"/><use transform="matrix(0.049382716049382706,0,0,0.049382716049382706,48.39506172839505,0)" xlink:href="#az"/><use transform="matrix(0.049382716049382706,0,0,0.049382716049382706,58.271604938271594,0)" xlink:href="#ao"/><use transform="matrix(0.049382716049382706,0,0,0.049382716049382706,62.17283950617283,0)" xlink:href="#al"/><use transform="matrix(0.049382716049382706,0,0,0.049382716049382706,66.07407407407406,0)" xlink:href="#am"/><use transform="matrix(0.049382716049382706,0,0,0.049382716049382706,74.96296296296295,0)" xlink:href="#aj"/></g><path fill="#333" d="M87 75C49 33 22-17 22-94c0-76 28-126 65-167h31c-38 41-64 92-64 168S80 34 118 75H87" id="aC"/><path fill="#333" d="M33-261c38 41 65 92 65 168S71 34 33 75H2C39 34 66-17 66-93S39-220 2-261h31" id="aD"/><g id="h"><use transform="matrix(0.024691358024691343,0,0,0.024691358024691343,0,0)" xlink:href="#aC"/><use transform="matrix(0.024691358024691343,0,0,0.024691358024691343,2.93827160493827,0)" xlink:href="#an"/><use transform="matrix(0.024691358024691343,0,0,0.024691358024691343,7.87654320987654,0)" xlink:href="#aq"/><use transform="matrix(0.024691358024691343,0,0,0.024691358024691343,12.814814814814808,0)" xlink:href="#ar"/><use transform="matrix(0.024691358024691343,0,0,0.024691358024691343,15.28395061728394,0)" xlink:href="#ai"/><use transform="matrix(0.024691358024691343,0,0,0.024691358024691343,20.22222222222221,0)" xlink:href="#aD"/></g><path fill="#333" d="M266 0h-40l-56-210L115 0H75L2-248h35L96-30l15-64 43-154h32l59 218 59-218h35" id="aE"/><path fill="#333" d="M240 0l2-218c-23 76-54 145-80 218h-23L58-218 59 0H30v-248h44l77 211c21-75 51-140 76-211h43V0h-30" id="aF"/><g id="i"><use transform="matrix(0.049382716049382706,0,0,0.049382716049382706,0,0)" xlink:href="#aE"/><use transform="matrix(0.049382716049382706,0,0,0.049382716049382706,16.098765432098762,0)" xlink:href="#aA"/><use transform="matrix(0.049382716049382706,0,0,0.049382716049382706,27.950617283950614,0)" xlink:href="#ag"/><use transform="matrix(0.049382716049382706,0,0,0.049382716049382706,39.80246913580246,0)" xlink:href="#aF"/></g><g id="j"><use transform="matrix(0.049382716049382706,0,0,0.049382716049382706,0,0)" xlink:href="#aB"/><use transform="matrix(0.049382716049382706,0,0,0.049382716049382706,11.85185185185185,0)" xlink:href="#ao"/><use transform="matrix(0.049382716049382706,0,0,0.049382716049382706,15.753086419753084,0)" xlink:href="#aq"/><use transform="matrix(0.049382716049382706,0,0,0.049382716049382706,25.629629629629626,0)" xlink:href="#aw"/><use transform="matrix(0.049382716049382706,0,0,0.049382716049382706,35.50617283950616,0)" xlink:href="#al"/><use transform="matrix(0.049382716049382706,0,0,0.049382716049382706,39.4074074074074,0)" xlink:href="#av"/></g><g id="k"><use transform="matrix(0.024691358024691343,0,0,0.024691358024691343,0,0)" xlink:href="#aC"/><use transform="matrix(0.024691358024691343,0,0,0.024691358024691343,2.93827160493827,0)" xlink:href="#at"/><use transform="matrix(0.024691358024691343,0,0,0.024691358024691343,5.87654320987654,0)" xlink:href="#an"/><use transform="matrix(0.024691358024691343,0,0,0.024691358024691343,10.81481481481481,0)" xlink:href="#ar"/><use transform="matrix(0.024691358024691343,0,0,0.024691358024691343,13.283950617283946,0)" xlink:href="#as"/></g><g id="l"><use transform="matrix(0.024691358024691343,0,0,0.024691358024691343,0,0)" xlink:href="#ao"/><use transform="matrix(0.024691358024691343,0,0,0.024691358024691343,1.9506172839506162,0)" xlink:href="#al"/><use transform="matrix(0.024691358024691343,0,0,0.024691358024691343,3.9012345679012324,0)" xlink:href="#au"/><use transform="matrix(0.024691358024691343,0,0,0.024691358024691343,11.283950617283944,0)" xlink:href="#al"/><use transform="matrix(0.024691358024691343,0,0,0.024691358024691343,13.23456790123456,0)" xlink:href="#ar"/><use transform="matrix(0.024691358024691343,0,0,0.024691358024691343,15.703703703703694,0)" xlink:href="#aD"/></g><g id="m"><use transform="matrix(0.06172839506172839,0,0,0.06172839506172839,0,0)" xlink:href="#ay"/><use transform="matrix(0.06172839506172839,0,0,0.06172839506172839,6.172839506172839,0)" xlink:href="#ak"/><use transform="matrix(0.06172839506172839,0,0,0.06172839506172839,17.28395061728395,0)" xlink:href="#ar"/><use transform="matrix(0.06172839506172839,0,0,0.06172839506172839,23.456790123456788,0)" xlink:href="#al"/><use transform="matrix(0.06172839506172839,0,0,0.06172839506172839,28.33333333333333,0)" xlink:href="#az"/><use transform="matrix(0.06172839506172839,0,0,0.06172839506172839,40.679012345679006,0)" xlink:href="#ax"/></g><g id="n"><use transform="matrix(0.055555555555555546,0,0,0.055555555555555546,0,0)" xlink:href="#ay"/><use transform="matrix(0.055555555555555546,0,0,0.055555555555555546,5.5555555555555545,0)" xlink:href="#ak"/><use transform="matrix(0.055555555555555546,0,0,0.055555555555555546,15.555555555555554,0)" xlink:href="#ar"/><use transform="matrix(0.055555555555555546,0,0,0.055555555555555546,21.111111111111107,0)" xlink:href="#al"/><use transform="matrix(0.055555555555555546,0,0,0.055555555555555546,25.499999999999996,0)" xlink:href="#az"/></g><g id="o"><use transform="matrix(0.055555555555555546,0,0,0.055555555555555546,0,0)" xlink:href="#ay"/><use transform="matrix(0.055555555555555546,0,0,0.055555555555555546,5.5555555555555545,0)" xlink:href="#av"/><use transform="matrix(0.055555555555555546,0,0,0.055555555555555546,16.666666666666664,0)" xlink:href="#aw"/><use transform="matrix(0.055555555555555546,0,0,0.055555555555555546,27.77777777777777,0)" xlink:href="#at"/><use transform="matrix(0.055555555555555546,0,0,0.055555555555555546,34.38888888888888,0)" xlink:href="#as"/><use transform="matrix(0.055555555555555546,0,0,0.055555555555555546,45.499999999999986,0)" xlink:href="#ak"/><use transform="matrix(0.055555555555555546,0,0,0.055555555555555546,55.499999999999986,0)" xlink:href="#ak"/></g><path fill="#333" d="M143 4C61 4 22-44 18-125c-5-107 100-154 193-111 17 8 29 25 37 43l-32 9c-13-25-37-40-76-40-61 0-88 39-88 99 0 61 29 100 91 101 35 0 62-11 79-27v-45h-74v-28h105v86C228-13 192 4 143 4" id="aG"/><path fill="#333" d="M206 0h-36l-40-164L89 0H53L-1-190h32L70-26l43-164h34l41 164 42-164h31" id="aH"/><g id="p"><use transform="matrix(0.055555555555555546,0,0,0.055555555555555546,0,0)" xlink:href="#aG"/><use transform="matrix(0.055555555555555546,0,0,0.055555555555555546,15.555555555555554,0)" xlink:href="#an"/><use transform="matrix(0.055555555555555546,0,0,0.055555555555555546,26.666666666666664,0)" xlink:href="#ar"/><use transform="matrix(0.055555555555555546,0,0,0.055555555555555546,32.22222222222222,0)" xlink:href="#as"/><use transform="matrix(0.055555555555555546,0,0,0.055555555555555546,43.33333333333333,0)" xlink:href="#aH"/><use transform="matrix(0.055555555555555546,0,0,0.055555555555555546,57.722222222222214,0)" xlink:href="#an"/><use transform="matrix(0.055555555555555546,0,0,0.055555555555555546,68.83333333333333,0)" xlink:href="#aj"/></g><path fill="#333" d="M143 0L79-87 56-68V0H24v-261h32v163l83-92h37l-77 82L181 0h-38" id="aI"/><g id="q"><use transform="matrix(0.049382716049382706,0,0,0.049382716049382706,0,0)" xlink:href="#aI"/><use transform="matrix(0.049382716049382706,0,0,0.049382716049382706,8.888888888888888,0)" xlink:href="#aq"/><use transform="matrix(0.049382716049382706,0,0,0.049382716049382706,18.76543209876543,0)" xlink:href="#an"/><use transform="matrix(0.049382716049382706,0,0,0.049382716049382706,28.64197530864197,0)" xlink:href="#ax"/><use transform="matrix(0.049382716049382706,0,0,0.049382716049382706,38.51851851851851,0)" xlink:href="#at"/><use transform="matrix(0.049382716049382706,0,0,0.049382716049382706,44.395061728395056,0)" xlink:href="#an"/><use transform="matrix(0.049382716049382706,0,0,0.049382716049382706,54.271604938271594,0)" xlink:href="#av"/><use transform="matrix(0.049382716049382706,0,0,0.049382716049382706,64.14814814814814,0)" xlink:href="#ar"/></g><path fill="#333" d="M101-234c-31-9-42 10-38 44h38v23H63V0H32v-167H5v-23h27c-7-52 17-82 69-68v24" id="aJ"/><g id="r"><use transform="matrix(0.049382716049382706,0,0,0.049382716049382706,0,0)" xlink:href="#aA"/><use transform="matrix(0.049382716049382706,0,0,0.049382716049382706,11.85185185185185,0)" xlink:href="#aq"/><use transform="matrix(0.049382716049382706,0,0,0.049382716049382706,21.728395061728392,0)" xlink:href="#ar"/><use transform="matrix(0.049382716049382706,0,0,0.049382716049382706,26.666666666666668,0)" xlink:href="#ai"/><use transform="matrix(0.049382716049382706,0,0,0.049382716049382706,36.5432098765432,0)" xlink:href="#ap"/><use transform="matrix(0.049382716049382706,0,0,0.049382716049382706,49.33333333333332,0)" xlink:href="#az"/><use transform="matrix(0.049382716049382706,0,0,0.049382716049382706,59.20987654320985,0)" xlink:href="#av"/><use transform="matrix(0.049382716049382706,0,0,0.049382716049382706,69.0864197530864,0)" xlink:href="#al"/><use transform="matrix(0.049382716049382706,0,0,0.049382716049382706,72.98765432098763,0)" xlink:href="#aJ"/><use transform="matrix(0.049382716049382706,0,0,0.049382716049382706,77.9259259259259,0)" xlink:href="#aw"/></g><g id="s"><use transform="matrix(0.06172839506172839,0,0,0.06172839506172839,0,0)" xlink:href="#aA"/><use transform="matrix(0.06172839506172839,0,0,0.06172839506172839,14.814814814814813,0)" xlink:href="#aq"/><use transform="matrix(0.06172839506172839,0,0,0.06172839506172839,27.160493827160494,0)" xlink:href="#ar"/><use transform="matrix(0.06172839506172839,0,0,0.06172839506172839,33.333333333333336,0)" xlink:href="#ai"/><use transform="matrix(0.06172839506172839,0,0,0.06172839506172839,45.67901234567901,0)" xlink:href="#az"/><use transform="matrix(0.06172839506172839,0,0,0.06172839506172839,58.02469135802469,0)" xlink:href="#at"/><use transform="matrix(0.06172839506172839,0,0,0.06172839506172839,65.37037037037037,0)" xlink:href="#al"/><use transform="matrix(0.06172839506172839,0,0,0.06172839506172839,70.24691358024691,0)" xlink:href="#av"/><use transform="matrix(0.06172839506172839,0,0,0.06172839506172839,82.5925925925926,0)" xlink:href="#az"/></g><path fill="#333" d="M233-177c-1 41-23 64-60 70L243 0h-38l-65-103H63V0H30v-248c88 3 205-21 203 71zM63-129c60-2 137 13 137-47 0-61-80-42-137-45v92" id="aK"/><path fill="#333" d="M30 0v-248h33v221h125V0H30" id="aL"/><g id="t"><use transform="matrix(0.049382716049382706,0,0,0.049382716049382706,0,0)" xlink:href="#aK"/><use transform="matrix(0.049382716049382706,0,0,0.049382716049382706,12.790123456790122,0)" xlink:href="#an"/><use transform="matrix(0.049382716049382706,0,0,0.049382716049382706,22.666666666666664,0)" xlink:href="#ar"/><use transform="matrix(0.049382716049382706,0,0,0.049382716049382706,27.60493827160494,0)" xlink:href="#as"/><use transform="matrix(0.049382716049382706,0,0,0.049382716049382706,37.48148148148148,0)" xlink:href="#aL"/><use transform="matrix(0.049382716049382706,0,0,0.049382716049382706,47.358024691358025,0)" xlink:href="#al"/><use transform="matrix(0.049382716049382706,0,0,0.049382716049382706,51.25925925925926,0)" xlink:href="#au"/><use transform="matrix(0.049382716049382706,0,0,0.049382716049382706,66.02469135802468,0)" xlink:href="#al"/><use transform="matrix(0.049382716049382706,0,0,0.049382716049382706,69.92592592592591,0)" xlink:href="#ar"/></g><g id="u"><use transform="matrix(0.06172839506172839,0,0,0.06172839506172839,0,0)" xlink:href="#aL"/><use transform="matrix(0.06172839506172839,0,0,0.06172839506172839,12.345679012345679,0)" xlink:href="#al"/><use transform="matrix(0.06172839506172839,0,0,0.06172839506172839,17.22222222222222,0)" xlink:href="#au"/><use transform="matrix(0.06172839506172839,0,0,0.06172839506172839,35.67901234567901,0)" xlink:href="#al"/><use transform="matrix(0.06172839506172839,0,0,0.06172839506172839,40.55555555555556,0)" xlink:href="#ar"/><use transform="matrix(0.06172839506172839,0,0,0.06172839506172839,46.7283950617284,0)" xlink:href="#an"/><use transform="matrix(0.06172839506172839,0,0,0.06172839506172839,59.074074074074076,0)" xlink:href="#ax"/><use transform="matrix(0.06172839506172839,0,0,0.06172839506172839,71.41975308641976,0)" xlink:href="#az"/><use transform="matrix(0.06172839506172839,0,0,0.06172839506172839,83.76543209876544,0)" xlink:href="#at"/></g><path fill="#333" d="M190-63c-7 42-38 67-86 67-59 0-84-38-90-98-12-110 154-137 174-36l-49 2c-2-19-15-32-35-32-30 0-35 28-38 64-6 74 65 87 74 30" id="aM"/><path fill="#333" d="M135-150c-39-12-60 13-60 57V0H25l-1-190h47c2 13-1 29 3 40 6-28 27-53 61-41v41" id="aN"/><path fill="#333" d="M185-48c-13 30-37 53-82 52C43 2 14-33 14-96s30-98 90-98c62 0 83 45 84 108H66c0 31 8 55 39 56 18 0 30-7 34-22zm-45-69c5-46-57-63-70-21-2 6-4 13-4 21h74" id="aO"/><path fill="#333" d="M133-34C117-15 103 5 69 4 32 3 11-16 11-54c-1-60 55-63 116-61 1-26-3-47-28-47-18 1-26 9-28 27l-52-2c7-38 36-58 82-57s74 22 75 68l1 82c-1 14 12 18 25 15v27c-30 8-71 5-69-32zm-48 3c29 0 43-24 42-57-32 0-66-3-65 30 0 17 8 27 23 27" id="aP"/><path fill="#333" d="M115-3C79 11 28 4 28-45v-112H4v-33h27l15-45h31v45h36v33H77v99c-1 23 16 31 38 25v30" id="aQ"/><g id="v"><use transform="matrix(0.04938271604938272,0,0,0.04938271604938272,0,0)" xlink:href="#aM"/><use transform="matrix(0.04938271604938272,0,0,0.04938271604938272,9.876543209876544,0)" xlink:href="#aN"/><use transform="matrix(0.04938271604938272,0,0,0.04938271604938272,16.790123456790127,0)" xlink:href="#aO"/><use transform="matrix(0.04938271604938272,0,0,0.04938271604938272,26.666666666666668,0)" xlink:href="#aP"/><use transform="matrix(0.04938271604938272,0,0,0.04938271604938272,36.543209876543216,0)" xlink:href="#aQ"/><use transform="matrix(0.04938271604938272,0,0,0.04938271604938272,42.41975308641976,0)" xlink:href="#aO"/></g><path fill="#333" d="M137-138c1-29-70-34-71-4 15 46 118 7 119 86 1 83-164 76-172 9l43-7c4 19 20 25 44 25 33 8 57-30 24-41C81-84 22-81 20-136c-2-80 154-74 161-7" id="aR"/><g id="w"><use transform="matrix(0.04938271604938272,0,0,0.04938271604938272,0,0)" xlink:href="#aM"/><use transform="matrix(0.04938271604938272,0,0,0.04938271604938272,9.876543209876544,0)" xlink:href="#aN"/><use transform="matrix(0.04938271604938272,0,0,0.04938271604938272,16.790123456790127,0)" xlink:href="#aO"/><use transform="matrix(0.04938271604938272,0,0,0.04938271604938272,26.666666666666668,0)" xlink:href="#aP"/><use transform="matrix(0.04938271604938272,0,0,0.04938271604938272,36.543209876543216,0)" xlink:href="#aQ"/><use transform="matrix(0.04938271604938272,0,0,0.04938271604938272,42.41975308641976,0)" xlink:href="#aO"/><use transform="matrix(0.04938271604938272,0,0,0.04938271604938272,52.2962962962963,0)" xlink:href="#aR"/></g><path fill="#333" d="M110-194c64 0 96 36 96 99 0 64-35 99-97 99-61 0-95-36-95-99 0-62 34-99 96-99zm-1 164c35 0 45-28 45-65 0-40-10-65-43-65-34 0-45 26-45 65 0 36 10 65 43 65" id="aS"/><path fill="#333" d="M135-194c87-1 58 113 63 194h-50c-7-57 23-157-34-157-59 0-34 97-39 157H25l-1-190h47c2 12-1 28 3 38 12-26 28-41 61-42" id="aT"/><path fill="#333" d="M121-226c-27-7-43 5-38 36h38v33H83V0H34v-157H6v-33h28c-9-59 32-81 87-68v32" id="aU"/><path fill="#333" d="M25-224v-37h50v37H25zM25 0v-190h50V0H25" id="aV"/><path fill="#333" d="M195-6C206 82 75 100 31 46c-4-6-6-13-8-21l49-6c3 16 16 24 34 25 40 0 42-37 40-79-11 22-30 35-61 35-53 0-70-43-70-97 0-56 18-96 73-97 30 0 46 14 59 34l2-30h47zm-90-29c32 0 41-27 41-63 0-35-9-62-40-62-32 0-39 29-40 63 0 36 9 62 39 62" id="aW"/><path fill="#333" d="M85 4C-2 5 27-109 22-190h50c7 57-23 150 33 157 60-5 35-97 40-157h50l1 190h-47c-2-12 1-28-3-38-12 25-28 42-61 42" id="aX"/><g id="x"><use transform="matrix(0.04938271604938272,0,0,0.04938271604938272,0,0)" xlink:href="#aM"/><use transform="matrix(0.04938271604938272,0,0,0.04938271604938272,9.876543209876544,0)" xlink:href="#aS"/><use transform="matrix(0.04938271604938272,0,0,0.04938271604938272,20.69135802469136,0)" xlink:href="#aT"/><use transform="matrix(0.04938271604938272,0,0,0.04938271604938272,31.506172839506174,0)" xlink:href="#aU"/><use transform="matrix(0.04938271604938272,0,0,0.04938271604938272,37.38271604938272,0)" xlink:href="#aV"/><use transform="matrix(0.04938271604938272,0,0,0.04938271604938272,42.320987654320994,0)" xlink:href="#aW"/><use transform="matrix(0.04938271604938272,0,0,0.04938271604938272,53.135802469135804,0)" xlink:href="#aX"/><use transform="matrix(0.04938271604938272,0,0,0.04938271604938272,63.95061728395062,0)" xlink:href="#aN"/><use transform="matrix(0.04938271604938272,0,0,0.04938271604938272,70.8641975308642,0)" xlink:href="#aO"/><use transform="matrix(0.04938271604938272,0,0,0.04938271604938272,80.74074074074075,0)" xlink:href="#aR"/></g><g id="y"><use transform="matrix(0.06172839506172839,0,0,0.06172839506172839,0,0)" xlink:href="#am"/><use transform="matrix(0.06172839506172839,0,0,0.06172839506172839,11.11111111111111,0)" xlink:href="#aq"/><use transform="matrix(0.06172839506172839,0,0,0.06172839506172839,23.45679012345679,0)" xlink:href="#ak"/><use transform="matrix(0.06172839506172839,0,0,0.06172839506172839,34.5679012345679,0)" xlink:href="#ar"/><use transform="matrix(0.06172839506172839,0,0,0.06172839506172839,40.74074074074074,0)" xlink:href="#az"/><use transform="matrix(0.06172839506172839,0,0,0.06172839506172839,53.08641975308642,0)" xlink:href="#au"/><use transform="matrix(0.06172839506172839,0,0,0.06172839506172839,71.5432098765432,0)" xlink:href="#as"/><use transform="matrix(0.06172839506172839,0,0,0.06172839506172839,83.88888888888889,0)" xlink:href="#at"/></g><g id="z"><use transform="matrix(0.06172839506172839,0,0,0.06172839506172839,0,0)" xlink:href="#av"/><use transform="matrix(0.06172839506172839,0,0,0.06172839506172839,12.345679012345679,0)" xlink:href="#an"/><use transform="matrix(0.06172839506172839,0,0,0.06172839506172839,24.691358024691358,0)" xlink:href="#au"/><use transform="matrix(0.06172839506172839,0,0,0.06172839506172839,43.148148148148145,0)" xlink:href="#as"/><use transform="matrix(0.06172839506172839,0,0,0.06172839506172839,55.49382716049382,0)" xlink:href="#ak"/><use transform="matrix(0.06172839506172839,0,0,0.06172839506172839,66.60493827160494,0)" xlink:href="#ah"/><use transform="matrix(0.06172839506172839,0,0,0.06172839506172839,78.95061728395062,0)" xlink:href="#an"/><use transform="matrix(0.06172839506172839,0,0,0.06172839506172839,91.2962962962963,0)" xlink:href="#am"/><use transform="matrix(0.06172839506172839,0,0,0.06172839506172839,102.40740740740742,0)" xlink:href="#as"/><use transform="matrix(0.06172839506172839,0,0,0.06172839506172839,114.7530864197531,0)" xlink:href="#aC"/><use transform="matrix(0.06172839506172839,0,0,0.06172839506172839,122.09876543209879,0)" xlink:href="#ak"/><use transform="matrix(0.06172839506172839,0,0,0.06172839506172839,133.2098765432099,0)" xlink:href="#aD"/></g><g id="A"><use transform="matrix(0.049382716049382706,0,0,0.049382716049382706,0,0)" xlink:href="#aA"/><use transform="matrix(0.049382716049382706,0,0,0.049382716049382706,11.85185185185185,0)" xlink:href="#aB"/><use transform="matrix(0.049382716049382706,0,0,0.049382716049382706,23.7037037037037,0)" xlink:href="#ay"/></g><g id="B"><use transform="matrix(0.049382716049382706,0,0,0.049382716049382706,0,0)" xlink:href="#aB"/><use transform="matrix(0.049382716049382706,0,0,0.049382716049382706,11.85185185185185,0)" xlink:href="#at"/><use transform="matrix(0.049382716049382706,0,0,0.049382716049382706,17.728395061728392,0)" xlink:href="#az"/><use transform="matrix(0.049382716049382706,0,0,0.049382716049382706,27.604938271604933,0)" xlink:href="#ar"/><use transform="matrix(0.049382716049382706,0,0,0.049382716049382706,32.5432098765432,0)" xlink:href="#as"/><use transform="matrix(0.049382716049382706,0,0,0.049382716049382706,42.419753086419746,0)" xlink:href="#am"/><use transform="matrix(0.049382716049382706,0,0,0.049382716049382706,51.30864197530863,0)" xlink:href="#ar"/><use transform="matrix(0.049382716049382706,0,0,0.049382716049382706,56.246913580246904,0)" xlink:href="#al"/><use transform="matrix(0.049382716049382706,0,0,0.049382716049382706,60.14814814814814,0)" xlink:href="#az"/><use transform="matrix(0.049382716049382706,0,0,0.049382716049382706,70.02469135802468,0)" xlink:href="#av"/></g><g id="C"><use transform="matrix(0.06172839506172839,0,0,0.06172839506172839,0,0)" xlink:href="#aA"/><use transform="matrix(0.06172839506172839,0,0,0.06172839506172839,14.814814814814813,0)" xlink:href="#aB"/><use transform="matrix(0.06172839506172839,0,0,0.06172839506172839,29.629629629629626,0)" xlink:href="#ay"/></g><path fill="#333" d="M30-248c118-7 216 8 213 122C240-48 200 0 122 0H30v-248zM63-27c89 8 146-16 146-99s-60-101-146-95v194" id="aY"/><path fill="#333" d="M108 0H70L1-190h34L89-25l56-165h34" id="aZ"/><g id="D"><use transform="matrix(0.06172839506172839,0,0,0.06172839506172839,0,0)" xlink:href="#aY"/><use transform="matrix(0.06172839506172839,0,0,0.06172839506172839,15.987654320987653,0)" xlink:href="#as"/><use transform="matrix(0.06172839506172839,0,0,0.06172839506172839,28.333333333333332,0)" xlink:href="#aZ"/><use transform="matrix(0.06172839506172839,0,0,0.06172839506172839,39.44444444444444,0)" xlink:href="#as"/><use transform="matrix(0.06172839506172839,0,0,0.06172839506172839,51.79012345679012,0)" xlink:href="#ao"/><use transform="matrix(0.06172839506172839,0,0,0.06172839506172839,56.666666666666664,0)" xlink:href="#az"/><use transform="matrix(0.06172839506172839,0,0,0.06172839506172839,69.01234567901234,0)" xlink:href="#ah"/><use transform="matrix(0.06172839506172839,0,0,0.06172839506172839,81.35802469135803,0)" xlink:href="#as"/><use transform="matrix(0.06172839506172839,0,0,0.06172839506172839,93.70370370370371,0)" xlink:href="#at"/></g><g id="E"><use transform="matrix(0.049382716049382706,0,0,0.049382716049382706,0,0)" xlink:href="#aK"/><use transform="matrix(0.049382716049382706,0,0,0.049382716049382706,12.790123456790122,0)" xlink:href="#az"/><use transform="matrix(0.049382716049382706,0,0,0.049382716049382706,22.666666666666664,0)" xlink:href="#aq"/><use transform="matrix(0.049382716049382706,0,0,0.049382716049382706,32.5432098765432,0)" xlink:href="#ar"/><use transform="matrix(0.049382716049382706,0,0,0.049382716049382706,37.481481481481474,0)" xlink:href="#al"/><use transform="matrix(0.049382716049382706,0,0,0.049382716049382706,41.38271604938271,0)" xlink:href="#av"/><use transform="matrix(0.049382716049382706,0,0,0.049382716049382706,51.25925925925925,0)" xlink:href="#aw"/></g><g id="F"><use transform="matrix(0.049382716049382706,0,0,0.049382716049382706,0,0)" xlink:href="#aK"/><use transform="matrix(0.049382716049382706,0,0,0.049382716049382706,12.790123456790122,0)" xlink:href="#as"/><use transform="matrix(0.049382716049382706,0,0,0.049382716049382706,22.666666666666664,0)" xlink:href="#ak"/><use transform="matrix(0.049382716049382706,0,0,0.049382716049382706,31.55555555555555,0)" xlink:href="#az"/><use transform="matrix(0.049382716049382706,0,0,0.049382716049382706,41.43209876543209,0)" xlink:href="#aq"/><use transform="matrix(0.049382716049382706,0,0,0.049382716049382706,51.30864197530863,0)" xlink:href="#at"/><use transform="matrix(0.049382716049382706,0,0,0.049382716049382706,57.185185185185176,0)" xlink:href="#am"/><use transform="matrix(0.049382716049382706,0,0,0.049382716049382706,66.07407407407406,0)" xlink:href="#as"/><use transform="matrix(0.049382716049382706,0,0,0.049382716049382706,75.9506172839506,0)" xlink:href="#ak"/></g><g id="G"><use transform="matrix(0.049382716049382706,0,0,0.049382716049382706,0,0)" xlink:href="#aw"/><use transform="matrix(0.049382716049382706,0,0,0.049382716049382706,9.87654320987654,0)" xlink:href="#an"/><use transform="matrix(0.049382716049382706,0,0,0.049382716049382706,19.75308641975308,0)" xlink:href="#ar"/><use transform="matrix(0.049382716049382706,0,0,0.049382716049382706,24.691358024691354,0)" xlink:href="#as"/><use transform="matrix(0.049382716049382706,0,0,0.049382716049382706,34.5679012345679,0)" xlink:href="#aH"/><use transform="matrix(0.049382716049382706,0,0,0.049382716049382706,47.35802469135802,0)" xlink:href="#an"/><use transform="matrix(0.049382716049382706,0,0,0.049382716049382706,57.234567901234556,0)" xlink:href="#aj"/><use transform="matrix(0.049382716049382706,0,0,0.049382716049382706,66.12345679012344,0)" xlink:href="#an"/><use transform="matrix(0.049382716049382706,0,0,0.049382716049382706,75.99999999999999,0)" xlink:href="#ah"/><use transform="matrix(0.049382716049382706,0,0,0.049382716049382706,85.87654320987653,0)" xlink:href="#al"/></g><path fill="#333" d="M197 0v-115H63V0H30v-248h33v105h134v-105h34V0h-34" id="ba"/><path fill="#333" d="M127-220V0H93v-220H8v-28h204v28h-85" id="bb"/><g id="H"><use transform="matrix(0.049382716049382706,0,0,0.049382716049382706,0,0)" xlink:href="#ba"/><use transform="matrix(0.049382716049382706,0,0,0.049382716049382706,12.790123456790122,0)" xlink:href="#bb"/><use transform="matrix(0.049382716049382706,0,0,0.049382716049382706,23.604938271604937,0)" xlink:href="#bb"/><use transform="matrix(0.049382716049382706,0,0,0.049382716049382706,34.419753086419746,0)" xlink:href="#aB"/><use transform="matrix(0.049382716049382706,0,0,0.049382716049382706,46.271604938271594,0)" xlink:href="#aK"/><use transform="matrix(0.049382716049382706,0,0,0.049382716049382706,59.061728395061714,0)" xlink:href="#az"/><use transform="matrix(0.049382716049382706,0,0,0.049382716049382706,68.93827160493825,0)" xlink:href="#aq"/><use transform="matrix(0.049382716049382706,0,0,0.049382716049382706,78.8148148148148,0)" xlink:href="#ar"/><use transform="matrix(0.049382716049382706,0,0,0.049382716049382706,83.75308641975306,0)" xlink:href="#as"/></g><g id="I"><use transform="matrix(0.049382716049382706,0,0,0.049382716049382706,0,0)" xlink:href="#aA"/><use transform="matrix(0.049382716049382706,0,0,0.049382716049382706,11.85185185185185,0)" xlink:href="#aq"/><use transform="matrix(0.049382716049382706,0,0,0.049382716049382706,21.728395061728392,0)" xlink:href="#ar"/><use transform="matrix(0.049382716049382706,0,0,0.049382716049382706,26.666666666666668,0)" xlink:href="#ai"/><use transform="matrix(0.049382716049382706,0,0,0.049382716049382706,36.5432098765432,0)" xlink:href="#az"/><use transform="matrix(0.049382716049382706,0,0,0.049382716049382706,46.419753086419746,0)" xlink:href="#at"/><use transform="matrix(0.049382716049382706,0,0,0.049382716049382706,52.29629629629628,0)" xlink:href="#al"/><use transform="matrix(0.049382716049382706,0,0,0.049382716049382706,56.19753086419752,0)" xlink:href="#av"/><use transform="matrix(0.049382716049382706,0,0,0.049382716049382706,66.07407407407406,0)" xlink:href="#az"/></g><g id="J"><use transform="matrix(0.06172839506172839,0,0,0.06172839506172839,0,0)" xlink:href="#aL"/><use transform="matrix(0.06172839506172839,0,0,0.06172839506172839,12.345679012345679,0)" xlink:href="#as"/><use transform="matrix(0.06172839506172839,0,0,0.06172839506172839,24.691358024691358,0)" xlink:href="#aw"/><use transform="matrix(0.06172839506172839,0,0,0.06172839506172839,37.03703703703704,0)" xlink:href="#as"/><use transform="matrix(0.06172839506172839,0,0,0.06172839506172839,49.382716049382715,0)" xlink:href="#av"/><use transform="matrix(0.06172839506172839,0,0,0.06172839506172839,61.72839506172839,0)" xlink:href="#ax"/></g><g id="K"><use transform="matrix(0.04320987654320987,0,0,0.04320987654320987,0,0)" xlink:href="#al"/><use transform="matrix(0.04320987654320987,0,0,0.04320987654320987,3.4135802469135794,0)" xlink:href="#ak"/><use transform="matrix(0.04320987654320987,0,0,0.04320987654320987,11.191358024691356,0)" xlink:href="#ar"/><use transform="matrix(0.04320987654320987,0,0,0.04320987654320987,15.512345679012343,0)" xlink:href="#al"/><use transform="matrix(0.04320987654320987,0,0,0.04320987654320987,18.92592592592592,0)" xlink:href="#az"/></g><path fill="#333" d="M194 0L95-120 63-95V0H30v-248h33v124l119-124h40L117-140 236 0h-42" id="bc"/><g id="L"><use transform="matrix(0.04320987654320987,0,0,0.04320987654320987,0,0)" xlink:href="#bc"/><use transform="matrix(0.04320987654320987,0,0,0.04320987654320987,10.370370370370368,0)" xlink:href="#aq"/><use transform="matrix(0.04320987654320987,0,0,0.04320987654320987,19.01234567901234,0)" xlink:href="#ax"/><use transform="matrix(0.04320987654320987,0,0,0.04320987654320987,27.654320987654316,0)" xlink:href="#an"/><use transform="matrix(0.04320987654320987,0,0,0.04320987654320987,36.29629629629629,0)" xlink:href="#at"/><use transform="matrix(0.04320987654320987,0,0,0.04320987654320987,41.438271604938265,0)" xlink:href="#an"/><use transform="matrix(0.04320987654320987,0,0,0.04320987654320987,50.08024691358023,0)" xlink:href="#av"/><use transform="matrix(0.04320987654320987,0,0,0.04320987654320987,58.72222222222221,0)" xlink:href="#ar"/></g><g id="M"><use transform="matrix(0.04320987654320987,0,0,0.04320987654320987,0,0)" xlink:href="#ap"/><use transform="matrix(0.04320987654320987,0,0,0.04320987654320987,11.191358024691356,0)" xlink:href="#aq"/><use transform="matrix(0.04320987654320987,0,0,0.04320987654320987,19.83333333333333,0)" xlink:href="#ak"/><use transform="matrix(0.04320987654320987,0,0,0.04320987654320987,27.611111111111104,0)" xlink:href="#ar"/><use transform="matrix(0.04320987654320987,0,0,0.04320987654320987,31.93209876543209,0)" xlink:href="#az"/><use transform="matrix(0.04320987654320987,0,0,0.04320987654320987,40.57407407407406,0)" xlink:href="#au"/></g><g id="N"><use transform="matrix(0.04320987654320987,0,0,0.04320987654320987,0,0)" xlink:href="#aK"/><use transform="matrix(0.04320987654320987,0,0,0.04320987654320987,11.191358024691356,0)" xlink:href="#as"/><use transform="matrix(0.04320987654320987,0,0,0.04320987654320987,19.83333333333333,0)" xlink:href="#ak"/><use transform="matrix(0.04320987654320987,0,0,0.04320987654320987,27.611111111111104,0)" xlink:href="#az"/><use transform="matrix(0.04320987654320987,0,0,0.04320987654320987,36.253086419753075,0)" xlink:href="#aq"/><use transform="matrix(0.04320987654320987,0,0,0.04320987654320987,44.89506172839505,0)" xlink:href="#at"/><use transform="matrix(0.04320987654320987,0,0,0.04320987654320987,50.037037037037024,0)" xlink:href="#am"/><use transform="matrix(0.04320987654320987,0,0,0.04320987654320987,57.8148148148148,0)" xlink:href="#as"/></g><g id="O"><use transform="matrix(0.06172839506172839,0,0,0.06172839506172839,0,0)" xlink:href="#aA"/><use transform="matrix(0.06172839506172839,0,0,0.06172839506172839,14.814814814814813,0)" xlink:href="#aq"/><use transform="matrix(0.06172839506172839,0,0,0.06172839506172839,27.160493827160494,0)" xlink:href="#ar"/><use transform="matrix(0.06172839506172839,0,0,0.06172839506172839,33.333333333333336,0)" xlink:href="#ai"/><use transform="matrix(0.06172839506172839,0,0,0.06172839506172839,45.67901234567901,0)" xlink:href="#az"/><use transform="matrix(0.06172839506172839,0,0,0.06172839506172839,58.02469135802469,0)" xlink:href="#at"/><use transform="matrix(0.06172839506172839,0,0,0.06172839506172839,65.37037037037037,0)" xlink:href="#al"/><use transform="matrix(0.06172839506172839,0,0,0.06172839506172839,70.24691358024691,0)" xlink:href="#av"/><use transform="matrix(0.06172839506172839,0,0,0.06172839506172839,82.5925925925926,0)" xlink:href="#az"/></g><g id="P"><use transform="matrix(0.06172839506172839,0,0,0.06172839506172839,0,0)" xlink:href="#af"/><use transform="matrix(0.06172839506172839,0,0,0.06172839506172839,17.28395061728395,0)" xlink:href="#ah"/><use transform="matrix(0.06172839506172839,0,0,0.06172839506172839,29.629629629629626,0)" xlink:href="#as"/><use transform="matrix(0.06172839506172839,0,0,0.06172839506172839,41.9753086419753,0)" xlink:href="#at"/><use transform="matrix(0.06172839506172839,0,0,0.06172839506172839,49.32098765432098,0)" xlink:href="#an"/><use transform="matrix(0.06172839506172839,0,0,0.06172839506172839,61.66666666666666,0)" xlink:href="#ar"/><use transform="matrix(0.06172839506172839,0,0,0.06172839506172839,67.83950617283949,0)" xlink:href="#az"/><use transform="matrix(0.06172839506172839,0,0,0.06172839506172839,80.18518518518518,0)" xlink:href="#at"/></g><path fill="#333" d="M220-157c-53 9-28 100-34 157h-49v-107c1-27-5-49-29-50C55-147 81-57 75 0H25l-1-190h47c2 12-1 28 3 38 10-53 101-56 108 0 13-22 24-43 59-42 82 1 51 116 57 194h-49v-107c-1-25-5-48-29-50" id="bd"/><g id="Q"><use transform="matrix(0.04938271604938272,0,0,0.04938271604938272,0,0)" xlink:href="#bd"/><use transform="matrix(0.04938271604938272,0,0,0.04938271604938272,15.80246913580247,0)" xlink:href="#aP"/><use transform="matrix(0.04938271604938272,0,0,0.04938271604938272,25.679012345679016,0)" xlink:href="#aT"/><use transform="matrix(0.04938271604938272,0,0,0.04938271604938272,36.49382716049383,0)" xlink:href="#aP"/><use transform="matrix(0.04938271604938272,0,0,0.04938271604938272,46.370370370370374,0)" xlink:href="#aW"/><use transform="matrix(0.04938271604938272,0,0,0.04938271604938272,57.18518518518519,0)" xlink:href="#aO"/><use transform="matrix(0.04938271604938272,0,0,0.04938271604938272,67.06172839506173,0)" xlink:href="#aR"/></g><g id="R"><use transform="matrix(0.049382716049382706,0,0,0.049382716049382706,0,0)" xlink:href="#aL"/><use transform="matrix(0.049382716049382706,0,0,0.049382716049382706,9.87654320987654,0)" xlink:href="#al"/><use transform="matrix(0.049382716049382706,0,0,0.049382716049382706,13.777777777777775,0)" xlink:href="#au"/><use transform="matrix(0.049382716049382706,0,0,0.049382716049382706,28.543209876543205,0)" xlink:href="#al"/><use transform="matrix(0.049382716049382706,0,0,0.049382716049382706,32.444444444444436,0)" xlink:href="#ar"/><use transform="matrix(0.049382716049382706,0,0,0.049382716049382706,37.38271604938271,0)" xlink:href="#an"/><use transform="matrix(0.049382716049382706,0,0,0.049382716049382706,47.25925925925925,0)" xlink:href="#ax"/><use transform="matrix(0.049382716049382706,0,0,0.049382716049382706,57.13580246913579,0)" xlink:href="#az"/><use transform="matrix(0.049382716049382706,0,0,0.049382716049382706,67.01234567901234,0)" xlink:href="#at"/></g><g id="S"><use transform="matrix(0.06172839506172839,0,0,0.06172839506172839,0,0)" xlink:href="#aL"/><use transform="matrix(0.06172839506172839,0,0,0.06172839506172839,12.345679012345679,0)" xlink:href="#al"/><use transform="matrix(0.06172839506172839,0,0,0.06172839506172839,17.22222222222222,0)" xlink:href="#au"/><use transform="matrix(0.06172839506172839,0,0,0.06172839506172839,35.67901234567901,0)" xlink:href="#al"/><use transform="matrix(0.06172839506172839,0,0,0.06172839506172839,40.55555555555556,0)" xlink:href="#ar"/><use transform="matrix(0.06172839506172839,0,0,0.06172839506172839,46.7283950617284,0)" xlink:href="#an"/><use transform="matrix(0.06172839506172839,0,0,0.06172839506172839,59.074074074074076,0)" xlink:href="#ax"/><use transform="matrix(0.06172839506172839,0,0,0.06172839506172839,71.41975308641976,0)" xlink:href="#az"/><use transform="matrix(0.06172839506172839,0,0,0.06172839506172839,83.76543209876544,0)" xlink:href="#at"/></g><g id="T"><use transform="matrix(0.06172839506172839,0,0,0.06172839506172839,0,0)" xlink:href="#af"/><use transform="matrix(0.06172839506172839,0,0,0.06172839506172839,17.28395061728395,0)" xlink:href="#ah"/><use transform="matrix(0.06172839506172839,0,0,0.06172839506172839,29.629629629629626,0)" xlink:href="#as"/><use transform="matrix(0.06172839506172839,0,0,0.06172839506172839,41.9753086419753,0)" xlink:href="#at"/><use transform="matrix(0.06172839506172839,0,0,0.06172839506172839,49.32098765432098,0)" xlink:href="#an"/><use transform="matrix(0.06172839506172839,0,0,0.06172839506172839,61.66666666666666,0)" xlink:href="#ar"/><use transform="matrix(0.06172839506172839,0,0,0.06172839506172839,67.83950617283949,0)" xlink:href="#az"/><use transform="matrix(0.06172839506172839,0,0,0.06172839506172839,80.18518518518518,0)" xlink:href="#at"/></g><path fill="#333" d="M33 0v-38h34V0H33" id="be"/><g id="U"><use transform="matrix(0.049382716049382706,0,0,0.049382716049382706,0,0)" xlink:href="#aI"/><path fill="#8080ff" d="M-.9 1.23H9.8v1.3H-.9z"/><use transform="matrix(0.049382716049382706,0,0,0.049382716049382706,8.888888888888888,0)" xlink:href="#aq"/><use transform="matrix(0.049382716049382706,0,0,0.049382716049382706,18.76543209876543,0)" xlink:href="#an"/><use transform="matrix(0.049382716049382706,0,0,0.049382716049382706,28.64197530864197,0)" xlink:href="#ax"/><use transform="matrix(0.049382716049382706,0,0,0.049382716049382706,38.51851851851851,0)" xlink:href="#at"/><use transform="matrix(0.049382716049382706,0,0,0.049382716049382706,44.395061728395056,0)" xlink:href="#an"/><use transform="matrix(0.049382716049382706,0,0,0.049382716049382706,54.271604938271594,0)" xlink:href="#av"/><use transform="matrix(0.049382716049382706,0,0,0.049382716049382706,64.14814814814814,0)" xlink:href="#ar"/><use transform="matrix(0.049382716049382706,0,0,0.049382716049382706,69.0864197530864,0)" xlink:href="#be"/><use transform="matrix(0.049382716049382706,0,0,0.049382716049382706,74.02469135802467,0)" xlink:href="#al"/><use transform="matrix(0.049382716049382706,0,0,0.049382716049382706,77.9259259259259,0)" xlink:href="#az"/><path fill="#8080ff" d="M8 1.23h80.7v1.3H8z"/></g><g id="V"><use transform="matrix(0.049382716049382706,0,0,0.049382716049382706,0,0)" xlink:href="#aA"/><use transform="matrix(0.049382716049382706,0,0,0.049382716049382706,11.85185185185185,0)" xlink:href="#aq"/><use transform="matrix(0.049382716049382706,0,0,0.049382716049382706,21.728395061728392,0)" xlink:href="#ar"/><use transform="matrix(0.049382716049382706,0,0,0.049382716049382706,26.666666666666668,0)" xlink:href="#ai"/><use transform="matrix(0.049382716049382706,0,0,0.049382716049382706,36.5432098765432,0)" xlink:href="#aB"/><use transform="matrix(0.049382716049382706,0,0,0.049382716049382706,48.39506172839505,0)" xlink:href="#az"/><use transform="matrix(0.049382716049382706,0,0,0.049382716049382706,58.271604938271594,0)" xlink:href="#ao"/><use transform="matrix(0.049382716049382706,0,0,0.049382716049382706,62.17283950617283,0)" xlink:href="#al"/><use transform="matrix(0.049382716049382706,0,0,0.049382716049382706,66.07407407407406,0)" xlink:href="#am"/><use transform="matrix(0.049382716049382706,0,0,0.049382716049382706,74.96296296296295,0)" xlink:href="#aj"/></g><g id="W"><use transform="matrix(0.049382716049382706,0,0,0.049382716049382706,0,0)" xlink:href="#aI"/><use transform="matrix(0.049382716049382706,0,0,0.049382716049382706,8.888888888888888,0)" xlink:href="#aq"/><use transform="matrix(0.049382716049382706,0,0,0.049382716049382706,18.76543209876543,0)" xlink:href="#an"/><use transform="matrix(0.049382716049382706,0,0,0.049382716049382706,28.64197530864197,0)" xlink:href="#ax"/><use transform="matrix(0.049382716049382706,0,0,0.049382716049382706,38.51851851851851,0)" xlink:href="#at"/><use transform="matrix(0.049382716049382706,0,0,0.049382716049382706,44.395061728395056,0)" xlink:href="#an"/><use transform="matrix(0.049382716049382706,0,0,0.049382716049382706,54.271604938271594,0)" xlink:href="#av"/><use transform="matrix(0.049382716049382706,0,0,0.049382716049382706,64.14814814814814,0)" xlink:href="#ar"/><use transform="matrix(0.049382716049382706,0,0,0.049382716049382706,69.0864197530864,0)" xlink:href="#be"/><use transform="matrix(0.049382716049382706,0,0,0.049382716049382706,74.02469135802467,0)" xlink:href="#al"/><use transform="matrix(0.049382716049382706,0,0,0.049382716049382706,77.9259259259259,0)" xlink:href="#az"/></g><g id="X"><use transform="matrix(0.049382716049382706,0,0,0.049382716049382706,0,0)" xlink:href="#aK"/><use transform="matrix(0.049382716049382706,0,0,0.049382716049382706,12.790123456790122,0)" xlink:href="#an"/><use transform="matrix(0.049382716049382706,0,0,0.049382716049382706,22.666666666666664,0)" xlink:href="#ar"/><use transform="matrix(0.049382716049382706,0,0,0.049382716049382706,27.60493827160494,0)" xlink:href="#as"/><use transform="matrix(0.049382716049382706,0,0,0.049382716049382706,37.48148148148148,0)" xlink:href="#aL"/><use transform="matrix(0.049382716049382706,0,0,0.049382716049382706,47.358024691358025,0)" xlink:href="#al"/><use transform="matrix(0.049382716049382706,0,0,0.049382716049382706,51.25925925925926,0)" xlink:href="#au"/><use transform="matrix(0.049382716049382706,0,0,0.049382716049382706,66.02469135802468,0)" xlink:href="#al"/><use transform="matrix(0.049382716049382706,0,0,0.049382716049382706,69.92592592592591,0)" xlink:href="#ar"/><use transform="matrix(0.049382716049382706,0,0,0.049382716049382706,74.86419753086417,0)" xlink:href="#aB"/><use transform="matrix(0.049382716049382706,0,0,0.049382716049382706,86.71604938271602,0)" xlink:href="#az"/><use transform="matrix(0.049382716049382706,0,0,0.049382716049382706,96.59259259259257,0)" xlink:href="#ao"/><use transform="matrix(0.049382716049382706,0,0,0.049382716049382706,100.4938271604938,0)" xlink:href="#al"/><use transform="matrix(0.049382716049382706,0,0,0.049382716049382706,104.39506172839502,0)" xlink:href="#am"/><use transform="matrix(0.049382716049382706,0,0,0.049382716049382706,113.2839506172839,0)" xlink:href="#aj"/></g><path fill="#333" d="M67-125c0 53 21 87 73 88 37 1 54-22 65-47l45 17C233-25 199 4 140 4 58 4 20-42 15-125 8-235 124-281 211-232c18 10 29 29 36 50l-46 12c-8-25-30-41-62-41-52 0-71 34-72 86" id="bf"/><g id="Y"><use transform="matrix(0.04938271604938272,0,0,0.04938271604938272,0,0)" xlink:href="#bf"/><use transform="matrix(0.04938271604938272,0,0,0.04938271604938272,12.790123456790125,0)" xlink:href="#aN"/><use transform="matrix(0.04938271604938272,0,0,0.04938271604938272,19.703703703703706,0)" xlink:href="#aO"/><use transform="matrix(0.04938271604938272,0,0,0.04938271604938272,29.58024691358025,0)" xlink:href="#aP"/><use transform="matrix(0.04938271604938272,0,0,0.04938271604938272,39.4567901234568,0)" xlink:href="#aQ"/><use transform="matrix(0.04938271604938272,0,0,0.04938271604938272,45.33333333333334,0)" xlink:href="#aO"/><use transform="matrix(0.04938271604938272,0,0,0.04938271604938272,55.209876543209894,0)" xlink:href="#aR"/></g><path fill="#333" d="M231 0h-52l-39-155L100 0H48L-1-190h46L77-45c9-52 24-97 36-145h53l37 145 32-145h46" id="bg"/><path fill="#333" d="M114-157C55-157 80-60 75 0H25v-261h50l-1 109c12-26 28-41 61-42 86-1 58 113 63 194h-50c-7-57 23-157-34-157" id="bh"/><g id="Z"><use transform="matrix(0.04938271604938272,0,0,0.04938271604938272,0,0)" xlink:href="#bg"/><use transform="matrix(0.04938271604938272,0,0,0.04938271604938272,13.827160493827162,0)" xlink:href="#aP"/><use transform="matrix(0.04938271604938272,0,0,0.04938271604938272,23.703703703703706,0)" xlink:href="#aQ"/><use transform="matrix(0.04938271604938272,0,0,0.04938271604938272,29.58024691358025,0)" xlink:href="#aM"/><use transform="matrix(0.04938271604938272,0,0,0.04938271604938272,39.4567901234568,0)" xlink:href="#bh"/><use transform="matrix(0.04938271604938272,0,0,0.04938271604938272,50.271604938271615,0)" xlink:href="#aO"/><use transform="matrix(0.04938271604938272,0,0,0.04938271604938272,60.14814814814817,0)" xlink:href="#aR"/></g><path fill="#333" d="M88-194c31-1 46 15 58 34l-1-101h50l1 261h-48c-2-10 0-23-3-31C134-8 116 4 84 4 32 4 16-41 15-95c0-56 19-97 73-99zm17 164c33 0 40-30 41-66 1-37-9-64-41-64s-38 30-39 65c0 43 13 65 39 65" id="bi"/><g id="aa"><use transform="matrix(0.04938271604938272,0,0,0.04938271604938272,0,0)" xlink:href="#aP"/><use transform="matrix(0.04938271604938272,0,0,0.04938271604938272,9.876543209876544,0)" xlink:href="#aQ"/><use transform="matrix(0.04938271604938272,0,0,0.04938271604938272,15.753086419753087,0)" xlink:href="#aQ"/><use transform="matrix(0.04938271604938272,0,0,0.04938271604938272,21.629629629629633,0)" xlink:href="#aP"/><use transform="matrix(0.04938271604938272,0,0,0.04938271604938272,31.506172839506174,0)" xlink:href="#aM"/><use transform="matrix(0.04938271604938272,0,0,0.04938271604938272,41.38271604938272,0)" xlink:href="#bh"/><use transform="matrix(0.04938271604938272,0,0,0.04938271604938272,52.19753086419754,0)" xlink:href="#aO"/><use transform="matrix(0.04938271604938272,0,0,0.04938271604938272,62.074074074074076,0)" xlink:href="#bi"/></g><g id="ab"><use transform="matrix(0.049382716049382706,0,0,0.049382716049382706,0,0)" xlink:href="#bc"/><use transform="matrix(0.049382716049382706,0,0,0.049382716049382706,11.85185185185185,0)" xlink:href="#aq"/><use transform="matrix(0.049382716049382706,0,0,0.049382716049382706,21.728395061728392,0)" xlink:href="#ax"/><use transform="matrix(0.049382716049382706,0,0,0.049382716049382706,31.604938271604933,0)" xlink:href="#an"/><use transform="matrix(0.049382716049382706,0,0,0.049382716049382706,41.481481481481474,0)" xlink:href="#at"/><use transform="matrix(0.049382716049382706,0,0,0.049382716049382706,47.35802469135802,0)" xlink:href="#an"/><use transform="matrix(0.049382716049382706,0,0,0.049382716049382706,57.234567901234556,0)" xlink:href="#av"/><use transform="matrix(0.049382716049382706,0,0,0.049382716049382706,67.1111111111111,0)" xlink:href="#ar"/></g><g id="ac"><use transform="matrix(0.06172839506172839,0,0,0.06172839506172839,0,0)" xlink:href="#bc"/><use transform="matrix(0.06172839506172839,0,0,0.06172839506172839,14.814814814814813,0)" xlink:href="#aq"/><use transform="matrix(0.06172839506172839,0,0,0.06172839506172839,27.160493827160494,0)" xlink:href="#an"/><use transform="matrix(0.06172839506172839,0,0,0.06172839506172839,39.50617283950617,0)" xlink:href="#ax"/><use transform="matrix(0.06172839506172839,0,0,0.06172839506172839,51.85185185185185,0)" xlink:href="#at"/><use transform="matrix(0.06172839506172839,0,0,0.06172839506172839,59.197530864197525,0)" xlink:href="#an"/><use transform="matrix(0.06172839506172839,0,0,0.06172839506172839,71.5432098765432,0)" xlink:href="#av"/><use transform="matrix(0.06172839506172839,0,0,0.06172839506172839,83.88888888888889,0)" xlink:href="#ar"/></g><path fill="#333" d="M4 7l51-268h42L46 7H4" id="bj"/><g id="ad"><use transform="matrix(0.04938271604938272,0,0,0.04938271604938272,0,0)" xlink:href="#aP"/><use transform="matrix(0.04938271604938272,0,0,0.04938271604938272,9.876543209876544,0)" xlink:href="#aQ"/><use transform="matrix(0.04938271604938272,0,0,0.04938271604938272,15.753086419753087,0)" xlink:href="#aQ"/><use transform="matrix(0.04938271604938272,0,0,0.04938271604938272,21.629629629629633,0)" xlink:href="#aP"/><use transform="matrix(0.04938271604938272,0,0,0.04938271604938272,31.506172839506174,0)" xlink:href="#aM"/><use transform="matrix(0.04938271604938272,0,0,0.04938271604938272,41.38271604938272,0)" xlink:href="#bh"/><use transform="matrix(0.04938271604938272,0,0,0.04938271604938272,52.19753086419754,0)" xlink:href="#aO"/><use transform="matrix(0.04938271604938272,0,0,0.04938271604938272,62.074074074074076,0)" xlink:href="#bi"/><use transform="matrix(0.04938271604938272,0,0,0.04938271604938272,72.8888888888889,0)" xlink:href="#bj"/><use transform="matrix(0.04938271604938272,0,0,0.04938271604938272,77.82716049382717,0)" xlink:href="#aQ"/><use transform="matrix(0.04938271604938272,0,0,0.04938271604938272,83.70370370370371,0)" xlink:href="#aP"/><use transform="matrix(0.04938271604938272,0,0,0.04938271604938272,93.58024691358025,0)" xlink:href="#aN"/><use transform="matrix(0.04938271604938272,0,0,0.04938271604938272,100.49382716049384,0)" xlink:href="#aW"/><use transform="matrix(0.04938271604938272,0,0,0.04938271604938272,111.30864197530865,0)" xlink:href="#aO"/><use transform="matrix(0.04938271604938272,0,0,0.04938271604938272,121.18518518518519,0)" xlink:href="#aQ"/></g><path fill="#333" d="M115-194c53 0 69 39 70 98 0 66-23 100-70 100C84 3 66-7 56-30L54 0H23l1-261h32v101c10-23 28-34 59-34zm-8 174c40 0 45-34 45-75 0-40-5-75-45-74-42 0-51 32-51 76 0 43 10 73 51 73" id="bk"/><path fill="#333" d="M0 4l72-265h28L28 4H0" id="bl"/><g id="ae"><use transform="matrix(0.04320987654320987,0,0,0.04320987654320987,0,0)" xlink:href="#bc"/><use transform="matrix(0.04320987654320987,0,0,0.04320987654320987,10.370370370370368,0)" xlink:href="#aq"/><use transform="matrix(0.04320987654320987,0,0,0.04320987654320987,19.01234567901234,0)" xlink:href="#bk"/><use transform="matrix(0.04320987654320987,0,0,0.04320987654320987,27.654320987654316,0)" xlink:href="#as"/><use transform="matrix(0.04320987654320987,0,0,0.04320987654320987,36.29629629629629,0)" xlink:href="#bl"/><use transform="matrix(0.04320987654320987,0,0,0.04320987654320987,40.61728395061728,0)" xlink:href="#af"/><use transform="matrix(0.04320987654320987,0,0,0.04320987654320987,52.71604938271604,0)" xlink:href="#ah"/><use transform="matrix(0.04320987654320987,0,0,0.04320987654320987,61.35802469135801,0)" xlink:href="#as"/><use transform="matrix(0.04320987654320987,0,0,0.04320987654320987,69.99999999999999,0)" xlink:href="#av"/><use transform="matrix(0.04320987654320987,0,0,0.04320987654320987,78.64197530864196,0)" xlink:href="#ag"/><use transform="matrix(0.04320987654320987,0,0,0.04320987654320987,89.01234567901233,0)" xlink:href="#ai"/><use transform="matrix(0.04320987654320987,0,0,0.04320987654320987,97.6543209876543,0)" xlink:href="#al"/><use transform="matrix(0.04320987654320987,0,0,0.04320987654320987,101.06790123456788,0)" xlink:href="#aJ"/><use transform="matrix(0.04320987654320987,0,0,0.04320987654320987,105.38888888888887,0)" xlink:href="#ar"/></g></defs></g></svg>