<?xml version="1.0" encoding="utf-8"?>
<!-- Generator: Adobe Illustrator 22.1.0, SVG Export Plug-In . SVG Version: 6.00 Build 0)  -->
<svg version="1.1" id="Layer_1" xmlns="http://www.w3.org/2000/svg" xmlns:xlink="http://www.w3.org/1999/xlink" x="47px" y="0px"
	 viewBox="47 0 400 125" style="enable-background:new 0 0 400 125;" height="180px" xml:space="preserve">
<style type="text/css">
	.st0{fill:#F22B29;}
	.st1{fill:#FFFFFF;}
</style>
<g>
	<path class="st0" d="M86.4,35.3c10.8,0,20.1,3.8,27.7,11.3c7.7,7.5,11.5,16.7,11.5,27.5c0,10.8-3.9,20.2-11.6,28.1
		c-7.7,7.9-17,11.8-27.7,11.8c-10.5,0-19.6-3.9-27.3-11.8c-7.7-7.8-11.5-17.1-11.5-27.8c0-10.8,3.8-20,11.3-27.7
		C66.4,39.1,75.6,35.3,86.4,35.3z M61.4,74.7c0,7,2.5,13.1,7.5,18.3c5,5.2,10.9,7.9,17.6,7.9c6.9,0,12.8-2.6,17.8-7.7
		c5-5.1,7.5-11.4,7.5-18.6c0-7.2-2.5-13.4-7.5-18.7c-5-5.3-10.9-8-17.8-8c-6.5,0-12.4,2.6-17.5,8C64,61.2,61.4,67.4,61.4,74.7z"/>
</g>
<polygon class="st1" points="149.3,63.6 149.3,63.6 149.2,0.4 135.8,0.4 135.8,112.8 149.3,112.8 149.3,81.5 149.3,81.5 "/>
<path class="st1" d="M199.7,107.8c0-5.9-1.5-11.6-4.4-17c-2.9-5.4-5.6-9.2-8.1-11.3c-2.5-2.1-4.4-3.5-5.8-4.1l-4.4-2.5
	c12.5-6.4,19.6-16,21.5-28.7l1.2-6.7h-14.1l-0.9,5.1c-1.3,6.9-5,12.7-11.2,17.4c-4.9,3.7-10.2,6-15.9,6.8v12.7
	c6.8,0.8,12.5,3.1,17.2,6.9c6,4.8,9.5,11.6,10.4,20.3l0.6,6.1h14.2L199.7,107.8z"/>
<path class="st1" d="M272.3,0.4v51.3v20.8c0,8-2.5,14.8-7.6,20.3c-5.1,5.5-11.2,8.3-18.5,8.3c-7,0-13.1-2.5-18-7.6
	c-5-5.1-7.5-11-7.5-17.8c0-7.5,2.8-13.7,8.3-18.7c5.5-5,12.2-7.5,20.1-7.5c0.6,0,1.4,0,2.4,0.1c1,0.1,2.4,0.3,4.3,0.7
	c2.4,0.7,5.1,1.7,8.1,3v-14c-3.6-1.3-6.6-2.2-8.9-2.5c-2-0.4-4.4-0.6-7.3-0.6c-11.8,0-21.5,3.6-29,10.8
	c-7.5,7.2-11.3,16.6-11.3,28.1s3.7,20.9,11.1,28.1c7.4,7.2,16.9,10.8,28.7,10.8c10.2,0,18.6-2.8,25.1-8.3v8.3h13.6V72.7v-21V0.4
	H272.3z"/>
</svg>
