<svg id="bebc6f9a-171e-4440-b8d7-7a8c32f51cf2" data-name="artwork" xmlns="http://www.w3.org/2000/svg" width="760" height="510.5"><defs><style>.bae4dc33-bc27-4843-9bea-22c4d3655f2d{fill:#e8e8e8}.a6171f4d-9a60-4735-9690-e5bb3b428ff3,.a843fb5d-c153-4551-b262-ea3aeda43549,.ac0cb6f2-c120-49a6-bf8e-259fc8b0faa3{fill:none}.a843fb5d-c153-4551-b262-ea3aeda43549{stroke:#151515}.a6171f4d-9a60-4735-9690-e5bb3b428ff3,.a843fb5d-c153-4551-b262-ea3aeda43549{stroke-linecap:round;stroke-linejoin:round}.ac8b1134-dedc-4a29-abb9-efb49b57982c,.b1b67147-ef0c-4cd8-9eaa-3dda23a1e505,.b4dce855-82f9-4fe5-b14f-0def771a94fd,.bc6c81ec-5339-43e6-b329-7062db33c8c3{fill:#151515}.b5346195-2e77-4e55-b6de-7531f105e40e{fill:#fff}.b4dce855-82f9-4fe5-b14f-0def771a94fd{font-family:RedHatText,"Red Hat Text",Overpass,"Helvetica Neue",Arial,sans-serif;font-weight:700;font-size:14px}.ac0cb6f2-c120-49a6-bf8e-259fc8b0faa3{stroke:#d5d5d5;stroke-miterlimit:10;stroke-width:1.5px}.ac8b1134-dedc-4a29-abb9-efb49b57982c,.b1b67147-ef0c-4cd8-9eaa-3dda23a1e505{font-size:11px}.ac8b1134-dedc-4a29-abb9-efb49b57982c{font-family:RedHatText,"Red Hat Text",Overpass,"Helvetica Neue",Arial,sans-serif;font-weight:500}.a6171f4d-9a60-4735-9690-e5bb3b428ff3{stroke:#06c}.a2ff8267-7523-4f5b-865d-39907c10b92a{fill:#06c}.b1b67147-ef0c-4cd8-9eaa-3dda23a1e505{font-family:RedHatText,"Red Hat Text",Overpass,"Helvetica Neue",Arial,sans-serif;font-style:italic}</style></defs><path class="bae4dc33-bc27-4843-9bea-22c4d3655f2d" d="M250 250.5h510v220H250zM250 35.5h510v195H250z"/><path class="a843fb5d-c153-4551-b262-ea3aeda43549" d="M474.676 193H505v167.5h40"/><path class="bc6c81ec-5339-43e6-b329-7062db33c8c3" d="M476.135 197.986L467.5 193l8.635-4.986v9.972z"/><text transform="translate(669.021 493.517)" font-size="10" fill="#f3f3f3" font-family="RedHatText,&quot;Red Hat Text&quot;,Overpass,&quot;Helvetica Neue&quot;,Arial,sans-serif">142_OpenShift_0221</text><path fill="none" d="M0 470.5h760v40H0z"/><path class="b5346195-2e77-4e55-b6de-7531f105e40e" d="M545 270.5h195v180H545z"/><text transform="translate(560 294.85)" font-family="RedHatText,&quot;Red Hat Text&quot;,Overpass,&quot;Helvetica Neue&quot;,Arial,sans-serif" font-weight="700" font-size="12" fill="#151515">Pod</text><text class="b4dce855-82f9-4fe5-b14f-0def771a94fd" transform="translate(270 282.032)">OpenShift</text><text class="b4dce855-82f9-4fe5-b14f-0def771a94fd" transform="translate(270 67.032)">AWS</text><path class="ac0cb6f2-c120-49a6-bf8e-259fc8b0faa3" d="M730 150.5H535v50"/><path class="ac0cb6f2-c120-49a6-bf8e-259fc8b0faa3" d="M735 155.5H540v50"/><path class="b5346195-2e77-4e55-b6de-7531f105e40e" transform="rotate(-180 642.5 185.5)" d="M545 160.5h195v50H545z"/><text class="ac8b1134-dedc-4a29-abb9-efb49b57982c" transform="translate(607.814 188.546)">AWS services</text><path class="b5346195-2e77-4e55-b6de-7531f105e40e" transform="rotate(-180 642.5 110.5)" d="M545 85.5h195v50H545z"/><text class="ac8b1134-dedc-4a29-abb9-efb49b57982c" transform="translate(616.593 107.546)">S3 bucket<tspan x="-36.415" y="12">with OIDC configuration</tspan></text><path class="b5346195-2e77-4e55-b6de-7531f105e40e" transform="rotate(-180 367.5 185.5)" d="M270 160.5h195v50H270z"/><text class="ac8b1134-dedc-4a29-abb9-efb49b57982c" transform="translate(324.312 188.546)">IAM Role for pod</text><path class="a843fb5d-c153-4551-b262-ea3aeda43549" d="M465 110.5h70.324"/><path class="bc6c81ec-5339-43e6-b329-7062db33c8c3" d="M533.865 115.486l8.635-4.986-8.635-4.986v9.972z"/><path class="a843fb5d-c153-4551-b262-ea3aeda43549" d="M474.676 178h60.648"/><path class="bc6c81ec-5339-43e6-b329-7062db33c8c3" d="M476.135 182.986L467.5 178l8.635-4.986v9.972zM533.865 182.986L542.5 178l-8.635-4.986v9.972z"/><path class="b5346195-2e77-4e55-b6de-7531f105e40e" transform="rotate(-180 367.5 110.5)" d="M270 85.5h195v50H270z"/><path class="bae4dc33-bc27-4843-9bea-22c4d3655f2d" d="M478.488 85.5h43.025v50h-43.025z"/><text class="ac8b1134-dedc-4a29-abb9-efb49b57982c" transform="translate(312.444 113.547)">IAM Identity Provider</text><path class="bae4dc33-bc27-4843-9bea-22c4d3655f2d" d="M560 385.5h165v50H560z"/><text class="ac8b1134-dedc-4a29-abb9-efb49b57982c" transform="translate(617.131 407.442)">Projected<tspan x="-31.514" y="12">ServiceAccount token</tspan></text><path class="a843fb5d-c153-4551-b262-ea3aeda43549" d="M642.5 360.497v15.327"/><path class="bc6c81ec-5339-43e6-b329-7062db33c8c3" d="M637.514 374.365L642.5 383l4.986-8.635h-9.972z"/><path class="a843fb5d-c153-4551-b262-ea3aeda43549" d="M465 410.5h85.324"/><path class="bc6c81ec-5339-43e6-b329-7062db33c8c3" d="M548.865 415.486l8.635-4.986-8.635-4.986v9.972z"/><path class="a843fb5d-c153-4551-b262-ea3aeda43549" d="M260.324 410.5H92.5v-145"/><path class="bc6c81ec-5339-43e6-b329-7062db33c8c3" d="M258.865 405.514l8.635 4.986-8.635 4.986v-9.972z"/><path class="a843fb5d-c153-4551-b262-ea3aeda43549" d="M92.5 215.5v-195h550.014v55.324"/><path class="bc6c81ec-5339-43e6-b329-7062db33c8c3" d="M637.528 74.365L642.514 83l4.986-8.635h-9.972z"/><path class="bae4dc33-bc27-4843-9bea-22c4d3655f2d" d="M560 310.5h165v50H560z"/><text class="ac8b1134-dedc-4a29-abb9-efb49b57982c" transform="translate(603.008 338.547)">AWS config file</text><path class="b5346195-2e77-4e55-b6de-7531f105e40e" transform="rotate(-180 367.5 410.5)" d="M270 385.5h195v50H270z"/><text class="ac8b1134-dedc-4a29-abb9-efb49b57982c" transform="translate(331.624 413.546)">Token signing</text><g><path class="a6171f4d-9a60-4735-9690-e5bb3b428ff3" d="M635 260.824v-1.5"/><path stroke-dasharray="2.896 2.896" stroke="#06c" stroke-linecap="round" stroke-linejoin="round" fill="none" d="M635 256.428v-33.304"/><path class="a6171f4d-9a60-4735-9690-e5bb3b428ff3" d="M635 221.676v-1.5"/><path class="a2ff8267-7523-4f5b-865d-39907c10b92a" d="M639.986 259.365L635 268l-4.986-8.635h9.972zM639.986 221.635L635 213l-4.986 8.635h9.972z"/></g><g><path class="a6171f4d-9a60-4735-9690-e5bb3b428ff3" d="M650 300.824v-1.5"/><path stroke-dasharray="3.106 3.106" stroke="#06c" stroke-linecap="round" stroke-linejoin="round" fill="none" d="M650 296.218v-72.989"/><path class="a6171f4d-9a60-4735-9690-e5bb3b428ff3" d="M650 221.676v-1.5"/><path class="a2ff8267-7523-4f5b-865d-39907c10b92a" d="M654.986 299.365L650 308l-4.986-8.635h9.972zM654.986 221.635L650 213l-4.986 8.635h9.972z"/></g><text class="b1b67147-ef0c-4cd8-9eaa-3dda23a1e505" transform="translate(487.202 101.624)">Trust<tspan x="-3.548" y="12">tokens</tspan><tspan x="-3.201" y="24">signed</tspan></text><path class="b5346195-2e77-4e55-b6de-7531f105e40e" transform="rotate(-180 92.5 148)" d="M0 138.452h185v19.096H0z"/><text class="b1b67147-ef0c-4cd8-9eaa-3dda23a1e505" transform="translate(67.904 151.54)">Public key</text><path class="b5346195-2e77-4e55-b6de-7531f105e40e" transform="rotate(-180 92.5 333)" d="M0 323.452h185v19.096H0z"/><text class="b1b67147-ef0c-4cd8-9eaa-3dda23a1e505" transform="translate(65.495 336.54)">Private key</text><path class="a2ff8267-7523-4f5b-865d-39907c10b92a" d="M0 215.5h185v50H0z"/><text transform="translate(47.528 237.324)" font-family="RedHatText,&quot;Red Hat Text&quot;,Overpass,&quot;Helvetica Neue&quot;,Arial,sans-serif" font-weight="500" font-size="12" fill="#fff">ServiceAccount<tspan x="10.152" y="13">signing keys</tspan></text></svg>