<svg id="ae091364-f14c-4fcc-8f1b-836063d19f8d" data-name="artwork" xmlns="http://www.w3.org/2000/svg" width="760" height="563.861" viewBox="0 0 760 563.861">
  <defs>
    <style>
      .e8e2243f-2a4b-4728-b913-2a1fbc88ec8d {
        fill: #c4c4c4;
      }

      .a2b93f66-d213-44f2-bd2e-808878facf70, .a511d358-3daf-473a-96bf-93836f77c0ea, .aafb6c24-a6cc-4401-9d5c-2e5afb4ba106, .ac555702-b581-4ee3-a6ce-1f827a6bcd62, .ad6fb413-8836-493d-83f7-6997a4aeafbd, .b621c3dc-7b0c-4ca1-9f63-3e08d3799dd5, .b9986558-3e31-40dd-a8e9-4ad3f57a30bb, .babc9f39-fb74-4627-b83c-2e04c1d1ab83, .bf7fa8bf-bbe6-4b37-97d4-251992a6f5a8, .e289cfa3-2f4b-48e8-96fb-249d5d2ef85a, .e2f89a6c-240f-4851-990f-ebbb68d8ecc5, .f0de41e1-937b-4669-9d37-8efcbd40aa31 {
        fill: none;
      }

      .babc9f39-fb74-4627-b83c-2e04c1d1ab83 {
        stroke: #151515;
      }

      .a2b93f66-d213-44f2-bd2e-808878facf70, .a511d358-3daf-473a-96bf-93836f77c0ea, .aafb6c24-a6cc-4401-9d5c-2e5afb4ba106, .ac555702-b581-4ee3-a6ce-1f827a6bcd62, .b621c3dc-7b0c-4ca1-9f63-3e08d3799dd5, .b9986558-3e31-40dd-a8e9-4ad3f57a30bb, .babc9f39-fb74-4627-b83c-2e04c1d1ab83, .bd29de18-ece5-4ccf-9c7e-3a2cb8160a1f, .bf7fa8bf-bbe6-4b37-97d4-251992a6f5a8, .e289cfa3-2f4b-48e8-96fb-249d5d2ef85a, .e2f89a6c-240f-4851-990f-ebbb68d8ecc5, .f0de41e1-937b-4669-9d37-8efcbd40aa31 {
        stroke-linecap: round;
        stroke-linejoin: round;
      }

      .b9f0dcca-b944-4778-9705-240cdf8ce8c8, .ba0b113d-9a3d-4894-933c-5db1c3362bf0, .bd1bef4d-d16c-48cd-8375-7da737f4b6d1, .e6145cb1-714a-41be-880f-0bf15e93fbfd {
        fill: #151515;
      }

      .aafb6c24-a6cc-4401-9d5c-2e5afb4ba106, .ac555702-b581-4ee3-a6ce-1f827a6bcd62, .f0de41e1-937b-4669-9d37-8efcbd40aa31 {
        stroke: #c4c4c4;
      }

      .ac555702-b581-4ee3-a6ce-1f827a6bcd62 {
        stroke-dasharray: 2.981 2.981;
      }

      .aafb6c24-a6cc-4401-9d5c-2e5afb4ba106 {
        stroke-dasharray: 3 3;
      }

      .a5f75e6c-e389-45a0-9359-9413bec2a540 {
        fill: #e8e8e8;
      }

      .ba0b113d-9a3d-4894-933c-5db1c3362bf0, .e6145cb1-714a-41be-880f-0bf15e93fbfd {
        font-size: 11px;
      }

      .b9f0dcca-b944-4778-9705-240cdf8ce8c8, .e6145cb1-714a-41be-880f-0bf15e93fbfd {
        font-family: RedHatText-Bold, Red Hat Text;
        font-weight: 700;
      }

      .bd29de18-ece5-4ccf-9c7e-3a2cb8160a1f, .be405a6d-9841-4055-a825-444e7b3a5248 {
        fill: #fff;
      }

      .ba0b113d-9a3d-4894-933c-5db1c3362bf0 {
        font-family: RedHatText-Medium, Red Hat Text;
        font-weight: 500;
      }

      .b621c3dc-7b0c-4ca1-9f63-3e08d3799dd5, .bf7fa8bf-bbe6-4b37-97d4-251992a6f5a8 {
        stroke: #06c;
      }

      .a2b93f66-d213-44f2-bd2e-808878facf70, .b621c3dc-7b0c-4ca1-9f63-3e08d3799dd5 {
        stroke-width: 2.07px;
      }

      .a2b93f66-d213-44f2-bd2e-808878facf70, .a511d358-3daf-473a-96bf-93836f77c0ea {
        stroke: #4cb6d6;
      }

      .b9986558-3e31-40dd-a8e9-4ad3f57a30bb, .bd29de18-ece5-4ccf-9c7e-3a2cb8160a1f, .e2f89a6c-240f-4851-990f-ebbb68d8ecc5 {
        stroke: #5b5b5b;
      }

      .b9986558-3e31-40dd-a8e9-4ad3f57a30bb, .bd29de18-ece5-4ccf-9c7e-3a2cb8160a1f {
        stroke-width: 1.5px;
      }

      .a511d358-3daf-473a-96bf-93836f77c0ea, .bf7fa8bf-bbe6-4b37-97d4-251992a6f5a8, .e2f89a6c-240f-4851-990f-ebbb68d8ecc5 {
        stroke-width: 2px;
      }

      .b824b881-79f5-40e1-8f1e-ac5bcce6e76a {
        fill: #4cb6d6;
      }

      .b7815278-c321-40ea-ab9c-c49bb06f4acf {
        fill: #06c;
      }

      .e289cfa3-2f4b-48e8-96fb-249d5d2ef85a {
        stroke: #fff;
        stroke-width: 8px;
      }

      .b9f0dcca-b944-4778-9705-240cdf8ce8c8 {
        font-size: 12px;
      }

      .e683416a-9edc-47f8-9430-611193578497 {
        font-size: 10px;
        fill: #ececec;
        font-family: RedHatText-Regular, Red Hat Text;
      }
    </style>
  </defs>
  <path class="e8e2243f-2a4b-4728-b913-2a1fbc88ec8d" d="M759,120.086V522.861H227.5V120.086H759m1-1H226.5V523.861H760V119.086Z"/>
  <g>
    <polyline class="babc9f39-fb74-4627-b83c-2e04c1d1ab83" points="485.25 316.189 485.25 264.831 445.426 264.831"/>
    <polygon class="bd1bef4d-d16c-48cd-8375-7da737f4b6d1" points="446.885 259.845 438.25 264.831 446.885 269.817 446.885 259.845"/>
  </g>
  <g>
    <polyline class="babc9f39-fb74-4627-b83c-2e04c1d1ab83" points="664 316.189 664 264.831 500.25 264.831 500.25 306.512"/>
    <polygon class="bd1bef4d-d16c-48cd-8375-7da737f4b6d1" points="495.263 305.053 500.25 313.689 505.236 305.053 495.263 305.053"/>
  </g>
  <g>
    <polyline class="babc9f39-fb74-4627-b83c-2e04c1d1ab83" points="321.5 306.512 321.5 264.831 385.125 264.831"/>
    <polygon class="bd1bef4d-d16c-48cd-8375-7da737f4b6d1" points="326.486 305.053 321.5 313.689 316.513 305.053 326.486 305.053"/>
  </g>
  <g>
    <polyline class="f0de41e1-937b-4669-9d37-8efcbd40aa31" points="402.5 494.689 402.5 496.189 401 496.189"/>
    <line class="ac555702-b581-4ee3-a6ce-1f827a6bcd62" x1="398.019" y1="496.189" x2="244.491" y2="496.189"/>
    <polyline class="f0de41e1-937b-4669-9d37-8efcbd40aa31" points="243 496.189 241.5 496.189 241.5 494.689"/>
    <line class="aafb6c24-a6cc-4401-9d5c-2e5afb4ba106" x1="241.5" y1="491.689" x2="241.5" y2="319.189"/>
    <polyline class="f0de41e1-937b-4669-9d37-8efcbd40aa31" points="241.5 317.689 241.5 316.189 243 316.189"/>
    <line class="ac555702-b581-4ee3-a6ce-1f827a6bcd62" x1="245.981" y1="316.189" x2="399.509" y2="316.189"/>
    <polyline class="f0de41e1-937b-4669-9d37-8efcbd40aa31" points="401 316.189 402.5 316.189 402.5 317.689"/>
    <line class="aafb6c24-a6cc-4401-9d5c-2e5afb4ba106" x1="402.5" y1="320.689" x2="402.5" y2="493.189"/>
  </g>
  <rect class="a5f75e6c-e389-45a0-9359-9413bec2a540" x="251.5" y="326.189" width="141" height="155"/>
  <text class="e6145cb1-714a-41be-880f-0bf15e93fbfd" transform="translate(261.5 346.293)">Control plane nodes <tspan x="0" y="12">(x3)</tspan></text>
  <rect class="be405a6d-9841-4055-a825-444e7b3a5248" x="261.5" y="371.189" width="120" height="30"/>
  <text class="ba0b113d-9a3d-4894-933c-5db1c3362bf0" transform="translate(297.487 389.236)">apiserver</text>
  <rect class="be405a6d-9841-4055-a825-444e7b3a5248" x="261.5" y="406.189" width="120" height="30"/>
  <text class="ba0b113d-9a3d-4894-933c-5db1c3362bf0" transform="translate(309.839 424.236)">etcd</text>
  <rect class="be405a6d-9841-4055-a825-444e7b3a5248" x="261.5" y="441.189" width="120" height="30"/>
  <text class="ba0b113d-9a3d-4894-933c-5db1c3362bf0" transform="translate(296.321 459.236)">controller</text>
  <g>
    <polyline class="f0de41e1-937b-4669-9d37-8efcbd40aa31" points="573.75 494.689 573.75 496.189 572.25 496.189"/>
    <line class="ac555702-b581-4ee3-a6ce-1f827a6bcd62" x1="569.269" y1="496.189" x2="415.741" y2="496.189"/>
    <polyline class="f0de41e1-937b-4669-9d37-8efcbd40aa31" points="414.25 496.189 412.75 496.189 412.75 494.689"/>
    <line class="aafb6c24-a6cc-4401-9d5c-2e5afb4ba106" x1="412.75" y1="491.689" x2="412.75" y2="319.189"/>
    <polyline class="f0de41e1-937b-4669-9d37-8efcbd40aa31" points="412.75 317.689 412.75 316.189 414.25 316.189"/>
    <line class="ac555702-b581-4ee3-a6ce-1f827a6bcd62" x1="417.231" y1="316.189" x2="570.759" y2="316.189"/>
    <polyline class="f0de41e1-937b-4669-9d37-8efcbd40aa31" points="572.25 316.189 573.75 316.189 573.75 317.689"/>
    <line class="aafb6c24-a6cc-4401-9d5c-2e5afb4ba106" x1="573.75" y1="320.689" x2="573.75" y2="493.189"/>
  </g>
  <rect class="a5f75e6c-e389-45a0-9359-9413bec2a540" x="422.75" y="326.189" width="141" height="155"/>
  <text class="e6145cb1-714a-41be-880f-0bf15e93fbfd" transform="translate(432.75 346.293)">Worker nodes <tspan x="0" y="12">(xN)</tspan></text>
  <rect class="be405a6d-9841-4055-a825-444e7b3a5248" x="432.75" y="371.189" width="120" height="30"/>
  <text class="ba0b113d-9a3d-4894-933c-5db1c3362bf0" transform="translate(455.762 389.236)">Compute (xN)</text>
  <rect class="be405a6d-9841-4055-a825-444e7b3a5248" x="432.75" y="406.189" width="120" height="30"/>
  <text class="ba0b113d-9a3d-4894-933c-5db1c3362bf0" transform="translate(445.016 424.236)">Persistent storage</text>
  <line class="b621c3dc-7b0c-4ca1-9f63-3e08d3799dd5" x1="1" y1="238.206" x2="745" y2="238.206"/>
  <line class="a2b93f66-d213-44f2-bd2e-808878facf70" x1="745" y1="133.852" x2="1" y2="133.852"/>
  <text class="ba0b113d-9a3d-4894-933c-5db1c3362bf0" transform="translate(0 114.684)">Public<tspan x="0" y="12">network</tspan></text>
  <text class="ba0b113d-9a3d-4894-933c-5db1c3362bf0" transform="translate(0 251.468)">Private network</text>
  <g>
    <text class="ba0b113d-9a3d-4894-933c-5db1c3362bf0" transform="translate(387.698 288.299)">Internal<tspan x="-6.407" y="12">(API) NLB</tspan></text>
    <g>
      <rect class="bd29de18-ece5-4ccf-9c7e-3a2cb8160a1f" x="380.125" y="257.956" width="55" height="13.75"/>
      <line class="e2f89a6c-240f-4851-990f-ebbb68d8ecc5" x1="429.246" y1="263.853" x2="429.246" y2="263.853"/>
      <line class="b9986558-3e31-40dd-a8e9-4ad3f57a30bb" x1="386.018" y1="262.819" x2="386.018" y2="266.783"/>
      <line class="b9986558-3e31-40dd-a8e9-4ad3f57a30bb" x1="391.911" y1="262.819" x2="391.911" y2="266.783"/>
      <line class="b9986558-3e31-40dd-a8e9-4ad3f57a30bb" x1="397.804" y1="262.819" x2="397.804" y2="266.783"/>
      <line class="b9986558-3e31-40dd-a8e9-4ad3f57a30bb" x1="403.696" y1="262.819" x2="403.696" y2="266.783"/>
      <line class="b9986558-3e31-40dd-a8e9-4ad3f57a30bb" x1="409.589" y1="262.819" x2="409.589" y2="266.783"/>
      <line class="b9986558-3e31-40dd-a8e9-4ad3f57a30bb" x1="415.482" y1="262.819" x2="415.482" y2="266.783"/>
    </g>
  </g>
  <g>
    <line class="a511d358-3daf-473a-96bf-93836f77c0ea" x1="622.534" y1="133.861" x2="622.534" y2="158.185"/>
    <polygon class="b824b881-79f5-40e1-8f1e-ac5bcce6e76a" points="617.548 156.726 622.534 165.361 627.52 156.726 617.548 156.726"/>
  </g>
  <g>
    <line class="a511d358-3daf-473a-96bf-93836f77c0ea" x1="705.534" y1="133.861" x2="705.534" y2="158.185"/>
    <polygon class="b824b881-79f5-40e1-8f1e-ac5bcce6e76a" points="700.548 156.726 705.534 165.361 710.52 156.726 700.548 156.726"/>
  </g>
  <g>
    <text class="ba0b113d-9a3d-4894-933c-5db1c3362bf0" transform="translate(684.689 199.027)">Red Hat<tspan x="-16.665" y="12">(Console) ELB</tspan></text>
    <g>
      <rect class="bd29de18-ece5-4ccf-9c7e-3a2cb8160a1f" x="678.034" y="168.682" width="55" height="13.75"/>
      <line class="e2f89a6c-240f-4851-990f-ebbb68d8ecc5" x1="727.155" y1="174.578" x2="727.155" y2="174.578"/>
      <line class="b9986558-3e31-40dd-a8e9-4ad3f57a30bb" x1="683.927" y1="173.544" x2="683.927" y2="177.508"/>
      <line class="b9986558-3e31-40dd-a8e9-4ad3f57a30bb" x1="689.82" y1="173.544" x2="689.82" y2="177.508"/>
      <line class="b9986558-3e31-40dd-a8e9-4ad3f57a30bb" x1="695.713" y1="173.544" x2="695.713" y2="177.508"/>
      <line class="b9986558-3e31-40dd-a8e9-4ad3f57a30bb" x1="701.605" y1="173.544" x2="701.605" y2="177.508"/>
      <line class="b9986558-3e31-40dd-a8e9-4ad3f57a30bb" x1="707.498" y1="173.544" x2="707.498" y2="177.508"/>
      <line class="b9986558-3e31-40dd-a8e9-4ad3f57a30bb" x1="713.391" y1="173.544" x2="713.391" y2="177.508"/>
    </g>
  </g>
  <g>
    <text class="ba0b113d-9a3d-4894-933c-5db1c3362bf0" transform="translate(573.348 199.027)">External/internal<tspan x="21.603" y="12">App ELB</tspan></text>
    <g>
      <rect class="bd29de18-ece5-4ccf-9c7e-3a2cb8160a1f" x="594.966" y="168.682" width="55" height="13.75"/>
      <line class="e2f89a6c-240f-4851-990f-ebbb68d8ecc5" x1="644.087" y1="174.578" x2="644.087" y2="174.578"/>
      <line class="b9986558-3e31-40dd-a8e9-4ad3f57a30bb" x1="601.701" y1="176.539" x2="609.951" y2="176.539"/>
    </g>
  </g>
  <g>
    <g>
      <line class="bf7fa8bf-bbe6-4b37-97d4-251992a6f5a8" x1="610.034" y1="224.882" x2="610.034" y2="238.206"/>
      <polygon class="b7815278-c321-40ea-ab9c-c49bb06f4acf" points="605.048 226.341 610.034 217.706 615.02 226.341 605.048 226.341"/>
    </g>
    <line class="e289cfa3-2f4b-48e8-96fb-249d5d2ef85a" x1="625.034" y1="217.706" x2="625.034" y2="279.689"/>
    <g>
      <line class="a511d358-3daf-473a-96bf-93836f77c0ea" x1="625.034" y1="217.706" x2="625.034" y2="306.512"/>
      <polygon class="b824b881-79f5-40e1-8f1e-ac5bcce6e76a" points="620.048 305.053 625.034 313.689 630.02 305.053 620.048 305.053"/>
    </g>
  </g>
  <g>
    <line class="bf7fa8bf-bbe6-4b37-97d4-251992a6f5a8" x1="273.034" y1="224.882" x2="273.034" y2="238.206"/>
    <polygon class="b7815278-c321-40ea-ab9c-c49bb06f4acf" points="268.048 226.341 273.034 217.706 278.02 226.341 268.048 226.341"/>
  </g>
  <line class="e289cfa3-2f4b-48e8-96fb-249d5d2ef85a" x1="705.534" y1="217.706" x2="705.534" y2="279.689"/>
  <line class="e289cfa3-2f4b-48e8-96fb-249d5d2ef85a" x1="288.034" y1="217.706" x2="288.034" y2="279.689"/>
  <line class="e289cfa3-2f4b-48e8-96fb-249d5d2ef85a" x1="363.533" y1="231.116" x2="363.533" y2="271.29"/>
  <g>
    <line class="a511d358-3daf-473a-96bf-93836f77c0ea" x1="705.534" y1="217.706" x2="705.534" y2="306.512"/>
    <polygon class="b824b881-79f5-40e1-8f1e-ac5bcce6e76a" points="700.548 305.053 705.534 313.689 710.52 305.053 700.548 305.053"/>
  </g>
  <g>
    <line class="a511d358-3daf-473a-96bf-93836f77c0ea" x1="280.534" y1="133.861" x2="280.534" y2="158.185"/>
    <polygon class="b824b881-79f5-40e1-8f1e-ac5bcce6e76a" points="275.548 156.726 280.534 165.361 285.52 156.726 275.548 156.726"/>
  </g>
  <g>
    <line class="a511d358-3daf-473a-96bf-93836f77c0ea" x1="363.534" y1="133.861" x2="363.534" y2="158.185"/>
    <polygon class="b824b881-79f5-40e1-8f1e-ac5bcce6e76a" points="358.548 156.726 363.534 165.361 368.52 156.726 358.548 156.726"/>
  </g>
  <g>
    <text class="ba0b113d-9a3d-4894-933c-5db1c3362bf0" transform="translate(342.689 199.027)">Red Hat<tspan x="-4.829" y="12">(API) ELB</tspan></text>
    <g>
      <rect class="bd29de18-ece5-4ccf-9c7e-3a2cb8160a1f" x="336.034" y="168.682" width="55" height="13.75"/>
      <line class="e2f89a6c-240f-4851-990f-ebbb68d8ecc5" x1="385.155" y1="174.578" x2="385.155" y2="174.578"/>
      <line class="b9986558-3e31-40dd-a8e9-4ad3f57a30bb" x1="341.927" y1="173.544" x2="341.927" y2="177.508"/>
      <line class="b9986558-3e31-40dd-a8e9-4ad3f57a30bb" x1="347.82" y1="173.544" x2="347.82" y2="177.508"/>
      <line class="b9986558-3e31-40dd-a8e9-4ad3f57a30bb" x1="353.713" y1="173.544" x2="353.713" y2="177.508"/>
      <line class="b9986558-3e31-40dd-a8e9-4ad3f57a30bb" x1="359.605" y1="173.544" x2="359.605" y2="177.508"/>
      <line class="b9986558-3e31-40dd-a8e9-4ad3f57a30bb" x1="365.498" y1="173.544" x2="365.498" y2="177.508"/>
      <line class="b9986558-3e31-40dd-a8e9-4ad3f57a30bb" x1="371.391" y1="173.544" x2="371.391" y2="177.508"/>
    </g>
  </g>
  <g>
    <text class="ba0b113d-9a3d-4894-933c-5db1c3362bf0" transform="translate(236.348 199.027)">External/internal<tspan x="17.853" y="12">(API) NLB</tspan></text>
    <g>
      <rect class="bd29de18-ece5-4ccf-9c7e-3a2cb8160a1f" x="252.966" y="168.682" width="55" height="13.75"/>
      <line class="e2f89a6c-240f-4851-990f-ebbb68d8ecc5" x1="302.087" y1="174.578" x2="302.087" y2="174.578"/>
      <line class="b9986558-3e31-40dd-a8e9-4ad3f57a30bb" x1="259.701" y1="176.539" x2="267.951" y2="176.539"/>
    </g>
  </g>
  <g>
    <line class="a511d358-3daf-473a-96bf-93836f77c0ea" x1="363.534" y1="217.706" x2="363.534" y2="306.512"/>
    <polygon class="b824b881-79f5-40e1-8f1e-ac5bcce6e76a" points="358.548 305.053 363.534 313.689 368.52 305.053 358.548 305.053"/>
  </g>
  <g>
    <line class="bf7fa8bf-bbe6-4b37-97d4-251992a6f5a8" x1="184.258" y1="215.724" x2="184.258" y2="227.547"/>
    <polygon class="b7815278-c321-40ea-ab9c-c49bb06f4acf" points="179.272 226.088 184.258 234.724 189.245 226.088 179.272 226.088"/>
  </g>
  <g>
    <line class="a511d358-3daf-473a-96bf-93836f77c0ea" x1="184.258" y1="144.537" x2="184.258" y2="168.861"/>
    <polygon class="b824b881-79f5-40e1-8f1e-ac5bcce6e76a" points="179.272 145.996 184.258 137.361 189.245 145.996 179.272 145.996"/>
  </g>
  <g>
    <text class="ba0b113d-9a3d-4894-933c-5db1c3362bf0" transform="translate(162.055 199.026)">Route53<tspan x="10.433" y="12">DNS</tspan></text>
    <g>
      <rect class="bd29de18-ece5-4ccf-9c7e-3a2cb8160a1f" x="154.258" y="168.681" width="60" height="13.75"/>
      <line class="e2f89a6c-240f-4851-990f-ebbb68d8ecc5" x1="208.379" y1="174.578" x2="208.379" y2="174.578"/>
      <line class="b9986558-3e31-40dd-a8e9-4ad3f57a30bb" x1="160.151" y1="173.544" x2="160.151" y2="177.508"/>
      <line class="b9986558-3e31-40dd-a8e9-4ad3f57a30bb" x1="171.044" y1="173.544" x2="171.044" y2="177.508"/>
      <line class="b9986558-3e31-40dd-a8e9-4ad3f57a30bb" x1="176.937" y1="173.544" x2="176.937" y2="177.508"/>
      <line class="b9986558-3e31-40dd-a8e9-4ad3f57a30bb" x1="182.83" y1="173.544" x2="182.83" y2="177.508"/>
      <line class="b9986558-3e31-40dd-a8e9-4ad3f57a30bb" x1="188.723" y1="173.544" x2="188.723" y2="177.508"/>
      <line class="b9986558-3e31-40dd-a8e9-4ad3f57a30bb" x1="194.615" y1="173.544" x2="194.615" y2="177.508"/>
    </g>
  </g>
  <g>
    <polyline class="f0de41e1-937b-4669-9d37-8efcbd40aa31" points="745 494.689 745 496.189 743.5 496.189"/>
    <line class="ac555702-b581-4ee3-a6ce-1f827a6bcd62" x1="740.519" y1="496.189" x2="586.991" y2="496.189"/>
    <polyline class="f0de41e1-937b-4669-9d37-8efcbd40aa31" points="585.5 496.189 584 496.189 584 494.689"/>
    <line class="aafb6c24-a6cc-4401-9d5c-2e5afb4ba106" x1="584" y1="491.689" x2="584" y2="319.189"/>
    <polyline class="f0de41e1-937b-4669-9d37-8efcbd40aa31" points="584 317.689 584 316.189 585.5 316.189"/>
    <line class="ac555702-b581-4ee3-a6ce-1f827a6bcd62" x1="588.481" y1="316.189" x2="742.009" y2="316.189"/>
    <polyline class="f0de41e1-937b-4669-9d37-8efcbd40aa31" points="743.5 316.189 745 316.189 745 317.689"/>
    <line class="aafb6c24-a6cc-4401-9d5c-2e5afb4ba106" x1="745" y1="320.689" x2="745" y2="493.189"/>
  </g>
  <rect class="a5f75e6c-e389-45a0-9359-9413bec2a540" x="594" y="326.189" width="141" height="155"/>
  <text class="e6145cb1-714a-41be-880f-0bf15e93fbfd" transform="translate(604 346.293)">Infra nodes <tspan x="0" y="12">(x2, x3)</tspan></text>
  <rect class="be405a6d-9841-4055-a825-444e7b3a5248" x="604" y="371.189" width="120" height="30"/>
  <text class="ba0b113d-9a3d-4894-933c-5db1c3362bf0" transform="translate(643.925 389.236)">registry</text>
  <rect class="be405a6d-9841-4055-a825-444e7b3a5248" x="604" y="406.189" width="120" height="30"/>
  <text class="ba0b113d-9a3d-4894-933c-5db1c3362bf0" transform="translate(647.758 424.236)">router</text>
  <rect class="be405a6d-9841-4055-a825-444e7b3a5248" x="604" y="441.189" width="120" height="30"/>
  <text class="ba0b113d-9a3d-4894-933c-5db1c3362bf0" transform="translate(635.642 459.236)">monitoring</text>
  <g>
    <text class="b9f0dcca-b944-4778-9705-240cdf8ce8c8" transform="translate(702.797 104.086)">AWS VPC</text>
    <line class="babc9f39-fb74-4627-b83c-2e04c1d1ab83" x1="699.599" y1="99.558" x2="676.734" y2="119.086"/>
  </g>
  <rect class="be405a6d-9841-4055-a825-444e7b3a5248" x="274.429" y="488.432" width="95.143" height="14.513"/>
  <rect class="be405a6d-9841-4055-a825-444e7b3a5248" x="445.679" y="488.432" width="95.143" height="14.513"/>
  <rect class="be405a6d-9841-4055-a825-444e7b3a5248" x="616.929" y="488.432" width="95.143" height="14.513"/>
  <text class="ba0b113d-9a3d-4894-933c-5db1c3362bf0" transform="translate(280.085 498.736)">Availability zone<tspan x="23.683" y="12">(x1, x3)</tspan></text>
  <text class="ba0b113d-9a3d-4894-933c-5db1c3362bf0" transform="translate(451.336 498.736)">Availability zone<tspan x="23.683" y="12">(x1, x3)</tspan></text>
  <text class="ba0b113d-9a3d-4894-933c-5db1c3362bf0" transform="translate(622.585 498.736)">Availability zone<tspan x="23.683" y="12">(x1, x3)</tspan></text>
  <g>
    <polyline class="babc9f39-fb74-4627-b83c-2e04c1d1ab83" points="98.403 108.328 98.403 95.787 74.594 95.787 74.594 69.41"/>
    <polygon class="bd1bef4d-d16c-48cd-8375-7da737f4b6d1" points="103.39 106.869 98.403 115.504 93.417 106.869 103.39 106.869"/>
  </g>
  <line class="e289cfa3-2f4b-48e8-96fb-249d5d2ef85a" x1="64.595" y1="142.502" x2="64.595" y2="120.968"/>
  <g>
    <line class="babc9f39-fb74-4627-b83c-2e04c1d1ab83" x1="64.594" y1="227.547" x2="64.594" y2="69.41"/>
    <polygon class="bd1bef4d-d16c-48cd-8375-7da737f4b6d1" points="69.581 226.088 64.594 234.724 59.608 226.088 69.581 226.088"/>
  </g>
  <g>
    <text class="ba0b113d-9a3d-4894-933c-5db1c3362bf0" transform="translate(84.96 161.907)">Internet</text>
    <path class="bd29de18-ece5-4ccf-9c7e-3a2cb8160a1f" d="M120.963,132.06a13.4,13.4,0,0,0-25.034-6.507A10.127,10.127,0,0,0,94.2,125.4a9.968,9.968,0,1,0,0,19.935h26.76a6.636,6.636,0,1,0,0-13.271Z"/>
  </g>
  <g>
    <text class="ba0b113d-9a3d-4894-933c-5db1c3362bf0" transform="translate(128.749 64.097)">Red Hat<tspan x="-13.25" y="12">Management</tspan></text>
    <g>
      <path class="bd29de18-ece5-4ccf-9c7e-3a2cb8160a1f" d="M168.043,47.529a18.451,18.451,0,0,0-36.9,0Z"/>
      <ellipse class="bd29de18-ece5-4ccf-9c7e-3a2cb8160a1f" cx="149.594" cy="20.175" rx="9.262" ry="9.148"/>
    </g>
  </g>
  <g>
    <polyline class="babc9f39-fb74-4627-b83c-2e04c1d1ab83" points="113.403 108.328 113.403 95.787 149.594 95.787 149.594 82.54"/>
    <polygon class="bd1bef4d-d16c-48cd-8375-7da737f4b6d1" points="118.39 106.869 113.403 115.504 108.417 106.869 118.39 106.869"/>
  </g>
  <g>
    <text class="ba0b113d-9a3d-4894-933c-5db1c3362bf0" transform="translate(42.881 64.097)">Developer</text>
    <g>
      <path class="bd29de18-ece5-4ccf-9c7e-3a2cb8160a1f" d="M88.043,47.529a18.451,18.451,0,0,0-36.9,0Z"/>
      <ellipse class="bd29de18-ece5-4ccf-9c7e-3a2cb8160a1f" cx="69.594" cy="20.175" rx="9.262" ry="9.148"/>
    </g>
  </g>
  <g>
    <text class="e683416a-9edc-47f8-9430-611193578497" transform="translate(668.082 546.878)">156_OpenShift_0621</text>
    <rect class="ad6fb413-8836-493d-83f7-6997a4aeafbd" y="523.861" width="760" height="40"/>
  </g>
  <g>
    <line class="a511d358-3daf-473a-96bf-93836f77c0ea" x1="288.034" y1="217.706" x2="288.034" y2="306.512"/>
    <polygon class="b824b881-79f5-40e1-8f1e-ac5bcce6e76a" points="283.048 305.053 288.034 313.689 293.02 305.053 283.048 305.053"/>
  </g>
</svg>
