<svg id="a97bcda3-a24e-471e-a451-bf9f41485b72" data-name="artwork" xmlns="http://www.w3.org/2000/svg" width="760" height="657.032"><defs><style>.ab8c1df0-a770-4430-8b05-5ec82ddcc1ac{fill:#f3f3f3}.b2b24169-f35e-4c07-b8fa-e680065bfb97,.b519f100-4b90-41cb-a970-f65834cf0d29{font-size:11px}.a4d5a110-0368-48c5-a80a-8f2ded1e3be2,.b2b24169-f35e-4c07-b8fa-e680065bfb97,.b2b80ca6-5bb7-421a-909b-67fe3ef92948,.bf3a7f72-2d1f-4ddb-bd31-cfbe06bf9066,.bf5d606d-2f60-4ecc-ae8a-89907b901a8e{fill:#151515}.b2b24169-f35e-4c07-b8fa-e680065bfb97,.b2b80ca6-5bb7-421a-909b-67fe3ef92948,.b519f100-4b90-41cb-a970-f65834cf0d29,.ffcdf2df-4c10-41a0-8cbe-66048703ac3f{font-family:RedHatText,&quot;Red Hat Text&quot;,Overpass,&quot;Helvetica Neue&quot;,Arial,sans-serif;font-weight:700}.b75bc5be-ab00-4824-b9e2-9c101eded228{letter-spacing:.008em}.a14a49da-d2c6-46d6-8ff2-04cc0ef96a4e{letter-spacing:.012em}.f225ccc2-096e-44fb-8470-11ce6869e8e0{letter-spacing:.009em}.e1af1711-121c-4816-b78d-bf66ef21fb6c{letter-spacing:.012em}.b499e716-8509-47b2-b0f1-af2c6c3dd984{letter-spacing:.002em}.ac235998-84e0-4f57-bd8e-efa865b38ee9{letter-spacing:.007em}.a0e6568c-7cf8-4eb4-b36f-c136625df787{letter-spacing:-.005em}.aa2eec0a-b556-4ba0-87f6-da02a1738e92{letter-spacing:-.018em}.b59c567d-d37b-4e99-8a60-066a02894b77{letter-spacing:-.069em}.e5c939d4-67cf-4191-b487-a6bb7b49b7bf{letter-spacing:.008em}.a974ec16-7f20-457b-bd99-ecf2c38219d4{letter-spacing:.004em}.fadcb831-0b48-4f42-8c2f-af1c2705e73c{letter-spacing:.01em}.a8b2c9b3-e442-4b3e-8786-b2305da323fd{letter-spacing:.015em}.bd79bc76-8e57-4b1c-aefc-1115ed2fdeaf{letter-spacing:.012em}.a139e692-8875-4d7b-b0ba-5efbf9adc2d2{letter-spacing:.011em}.a6705a14-ae0d-48b6-8e16-f293cbd79372{letter-spacing:-.002em}.a918b092-6e0a-4110-a7cb-021b2a7aa497{letter-spacing:.013em}.f4364dab-c232-4d7e-87eb-0c16f4829986{letter-spacing:.001em}.b8f0244b-7c1b-4d3d-80e9-d0647af84a7c{letter-spacing:.022em}.a2b5b8ca-ede1-43d9-8b63-fe087f3a7393{letter-spacing:.007em}.baed70ff-3d1a-40c8-b7a3-cbe9cd4f6e49{letter-spacing:.01em}.ad14bf0f-6637-4276-ba0e-a965704eec94{letter-spacing:-.002em}.a503ccd7-1780-455d-81eb-92b4a104c4a0{letter-spacing:.02em}.bd1a7422-6cae-46d9-8940-5b8fe26e7f26{letter-spacing:.006em}.aef9def8-a670-4b05-922b-cc2bad9409b4{fill:#dfeac0}.a4d5a110-0368-48c5-a80a-8f2ded1e3be2,.bf3a7f72-2d1f-4ddb-bd31-cfbe06bf9066{font-size:10px}.a4d5a110-0368-48c5-a80a-8f2ded1e3be2{font-family:LiberationMono,&quot;Liberation Mono&quot;,Consolas,Monaco,&quot;Andale Mono&quot;,monospace}.b519f100-4b90-41cb-a970-f65834cf0d29,.f9e54454-e8e0-4c51-8245-7139b9e0eda0,.ffcdf2df-4c10-41a0-8cbe-66048703ac3f{fill:#fff}.ed68165e-95d1-407f-90ef-7610ad9abd23,.f1b1f42d-c0b3-4d05-a50a-ef333ea43433{letter-spacing:.005em}.ab021164-57e7-46d3-bcd2-2bc4fadc18eb{letter-spacing:.012em}.bb7764d9-d16d-4851-9d90-2c3363904ea4{letter-spacing:.027em}.afde83d8-032f-4034-acf9-bc9c303b8cf3{letter-spacing:.008em}.be64c988-f940-4dd3-8cf4-a57258633f81{letter-spacing:.016em}.e943f54f-a3ab-4e38-a5da-0596414deeed{letter-spacing:.013em}.b0b6676f-dd6e-442f-a94e-ea0a84a2cac8{letter-spacing:0}.a53bd238-f243-4051-9270-d5d7f583ee84,.fcf1f264-74a6-4505-a4f4-035d3f8ed57f{fill:none}.fcf1f264-74a6-4505-a4f4-035d3f8ed57f{stroke:#151515}.f9e54454-e8e0-4c51-8245-7139b9e0eda0,.fcf1f264-74a6-4505-a4f4-035d3f8ed57f{stroke-linecap:round;stroke-linejoin:round}.a53bd238-f243-4051-9270-d5d7f583ee84{stroke:#f3f3f3;stroke-miterlimit:10;stroke-width:1.5px}.f9e54454-e8e0-4c51-8245-7139b9e0eda0{stroke-width:1.5px}.b2b80ca6-5bb7-421a-909b-67fe3ef92948{font-size:12px}.fae9119f-6e30-4c88-8d75-afcaec60bdb2{letter-spacing:.004em}.b2eaf2ea-be85-460d-b54c-9cf0d9fd880e{letter-spacing:.009em}.bd7f80c9-8bd5-4dee-9b33-0fd5e01b8f35{letter-spacing:.005em}.bf2ee388-2ed2-41f3-91af-945793faadd2{letter-spacing:.008em}.b41e11c2-c436-4d05-91e5-bcd9626f777e{letter-spacing:-.002em}.f55957c7-7e61-4554-9eba-3cade617e3cf{letter-spacing:.003em}.becd4d04-a5e2-40aa-adf8-a7f3f2f0fe6a{letter-spacing:-.009em}.bd0fdd05-372f-400c-b107-be9299970fac{letter-spacing:-.023em}.a50119ba-e85f-46d2-9af8-1d8e36bf192c{letter-spacing:-.074em}.af6240be-9eef-407f-b34f-53a6b545c844{letter-spacing:.004em}.f8952c98-92a9-4123-91cb-193fcb928058{letter-spacing:.006em}.fa167396-99ae-43ab-b36f-3709da05111b{letter-spacing:.011em}.e1dbaa9a-9f6a-4f7e-b71e-661127ad0a21{letter-spacing:.008em}.e863a57e-cdd2-43ce-a2a1-b367d6631f64{letter-spacing:-.006em}.a8792554-9eb9-4f92-9449-8038a36a659f{letter-spacing:.01em}.b1c8cd2b-ac09-462b-959f-94d90df12910{letter-spacing:-.003em}.ebfd18d3-64bc-4415-908c-4ce2a4accc06{letter-spacing:.007em}.bacd2d82-a96c-4187-8d36-36959ce90171{letter-spacing:.005em}.fa07d49c-d069-44dc-8aca-34ab5195d77b{letter-spacing:.008em}.fb8967b5-0767-4e3d-af3a-45895c0c4098{letter-spacing:-.001em}.e4fa68b7-92d3-4e4f-8628-201a81d265fe{letter-spacing:.006em}.ffcdf2df-4c10-41a0-8cbe-66048703ac3f{font-size:9.9px}.bf3a7f72-2d1f-4ddb-bd31-cfbe06bf9066{font-family:RedHatText,&quot;Red Hat Text&quot;,Overpass,&quot;Helvetica Neue&quot;,Arial,sans-serif;font-weight:500}.af1d6855-4bd0-4892-b2a6-2e6a75fb61a2{letter-spacing:-.015em}.f6cbb075-a369-48dc-8cbd-5349d47985da{letter-spacing:0}.f302bbc0-be2f-4b1c-acf3-fbe896146f6a{letter-spacing:-.024em}.fd1ceb45-31bc-47b3-988d-d815d8f43ada{letter-spacing:-.015em}.ee435117-47e3-4aea-97c9-f2bf54cdf603{letter-spacing:0}.f9e54454-e8e0-4c51-8245-7139b9e0eda0{stroke:#5b5b5b}</style></defs><path class="ab8c1df0-a770-4430-8b05-5ec82ddcc1ac" d="M590 56.711h170v120H590z"/><text class="b2b24169-f35e-4c07-b8fa-e680065bfb97" transform="translate(605 82.535)"><tspan class="b75bc5be-ab00-4824-b9e2-9c101eded228">n</tspan><tspan class="a14a49da-d2c6-46d6-8ff2-04cc0ef96a4e" x="6.883" y="0">a</tspan><tspan class="f225ccc2-096e-44fb-8470-11ce6869e8e0" x="13.388" y="0">me</tspan><tspan class="e1af1711-121c-4816-b78d-bf66ef21fb6c" x="30.135" y="0">s</tspan><tspan class="b499e716-8509-47b2-b0f1-af2c6c3dd984" x="35.887" y="0">p</tspan><tspan class="ac235998-84e0-4f57-bd8e-efa865b38ee9" x="42.993" y="0">a</tspan><tspan class="a0e6568c-7cf8-4eb4-b36f-c136625df787" x="49.441" y="0">c</tspan><tspan class="aa2eec0a-b556-4ba0-87f6-da02a1738e92" x="55.317" y="0">e</tspan><tspan class="b59c567d-d37b-4e99-8a60-066a02894b77" x="61.629" y="0">/</tspan><tspan class="e5c939d4-67cf-4191-b487-a6bb7b49b7bf" x="66.745" y="0">o</tspan><tspan class="a974ec16-7f20-457b-bd99-ecf2c38219d4" x="73.638" y="0">p</tspan><tspan class="fadcb831-0b48-4f42-8c2f-af1c2705e73c" x="80.767" y="0">e</tspan><tspan class="a8b2c9b3-e442-4b3e-8786-b2305da323fd" x="87.386" y="0">n</tspan><tspan class="bd79bc76-8e57-4b1c-aefc-1115ed2fdeaf" x="94.345" y="0">s</tspan><tspan class="a139e692-8875-4d7b-b0ba-5efbf9adc2d2" x="100.098" y="0">h</tspan><tspan class="a6705a14-ae0d-48b6-8e16-f293cbd79372" x="107.021" y="0">i</tspan><tspan class="a918b092-6e0a-4110-a7cb-021b2a7aa497" x="110.167" y="0">f</tspan><tspan class="f4364dab-c232-4d7e-87eb-0c16f4829986" x="115.374" y="0">t</tspan><tspan x="120.426" y="0">-</tspan><tspan x="0" y="12" letter-spacing=".012em">a</tspan><tspan x="6.496" y="12" letter-spacing=".001em">u</tspan><tspan class="b8f0244b-7c1b-4d3d-80e9-d0647af84a7c" x="13.31" y="12">t</tspan><tspan class="a2b5b8ca-ede1-43d9-8b63-fe087f3a7393" x="18.593" y="12">h</tspan><tspan class="baed70ff-3d1a-40c8-b7a3-cbe9cd4f6e49" x="25.471" y="12">e</tspan><tspan class="ad14bf0f-6637-4276-ba0e-a965704eec94" x="32.089" y="12">n</tspan><tspan x="38.861" y="12" letter-spacing=".02em">t</tspan><tspan x="44.12" y="12" letter-spacing=".006em">i</tspan><tspan x="47.352" y="12" letter-spacing=".009em">c</tspan><tspan x="53.385" y="12" letter-spacing="-.003em">a</tspan><tspan class="a503ccd7-1780-455d-81eb-92b4a104c4a0" x="59.717" y="12">t</tspan><tspan class="bd1a7422-6cae-46d9-8940-5b8fe26e7f26" x="64.977" y="12">i</tspan><tspan class="e5c939d4-67cf-4191-b487-a6bb7b49b7bf" x="68.207" y="12">o</tspan><tspan x="75.1" y="12">n</tspan></text><path class="aef9def8-a670-4b05-922b-cc2bad9409b4" d="M604.75 111.711h140v50h-140z"/><text class="a4d5a110-0368-48c5-a80a-8f2ded1e3be2" transform="translate(614.74 135.856)">secrets/v4-0-config-<tspan x="3.001" y="12">system-router-certs</tspan></text><circle class="bf5d606d-2f60-4ecc-ae8a-89907b901a8e" cx="674.75" cy="111.711" r="9"/><text class="b519f100-4b90-41cb-a970-f65834cf0d29" transform="translate(669.099 115.496)">12</text><path class="ab8c1df0-a770-4430-8b05-5ec82ddcc1ac" d="M590 491.622h170v125H590z"/><text class="b2b24169-f35e-4c07-b8fa-e680065bfb97" transform="translate(605 514.947)"><tspan class="b75bc5be-ab00-4824-b9e2-9c101eded228">n</tspan><tspan class="a14a49da-d2c6-46d6-8ff2-04cc0ef96a4e" x="6.883" y="0">a</tspan><tspan class="f225ccc2-096e-44fb-8470-11ce6869e8e0" x="13.388" y="0">me</tspan><tspan class="e1af1711-121c-4816-b78d-bf66ef21fb6c" x="30.135" y="0">s</tspan><tspan class="b499e716-8509-47b2-b0f1-af2c6c3dd984" x="35.887" y="0">p</tspan><tspan class="ac235998-84e0-4f57-bd8e-efa865b38ee9" x="42.993" y="0">a</tspan><tspan class="a0e6568c-7cf8-4eb4-b36f-c136625df787" x="49.441" y="0">c</tspan><tspan class="aa2eec0a-b556-4ba0-87f6-da02a1738e92" x="55.317" y="0">e</tspan><tspan class="b59c567d-d37b-4e99-8a60-066a02894b77" x="61.629" y="0">/</tspan><tspan class="e5c939d4-67cf-4191-b487-a6bb7b49b7bf" x="66.745" y="0">o</tspan><tspan class="a974ec16-7f20-457b-bd99-ecf2c38219d4" x="73.638" y="0">p</tspan><tspan class="fadcb831-0b48-4f42-8c2f-af1c2705e73c" x="80.767" y="0">e</tspan><tspan class="a8b2c9b3-e442-4b3e-8786-b2305da323fd" x="87.386" y="0">n</tspan><tspan class="bd79bc76-8e57-4b1c-aefc-1115ed2fdeaf" x="94.345" y="0">s</tspan><tspan class="a139e692-8875-4d7b-b0ba-5efbf9adc2d2" x="100.098" y="0">h</tspan><tspan class="a6705a14-ae0d-48b6-8e16-f293cbd79372" x="107.021" y="0">i</tspan><tspan class="a918b092-6e0a-4110-a7cb-021b2a7aa497" x="110.167" y="0">f</tspan><tspan class="f4364dab-c232-4d7e-87eb-0c16f4829986" x="115.374" y="0">t</tspan><tspan x="120.426" y="0">-</tspan><tspan class="a0e6568c-7cf8-4eb4-b36f-c136625df787" x="0" y="12">c</tspan><tspan class="e5c939d4-67cf-4191-b487-a6bb7b49b7bf" x="5.876" y="12">o</tspan><tspan x="12.769" y="12" letter-spacing=".015em">n</tspan><tspan class="ed68165e-95d1-407f-90ef-7610ad9abd23" x="19.729" y="12">s</tspan><tspan class="e5c939d4-67cf-4191-b487-a6bb7b49b7bf" x="25.409" y="12">ol</tspan><tspan x="35.554" y="12">e</tspan></text><path class="aef9def8-a670-4b05-922b-cc2bad9409b4" d="M605 551.622h140v50H605z"/><text class="a4d5a110-0368-48c5-a80a-8f2ded1e3be2" transform="translate(617.991 575.768)">configmaps/default-<tspan x="21.003" y="12">ingress-cert</tspan></text><circle class="bf5d606d-2f60-4ecc-ae8a-89907b901a8e" cx="675" cy="551.622" r="9"/><text class="b519f100-4b90-41cb-a970-f65834cf0d29" transform="translate(669.349 555.408)">12</text><path class="ab8c1df0-a770-4430-8b05-5ec82ddcc1ac" d="M590 196.711h170v120H590z"/><path class="aef9def8-a670-4b05-922b-cc2bad9409b4" d="M604.75 251.622h140v50h-140z"/><text class="a4d5a110-0368-48c5-a80a-8f2ded1e3be2" transform="translate(641.745 275.768)">configmaps/<tspan x="-15.003" y="12">serviceacount-ca</tspan></text><circle class="bf5d606d-2f60-4ecc-ae8a-89907b901a8e" cx="674.75" cy="251.622" r="9"/><text class="b519f100-4b90-41cb-a970-f65834cf0d29" transform="translate(669.099 255.408)">12</text><text class="b2b24169-f35e-4c07-b8fa-e680065bfb97" transform="translate(605 222.379)"><tspan class="b75bc5be-ab00-4824-b9e2-9c101eded228">n</tspan><tspan class="a14a49da-d2c6-46d6-8ff2-04cc0ef96a4e" x="6.883" y="0">a</tspan><tspan class="f225ccc2-096e-44fb-8470-11ce6869e8e0" x="13.388" y="0">me</tspan><tspan class="e1af1711-121c-4816-b78d-bf66ef21fb6c" x="30.135" y="0">s</tspan><tspan class="b499e716-8509-47b2-b0f1-af2c6c3dd984" x="35.887" y="0">p</tspan><tspan class="ac235998-84e0-4f57-bd8e-efa865b38ee9" x="42.993" y="0">a</tspan><tspan class="a0e6568c-7cf8-4eb4-b36f-c136625df787" x="49.441" y="0">c</tspan><tspan class="aa2eec0a-b556-4ba0-87f6-da02a1738e92" x="55.317" y="0">e</tspan><tspan class="b59c567d-d37b-4e99-8a60-066a02894b77" x="61.629" y="0">/</tspan><tspan class="e5c939d4-67cf-4191-b487-a6bb7b49b7bf" x="66.745" y="0">o</tspan><tspan class="a974ec16-7f20-457b-bd99-ecf2c38219d4" x="73.638" y="0">p</tspan><tspan class="fadcb831-0b48-4f42-8c2f-af1c2705e73c" x="80.767" y="0">e</tspan><tspan class="a8b2c9b3-e442-4b3e-8786-b2305da323fd" x="87.386" y="0">n</tspan><tspan class="bd79bc76-8e57-4b1c-aefc-1115ed2fdeaf" x="94.345" y="0">s</tspan><tspan class="a139e692-8875-4d7b-b0ba-5efbf9adc2d2" x="100.098" y="0">h</tspan><tspan class="a6705a14-ae0d-48b6-8e16-f293cbd79372" x="107.021" y="0">i</tspan><tspan class="a918b092-6e0a-4110-a7cb-021b2a7aa497" x="110.167" y="0">f</tspan><tspan class="f4364dab-c232-4d7e-87eb-0c16f4829986" x="115.374" y="0">t</tspan><tspan x="120.426" y="0">-</tspan><tspan class="f1b1f42d-c0b3-4d05-a50a-ef333ea43433" x="0" y="12">k</tspan><tspan class="ab021164-57e7-46d3-bcd2-2bc4fadc18eb" x="6.693" y="12">u</tspan><tspan class="a974ec16-7f20-457b-bd99-ecf2c38219d4" x="13.62" y="12">b</tspan><tspan class="bb7764d9-d16d-4851-9d90-2c3363904ea4" x="20.749" y="12">e</tspan><tspan x="27.556" y="12" letter-spacing=".025em">-</tspan><tspan class="a0e6568c-7cf8-4eb4-b36f-c136625df787" x="33.004" y="12">c</tspan><tspan class="e5c939d4-67cf-4191-b487-a6bb7b49b7bf" x="38.88" y="12">o</tspan><tspan class="ad14bf0f-6637-4276-ba0e-a965704eec94" x="45.772" y="12">n</tspan><tspan class="b8f0244b-7c1b-4d3d-80e9-d0647af84a7c" x="52.545" y="12">t</tspan><tspan x="57.828" y="12" letter-spacing=".002em">r</tspan><tspan class="e5c939d4-67cf-4191-b487-a6bb7b49b7bf" x="62.718" y="12">o</tspan><tspan x="69.61" y="12" letter-spacing=".011em">l</tspan><tspan class="afde83d8-032f-4034-acf9-bc9c303b8cf3" x="72.896" y="12">l</tspan><tspan class="fadcb831-0b48-4f42-8c2f-af1c2705e73c" x="76.149" y="12">e</tspan><tspan x="82.769" y="12" letter-spacing=".004em">r</tspan><tspan x="87.673" y="12" letter-spacing=".018em">-</tspan><tspan x="93.037" y="12" letter-spacing=".009em">m</tspan><tspan class="a14a49da-d2c6-46d6-8ff2-04cc0ef96a4e" x="103.182" y="12">a</tspan><tspan class="b75bc5be-ab00-4824-b9e2-9c101eded228" x="109.687" y="12">n</tspan><tspan class="ac235998-84e0-4f57-bd8e-efa865b38ee9" x="116.569" y="12">a</tspan><tspan x="123.018" y="12" letter-spacing=".009em">ge</tspan><tspan x="136.796" y="12">r</tspan></text><path class="ab8c1df0-a770-4430-8b05-5ec82ddcc1ac" d="M590 341.622h170v125H590z"/><path class="aef9def8-a670-4b05-922b-cc2bad9409b4" d="M605 401.82h140v50H605z"/><text class="a4d5a110-0368-48c5-a80a-8f2ded1e3be2" transform="translate(641.995 424.742)">configmaps/<tspan x="-15.003" y="12">serviceacount-ca</tspan></text><circle class="bf5d606d-2f60-4ecc-ae8a-89907b901a8e" cx="675" cy="401.82" r="9"/><text class="b519f100-4b90-41cb-a970-f65834cf0d29" transform="translate(669.349 405.605)">12</text><text class="b2b24169-f35e-4c07-b8fa-e680065bfb97" transform="translate(605 366.791)"><tspan class="b75bc5be-ab00-4824-b9e2-9c101eded228">n</tspan><tspan class="a14a49da-d2c6-46d6-8ff2-04cc0ef96a4e" x="6.883" y="0">a</tspan><tspan class="f225ccc2-096e-44fb-8470-11ce6869e8e0" x="13.388" y="0">me</tspan><tspan class="e1af1711-121c-4816-b78d-bf66ef21fb6c" x="30.135" y="0">s</tspan><tspan class="b499e716-8509-47b2-b0f1-af2c6c3dd984" x="35.887" y="0">p</tspan><tspan class="ac235998-84e0-4f57-bd8e-efa865b38ee9" x="42.993" y="0">a</tspan><tspan class="a0e6568c-7cf8-4eb4-b36f-c136625df787" x="49.441" y="0">c</tspan><tspan class="aa2eec0a-b556-4ba0-87f6-da02a1738e92" x="55.317" y="0">e</tspan><tspan class="b59c567d-d37b-4e99-8a60-066a02894b77" x="61.629" y="0">/</tspan><tspan class="e5c939d4-67cf-4191-b487-a6bb7b49b7bf" x="66.745" y="0">o</tspan><tspan class="a974ec16-7f20-457b-bd99-ecf2c38219d4" x="73.638" y="0">p</tspan><tspan class="fadcb831-0b48-4f42-8c2f-af1c2705e73c" x="80.767" y="0">e</tspan><tspan class="a8b2c9b3-e442-4b3e-8786-b2305da323fd" x="87.386" y="0">n</tspan><tspan class="bd79bc76-8e57-4b1c-aefc-1115ed2fdeaf" x="94.345" y="0">s</tspan><tspan class="a139e692-8875-4d7b-b0ba-5efbf9adc2d2" x="100.098" y="0">h</tspan><tspan class="a6705a14-ae0d-48b6-8e16-f293cbd79372" x="107.021" y="0">i</tspan><tspan class="a918b092-6e0a-4110-a7cb-021b2a7aa497" x="110.167" y="0">f</tspan><tspan class="f4364dab-c232-4d7e-87eb-0c16f4829986" x="115.374" y="0">t</tspan><tspan x="120.426" y="0">-</tspan><tspan class="f1b1f42d-c0b3-4d05-a50a-ef333ea43433"><tspan x="0" y="12">k</tspan><tspan class="ab021164-57e7-46d3-bcd2-2bc4fadc18eb" x="6.693" y="12">u</tspan><tspan class="a974ec16-7f20-457b-bd99-ecf2c38219d4" x="13.62" y="12">b</tspan><tspan class="bb7764d9-d16d-4851-9d90-2c3363904ea4" x="20.749" y="12">e</tspan><tspan class="be64c988-f940-4dd3-8cf4-a57258633f81" x="27.556" y="12">-</tspan><tspan x="32.898" y="12" letter-spacing=".006em">s</tspan><tspan x="38.58" y="12" letter-spacing=".008em">c</tspan><tspan class="a2b5b8ca-ede1-43d9-8b63-fe087f3a7393" x="44.6" y="12">he</tspan><tspan class="e943f54f-a3ab-4e38-a5da-0596414deeed" x="58.068" y="12">d</tspan><tspan class="ab021164-57e7-46d3-bcd2-2bc4fadc18eb" x="65.287" y="12">u</tspan><tspan class="afde83d8-032f-4034-acf9-bc9c303b8cf3" x="72.214" y="12">l</tspan><tspan class="fadcb831-0b48-4f42-8c2f-af1c2705e73c" x="75.468" y="12">e</tspan><tspan class="b0b6676f-dd6e-442f-a94e-ea0a84a2cac8" x="82.087" y="12">r</tspan></tspan></text><path class="ab8c1df0-a770-4430-8b05-5ec82ddcc1ac" d="M195 491.622h170v125H195zM390 341.622h170v125H390z"/><path class="aef9def8-a670-4b05-922b-cc2bad9409b4" d="M405 402.034h140v50H405z"/><text class="a4d5a110-0368-48c5-a80a-8f2ded1e3be2" transform="translate(441.994 425.18)">configmaps/<tspan x="9.001" y="14">proxy-ca</tspan></text><circle class="bf5d606d-2f60-4ecc-ae8a-89907b901a8e" cx="475" cy="401.534" r="9"/><text class="b519f100-4b90-41cb-a970-f65834cf0d29" transform="translate(470.515 405.319)">11</text><path class="ab8c1df0-a770-4430-8b05-5ec82ddcc1ac" d="M195 341.622h170v125H195z"/><path class="aef9def8-a670-4b05-922b-cc2bad9409b4" d="M210 401.534h140v50H210z"/><text class="a4d5a110-0368-48c5-a80a-8f2ded1e3be2" transform="translate(237.993 425.68)">configmaps/my-<tspan x="9.002" y="12">certificate</tspan></text><path class="fcf1f264-74a6-4505-a4f4-035d3f8ed57f" d="M280 461.211v1.5"/><path stroke-dasharray="2.901 2.901" stroke-linecap="round" stroke-linejoin="round" stroke="#151515" fill="none" d="M280 465.611v73.973"/><path class="fcf1f264-74a6-4505-a4f4-035d3f8ed57f" d="M280 541.034v1.5"/><path class="bf5d606d-2f60-4ecc-ae8a-89907b901a8e" d="M275.014 462.669l4.986-8.635 4.986 8.635h-9.972z"/><path class="a53bd238-f243-4051-9270-d5d7f583ee84" d="M570 351.622v125H400"/><path class="a53bd238-f243-4051-9270-d5d7f583ee84" d="M565 346.622v125H395"/><path class="ab8c1df0-a770-4430-8b05-5ec82ddcc1ac" d="M390 56.711h170v260H390zM195 56.711h170v260H195zM0 56.711h170v260H0z"/><text class="b2b80ca6-5bb7-421a-909b-67fe3ef92948" transform="translate(210 80.035)"><tspan class="fae9119f-6e30-4c88-8d75-afcaec60bdb2">n</tspan><tspan class="b2eaf2ea-be85-460d-b54c-9cf0d9fd880e" x="7.462" y="0">a</tspan><tspan class="bd7f80c9-8bd5-4dee-9b33-0fd5e01b8f35" x="14.513" y="0">me</tspan><tspan class="bf2ee388-2ed2-41f3-91af-945793faadd2" x="32.688" y="0">s</tspan><tspan class="b41e11c2-c436-4d05-91e5-bcd9626f777e" x="38.918" y="0">p</tspan><tspan class="f55957c7-7e61-4554-9eba-3cade617e3cf" x="46.622" y="0">a</tspan><tspan class="becd4d04-a5e2-40aa-adf8-a7f3f2f0fe6a" x="53.609" y="0">c</tspan><tspan class="bd0fdd05-372f-400c-b107-be9299970fac" x="59.971" y="0">e</tspan><tspan class="a50119ba-e85f-46d2-9af8-1d8e36bf192c" x="66.801" y="0">/</tspan><tspan class="af6240be-9eef-407f-b34f-53a6b545c844" x="72.318" y="0">o</tspan><tspan x="79.791" y="0">p</tspan><tspan class="f8952c98-92a9-4123-91cb-193fcb928058" x="87.519" y="0">e</tspan><tspan class="fa167396-99ae-43ab-b36f-3709da05111b" x="94.693" y="0">n</tspan><tspan class="bf2ee388-2ed2-41f3-91af-945793faadd2" x="102.24" y="0">s</tspan><tspan class="e1dbaa9a-9f6a-4f7e-b71e-661127ad0a21" x="108.471" y="0">h</tspan><tspan class="e863a57e-cdd2-43ce-a2a1-b367d6631f64" x="115.979" y="0">i</tspan><tspan class="a8792554-9eb9-4f92-9449-8038a36a659f" x="119.362" y="0">f</tspan><tspan class="b1c8cd2b-ac09-462b-959f-94d90df12910" x="124.998" y="0">t</tspan><tspan x="130.458" y="0">-</tspan><tspan class="ebfd18d3-64bc-4415-908c-4ce2a4accc06" x="0" y="12">i</tspan><tspan class="bacd2d82-a96c-4187-8d36-36959ce90171" x="3.545" y="12">n</tspan><tspan class="fa07d49c-d069-44dc-8aca-34ab5195d77b" x="11.023" y="12">g</tspan><tspan class="fb8967b5-0767-4e3d-af3a-45895c0c4098" x="18.828" y="12">r</tspan><tspan class="bd7f80c9-8bd5-4dee-9b33-0fd5e01b8f35" x="24.115" y="12">e</tspan><tspan class="e4fa68b7-92d3-4e4f-8628-201a81d265fe" x="31.276" y="12">s</tspan><tspan x="37.481" y="12">s</tspan></text><text class="b2b80ca6-5bb7-421a-909b-67fe3ef92948" transform="translate(15 80.035)"><tspan class="fae9119f-6e30-4c88-8d75-afcaec60bdb2">n</tspan><tspan class="b2eaf2ea-be85-460d-b54c-9cf0d9fd880e" x="7.462" y="0">a</tspan><tspan class="bd7f80c9-8bd5-4dee-9b33-0fd5e01b8f35" x="14.513" y="0">me</tspan><tspan class="bf2ee388-2ed2-41f3-91af-945793faadd2" x="32.688" y="0">s</tspan><tspan class="b41e11c2-c436-4d05-91e5-bcd9626f777e" x="38.918" y="0">p</tspan><tspan class="f55957c7-7e61-4554-9eba-3cade617e3cf" x="46.622" y="0">a</tspan><tspan class="becd4d04-a5e2-40aa-adf8-a7f3f2f0fe6a" x="53.609" y="0">c</tspan><tspan class="bd0fdd05-372f-400c-b107-be9299970fac" x="59.971" y="0">e</tspan><tspan class="a50119ba-e85f-46d2-9af8-1d8e36bf192c" x="66.801" y="0">/</tspan><tspan class="af6240be-9eef-407f-b34f-53a6b545c844" x="72.318" y="0">o</tspan><tspan x="79.791" y="0">p</tspan><tspan class="f8952c98-92a9-4123-91cb-193fcb928058" x="87.519" y="0">e</tspan><tspan class="fa167396-99ae-43ab-b36f-3709da05111b" x="94.693" y="0">n</tspan><tspan class="bf2ee388-2ed2-41f3-91af-945793faadd2" x="102.24" y="0">s</tspan><tspan class="e1dbaa9a-9f6a-4f7e-b71e-661127ad0a21" x="108.471" y="0">h</tspan><tspan class="e863a57e-cdd2-43ce-a2a1-b367d6631f64" x="115.979" y="0">i</tspan><tspan class="a8792554-9eb9-4f92-9449-8038a36a659f" x="119.362" y="0">f</tspan><tspan class="b1c8cd2b-ac09-462b-959f-94d90df12910" x="124.998" y="0">t</tspan><tspan x="130.458" y="0">-</tspan><tspan class="ebfd18d3-64bc-4415-908c-4ce2a4accc06" x="0" y="12">i</tspan><tspan class="bacd2d82-a96c-4187-8d36-36959ce90171" x="3.545" y="12">n</tspan><tspan class="fa07d49c-d069-44dc-8aca-34ab5195d77b" x="11.023" y="12">g</tspan><tspan class="fb8967b5-0767-4e3d-af3a-45895c0c4098" x="18.828" y="12">r</tspan><tspan class="bd7f80c9-8bd5-4dee-9b33-0fd5e01b8f35" x="24.115" y="12">e</tspan><tspan class="e4fa68b7-92d3-4e4f-8628-201a81d265fe" x="31.276" y="12">s</tspan><tspan x="37.481" y="12" letter-spacing=".003em">s</tspan><tspan x="43.653" y="12" letter-spacing=".022em">-</tspan><tspan class="af6240be-9eef-407f-b34f-53a6b545c844" x="49.552" y="12">o</tspan><tspan x="57.024" y="12">p</tspan><tspan class="f8952c98-92a9-4123-91cb-193fcb928058" x="64.752" y="12">e</tspan><tspan x="71.927" y="12" letter-spacing="-.001em">r</tspan><tspan x="77.22" y="12" letter-spacing="-.007em">a</tspan><tspan x="84.079" y="12" letter-spacing=".003em">to</tspan><tspan x="97.087" y="12">r</tspan></text><text class="b2b80ca6-5bb7-421a-909b-67fe3ef92948" transform="translate(405 80.035)"><tspan class="fae9119f-6e30-4c88-8d75-afcaec60bdb2">n</tspan><tspan class="b2eaf2ea-be85-460d-b54c-9cf0d9fd880e" x="7.462" y="0">a</tspan><tspan class="bd7f80c9-8bd5-4dee-9b33-0fd5e01b8f35" x="14.513" y="0">me</tspan><tspan class="bf2ee388-2ed2-41f3-91af-945793faadd2" x="32.688" y="0">s</tspan><tspan class="b41e11c2-c436-4d05-91e5-bcd9626f777e" x="38.918" y="0">p</tspan><tspan class="f55957c7-7e61-4554-9eba-3cade617e3cf" x="46.622" y="0">a</tspan><tspan class="becd4d04-a5e2-40aa-adf8-a7f3f2f0fe6a" x="53.609" y="0">c</tspan><tspan class="bd0fdd05-372f-400c-b107-be9299970fac" x="59.971" y="0">e</tspan><tspan class="a50119ba-e85f-46d2-9af8-1d8e36bf192c" x="66.801" y="0">/</tspan><tspan class="af6240be-9eef-407f-b34f-53a6b545c844" x="72.318" y="0">o</tspan><tspan x="79.791" y="0">p</tspan><tspan class="f8952c98-92a9-4123-91cb-193fcb928058" x="87.519" y="0">e</tspan><tspan class="fa167396-99ae-43ab-b36f-3709da05111b" x="94.693" y="0">n</tspan><tspan class="bf2ee388-2ed2-41f3-91af-945793faadd2" x="102.24" y="0">s</tspan><tspan class="e1dbaa9a-9f6a-4f7e-b71e-661127ad0a21" x="108.471" y="0">h</tspan><tspan class="e863a57e-cdd2-43ce-a2a1-b367d6631f64" x="115.979" y="0">i</tspan><tspan class="a8792554-9eb9-4f92-9449-8038a36a659f" x="119.362" y="0">f</tspan><tspan class="b1c8cd2b-ac09-462b-959f-94d90df12910" x="124.998" y="0">t</tspan><tspan x="130.458" y="0">-</tspan><tspan class="becd4d04-a5e2-40aa-adf8-a7f3f2f0fe6a" x="0" y="12">c</tspan><tspan x="6.361" y="12" letter-spacing=".004em">o</tspan><tspan x="13.833" y="12" letter-spacing="-.007em">n</tspan><tspan x="21.166" y="12" letter-spacing="-.001em">f</tspan><tspan x="26.67" y="12" letter-spacing=".002em">i</tspan><tspan x="30.147" y="12" letter-spacing=".015em">g</tspan><tspan x="38.028" y="12" letter-spacing=".014em">-</tspan><tspan x="43.834" y="12" letter-spacing=".005em">m</tspan><tspan class="b2eaf2ea-be85-460d-b54c-9cf0d9fd880e" x="54.854" y="12">a</tspan><tspan class="fae9119f-6e30-4c88-8d75-afcaec60bdb2" x="61.904" y="12">n</tspan><tspan class="f55957c7-7e61-4554-9eba-3cade617e3cf" x="69.366" y="12">a</tspan><tspan x="76.354" y="12" letter-spacing=".005em">g</tspan><tspan x="84.123" y="12" letter-spacing=".003em">e</tspan><tspan x="91.264" y="12">d</tspan></text><path class="aef9def8-a670-4b05-922b-cc2bad9409b4" d="M210 111.622h140v110H210z"/><text class="a4d5a110-0368-48c5-a80a-8f2ded1e3be2" transform="translate(220 132.797)">deployments/router-<tspan x="0" y="12">default</tspan></text><circle class="bf5d606d-2f60-4ecc-ae8a-89907b901a8e" cx="280" cy="111.622" r="9"/><text class="b519f100-4b90-41cb-a970-f65834cf0d29" transform="translate(276.268 115.408)">3</text><path class="fcf1f264-74a6-4505-a4f4-035d3f8ed57f" d="M395.324 136.622H380v50"/><path class="bf5d606d-2f60-4ecc-ae8a-89907b901a8e" d="M393.865 131.636l8.635 4.986-8.635 4.987v-9.973z"/><path class="fcf1f264-74a6-4505-a4f4-035d3f8ed57f" d="M395.324 206.622H380v-20h-40"/><path class="bf5d606d-2f60-4ecc-ae8a-89907b901a8e" d="M393.865 201.636l8.635 4.986-8.635 4.987v-9.973z"/><path fill="#c9dc95" d="M220 161.622h120v50H220z"/><text class="a4d5a110-0368-48c5-a80a-8f2ded1e3be2" transform="translate(246.995 182.797)">secrets/my-<tspan x="0" y="12">certificate</tspan></text><circle class="bf5d606d-2f60-4ecc-ae8a-89907b901a8e" cx="280" cy="161.622" r="9"/><text class="ffcdf2df-4c10-41a0-8cbe-66048703ac3f" transform="translate(276.82 165.03)">2</text><path class="fcf1f264-74a6-4505-a4f4-035d3f8ed57f" d="M279.775 405.634V276.622h115.549"/><path class="bf5d606d-2f60-4ecc-ae8a-89907b901a8e" d="M393.865 281.609l8.635-4.987-8.635-4.986v9.973z"/><path class="fcf1f264-74a6-4505-a4f4-035d3f8ed57f" d="M475 382.858v-81.236"/><path class="bf5d606d-2f60-4ecc-ae8a-89907b901a8e" d="M479.986 381.399L475 390.034l-4.986-8.635h9.972z"/><path class="fcf1f264-74a6-4505-a4f4-035d3f8ed57f" d="M210.324 194.122H84.75v138.5"/><path class="bf5d606d-2f60-4ecc-ae8a-89907b901a8e" d="M208.865 189.136l8.635 4.986-8.635 4.987v-9.973z"/><path class="fcf1f264-74a6-4505-a4f4-035d3f8ed57f" d="M210.324 179.122h-1.5"/><path stroke-dasharray="2.99 2.99" stroke-linecap="round" stroke-linejoin="round" stroke="#151515" fill="none" d="M205.834 179.122H87.745"/><path class="fcf1f264-74a6-4505-a4f4-035d3f8ed57f" d="M86.25 179.122h-1.5v-1.5"/><path stroke-dasharray="2.9 2.9" stroke-linecap="round" stroke-linejoin="round" stroke="#151515" fill="none" d="M84.75 174.722v-10.15"/><path class="fcf1f264-74a6-4505-a4f4-035d3f8ed57f" d="M84.75 163.122v-1.5"/><path class="bf5d606d-2f60-4ecc-ae8a-89907b901a8e" d="M208.865 174.136l8.635 4.986-8.635 4.987v-9.973z"/><path class="aef9def8-a670-4b05-922b-cc2bad9409b4" d="M15 111.622h140v50H15z"/><text class="a4d5a110-0368-48c5-a80a-8f2ded1e3be2" transform="translate(27.991 135.768)">ingresscontrollers/<tspan x="36.006" y="12">default</tspan></text><text class="bf3a7f72-2d1f-4ddb-bd31-cfbe06bf9066" transform="translate(33.927 28.42)"><tspan letter-spacing="-.025em">R</tspan><tspan class="af1d6855-4bd0-4892-b2a6-2e6a75fb61a2" x="6.47" y="0">e</tspan><tspan x="12.05" y="0" letter-spacing="-.017em">f</tspan><tspan class="f6cbb075-a369-48dc-8cbd-5349d47985da" x="15.99" y="0">e</tspan><tspan class="f302bbc0-be2f-4b1c-acf3-fbe896146f6a" x="21.72" y="0">r</tspan><tspan x="25.41" y="0">en</tspan><tspan class="af1d6855-4bd0-4892-b2a6-2e6a75fb61a2" x="36.96" y="0">c</tspan><tspan class="f6cbb075-a369-48dc-8cbd-5349d47985da" x="42.04" y="0">e</tspan></text><path class="fcf1f264-74a6-4505-a4f4-035d3f8ed57f" d="M20.824 25.134h-1.5"/><path stroke-dasharray="3.465 3.465" stroke-linecap="round" stroke-linejoin="round" stroke="#151515" fill="none" d="M15.859 25.134H3.732"/><path class="fcf1f264-74a6-4505-a4f4-035d3f8ed57f" d="M2 25.134H.5"/><path class="bf5d606d-2f60-4ecc-ae8a-89907b901a8e" d="M19.365 20.148L28 25.134l-8.635 4.987v-9.973z"/><text class="bf3a7f72-2d1f-4ddb-bd31-cfbe06bf9066" transform="translate(137.697 28.42)"><tspan class="fd1ceb45-31bc-47b3-988d-d815d8f43ada">C</tspan><tspan x="7.08" y="0">o</tspan><tspan class="af1d6855-4bd0-4892-b2a6-2e6a75fb61a2" x="13.06" y="0">n</tspan><tspan x="18.729" y="0" letter-spacing="-.007em">t</tspan><tspan x="22.8" y="0">e</tspan><tspan class="fd1ceb45-31bc-47b3-988d-d815d8f43ada" x="28.53" y="0">n</tspan><tspan x="34.2" y="0" letter-spacing=".01em">t</tspan><tspan x="38.439" y="0" letter-spacing="0">s a</tspan><tspan class="f302bbc0-be2f-4b1c-acf3-fbe896146f6a" x="50.979" y="0">r</tspan><tspan x="54.669" y="0">e </tspan><tspan class="fd1ceb45-31bc-47b3-988d-d815d8f43ada" x="62.649" y="0">c</tspan><tspan x="67.729" y="0">opi</tspan><tspan x="82.339" y="0" letter-spacing=".003em">e</tspan><tspan x="88.099" y="0">d</tspan></text><path class="fcf1f264-74a6-4505-a4f4-035d3f8ed57f" d="M124.594 25.134H104.27"/><path class="bf5d606d-2f60-4ecc-ae8a-89907b901a8e" d="M123.135 20.148l8.635 4.986-8.635 4.987v-9.973z"/><path class="fcf1f264-74a6-4505-a4f4-035d3f8ed57f" d="M595.327 136.622H544.94"/><path class="bf5d606d-2f60-4ecc-ae8a-89907b901a8e" d="M593.868 131.636l8.635 4.986-8.635 4.987v-9.973z"/><g><circle class="bf5d606d-2f60-4ecc-ae8a-89907b901a8e" cx="85" cy="111.622" r="9"/><text class="b519f100-4b90-41cb-a970-f65834cf0d29" transform="translate(80.949 115.408)">0</text></g><g><path class="fcf1f264-74a6-4505-a4f4-035d3f8ed57f" d="M579.942 279.122h15.385"/><path class="bf5d606d-2f60-4ecc-ae8a-89907b901a8e" d="M593.868 284.109l8.635-4.987-8.635-4.986v9.973z"/></g><g><path class="fcf1f264-74a6-4505-a4f4-035d3f8ed57f" d="M579.942 424.32h15.385"/><path class="bf5d606d-2f60-4ecc-ae8a-89907b901a8e" d="M593.868 429.306l8.635-4.986-8.635-4.987v9.973z"/></g><g><path class="fcf1f264-74a6-4505-a4f4-035d3f8ed57f" d="M170 426.534h30.324"/><path class="bf5d606d-2f60-4ecc-ae8a-89907b901a8e" d="M198.865 431.521l8.635-4.987-8.635-4.986v9.973z"/></g><g><path class="fcf1f264-74a6-4505-a4f4-035d3f8ed57f" d="M595.327 576.622h-15.336v-370H545"/><path class="bf5d606d-2f60-4ecc-ae8a-89907b901a8e" d="M593.868 571.636l8.635 4.986-8.635 4.987v-9.973z"/></g><path class="ab8c1df0-a770-4430-8b05-5ec82ddcc1ac" d="M263.786 352.821h31.927v18.357h-31.927zM457.327 352.821h31.927v18.357h-31.927zM263.786 504.666h31.927v18.235h-31.927z"/><text class="b2b24169-f35e-4c07-b8fa-e680065bfb97" transform="translate(210 364.947)"><tspan class="b75bc5be-ab00-4824-b9e2-9c101eded228">n</tspan><tspan class="a14a49da-d2c6-46d6-8ff2-04cc0ef96a4e" x="6.883" y="0">a</tspan><tspan class="f225ccc2-096e-44fb-8470-11ce6869e8e0" x="13.388" y="0">me</tspan><tspan class="e1af1711-121c-4816-b78d-bf66ef21fb6c" x="30.135" y="0">s</tspan><tspan class="b499e716-8509-47b2-b0f1-af2c6c3dd984" x="35.887" y="0">p</tspan><tspan class="ac235998-84e0-4f57-bd8e-efa865b38ee9" x="42.993" y="0">a</tspan><tspan class="a0e6568c-7cf8-4eb4-b36f-c136625df787" x="49.441" y="0">c</tspan><tspan class="aa2eec0a-b556-4ba0-87f6-da02a1738e92" x="55.317" y="0">e</tspan><tspan class="b59c567d-d37b-4e99-8a60-066a02894b77" x="61.629" y="0">/</tspan><tspan class="e5c939d4-67cf-4191-b487-a6bb7b49b7bf" x="66.745" y="0">o</tspan><tspan class="a974ec16-7f20-457b-bd99-ecf2c38219d4" x="73.638" y="0">p</tspan><tspan class="fadcb831-0b48-4f42-8c2f-af1c2705e73c" x="80.767" y="0">e</tspan><tspan class="a8b2c9b3-e442-4b3e-8786-b2305da323fd" x="87.386" y="0">n</tspan><tspan class="bd79bc76-8e57-4b1c-aefc-1115ed2fdeaf" x="94.345" y="0">s</tspan><tspan class="a139e692-8875-4d7b-b0ba-5efbf9adc2d2" x="100.098" y="0">h</tspan><tspan class="a6705a14-ae0d-48b6-8e16-f293cbd79372" x="107.021" y="0">i</tspan><tspan class="a918b092-6e0a-4110-a7cb-021b2a7aa497" x="110.167" y="0">f</tspan><tspan class="f4364dab-c232-4d7e-87eb-0c16f4829986" x="115.374" y="0">t</tspan><tspan x="120.426" y="0">-</tspan><tspan class="a0e6568c-7cf8-4eb4-b36f-c136625df787"><tspan x="0" y="12">c</tspan><tspan class="e5c939d4-67cf-4191-b487-a6bb7b49b7bf" x="5.876" y="12">o</tspan><tspan x="12.769" y="12" letter-spacing="-.003em">n</tspan><tspan x="19.536" y="12" letter-spacing=".003em">f</tspan><tspan class="bd1a7422-6cae-46d9-8940-5b8fe26e7f26" x="24.624" y="12">i</tspan><tspan class="ee435117-47e3-4aea-97c9-f2bf54cdf603" x="27.854" y="12">g</tspan></tspan></text><g><circle class="bf5d606d-2f60-4ecc-ae8a-89907b901a8e" cx="280" cy="401.534" r="9"/><text class="b519f100-4b90-41cb-a970-f65834cf0d29" transform="translate(276.191 405.32)">9</text></g><path class="aef9def8-a670-4b05-922b-cc2bad9409b4" d="M210 551.534h140v50H210z"/><text class="a4d5a110-0368-48c5-a80a-8f2ded1e3be2" transform="translate(234.992 581.679)">proxies/cluster</text><g><circle class="bf5d606d-2f60-4ecc-ae8a-89907b901a8e" cx="280" cy="551.534" r="9"/><text class="ffcdf2df-4c10-41a0-8cbe-66048703ac3f" transform="translate(274.448 554.941)">10</text></g><path class="ab8c1df0-a770-4430-8b05-5ec82ddcc1ac" d="M0 341.622h170v125H0z"/><g><text transform="translate(73.043 430.789)" font-family="RedHatText,&quot;Red Hat Text&quot;,Overpass,&quot;Helvetica Neue&quot;,Arial,sans-serif" font-weight="500" fill="#151515" font-size="11">User</text><path class="f9e54454-e8e0-4c51-8245-7139b9e0eda0" d="M104.75 414.221a19.751 19.751 0 00-39.5 0z"/><ellipse class="f9e54454-e8e0-4c51-8245-7139b9e0eda0" cx="85" cy="384.858" rx="9.916" ry="9.82"/></g><g><circle class="bf5d606d-2f60-4ecc-ae8a-89907b901a8e" cx="85" cy="341.61" r="9"/><text class="b519f100-4b90-41cb-a970-f65834cf0d29" transform="translate(81.601 345.396)">7</text></g><text transform="translate(210 514.947)" letter-spacing=".008em" font-family="RedHatText,&quot;Red Hat Text&quot;,Overpass,&quot;Helvetica Neue&quot;,Arial,sans-serif" font-weight="700" fill="#151515" font-size="11">c<tspan x="6.021" y="0" letter-spacing=".012em">l</tspan><tspan x="9.318" y="0" letter-spacing=".016em">u</tspan><tspan x="16.296" y="0" letter-spacing=".002em">s</tspan><tspan x="21.94" y="0" letter-spacing=".007em">t</tspan><tspan class="baed70ff-3d1a-40c8-b7a3-cbe9cd4f6e49" x="27.06" y="0">e</tspan><tspan x="33.678" y="0" letter-spacing=".004em">r</tspan><tspan class="be64c988-f940-4dd3-8cf4-a57258633f81" x="38.583" y="0">-</tspan><tspan class="ed68165e-95d1-407f-90ef-7610ad9abd23" x="43.926" y="0">s</tspan><tspan class="a0e6568c-7cf8-4eb4-b36f-c136625df787" x="49.606" y="0">c</tspan><tspan class="e5c939d4-67cf-4191-b487-a6bb7b49b7bf" x="55.482" y="0">o</tspan><tspan class="a974ec16-7f20-457b-bd99-ecf2c38219d4" x="62.375" y="0">p</tspan><tspan x="69.504" y="0" letter-spacing=".007em">e</tspan><tspan class="b0b6676f-dd6e-442f-a94e-ea0a84a2cac8" x="76.094" y="0">d</tspan></text><path class="aef9def8-a670-4b05-922b-cc2bad9409b4" d="M405 111.622h140v50H405z"/><text class="a4d5a110-0368-48c5-a80a-8f2ded1e3be2" transform="translate(429.993 135.768)">secrets/router-<tspan x="30.004" y="12">certs</tspan></text><g><circle class="bf5d606d-2f60-4ecc-ae8a-89907b901a8e" cx="475" cy="111.622" r="9"/><text class="b519f100-4b90-41cb-a970-f65834cf0d29" transform="translate(470.955 115.408)">4</text></g><path class="aef9def8-a670-4b05-922b-cc2bad9409b4" d="M405 181.622h140v50H405z"/><text class="a4d5a110-0368-48c5-a80a-8f2ded1e3be2" transform="translate(417.991 205.768)">configmaps/default-<tspan x="21.003" y="12">ingress-cert</tspan></text><g><circle class="bf5d606d-2f60-4ecc-ae8a-89907b901a8e" cx="475" cy="181.622" r="9"/><text class="b519f100-4b90-41cb-a970-f65834cf0d29" transform="translate(471.17 185.408)">6</text></g><path class="aef9def8-a670-4b05-922b-cc2bad9409b4" d="M405 251.622h140v50H405z"/><text class="a4d5a110-0368-48c5-a80a-8f2ded1e3be2" transform="translate(417.991 275.768)">configmaps/trusted-<tspan x="30.004" y="12">ca-bundle</tspan></text><g><circle class="bf5d606d-2f60-4ecc-ae8a-89907b901a8e" cx="475" cy="251.622" r="9"/><text class="b519f100-4b90-41cb-a970-f65834cf0d29" transform="translate(471.241 255.408)">8</text></g><text transform="translate(405 364.947)" letter-spacing=".006em" font-family="RedHatText,&quot;Red Hat Text&quot;,Overpass,&quot;Helvetica Neue&quot;,Arial,sans-serif" font-weight="700" fill="#151515" font-size="11">R<tspan x="7.798" y="0" letter-spacing=".007em">e</tspan><tspan class="e943f54f-a3ab-4e38-a5da-0596414deeed" x="14.387" y="0">q</tspan><tspan x="21.605" y="0" letter-spacing=".009em">ue</tspan><tspan class="b499e716-8509-47b2-b0f1-af2c6c3dd984" x="35.109" y="0">s</tspan><tspan class="a503ccd7-1780-455d-81eb-92b4a104c4a0" x="40.753" y="0">t</tspan><tspan x="46.013" y="0" letter-spacing=".011em">i</tspan><tspan x="49.304" y="0" letter-spacing=".009em">n</tspan><tspan class="ee435117-47e3-4aea-97c9-f2bf54cdf603" x="56.2" y="0">g </tspan><tspan class="b75bc5be-ab00-4824-b9e2-9c101eded228" x="65.627" y="0">n</tspan><tspan x="72.51" y="0" letter-spacing=".012em">a</tspan><tspan class="f225ccc2-096e-44fb-8470-11ce6869e8e0" x="79.016" y="0">me</tspan><tspan class="bd79bc76-8e57-4b1c-aefc-1115ed2fdeaf" x="95.762" y="0">s</tspan><tspan x="101.515" y="0" letter-spacing=".002em">p</tspan><tspan class="ac235998-84e0-4f57-bd8e-efa865b38ee9" x="108.62" y="0">a</tspan><tspan class="a0e6568c-7cf8-4eb4-b36f-c136625df787" x="115.068" y="0">c</tspan><tspan x="120.944" y="0" letter-spacing=".009em">e</tspan><tspan class="b0b6676f-dd6e-442f-a94e-ea0a84a2cac8" x="127.553" y="0">s</tspan></text><g><text transform="translate(668.722 640.049)" font-family="RedHatText,&quot;Red Hat Text&quot;,Overpass,&quot;Helvetica Neue&quot;,Arial,sans-serif" font-size="10" fill="#f3f3f3">75_OpenShift_0520</text><path fill="none" d="M0 617.032h760v40H0z"/></g></svg>