<svg id="a76e490d-53ee-4383-a943-d1c4d2d7706b" data-name="artwork" xmlns="http://www.w3.org/2000/svg" width="760" height="503.845"><defs><style>.f75cf5e0-fc4a-424e-b751-e055a1025949{fill:#f3f3f3}.b886b340-dd4f-4e42-9ce2-0c15271a493f,.bb910a35-8a4a-428b-a97d-a192a8b0b988{font-size:11px}.b886b340-dd4f-4e42-9ce2-0c15271a493f,.ba04e08e-49b4-4302-adb5-9845fd7a92f2,.e9eb4a2e-a4b7-4da8-b6c5-a13f90a88d60,.eacfcfc1-61f0-4eb9-b0e1-7f75fb8fc619,.fc30bab8-1b17-498e-84e7-45b4fea697ae{fill:#151515}.b886b340-dd4f-4e42-9ce2-0c15271a493f,.bb910a35-8a4a-428b-a97d-a192a8b0b988,.eacfcfc1-61f0-4eb9-b0e1-7f75fb8fc619{font-family:RedHatText-Bold,Red Hat Text;font-weight:700}.b146132e-c5da-4947-a12a-81735c5283f2{letter-spacing:.008em}.adf52f01-ab53-46bc-b41d-04333d8e6253{letter-spacing:.012em}.bdac0b58-971a-4d37-b75e-97165a046c75{letter-spacing:.009em}.bcac0a39-2a5e-4afd-bc5a-00f8e6abd3d6{letter-spacing:.012em}.b02e4579-b7a4-4103-af02-6702e000a808{letter-spacing:.002em}.bab0169d-68f8-4eff-ae0b-e855cc25974e{letter-spacing:.007em}.ad5f8bbf-0da6-40ac-8888-d88608b94204{letter-spacing:-.005em}.afbd86e9-a477-4df8-9126-681aca2c7caf{letter-spacing:-.018em}.a7e66335-a73d-42ec-a019-b3b77577f22b{letter-spacing:-.069em}.a10ed8b0-27f9-477f-a66c-1373881abdd0{letter-spacing:.008em}.bcc3d0f5-40d7-4de4-9842-7cb78b143074{letter-spacing:.004em}.a4b9cc82-ded1-45db-b5a4-56c05a5aa265{letter-spacing:.01em}.aa965789-b033-4bdf-8fe2-e8e6fc446d37{letter-spacing:.015em}.a7591b12-26b5-4909-80a1-745af6c97f54{letter-spacing:.012em}.e44104a5-5839-49ff-8ab2-7a73427b682a{letter-spacing:.011em}.ac7515ae-9a76-4fc6-b264-2b7e75af50cc{letter-spacing:-.002em}.a41580b9-91d8-43db-8eac-287a1f8be572{letter-spacing:.013em}.fc50a775-7e00-4652-a5b1-beffc0a190cf{letter-spacing:.001em}.a6be6b81-9733-4aad-bf71-650f72cdb9f9{letter-spacing:.022em}.fb8b5742-5a2f-4634-86aa-196be324f0aa{letter-spacing:.007em}.a2dec9be-a674-4937-bcba-d5c4bd798d9d{letter-spacing:-.002em}.ba94523f-5a37-4006-9e25-ba605e6ff96f{fill:#d9e8f7}.ba04e08e-49b4-4302-adb5-9845fd7a92f2,.e9eb4a2e-a4b7-4da8-b6c5-a13f90a88d60{font-size:10px}.ba04e08e-49b4-4302-adb5-9845fd7a92f2{font-family:LiberationMono,Liberation Mono}.bb910a35-8a4a-428b-a97d-a192a8b0b988{fill:#fff}.a6b76342-99ac-423d-b41e-0bbd9727f547{letter-spacing:.005em}.b7bf81ae-8ea2-4ef5-ae7e-d120fce63118{letter-spacing:.012em}.e7b8c7cd-4b58-4ac9-b02b-0af0f689dfca{letter-spacing:.027em}.a2cc229d-dcfa-41c5-91d2-f9e76b26d9c3{letter-spacing:.008em}.eacfcfc1-61f0-4eb9-b0e1-7f75fb8fc619{font-size:12px}.e5201bb9-e072-40be-93ba-32bc8e2c2174{letter-spacing:.004em}.bc6e961d-f2af-4355-b59f-3dd46216dec5{letter-spacing:.009em}.ea94d5b6-1d60-437f-839d-e1582b4eef26{letter-spacing:.005em}.fa11f2d5-aa84-45d6-9bd7-3aee388e658f{letter-spacing:.008em}.b32d8aba-3647-4ff5-8af8-82636618646e{letter-spacing:-.002em}.a0d8ba3d-4250-414f-b1c1-ded5e88ea196{letter-spacing:.003em}.e17baeae-6e21-45b1-bd66-d62fce0c2058{letter-spacing:-.009em}.ae00276f-aca7-4741-b98f-41032b1913d3{letter-spacing:-.023em}.b5cbfaa3-dc51-4a9c-98d9-3add1805d9a9{letter-spacing:-.074em}.bc90c14d-b41d-46a4-82d1-37c11979ad60{letter-spacing:.004em}.a62a894a-40a5-4228-8f43-67a6788c9fe9{letter-spacing:.006em}.b45e68af-7edd-4e9d-a4fb-41588da62acd{letter-spacing:.011em}.b106453c-7832-4f67-9938-89aa15bf3d86{letter-spacing:.008em}.fa619343-b45e-4222-9420-a2cf8893396f{letter-spacing:-.006em}.bfdaa126-965d-4d72-96ac-b2672783be60{letter-spacing:.01em}.a8dddbe5-c965-48d8-9ec4-e9f3c863cccb{letter-spacing:-.003em}.f5013420-120f-488c-8a7e-5810a7e7dd0b{letter-spacing:.007em}.a936733c-ed6a-4956-b0c3-c5d01e7d6d5c{letter-spacing:.005em}.a1f301c2-d027-49a9-a638-1f8733bd6afc{letter-spacing:.008em}.f7d85d9c-6d42-4526-ab9f-7a8adb23df15{letter-spacing:-.001em}.f208b411-8afb-4df2-8da1-dbe833a4e49a{letter-spacing:.006em}.e049894e-8216-48c7-a68d-9a2ff5e11664{fill:none;stroke:#151515;stroke-linecap:round;stroke-linejoin:round}.e9eb4a2e-a4b7-4da8-b6c5-a13f90a88d60{font-family:RedHatText-Medium,Red Hat Text;font-weight:500}.b6efe6d6-265d-4b70-bd3a-19528ccecc6b{letter-spacing:-.015em}.f5b59a20-dccf-401a-b20b-c56a2e94fc4d{letter-spacing:0}.af2479de-8891-48f4-bc4e-97566a7067ba{letter-spacing:-.024em}.be8f776d-43e1-4d1b-a6c1-5383377fdaf9{letter-spacing:-.015em}</style></defs><path class="f75cf5e0-fc4a-424e-b751-e055a1025949" d="M585 56.711h175v120H585z"/><text class="b886b340-dd4f-4e42-9ce2-0c15271a493f" transform="translate(600 82.535)"><tspan class="b146132e-c5da-4947-a12a-81735c5283f2">n</tspan><tspan class="adf52f01-ab53-46bc-b41d-04333d8e6253" x="6.883" y="0">a</tspan><tspan class="bdac0b58-971a-4d37-b75e-97165a046c75" x="13.388" y="0">me</tspan><tspan class="bcac0a39-2a5e-4afd-bc5a-00f8e6abd3d6" x="30.135" y="0">s</tspan><tspan class="b02e4579-b7a4-4103-af02-6702e000a808" x="35.887" y="0">p</tspan><tspan class="bab0169d-68f8-4eff-ae0b-e855cc25974e" x="42.993" y="0">a</tspan><tspan class="ad5f8bbf-0da6-40ac-8888-d88608b94204" x="49.441" y="0">c</tspan><tspan class="afbd86e9-a477-4df8-9126-681aca2c7caf" x="55.317" y="0">e</tspan><tspan class="a7e66335-a73d-42ec-a019-b3b77577f22b" x="61.629" y="0">/</tspan><tspan class="a10ed8b0-27f9-477f-a66c-1373881abdd0" x="66.745" y="0">o</tspan><tspan class="bcc3d0f5-40d7-4de4-9842-7cb78b143074" x="73.638" y="0">p</tspan><tspan class="a4b9cc82-ded1-45db-b5a4-56c05a5aa265" x="80.767" y="0">e</tspan><tspan class="aa965789-b033-4bdf-8fe2-e8e6fc446d37" x="87.386" y="0">n</tspan><tspan class="a7591b12-26b5-4909-80a1-745af6c97f54" x="94.345" y="0">s</tspan><tspan class="e44104a5-5839-49ff-8ab2-7a73427b682a" x="100.098" y="0">h</tspan><tspan class="ac7515ae-9a76-4fc6-b264-2b7e75af50cc" x="107.021" y="0">i</tspan><tspan class="a41580b9-91d8-43db-8eac-287a1f8be572" x="110.167" y="0">f</tspan><tspan class="fc50a775-7e00-4652-a5b1-beffc0a190cf" x="115.374" y="0">t</tspan><tspan x="120.426" y="0">-</tspan><tspan x="0" y="12" letter-spacing=".012em">a</tspan><tspan x="6.496" y="12" letter-spacing=".001em">u</tspan><tspan class="a6be6b81-9733-4aad-bf71-650f72cdb9f9" x="13.31" y="12">t</tspan><tspan class="fb8b5742-5a2f-4634-86aa-196be324f0aa" x="18.593" y="12">h</tspan><tspan x="25.471" y="12" letter-spacing=".01em">e</tspan><tspan class="a2dec9be-a674-4937-bcba-d5c4bd798d9d" x="32.089" y="12">n</tspan><tspan x="38.861" y="12" letter-spacing=".02em">t</tspan><tspan x="44.12" y="12" letter-spacing=".006em">i</tspan><tspan x="47.352" y="12" letter-spacing=".009em">c</tspan><tspan x="53.385" y="12" letter-spacing="-.003em">a</tspan><tspan x="59.717" y="12" letter-spacing=".02em">t</tspan><tspan x="64.977" y="12" letter-spacing=".006em">i</tspan><tspan class="a10ed8b0-27f9-477f-a66c-1373881abdd0" x="68.207" y="12">o</tspan><tspan x="75.1" y="12">n</tspan></text><path class="ba94523f-5a37-4006-9e25-ba605e6ff96f" d="M599.75 111.711h145v50h-145z"/><text class="ba04e08e-49b4-4302-adb5-9845fd7a92f2" transform="translate(612.24 135.768)">secrets/v4-0-config-<tspan x="3.001" y="12">system-router-certs</tspan></text><circle class="fc30bab8-1b17-498e-84e7-45b4fea697ae" cx="672.25" cy="111.711" r="9"/><text class="bb910a35-8a4a-428b-a97d-a192a8b0b988" transform="translate(666.599 115.496)">12</text><path class="f75cf5e0-fc4a-424e-b751-e055a1025949" d="M390 341.622h170v125H390z"/><path class="ba94523f-5a37-4006-9e25-ba605e6ff96f" d="M405 401.622h140v50H405z"/><text class="ba04e08e-49b4-4302-adb5-9845fd7a92f2" transform="translate(441.995 425.768)">configmaps/<tspan x="6" y="12">router-ca</tspan></text><circle class="fc30bab8-1b17-498e-84e7-45b4fea697ae" cx="475" cy="401.622" r="9"/><text class="bb910a35-8a4a-428b-a97d-a192a8b0b988" transform="translate(469.349 405.408)">12</text><path class="f75cf5e0-fc4a-424e-b751-e055a1025949" d="M0 341.622h170v125H0z"/><path class="ba94523f-5a37-4006-9e25-ba605e6ff96f" d="M14.75 401.534h140v50h-140z"/><text class="ba04e08e-49b4-4302-adb5-9845fd7a92f2" transform="translate(51.745 425.768)">configmaps/<tspan x="-15.003" y="12">serviceacount-ca</tspan></text><circle class="fc30bab8-1b17-498e-84e7-45b4fea697ae" cx="84.75" cy="401.534" r="9"/><text class="bb910a35-8a4a-428b-a97d-a192a8b0b988" transform="translate(79.099 405.32)">12</text><text class="b886b340-dd4f-4e42-9ce2-0c15271a493f" transform="translate(15 367.291)"><tspan class="b146132e-c5da-4947-a12a-81735c5283f2">n</tspan><tspan class="adf52f01-ab53-46bc-b41d-04333d8e6253" x="6.883" y="0">a</tspan><tspan class="bdac0b58-971a-4d37-b75e-97165a046c75" x="13.388" y="0">me</tspan><tspan class="bcac0a39-2a5e-4afd-bc5a-00f8e6abd3d6" x="30.135" y="0">s</tspan><tspan class="b02e4579-b7a4-4103-af02-6702e000a808" x="35.887" y="0">p</tspan><tspan class="bab0169d-68f8-4eff-ae0b-e855cc25974e" x="42.993" y="0">a</tspan><tspan class="ad5f8bbf-0da6-40ac-8888-d88608b94204" x="49.441" y="0">c</tspan><tspan class="afbd86e9-a477-4df8-9126-681aca2c7caf" x="55.317" y="0">e</tspan><tspan class="a7e66335-a73d-42ec-a019-b3b77577f22b" x="61.629" y="0">/</tspan><tspan class="a10ed8b0-27f9-477f-a66c-1373881abdd0" x="66.745" y="0">o</tspan><tspan class="bcc3d0f5-40d7-4de4-9842-7cb78b143074" x="73.638" y="0">p</tspan><tspan class="a4b9cc82-ded1-45db-b5a4-56c05a5aa265" x="80.767" y="0">e</tspan><tspan class="aa965789-b033-4bdf-8fe2-e8e6fc446d37" x="87.386" y="0">n</tspan><tspan class="a7591b12-26b5-4909-80a1-745af6c97f54" x="94.345" y="0">s</tspan><tspan class="e44104a5-5839-49ff-8ab2-7a73427b682a" x="100.098" y="0">h</tspan><tspan class="ac7515ae-9a76-4fc6-b264-2b7e75af50cc" x="107.021" y="0">i</tspan><tspan class="a41580b9-91d8-43db-8eac-287a1f8be572" x="110.167" y="0">f</tspan><tspan class="fc50a775-7e00-4652-a5b1-beffc0a190cf" x="115.374" y="0">t</tspan><tspan x="120.426" y="0">-</tspan><tspan class="a6b76342-99ac-423d-b41e-0bbd9727f547" x="0" y="12">k</tspan><tspan class="b7bf81ae-8ea2-4ef5-ae7e-d120fce63118" x="6.693" y="12">u</tspan><tspan class="bcc3d0f5-40d7-4de4-9842-7cb78b143074" x="13.62" y="12">b</tspan><tspan class="e7b8c7cd-4b58-4ac9-b02b-0af0f689dfca" x="20.749" y="12">e</tspan><tspan x="27.556" y="12" letter-spacing=".025em">-</tspan><tspan class="ad5f8bbf-0da6-40ac-8888-d88608b94204" x="33.004" y="12">c</tspan><tspan class="a10ed8b0-27f9-477f-a66c-1373881abdd0" x="38.88" y="12">o</tspan><tspan class="a2dec9be-a674-4937-bcba-d5c4bd798d9d" x="45.772" y="12">n</tspan><tspan class="a6be6b81-9733-4aad-bf71-650f72cdb9f9" x="52.545" y="12">t</tspan><tspan x="57.828" y="12" letter-spacing=".002em">r</tspan><tspan class="a10ed8b0-27f9-477f-a66c-1373881abdd0" x="62.718" y="12">o</tspan><tspan x="69.61" y="12" letter-spacing=".011em">l</tspan><tspan class="a2cc229d-dcfa-41c5-91d2-f9e76b26d9c3" x="72.896" y="12">l</tspan><tspan class="a4b9cc82-ded1-45db-b5a4-56c05a5aa265" x="76.149" y="12">e</tspan><tspan x="82.769" y="12" letter-spacing=".004em">r</tspan><tspan x="87.673" y="12" letter-spacing=".018em">-</tspan><tspan x="93.037" y="12" letter-spacing=".009em">m</tspan><tspan class="adf52f01-ab53-46bc-b41d-04333d8e6253" x="103.182" y="12">a</tspan><tspan class="b146132e-c5da-4947-a12a-81735c5283f2" x="109.687" y="12">n</tspan><tspan class="bab0169d-68f8-4eff-ae0b-e855cc25974e" x="116.569" y="12">a</tspan><tspan x="123.018" y="12" letter-spacing=".009em">ge</tspan><tspan x="136.796" y="12">r</tspan></text><path class="f75cf5e0-fc4a-424e-b751-e055a1025949" d="M195 341.622h170v125H195z"/><path class="ba94523f-5a37-4006-9e25-ba605e6ff96f" d="M210 401.82h140v50H210z"/><text class="ba04e08e-49b4-4302-adb5-9845fd7a92f2" transform="translate(246.995 425.768)">configmaps/<tspan x="-15.003" y="12">serviceacount-ca</tspan></text><circle class="fc30bab8-1b17-498e-84e7-45b4fea697ae" cx="280" cy="401.82" r="9"/><text class="bb910a35-8a4a-428b-a97d-a192a8b0b988" transform="translate(274.349 405.605)">12</text><text class="b886b340-dd4f-4e42-9ce2-0c15271a493f" transform="translate(210 366.791)"><tspan class="b146132e-c5da-4947-a12a-81735c5283f2">n</tspan><tspan class="adf52f01-ab53-46bc-b41d-04333d8e6253" x="6.883" y="0">a</tspan><tspan class="bdac0b58-971a-4d37-b75e-97165a046c75" x="13.388" y="0">me</tspan><tspan class="bcac0a39-2a5e-4afd-bc5a-00f8e6abd3d6" x="30.135" y="0">s</tspan><tspan class="b02e4579-b7a4-4103-af02-6702e000a808" x="35.887" y="0">p</tspan><tspan class="bab0169d-68f8-4eff-ae0b-e855cc25974e" x="42.993" y="0">a</tspan><tspan class="ad5f8bbf-0da6-40ac-8888-d88608b94204" x="49.441" y="0">c</tspan><tspan class="afbd86e9-a477-4df8-9126-681aca2c7caf" x="55.317" y="0">e</tspan><tspan class="a7e66335-a73d-42ec-a019-b3b77577f22b" x="61.629" y="0">/</tspan><tspan class="a10ed8b0-27f9-477f-a66c-1373881abdd0" x="66.745" y="0">o</tspan><tspan class="bcc3d0f5-40d7-4de4-9842-7cb78b143074" x="73.638" y="0">p</tspan><tspan class="a4b9cc82-ded1-45db-b5a4-56c05a5aa265" x="80.767" y="0">e</tspan><tspan class="aa965789-b033-4bdf-8fe2-e8e6fc446d37" x="87.386" y="0">n</tspan><tspan class="a7591b12-26b5-4909-80a1-745af6c97f54" x="94.345" y="0">s</tspan><tspan class="e44104a5-5839-49ff-8ab2-7a73427b682a" x="100.098" y="0">h</tspan><tspan class="ac7515ae-9a76-4fc6-b264-2b7e75af50cc" x="107.021" y="0">i</tspan><tspan class="a41580b9-91d8-43db-8eac-287a1f8be572" x="110.167" y="0">f</tspan><tspan class="fc50a775-7e00-4652-a5b1-beffc0a190cf" x="115.374" y="0">t</tspan><tspan x="120.426" y="0">-</tspan><tspan class="a6b76342-99ac-423d-b41e-0bbd9727f547"><tspan x="0" y="12">k</tspan><tspan class="b7bf81ae-8ea2-4ef5-ae7e-d120fce63118" x="6.693" y="12">u</tspan><tspan class="bcc3d0f5-40d7-4de4-9842-7cb78b143074" x="13.62" y="12">b</tspan><tspan class="e7b8c7cd-4b58-4ac9-b02b-0af0f689dfca" x="20.749" y="12">e</tspan><tspan x="27.556" y="12" letter-spacing=".016em">-</tspan><tspan x="32.898" y="12" letter-spacing=".006em">s</tspan><tspan x="38.58" y="12" letter-spacing=".008em">c</tspan><tspan class="fb8b5742-5a2f-4634-86aa-196be324f0aa" x="44.6" y="12">he</tspan><tspan x="58.068" y="12" letter-spacing=".013em">d</tspan><tspan class="b7bf81ae-8ea2-4ef5-ae7e-d120fce63118" x="65.287" y="12">u</tspan><tspan class="a2cc229d-dcfa-41c5-91d2-f9e76b26d9c3" x="72.214" y="12">l</tspan><tspan class="a4b9cc82-ded1-45db-b5a4-56c05a5aa265" x="75.468" y="12">e</tspan><tspan x="82.087" y="12" letter-spacing="0">r</tspan></tspan></text><path class="f75cf5e0-fc4a-424e-b751-e055a1025949" d="M390 56.711h170v260H390zM195 56.711h170v260H195zM0 56.711h170v260H0z"/><text class="eacfcfc1-61f0-4eb9-b0e1-7f75fb8fc619" transform="translate(210 80.035)"><tspan class="e5201bb9-e072-40be-93ba-32bc8e2c2174">n</tspan><tspan class="bc6e961d-f2af-4355-b59f-3dd46216dec5" x="7.462" y="0">a</tspan><tspan class="ea94d5b6-1d60-437f-839d-e1582b4eef26" x="14.513" y="0">me</tspan><tspan class="fa11f2d5-aa84-45d6-9bd7-3aee388e658f" x="32.688" y="0">s</tspan><tspan class="b32d8aba-3647-4ff5-8af8-82636618646e" x="38.918" y="0">p</tspan><tspan class="a0d8ba3d-4250-414f-b1c1-ded5e88ea196" x="46.622" y="0">a</tspan><tspan class="e17baeae-6e21-45b1-bd66-d62fce0c2058" x="53.609" y="0">c</tspan><tspan class="ae00276f-aca7-4741-b98f-41032b1913d3" x="59.971" y="0">e</tspan><tspan class="b5cbfaa3-dc51-4a9c-98d9-3add1805d9a9" x="66.801" y="0">/</tspan><tspan class="bc90c14d-b41d-46a4-82d1-37c11979ad60" x="72.318" y="0">o</tspan><tspan x="79.791" y="0">p</tspan><tspan class="a62a894a-40a5-4228-8f43-67a6788c9fe9" x="87.519" y="0">e</tspan><tspan class="b45e68af-7edd-4e9d-a4fb-41588da62acd" x="94.693" y="0">n</tspan><tspan class="fa11f2d5-aa84-45d6-9bd7-3aee388e658f" x="102.24" y="0">s</tspan><tspan class="b106453c-7832-4f67-9938-89aa15bf3d86" x="108.471" y="0">h</tspan><tspan class="fa619343-b45e-4222-9420-a2cf8893396f" x="115.979" y="0">i</tspan><tspan class="bfdaa126-965d-4d72-96ac-b2672783be60" x="119.362" y="0">f</tspan><tspan class="a8dddbe5-c965-48d8-9ec4-e9f3c863cccb" x="124.998" y="0">t</tspan><tspan x="130.458" y="0">-</tspan><tspan class="f5013420-120f-488c-8a7e-5810a7e7dd0b" x="0" y="12">i</tspan><tspan class="a936733c-ed6a-4956-b0c3-c5d01e7d6d5c" x="3.545" y="12">n</tspan><tspan class="a1f301c2-d027-49a9-a638-1f8733bd6afc" x="11.023" y="12">g</tspan><tspan class="f7d85d9c-6d42-4526-ab9f-7a8adb23df15" x="18.828" y="12">r</tspan><tspan class="ea94d5b6-1d60-437f-839d-e1582b4eef26" x="24.115" y="12">e</tspan><tspan class="f208b411-8afb-4df2-8da1-dbe833a4e49a" x="31.276" y="12">s</tspan><tspan x="37.481" y="12">s</tspan></text><text class="eacfcfc1-61f0-4eb9-b0e1-7f75fb8fc619" transform="translate(15 80.035)"><tspan class="e5201bb9-e072-40be-93ba-32bc8e2c2174">n</tspan><tspan class="bc6e961d-f2af-4355-b59f-3dd46216dec5" x="7.462" y="0">a</tspan><tspan class="ea94d5b6-1d60-437f-839d-e1582b4eef26" x="14.513" y="0">me</tspan><tspan class="fa11f2d5-aa84-45d6-9bd7-3aee388e658f" x="32.688" y="0">s</tspan><tspan class="b32d8aba-3647-4ff5-8af8-82636618646e" x="38.918" y="0">p</tspan><tspan class="a0d8ba3d-4250-414f-b1c1-ded5e88ea196" x="46.622" y="0">a</tspan><tspan class="e17baeae-6e21-45b1-bd66-d62fce0c2058" x="53.609" y="0">c</tspan><tspan class="ae00276f-aca7-4741-b98f-41032b1913d3" x="59.971" y="0">e</tspan><tspan class="b5cbfaa3-dc51-4a9c-98d9-3add1805d9a9" x="66.801" y="0">/</tspan><tspan class="bc90c14d-b41d-46a4-82d1-37c11979ad60" x="72.318" y="0">o</tspan><tspan x="79.791" y="0">p</tspan><tspan class="a62a894a-40a5-4228-8f43-67a6788c9fe9" x="87.519" y="0">e</tspan><tspan class="b45e68af-7edd-4e9d-a4fb-41588da62acd" x="94.693" y="0">n</tspan><tspan class="fa11f2d5-aa84-45d6-9bd7-3aee388e658f" x="102.24" y="0">s</tspan><tspan class="b106453c-7832-4f67-9938-89aa15bf3d86" x="108.471" y="0">h</tspan><tspan class="fa619343-b45e-4222-9420-a2cf8893396f" x="115.979" y="0">i</tspan><tspan class="bfdaa126-965d-4d72-96ac-b2672783be60" x="119.362" y="0">f</tspan><tspan class="a8dddbe5-c965-48d8-9ec4-e9f3c863cccb" x="124.998" y="0">t</tspan><tspan x="130.458" y="0">-</tspan><tspan class="f5013420-120f-488c-8a7e-5810a7e7dd0b" x="0" y="12">i</tspan><tspan class="a936733c-ed6a-4956-b0c3-c5d01e7d6d5c" x="3.545" y="12">n</tspan><tspan class="a1f301c2-d027-49a9-a638-1f8733bd6afc" x="11.023" y="12">g</tspan><tspan class="f7d85d9c-6d42-4526-ab9f-7a8adb23df15" x="18.828" y="12">r</tspan><tspan class="ea94d5b6-1d60-437f-839d-e1582b4eef26" x="24.115" y="12">e</tspan><tspan class="f208b411-8afb-4df2-8da1-dbe833a4e49a" x="31.276" y="12">s</tspan><tspan x="37.481" y="12" letter-spacing=".003em">s</tspan><tspan x="43.653" y="12" letter-spacing=".022em">-</tspan><tspan class="bc90c14d-b41d-46a4-82d1-37c11979ad60" x="49.552" y="12">o</tspan><tspan x="57.024" y="12">p</tspan><tspan class="a62a894a-40a5-4228-8f43-67a6788c9fe9" x="64.752" y="12">e</tspan><tspan x="71.927" y="12" letter-spacing="-.001em">r</tspan><tspan x="77.22" y="12" letter-spacing="-.007em">a</tspan><tspan x="84.079" y="12" letter-spacing=".003em">to</tspan><tspan x="97.087" y="12">r</tspan></text><text class="eacfcfc1-61f0-4eb9-b0e1-7f75fb8fc619" transform="translate(405 80.035)"><tspan class="e5201bb9-e072-40be-93ba-32bc8e2c2174">n</tspan><tspan class="bc6e961d-f2af-4355-b59f-3dd46216dec5" x="7.462" y="0">a</tspan><tspan class="ea94d5b6-1d60-437f-839d-e1582b4eef26" x="14.513" y="0">me</tspan><tspan class="fa11f2d5-aa84-45d6-9bd7-3aee388e658f" x="32.688" y="0">s</tspan><tspan class="b32d8aba-3647-4ff5-8af8-82636618646e" x="38.918" y="0">p</tspan><tspan class="a0d8ba3d-4250-414f-b1c1-ded5e88ea196" x="46.622" y="0">a</tspan><tspan class="e17baeae-6e21-45b1-bd66-d62fce0c2058" x="53.609" y="0">c</tspan><tspan class="ae00276f-aca7-4741-b98f-41032b1913d3" x="59.971" y="0">e</tspan><tspan class="b5cbfaa3-dc51-4a9c-98d9-3add1805d9a9" x="66.801" y="0">/</tspan><tspan class="bc90c14d-b41d-46a4-82d1-37c11979ad60" x="72.318" y="0">o</tspan><tspan x="79.791" y="0">p</tspan><tspan class="a62a894a-40a5-4228-8f43-67a6788c9fe9" x="87.519" y="0">e</tspan><tspan class="b45e68af-7edd-4e9d-a4fb-41588da62acd" x="94.693" y="0">n</tspan><tspan class="fa11f2d5-aa84-45d6-9bd7-3aee388e658f" x="102.24" y="0">s</tspan><tspan class="b106453c-7832-4f67-9938-89aa15bf3d86" x="108.471" y="0">h</tspan><tspan class="fa619343-b45e-4222-9420-a2cf8893396f" x="115.979" y="0">i</tspan><tspan class="bfdaa126-965d-4d72-96ac-b2672783be60" x="119.362" y="0">f</tspan><tspan class="a8dddbe5-c965-48d8-9ec4-e9f3c863cccb" x="124.998" y="0">t</tspan><tspan x="130.458" y="0">-</tspan><tspan class="e17baeae-6e21-45b1-bd66-d62fce0c2058" x="0" y="12">c</tspan><tspan x="6.361" y="12" letter-spacing=".004em">o</tspan><tspan x="13.833" y="12" letter-spacing="-.007em">n</tspan><tspan x="21.166" y="12" letter-spacing="-.001em">f</tspan><tspan x="26.67" y="12" letter-spacing=".002em">i</tspan><tspan x="30.147" y="12" letter-spacing=".015em">g</tspan><tspan x="38.028" y="12" letter-spacing=".014em">-</tspan><tspan x="43.834" y="12" letter-spacing=".005em">m</tspan><tspan class="bc6e961d-f2af-4355-b59f-3dd46216dec5" x="54.854" y="12">a</tspan><tspan class="e5201bb9-e072-40be-93ba-32bc8e2c2174" x="61.904" y="12">n</tspan><tspan class="a0d8ba3d-4250-414f-b1c1-ded5e88ea196" x="69.366" y="12">a</tspan><tspan x="76.354" y="12" letter-spacing=".005em">g</tspan><tspan x="84.123" y="12" letter-spacing=".003em">e</tspan><tspan x="91.264" y="12">d</tspan></text><path class="ba94523f-5a37-4006-9e25-ba605e6ff96f" d="M210 111.622h140v110H210z"/><text class="ba04e08e-49b4-4302-adb5-9845fd7a92f2" transform="translate(220 132.797)">deployments/router-<tspan x="0" y="12">default</tspan></text><circle class="fc30bab8-1b17-498e-84e7-45b4fea697ae" cx="280" cy="111.622" r="9"/><text class="bb910a35-8a4a-428b-a97d-a192a8b0b988" transform="translate(276.269 115.408)">3</text><path class="e049894e-8216-48c7-a68d-9a2ff5e11664" d="M395.324 136.622H380v50"/><path class="fc30bab8-1b17-498e-84e7-45b4fea697ae" d="M393.865 131.636l8.635 4.986-8.635 4.987v-9.973z"/><path class="e049894e-8216-48c7-a68d-9a2ff5e11664" d="M395.324 206.622H380v-20h-40"/><path class="fc30bab8-1b17-498e-84e7-45b4fea697ae" d="M393.865 201.636l8.635 4.986-8.635 4.987v-9.973z"/><path fill="#bfd9f2" d="M220 161.622h120v50H220z"/><text class="ba04e08e-49b4-4302-adb5-9845fd7a92f2" transform="translate(234.993 185.297)">secrets/router-<tspan x="6" y="12">certs-default</tspan></text><circle class="fc30bab8-1b17-498e-84e7-45b4fea697ae" cx="280" cy="161.622" r="9"/><text transform="translate(276.82 165.03)" font-size="9.9" fill="#fff" font-family="RedHatText-Bold,Red Hat Text" font-weight="700">2</text><path class="e049894e-8216-48c7-a68d-9a2ff5e11664" d="M210.324 186.622h-1.5"/><path stroke-dasharray="2.99 2.99" stroke="#151515" stroke-linecap="round" stroke-linejoin="round" fill="none" d="M205.834 186.622H87.745"/><path class="e049894e-8216-48c7-a68d-9a2ff5e11664" d="M86.25 186.622h-1.5v-1.5"/><path stroke-dasharray="3.143 3.143" stroke="#151515" stroke-linecap="round" stroke-linejoin="round" fill="none" d="M84.75 181.98v-17.286"/><path class="e049894e-8216-48c7-a68d-9a2ff5e11664" d="M84.75 163.122v-1.5"/><path class="fc30bab8-1b17-498e-84e7-45b4fea697ae" d="M208.865 181.636l8.635 4.986-8.635 4.987v-9.973z"/><path class="ba94523f-5a37-4006-9e25-ba605e6ff96f" d="M15 111.622h140v50H15z"/><text class="ba04e08e-49b4-4302-adb5-9845fd7a92f2" transform="translate(27.991 135.768)">ingresscontrollers/<tspan x="36.006" y="12">default</tspan></text><text class="e9eb4a2e-a4b7-4da8-b6c5-a13f90a88d60" transform="translate(33.927 28.42)"><tspan letter-spacing="-.025em">R</tspan><tspan class="b6efe6d6-265d-4b70-bd3a-19528ccecc6b" x="6.47" y="0">e</tspan><tspan x="12.05" y="0" letter-spacing="-.017em">f</tspan><tspan class="f5b59a20-dccf-401a-b20b-c56a2e94fc4d" x="15.99" y="0">e</tspan><tspan class="af2479de-8891-48f4-bc4e-97566a7067ba" x="21.72" y="0">r</tspan><tspan x="25.41" y="0">en</tspan><tspan class="b6efe6d6-265d-4b70-bd3a-19528ccecc6b" x="36.96" y="0">c</tspan><tspan class="f5b59a20-dccf-401a-b20b-c56a2e94fc4d" x="42.04" y="0">e</tspan></text><path class="e049894e-8216-48c7-a68d-9a2ff5e11664" d="M20.824 25.134h-1.5"/><path stroke-dasharray="3.465 3.465" stroke="#151515" stroke-linecap="round" stroke-linejoin="round" fill="none" d="M15.859 25.134H3.732"/><path class="e049894e-8216-48c7-a68d-9a2ff5e11664" d="M2 25.134H.5"/><path class="fc30bab8-1b17-498e-84e7-45b4fea697ae" d="M19.365 20.148L28 25.134l-8.635 4.987v-9.973z"/><text class="e9eb4a2e-a4b7-4da8-b6c5-a13f90a88d60" transform="translate(137.697 28.42)"><tspan class="be8f776d-43e1-4d1b-a6c1-5383377fdaf9">C</tspan><tspan x="7.08" y="0">o</tspan><tspan class="b6efe6d6-265d-4b70-bd3a-19528ccecc6b" x="13.06" y="0">n</tspan><tspan x="18.729" y="0" letter-spacing="-.007em">t</tspan><tspan x="22.8" y="0">e</tspan><tspan class="be8f776d-43e1-4d1b-a6c1-5383377fdaf9" x="28.53" y="0">n</tspan><tspan x="34.2" y="0" letter-spacing=".01em">t</tspan><tspan x="38.439" y="0" letter-spacing="0">s a</tspan><tspan class="af2479de-8891-48f4-bc4e-97566a7067ba" x="50.979" y="0">r</tspan><tspan x="54.669" y="0">e </tspan><tspan class="be8f776d-43e1-4d1b-a6c1-5383377fdaf9" x="62.649" y="0">c</tspan><tspan x="67.729" y="0">opi</tspan><tspan x="82.339" y="0" letter-spacing=".003em">e</tspan><tspan x="88.099" y="0">d</tspan></text><path class="e049894e-8216-48c7-a68d-9a2ff5e11664" d="M124.594 25.134h-20.323"/><path class="fc30bab8-1b17-498e-84e7-45b4fea697ae" d="M123.135 20.148l8.636 4.986-8.636 4.987v-9.973z"/><g><path class="e049894e-8216-48c7-a68d-9a2ff5e11664" d="M590.327 136.622H544.94"/><path class="fc30bab8-1b17-498e-84e7-45b4fea697ae" d="M588.868 131.636l8.635 4.986-8.635 4.987v-9.973z"/></g><g><path class="e049894e-8216-48c7-a68d-9a2ff5e11664" d="M395.324 276.622H155"/><path class="fc30bab8-1b17-498e-84e7-45b4fea697ae" d="M393.865 271.636l8.635 4.986-8.635 4.987v-9.973z"/></g><g><circle class="fc30bab8-1b17-498e-84e7-45b4fea697ae" cx="85" cy="111.622" r="9"/><text class="bb910a35-8a4a-428b-a97d-a192a8b0b988" transform="translate(80.949 115.408)">0</text></g><g><path class="e049894e-8216-48c7-a68d-9a2ff5e11664" d="M475 486.684v-25.385"/><path class="fc30bab8-1b17-498e-84e7-45b4fea697ae" d="M479.986 462.758L475 454.122l-4.987 8.636h9.973z"/></g><g><path class="e049894e-8216-48c7-a68d-9a2ff5e11664" d="M280 486.684v-25.385"/><path class="fc30bab8-1b17-498e-84e7-45b4fea697ae" d="M284.986 462.758L280 454.122l-4.986 8.636h9.972z"/></g><g><path class="e049894e-8216-48c7-a68d-9a2ff5e11664" d="M545 276.622h34.991v210.062H85v-25.385"/><path class="fc30bab8-1b17-498e-84e7-45b4fea697ae" d="M89.986 462.758L85 454.122l-4.986 8.636h9.972z"/></g><path class="ba94523f-5a37-4006-9e25-ba605e6ff96f" d="M405 111.622h140v50H405z"/><text class="ba04e08e-49b4-4302-adb5-9845fd7a92f2" transform="translate(429.993 135.768)">secrets/router-<tspan x="30.004" y="12">certs</tspan></text><g><circle class="fc30bab8-1b17-498e-84e7-45b4fea697ae" cx="475" cy="111.622" r="9"/><text class="bb910a35-8a4a-428b-a97d-a192a8b0b988" transform="translate(470.955 115.408)">4</text></g><path class="ba94523f-5a37-4006-9e25-ba605e6ff96f" d="M405 181.622h140v50H405z"/><text class="ba04e08e-49b4-4302-adb5-9845fd7a92f2" transform="translate(417.991 205.768)">configmaps/default-<tspan x="21.003" y="12">ingress-cert</tspan></text><g><circle class="fc30bab8-1b17-498e-84e7-45b4fea697ae" cx="475" cy="181.622" r="9"/><text class="bb910a35-8a4a-428b-a97d-a192a8b0b988" transform="translate(471.17 185.408)">6</text></g><path class="ba94523f-5a37-4006-9e25-ba605e6ff96f" d="M15 251.622h140v50H15z"/><text class="ba04e08e-49b4-4302-adb5-9845fd7a92f2" transform="translate(33.991 281.768)">secrets/router-ca</text><g><circle class="fc30bab8-1b17-498e-84e7-45b4fea697ae" cx="85" cy="251.622" r="9"/><text class="bb910a35-8a4a-428b-a97d-a192a8b0b988" transform="translate(82.632 255.408)">1</text></g><text class="b886b340-dd4f-4e42-9ce2-0c15271a493f" transform="translate(405 364.947)"><tspan class="b146132e-c5da-4947-a12a-81735c5283f2">n</tspan><tspan class="adf52f01-ab53-46bc-b41d-04333d8e6253" x="6.883" y="0">a</tspan><tspan class="bdac0b58-971a-4d37-b75e-97165a046c75" x="13.388" y="0">me</tspan><tspan class="bcac0a39-2a5e-4afd-bc5a-00f8e6abd3d6" x="30.135" y="0">s</tspan><tspan class="b02e4579-b7a4-4103-af02-6702e000a808" x="35.887" y="0">p</tspan><tspan class="bab0169d-68f8-4eff-ae0b-e855cc25974e" x="42.993" y="0">a</tspan><tspan class="ad5f8bbf-0da6-40ac-8888-d88608b94204" x="49.441" y="0">c</tspan><tspan class="afbd86e9-a477-4df8-9126-681aca2c7caf" x="55.317" y="0">e</tspan><tspan class="a7e66335-a73d-42ec-a019-b3b77577f22b" x="61.629" y="0">/</tspan><tspan class="a10ed8b0-27f9-477f-a66c-1373881abdd0" x="66.745" y="0">o</tspan><tspan class="bcc3d0f5-40d7-4de4-9842-7cb78b143074" x="73.638" y="0">p</tspan><tspan class="a4b9cc82-ded1-45db-b5a4-56c05a5aa265" x="80.767" y="0">e</tspan><tspan class="aa965789-b033-4bdf-8fe2-e8e6fc446d37" x="87.386" y="0">n</tspan><tspan class="a7591b12-26b5-4909-80a1-745af6c97f54" x="94.345" y="0">s</tspan><tspan class="e44104a5-5839-49ff-8ab2-7a73427b682a" x="100.098" y="0">h</tspan><tspan class="ac7515ae-9a76-4fc6-b264-2b7e75af50cc" x="107.021" y="0">i</tspan><tspan class="a41580b9-91d8-43db-8eac-287a1f8be572" x="110.167" y="0">f</tspan><tspan class="fc50a775-7e00-4652-a5b1-beffc0a190cf" x="115.374" y="0">t</tspan><tspan x="120.426" y="0">-</tspan><tspan class="ad5f8bbf-0da6-40ac-8888-d88608b94204" x="0" y="12">c</tspan><tspan class="a10ed8b0-27f9-477f-a66c-1373881abdd0" x="5.876" y="12">o</tspan><tspan x="12.769" y="12" letter-spacing=".015em">n</tspan><tspan x="19.729" y="12" letter-spacing=".005em">s</tspan><tspan class="a10ed8b0-27f9-477f-a66c-1373881abdd0" x="25.409" y="12">ol</tspan><tspan x="35.554" y="12">e</tspan></text><path class="ba94523f-5a37-4006-9e25-ba605e6ff96f" d="M405 251.622h140v50H405z"/><text class="ba04e08e-49b4-4302-adb5-9845fd7a92f2" transform="translate(441.995 275.768)">configmaps/<tspan x="6" y="12">router-ca</tspan></text><g><circle class="fc30bab8-1b17-498e-84e7-45b4fea697ae" cx="475" cy="251.622" r="9"/><text class="bb910a35-8a4a-428b-a97d-a192a8b0b988" transform="translate(471.362 255.408)">5</text></g><g><text transform="translate(668.722 486.863)" font-family="RedHatText-Regular,Red Hat Text" font-size="10" fill="#f3f3f3">75_OpenShift_0520</text><path fill="none" d="M0 463.845h760v40H0z"/></g></svg>