<svg id="a2d3ba1c-0d1c-41aa-a0dc-8eca715ea6fd" data-name="artwork" xmlns="http://www.w3.org/2000/svg" width="760" height="524.345"><defs><style>.b37cefc7-c89d-4ef2-988c-5dde7ab8e95e,.fca2d143-abea-490f-810c-15a93fa50fd2{font-size:10px}.e2cc6248-c92f-4507-a9e7-43678bd21c2c{fill:#f3f3f3}.ef01564f-8331-4b8b-b5ad-8085b8afa415{fill:none}.b0a61633-007d-41ce-814d-9cb2809d6034,.b6703298-2bab-4bba-9644-03677d2bebd8{font-size:11px}.b37cefc7-c89d-4ef2-988c-5dde7ab8e95e,.b6703298-2bab-4bba-9644-03677d2bebd8,.b68a61d3-91fa-4e98-a82c-0fae86178048,.e2658319-e9f8-4277-963f-4aa6ae2cffc0,.fca2d143-abea-490f-810c-15a93fa50fd2{fill:#151515}.b0a61633-007d-41ce-814d-9cb2809d6034,.b6703298-2bab-4bba-9644-03677d2bebd8,.b68a61d3-91fa-4e98-a82c-0fae86178048{font-family:RedHatText,&quot;Red Hat Text&quot;,Overpass,&quot;Helvetica Neue&quot;,Arial,sans-serif;font-weight:700}.b256c96d-06f1-4f5c-ab01-e978e3f548ff{letter-spacing:.008em}.ae6cb532-c279-49cb-86bc-cd2aeb5d58be{letter-spacing:.012em}.f9a28ac0-72ec-4cce-87eb-601af228042c{letter-spacing:.009em}.f1de2d9c-8e0b-4762-a4a7-220803d8d423{letter-spacing:.012em}.bcef62c0-7bc7-41fb-bc98-8e23ec4cffad{letter-spacing:.002em}.a6dec0f4-23ea-4b3b-a1a4-2af4ff159b07{letter-spacing:.007em}.e435177c-c8cb-423e-8d64-f241b6ea28e6{letter-spacing:-.005em}.ae2b1719-f423-4b1a-824a-133be01c3424{letter-spacing:-.018em}.ec0350a5-0b13-4bb5-8ba1-e220a209fa6f{letter-spacing:-.069em}.a723c12f-b79d-4f32-843f-017bf9dadf96{letter-spacing:.008em}.eb5ac40d-1905-430c-ae71-eb9c50af100c{letter-spacing:.004em}.bf4eb03a-ac0b-441a-90fb-7e1a91f1e076{letter-spacing:.01em}.a3912432-ceb5-40e7-9813-54224b8019ba{letter-spacing:.015em}.b7bbafbe-ea6d-4a09-be8c-d81609906323{letter-spacing:.012em}.af727f79-cf97-4195-bff2-ec9c5487bff0{letter-spacing:.011em}.aacb8b8d-ce46-4b2a-ac9d-1b239efa7427{letter-spacing:-.002em}.a5837f0b-2958-4e55-aa6e-cac81dbe8cb3{letter-spacing:.013em}.a33c094e-b4a8-44ee-9c73-bfd32f96441a{letter-spacing:.001em}.aa60574b-511e-4154-bec8-ce94b5dc0dc9{letter-spacing:.022em}.fe991ced-a29e-4885-a629-2e5bb27fc7ab{letter-spacing:.007em}.fe087c96-c9e7-4ac9-b6e7-019522167b36{letter-spacing:-.002em}.ec0fadf9-ba4b-483b-807f-0f40e78eae3f{fill:#d9e8f7}.fca2d143-abea-490f-810c-15a93fa50fd2{font-family:LiberationMono,&quot;Liberation Mono&quot;,Consolas,Monaco,&quot;Andale Mono&quot;,monospace}.b0a61633-007d-41ce-814d-9cb2809d6034{fill:#fff}.ec155d49-f8dc-4fc9-872e-288eb39d5b4d{letter-spacing:.005em}.a6214446-ccc5-412d-9a89-450028790c75{letter-spacing:.012em}.f5212ef6-b48a-4cb6-945a-caf8c8fb7f5a{letter-spacing:.027em}.afdfc501-6ffb-4e6f-87d8-a921dfcf0ecf{letter-spacing:.008em}.b68a61d3-91fa-4e98-a82c-0fae86178048{font-size:12px}.e2d6ddf6-b426-426a-9223-7a21d95fb840{letter-spacing:.004em}.e8f8fbe3-ac20-4c7a-ab15-bcfc3ba0e113{letter-spacing:.009em}.b312871b-7fb0-43bc-a51f-f6032e06784d{letter-spacing:.005em}.b58bdae3-27dc-4a7c-a8c9-af6e8cac1127{letter-spacing:.008em}.a77bf1b1-e7d2-43b5-9a66-7a6d245694bf{letter-spacing:-.002em}.a84c2e80-00e5-47da-a35d-98583eee49e8{letter-spacing:.003em}.e55b8164-320c-4143-bb37-3bfffb3c7cc2{letter-spacing:-.009em}.bf87139d-7dbe-498f-aab2-f4fe554fcd0a{letter-spacing:-.023em}.fd12e034-4185-4558-aa11-622972b70d1e{letter-spacing:-.074em}.a24c5233-2e35-43f1-9c41-24ceeef641c5{letter-spacing:.004em}.a236d3b9-f9db-439d-b8c7-5695f217153a{letter-spacing:.006em}.e159ba53-6f1b-48d3-b4bd-51e702dbbd7c{letter-spacing:.011em}.aca0e01d-b8b7-4f13-a1b7-f95f9af7ef3c{letter-spacing:.008em}.e0936a01-d30a-4f9f-9dc0-06c63634fadc{letter-spacing:-.006em}.be31b943-d370-4d07-9bd0-183afd9c3614{letter-spacing:.01em}.fa00c589-e341-4b23-9299-5a321e40e350{letter-spacing:-.003em}.f8054b18-ab50-4dd1-9678-306967c15a89{letter-spacing:.007em}.bf4a9fd0-6758-4a18-8de4-c35d507d5762{letter-spacing:.005em}.e7a2a977-0cf5-4466-81c7-ea84dea3255c{letter-spacing:.008em}.eef4dcae-2102-4f54-9db3-d5852e0e32b9{letter-spacing:-.001em}.a72752f0-c54c-419d-8f8e-591e5fd7210d{letter-spacing:.006em}.ef01564f-8331-4b8b-b5ad-8085b8afa415{stroke:#151515;stroke-linecap:round;stroke-linejoin:round}.b37cefc7-c89d-4ef2-988c-5dde7ab8e95e{font-family:RedHatText,&quot;Red Hat Text&quot;,Overpass,&quot;Helvetica Neue&quot;,Arial,sans-serif;font-weight:500}.bb107851-a916-45d5-a2da-5ef878b9721c{letter-spacing:-.015em}.eb203ff0-3a3e-40b1-982c-1d9861ab6244{letter-spacing:0}.ad224ca0-4bc0-41f4-b6a4-0abbff171df1{letter-spacing:-.024em}.a5c6e314-e32e-49a7-8dd2-8e8fc10d1bc3{letter-spacing:-.015em}</style></defs><text transform="translate(668.722 507.363)" font-family="RedHatText,&quot;Red Hat Text&quot;,Overpass,&quot;Helvetica Neue&quot;,Arial,sans-serif" fill="#f3f3f3" font-size="10">75_OpenShift_0520</text><path fill="none" d="M0 484.345h760v40H0z"/><path class="e2cc6248-c92f-4507-a9e7-43678bd21c2c" d="M585 56.711h175v120H585z"/><text class="b6703298-2bab-4bba-9644-03677d2bebd8" transform="translate(600 82.535)"><tspan class="b256c96d-06f1-4f5c-ab01-e978e3f548ff">n</tspan><tspan class="ae6cb532-c279-49cb-86bc-cd2aeb5d58be" x="6.883" y="0">a</tspan><tspan class="f9a28ac0-72ec-4cce-87eb-601af228042c" x="13.388" y="0">me</tspan><tspan class="f1de2d9c-8e0b-4762-a4a7-220803d8d423" x="30.135" y="0">s</tspan><tspan class="bcef62c0-7bc7-41fb-bc98-8e23ec4cffad" x="35.887" y="0">p</tspan><tspan class="a6dec0f4-23ea-4b3b-a1a4-2af4ff159b07" x="42.993" y="0">a</tspan><tspan class="e435177c-c8cb-423e-8d64-f241b6ea28e6" x="49.441" y="0">c</tspan><tspan class="ae2b1719-f423-4b1a-824a-133be01c3424" x="55.317" y="0">e</tspan><tspan class="ec0350a5-0b13-4bb5-8ba1-e220a209fa6f" x="61.629" y="0">/</tspan><tspan class="a723c12f-b79d-4f32-843f-017bf9dadf96" x="66.745" y="0">o</tspan><tspan class="eb5ac40d-1905-430c-ae71-eb9c50af100c" x="73.638" y="0">p</tspan><tspan class="bf4eb03a-ac0b-441a-90fb-7e1a91f1e076" x="80.767" y="0">e</tspan><tspan class="a3912432-ceb5-40e7-9813-54224b8019ba" x="87.386" y="0">n</tspan><tspan class="b7bbafbe-ea6d-4a09-be8c-d81609906323" x="94.345" y="0">s</tspan><tspan class="af727f79-cf97-4195-bff2-ec9c5487bff0" x="100.098" y="0">h</tspan><tspan class="aacb8b8d-ce46-4b2a-ac9d-1b239efa7427" x="107.021" y="0">i</tspan><tspan class="a5837f0b-2958-4e55-aa6e-cac81dbe8cb3" x="110.167" y="0">f</tspan><tspan class="a33c094e-b4a8-44ee-9c73-bfd32f96441a" x="115.374" y="0">t</tspan><tspan x="120.426" y="0">-</tspan><tspan x="0" y="12" letter-spacing=".012em">a</tspan><tspan x="6.496" y="12" letter-spacing=".001em">u</tspan><tspan class="aa60574b-511e-4154-bec8-ce94b5dc0dc9" x="13.31" y="12">t</tspan><tspan class="fe991ced-a29e-4885-a629-2e5bb27fc7ab" x="18.593" y="12">h</tspan><tspan x="25.471" y="12" letter-spacing=".01em">e</tspan><tspan class="fe087c96-c9e7-4ac9-b6e7-019522167b36" x="32.089" y="12">n</tspan><tspan x="38.861" y="12" letter-spacing=".02em">t</tspan><tspan x="44.12" y="12" letter-spacing=".006em">i</tspan><tspan x="47.352" y="12" letter-spacing=".009em">c</tspan><tspan x="53.385" y="12" letter-spacing="-.003em">a</tspan><tspan x="59.717" y="12" letter-spacing=".02em">t</tspan><tspan x="64.977" y="12" letter-spacing=".006em">i</tspan><tspan class="a723c12f-b79d-4f32-843f-017bf9dadf96" x="68.207" y="12">o</tspan><tspan x="75.1" y="12">n</tspan></text><path class="ec0fadf9-ba4b-483b-807f-0f40e78eae3f" d="M599.75 111.711h145v50h-145z"/><text class="fca2d143-abea-490f-810c-15a93fa50fd2" transform="translate(612.24 135.768)">secrets/v4-0-config-<tspan x="3.001" y="12">system-router-certs</tspan></text><circle class="e2658319-e9f8-4277-963f-4aa6ae2cffc0" cx="672.25" cy="111.711" r="9"/><text class="b0a61633-007d-41ce-814d-9cb2809d6034" transform="translate(666.599 115.496)">12</text><path class="e2cc6248-c92f-4507-a9e7-43678bd21c2c" d="M390 341.622h170v125H390z"/><path class="ec0fadf9-ba4b-483b-807f-0f40e78eae3f" d="M405 401.622h140v50H405z"/><text class="fca2d143-abea-490f-810c-15a93fa50fd2" transform="translate(417.991 425.768)">configmaps/detault-<tspan x="21.003" y="12">ingress-cert</tspan></text><circle class="e2658319-e9f8-4277-963f-4aa6ae2cffc0" cx="475" cy="401.622" r="9"/><text class="b0a61633-007d-41ce-814d-9cb2809d6034" transform="translate(469.349 405.408)">12</text><path class="e2cc6248-c92f-4507-a9e7-43678bd21c2c" d="M0 341.622h170v125H0z"/><path class="ec0fadf9-ba4b-483b-807f-0f40e78eae3f" d="M14.75 401.534h140v50h-140z"/><text class="fca2d143-abea-490f-810c-15a93fa50fd2" transform="translate(51.745 425.768)">configmaps/<tspan x="-15.003" y="12">serviceacount-ca</tspan></text><circle class="e2658319-e9f8-4277-963f-4aa6ae2cffc0" cx="84.75" cy="401.534" r="9"/><text class="b0a61633-007d-41ce-814d-9cb2809d6034" transform="translate(79.099 405.32)">12</text><text class="b6703298-2bab-4bba-9644-03677d2bebd8" transform="translate(15 367.291)"><tspan class="b256c96d-06f1-4f5c-ab01-e978e3f548ff">n</tspan><tspan class="ae6cb532-c279-49cb-86bc-cd2aeb5d58be" x="6.883" y="0">a</tspan><tspan class="f9a28ac0-72ec-4cce-87eb-601af228042c" x="13.388" y="0">me</tspan><tspan class="f1de2d9c-8e0b-4762-a4a7-220803d8d423" x="30.135" y="0">s</tspan><tspan class="bcef62c0-7bc7-41fb-bc98-8e23ec4cffad" x="35.887" y="0">p</tspan><tspan class="a6dec0f4-23ea-4b3b-a1a4-2af4ff159b07" x="42.993" y="0">a</tspan><tspan class="e435177c-c8cb-423e-8d64-f241b6ea28e6" x="49.441" y="0">c</tspan><tspan class="ae2b1719-f423-4b1a-824a-133be01c3424" x="55.317" y="0">e</tspan><tspan class="ec0350a5-0b13-4bb5-8ba1-e220a209fa6f" x="61.629" y="0">/</tspan><tspan class="a723c12f-b79d-4f32-843f-017bf9dadf96" x="66.745" y="0">o</tspan><tspan class="eb5ac40d-1905-430c-ae71-eb9c50af100c" x="73.638" y="0">p</tspan><tspan class="bf4eb03a-ac0b-441a-90fb-7e1a91f1e076" x="80.767" y="0">e</tspan><tspan class="a3912432-ceb5-40e7-9813-54224b8019ba" x="87.386" y="0">n</tspan><tspan class="b7bbafbe-ea6d-4a09-be8c-d81609906323" x="94.345" y="0">s</tspan><tspan class="af727f79-cf97-4195-bff2-ec9c5487bff0" x="100.098" y="0">h</tspan><tspan class="aacb8b8d-ce46-4b2a-ac9d-1b239efa7427" x="107.021" y="0">i</tspan><tspan class="a5837f0b-2958-4e55-aa6e-cac81dbe8cb3" x="110.167" y="0">f</tspan><tspan class="a33c094e-b4a8-44ee-9c73-bfd32f96441a" x="115.374" y="0">t</tspan><tspan x="120.426" y="0">-</tspan><tspan class="ec155d49-f8dc-4fc9-872e-288eb39d5b4d" x="0" y="12">k</tspan><tspan class="a6214446-ccc5-412d-9a89-450028790c75" x="6.693" y="12">u</tspan><tspan class="eb5ac40d-1905-430c-ae71-eb9c50af100c" x="13.62" y="12">b</tspan><tspan class="f5212ef6-b48a-4cb6-945a-caf8c8fb7f5a" x="20.749" y="12">e</tspan><tspan x="27.556" y="12" letter-spacing=".025em">-</tspan><tspan class="e435177c-c8cb-423e-8d64-f241b6ea28e6" x="33.004" y="12">c</tspan><tspan class="a723c12f-b79d-4f32-843f-017bf9dadf96" x="38.88" y="12">o</tspan><tspan class="fe087c96-c9e7-4ac9-b6e7-019522167b36" x="45.772" y="12">n</tspan><tspan class="aa60574b-511e-4154-bec8-ce94b5dc0dc9" x="52.545" y="12">t</tspan><tspan x="57.828" y="12" letter-spacing=".002em">r</tspan><tspan class="a723c12f-b79d-4f32-843f-017bf9dadf96" x="62.718" y="12">o</tspan><tspan x="69.61" y="12" letter-spacing=".011em">l</tspan><tspan class="afdfc501-6ffb-4e6f-87d8-a921dfcf0ecf" x="72.896" y="12">l</tspan><tspan class="bf4eb03a-ac0b-441a-90fb-7e1a91f1e076" x="76.149" y="12">e</tspan><tspan x="82.769" y="12" letter-spacing=".004em">r</tspan><tspan x="87.673" y="12" letter-spacing=".018em">-</tspan><tspan x="93.037" y="12" letter-spacing=".009em">m</tspan><tspan class="ae6cb532-c279-49cb-86bc-cd2aeb5d58be" x="103.182" y="12">a</tspan><tspan class="b256c96d-06f1-4f5c-ab01-e978e3f548ff" x="109.687" y="12">n</tspan><tspan class="a6dec0f4-23ea-4b3b-a1a4-2af4ff159b07" x="116.569" y="12">a</tspan><tspan x="123.018" y="12" letter-spacing=".009em">ge</tspan><tspan x="136.796" y="12">r</tspan></text><path class="e2cc6248-c92f-4507-a9e7-43678bd21c2c" d="M195 341.622h170v125H195z"/><path class="ec0fadf9-ba4b-483b-807f-0f40e78eae3f" d="M210 401.82h140v50H210z"/><text class="fca2d143-abea-490f-810c-15a93fa50fd2" transform="translate(246.995 425.768)">configmaps/<tspan x="-15.003" y="12">serviceacount-ca</tspan></text><circle class="e2658319-e9f8-4277-963f-4aa6ae2cffc0" cx="280" cy="401.82" r="9"/><text class="b0a61633-007d-41ce-814d-9cb2809d6034" transform="translate(274.349 405.605)">12</text><text class="b6703298-2bab-4bba-9644-03677d2bebd8" transform="translate(210 366.791)"><tspan class="b256c96d-06f1-4f5c-ab01-e978e3f548ff">n</tspan><tspan class="ae6cb532-c279-49cb-86bc-cd2aeb5d58be" x="6.883" y="0">a</tspan><tspan class="f9a28ac0-72ec-4cce-87eb-601af228042c" x="13.388" y="0">me</tspan><tspan class="f1de2d9c-8e0b-4762-a4a7-220803d8d423" x="30.135" y="0">s</tspan><tspan class="bcef62c0-7bc7-41fb-bc98-8e23ec4cffad" x="35.887" y="0">p</tspan><tspan class="a6dec0f4-23ea-4b3b-a1a4-2af4ff159b07" x="42.993" y="0">a</tspan><tspan class="e435177c-c8cb-423e-8d64-f241b6ea28e6" x="49.441" y="0">c</tspan><tspan class="ae2b1719-f423-4b1a-824a-133be01c3424" x="55.317" y="0">e</tspan><tspan class="ec0350a5-0b13-4bb5-8ba1-e220a209fa6f" x="61.629" y="0">/</tspan><tspan class="a723c12f-b79d-4f32-843f-017bf9dadf96" x="66.745" y="0">o</tspan><tspan class="eb5ac40d-1905-430c-ae71-eb9c50af100c" x="73.638" y="0">p</tspan><tspan class="bf4eb03a-ac0b-441a-90fb-7e1a91f1e076" x="80.767" y="0">e</tspan><tspan class="a3912432-ceb5-40e7-9813-54224b8019ba" x="87.386" y="0">n</tspan><tspan class="b7bbafbe-ea6d-4a09-be8c-d81609906323" x="94.345" y="0">s</tspan><tspan class="af727f79-cf97-4195-bff2-ec9c5487bff0" x="100.098" y="0">h</tspan><tspan class="aacb8b8d-ce46-4b2a-ac9d-1b239efa7427" x="107.021" y="0">i</tspan><tspan class="a5837f0b-2958-4e55-aa6e-cac81dbe8cb3" x="110.167" y="0">f</tspan><tspan class="a33c094e-b4a8-44ee-9c73-bfd32f96441a" x="115.374" y="0">t</tspan><tspan x="120.426" y="0">-</tspan><tspan class="ec155d49-f8dc-4fc9-872e-288eb39d5b4d"><tspan x="0" y="12">k</tspan><tspan class="a6214446-ccc5-412d-9a89-450028790c75" x="6.693" y="12">u</tspan><tspan class="eb5ac40d-1905-430c-ae71-eb9c50af100c" x="13.62" y="12">b</tspan><tspan class="f5212ef6-b48a-4cb6-945a-caf8c8fb7f5a" x="20.749" y="12">e</tspan><tspan x="27.556" y="12" letter-spacing=".016em">-</tspan><tspan x="32.898" y="12" letter-spacing=".006em">s</tspan><tspan x="38.58" y="12" letter-spacing=".008em">c</tspan><tspan class="fe991ced-a29e-4885-a629-2e5bb27fc7ab" x="44.6" y="12">he</tspan><tspan x="58.068" y="12" letter-spacing=".013em">d</tspan><tspan class="a6214446-ccc5-412d-9a89-450028790c75" x="65.287" y="12">u</tspan><tspan class="afdfc501-6ffb-4e6f-87d8-a921dfcf0ecf" x="72.214" y="12">l</tspan><tspan class="bf4eb03a-ac0b-441a-90fb-7e1a91f1e076" x="75.468" y="12">e</tspan><tspan x="82.087" y="12" letter-spacing="0">r</tspan></tspan></text><path class="e2cc6248-c92f-4507-a9e7-43678bd21c2c" d="M390 56.711h170v260H390zM195 56.711h170v260H195zM0 56.711h170v260H0z"/><text class="b68a61d3-91fa-4e98-a82c-0fae86178048" transform="translate(210 80.035)"><tspan class="e2d6ddf6-b426-426a-9223-7a21d95fb840">n</tspan><tspan class="e8f8fbe3-ac20-4c7a-ab15-bcfc3ba0e113" x="7.462" y="0">a</tspan><tspan class="b312871b-7fb0-43bc-a51f-f6032e06784d" x="14.513" y="0">me</tspan><tspan class="b58bdae3-27dc-4a7c-a8c9-af6e8cac1127" x="32.688" y="0">s</tspan><tspan class="a77bf1b1-e7d2-43b5-9a66-7a6d245694bf" x="38.918" y="0">p</tspan><tspan class="a84c2e80-00e5-47da-a35d-98583eee49e8" x="46.622" y="0">a</tspan><tspan class="e55b8164-320c-4143-bb37-3bfffb3c7cc2" x="53.609" y="0">c</tspan><tspan class="bf87139d-7dbe-498f-aab2-f4fe554fcd0a" x="59.971" y="0">e</tspan><tspan class="fd12e034-4185-4558-aa11-622972b70d1e" x="66.801" y="0">/</tspan><tspan class="a24c5233-2e35-43f1-9c41-24ceeef641c5" x="72.318" y="0">o</tspan><tspan x="79.791" y="0">p</tspan><tspan class="a236d3b9-f9db-439d-b8c7-5695f217153a" x="87.519" y="0">e</tspan><tspan class="e159ba53-6f1b-48d3-b4bd-51e702dbbd7c" x="94.693" y="0">n</tspan><tspan class="b58bdae3-27dc-4a7c-a8c9-af6e8cac1127" x="102.24" y="0">s</tspan><tspan class="aca0e01d-b8b7-4f13-a1b7-f95f9af7ef3c" x="108.471" y="0">h</tspan><tspan class="e0936a01-d30a-4f9f-9dc0-06c63634fadc" x="115.979" y="0">i</tspan><tspan class="be31b943-d370-4d07-9bd0-183afd9c3614" x="119.362" y="0">f</tspan><tspan class="fa00c589-e341-4b23-9299-5a321e40e350" x="124.998" y="0">t</tspan><tspan x="130.458" y="0">-</tspan><tspan class="f8054b18-ab50-4dd1-9678-306967c15a89" x="0" y="12">i</tspan><tspan class="bf4a9fd0-6758-4a18-8de4-c35d507d5762" x="3.545" y="12">n</tspan><tspan class="e7a2a977-0cf5-4466-81c7-ea84dea3255c" x="11.023" y="12">g</tspan><tspan class="eef4dcae-2102-4f54-9db3-d5852e0e32b9" x="18.828" y="12">r</tspan><tspan class="b312871b-7fb0-43bc-a51f-f6032e06784d" x="24.115" y="12">e</tspan><tspan class="a72752f0-c54c-419d-8f8e-591e5fd7210d" x="31.276" y="12">s</tspan><tspan x="37.481" y="12">s</tspan></text><text class="b68a61d3-91fa-4e98-a82c-0fae86178048" transform="translate(15 80.035)"><tspan class="e2d6ddf6-b426-426a-9223-7a21d95fb840">n</tspan><tspan class="e8f8fbe3-ac20-4c7a-ab15-bcfc3ba0e113" x="7.462" y="0">a</tspan><tspan class="b312871b-7fb0-43bc-a51f-f6032e06784d" x="14.513" y="0">me</tspan><tspan class="b58bdae3-27dc-4a7c-a8c9-af6e8cac1127" x="32.688" y="0">s</tspan><tspan class="a77bf1b1-e7d2-43b5-9a66-7a6d245694bf" x="38.918" y="0">p</tspan><tspan class="a84c2e80-00e5-47da-a35d-98583eee49e8" x="46.622" y="0">a</tspan><tspan class="e55b8164-320c-4143-bb37-3bfffb3c7cc2" x="53.609" y="0">c</tspan><tspan class="bf87139d-7dbe-498f-aab2-f4fe554fcd0a" x="59.971" y="0">e</tspan><tspan class="fd12e034-4185-4558-aa11-622972b70d1e" x="66.801" y="0">/</tspan><tspan class="a24c5233-2e35-43f1-9c41-24ceeef641c5" x="72.318" y="0">o</tspan><tspan x="79.791" y="0">p</tspan><tspan class="a236d3b9-f9db-439d-b8c7-5695f217153a" x="87.519" y="0">e</tspan><tspan class="e159ba53-6f1b-48d3-b4bd-51e702dbbd7c" x="94.693" y="0">n</tspan><tspan class="b58bdae3-27dc-4a7c-a8c9-af6e8cac1127" x="102.24" y="0">s</tspan><tspan class="aca0e01d-b8b7-4f13-a1b7-f95f9af7ef3c" x="108.471" y="0">h</tspan><tspan class="e0936a01-d30a-4f9f-9dc0-06c63634fadc" x="115.979" y="0">i</tspan><tspan class="be31b943-d370-4d07-9bd0-183afd9c3614" x="119.362" y="0">f</tspan><tspan class="fa00c589-e341-4b23-9299-5a321e40e350" x="124.998" y="0">t</tspan><tspan x="130.458" y="0">-</tspan><tspan class="f8054b18-ab50-4dd1-9678-306967c15a89" x="0" y="12">i</tspan><tspan class="bf4a9fd0-6758-4a18-8de4-c35d507d5762" x="3.545" y="12">n</tspan><tspan class="e7a2a977-0cf5-4466-81c7-ea84dea3255c" x="11.023" y="12">g</tspan><tspan class="eef4dcae-2102-4f54-9db3-d5852e0e32b9" x="18.828" y="12">r</tspan><tspan class="b312871b-7fb0-43bc-a51f-f6032e06784d" x="24.115" y="12">e</tspan><tspan class="a72752f0-c54c-419d-8f8e-591e5fd7210d" x="31.276" y="12">s</tspan><tspan x="37.481" y="12" letter-spacing=".003em">s</tspan><tspan x="43.653" y="12" letter-spacing=".022em">-</tspan><tspan class="a24c5233-2e35-43f1-9c41-24ceeef641c5" x="49.552" y="12">o</tspan><tspan x="57.024" y="12">p</tspan><tspan class="a236d3b9-f9db-439d-b8c7-5695f217153a" x="64.752" y="12">e</tspan><tspan x="71.927" y="12" letter-spacing="-.001em">r</tspan><tspan x="77.22" y="12" letter-spacing="-.007em">a</tspan><tspan x="84.079" y="12" letter-spacing=".003em">to</tspan><tspan x="97.087" y="12">r</tspan></text><text class="b68a61d3-91fa-4e98-a82c-0fae86178048" transform="translate(405 80.035)"><tspan class="e2d6ddf6-b426-426a-9223-7a21d95fb840">n</tspan><tspan class="e8f8fbe3-ac20-4c7a-ab15-bcfc3ba0e113" x="7.462" y="0">a</tspan><tspan class="b312871b-7fb0-43bc-a51f-f6032e06784d" x="14.513" y="0">me</tspan><tspan class="b58bdae3-27dc-4a7c-a8c9-af6e8cac1127" x="32.688" y="0">s</tspan><tspan class="a77bf1b1-e7d2-43b5-9a66-7a6d245694bf" x="38.918" y="0">p</tspan><tspan class="a84c2e80-00e5-47da-a35d-98583eee49e8" x="46.622" y="0">a</tspan><tspan class="e55b8164-320c-4143-bb37-3bfffb3c7cc2" x="53.609" y="0">c</tspan><tspan class="bf87139d-7dbe-498f-aab2-f4fe554fcd0a" x="59.971" y="0">e</tspan><tspan class="fd12e034-4185-4558-aa11-622972b70d1e" x="66.801" y="0">/</tspan><tspan class="a24c5233-2e35-43f1-9c41-24ceeef641c5" x="72.318" y="0">o</tspan><tspan x="79.791" y="0">p</tspan><tspan class="a236d3b9-f9db-439d-b8c7-5695f217153a" x="87.519" y="0">e</tspan><tspan class="e159ba53-6f1b-48d3-b4bd-51e702dbbd7c" x="94.693" y="0">n</tspan><tspan class="b58bdae3-27dc-4a7c-a8c9-af6e8cac1127" x="102.24" y="0">s</tspan><tspan class="aca0e01d-b8b7-4f13-a1b7-f95f9af7ef3c" x="108.471" y="0">h</tspan><tspan class="e0936a01-d30a-4f9f-9dc0-06c63634fadc" x="115.979" y="0">i</tspan><tspan class="be31b943-d370-4d07-9bd0-183afd9c3614" x="119.362" y="0">f</tspan><tspan class="fa00c589-e341-4b23-9299-5a321e40e350" x="124.998" y="0">t</tspan><tspan x="130.458" y="0">-</tspan><tspan class="e55b8164-320c-4143-bb37-3bfffb3c7cc2" x="0" y="12">c</tspan><tspan x="6.361" y="12" letter-spacing=".004em">o</tspan><tspan x="13.833" y="12" letter-spacing="-.007em">n</tspan><tspan x="21.166" y="12" letter-spacing="-.001em">f</tspan><tspan x="26.67" y="12" letter-spacing=".002em">i</tspan><tspan x="30.147" y="12" letter-spacing=".015em">g</tspan><tspan x="38.028" y="12" letter-spacing=".014em">-</tspan><tspan x="43.834" y="12" letter-spacing=".005em">m</tspan><tspan class="e8f8fbe3-ac20-4c7a-ab15-bcfc3ba0e113" x="54.854" y="12">a</tspan><tspan class="e2d6ddf6-b426-426a-9223-7a21d95fb840" x="61.904" y="12">n</tspan><tspan class="a84c2e80-00e5-47da-a35d-98583eee49e8" x="69.366" y="12">a</tspan><tspan x="76.354" y="12" letter-spacing=".005em">g</tspan><tspan x="84.123" y="12" letter-spacing=".003em">e</tspan><tspan x="91.264" y="12">d</tspan></text><path class="ec0fadf9-ba4b-483b-807f-0f40e78eae3f" d="M210 111.622h140v110H210z"/><text class="fca2d143-abea-490f-810c-15a93fa50fd2" transform="translate(220 132.797)">deployments/router-<tspan x="0" y="12">default</tspan></text><circle class="e2658319-e9f8-4277-963f-4aa6ae2cffc0" cx="280" cy="111.622" r="9"/><text class="b0a61633-007d-41ce-814d-9cb2809d6034" transform="translate(276.268 115.408)">3</text><path class="ef01564f-8331-4b8b-b5ad-8085b8afa415" d="M395.324 136.622H380v50"/><path class="e2658319-e9f8-4277-963f-4aa6ae2cffc0" d="M393.865 131.636l8.635 4.986-8.635 4.987v-9.973z"/><path class="ef01564f-8331-4b8b-b5ad-8085b8afa415" d="M395.324 206.622H380v-20h-40"/><path class="e2658319-e9f8-4277-963f-4aa6ae2cffc0" d="M393.865 201.636l8.635 4.986-8.635 4.987v-9.973z"/><path fill="#bfd9f2" d="M220 161.622h120v50H220z"/><text class="fca2d143-abea-490f-810c-15a93fa50fd2" transform="translate(234.993 185.297)">secrets/router-<tspan x="6" y="12">certs-default</tspan></text><circle class="e2658319-e9f8-4277-963f-4aa6ae2cffc0" cx="280" cy="161.622" r="9"/><text transform="translate(276.82 165.03)" font-size="9.9" fill="#fff" font-family="RedHatText,&quot;Red Hat Text&quot;,Overpass,&quot;Helvetica Neue&quot;,Arial,sans-serif" font-weight="700">2</text><path class="ef01564f-8331-4b8b-b5ad-8085b8afa415" d="M210.324 186.622h-1.5"/><path stroke-dasharray="2.99 2.99" stroke-linecap="round" stroke-linejoin="round" stroke="#151515" fill="none" d="M205.834 186.622H87.745"/><path class="ef01564f-8331-4b8b-b5ad-8085b8afa415" d="M86.25 186.622h-1.5v-1.5"/><path stroke-dasharray="3.143 3.143" stroke-linecap="round" stroke-linejoin="round" stroke="#151515" fill="none" d="M84.75 181.98v-17.286"/><path class="ef01564f-8331-4b8b-b5ad-8085b8afa415" d="M84.75 163.122v-1.5"/><path class="e2658319-e9f8-4277-963f-4aa6ae2cffc0" d="M208.865 181.636l8.635 4.986-8.635 4.987v-9.973z"/><path class="ec0fadf9-ba4b-483b-807f-0f40e78eae3f" d="M15 111.622h140v50H15z"/><text class="fca2d143-abea-490f-810c-15a93fa50fd2" transform="translate(27.991 135.768)">ingresscontrollers/<tspan x="36.006" y="12">default</tspan></text><text class="b37cefc7-c89d-4ef2-988c-5dde7ab8e95e" transform="translate(33.927 28.42)"><tspan letter-spacing="-.025em">R</tspan><tspan class="bb107851-a916-45d5-a2da-5ef878b9721c" x="6.47" y="0">e</tspan><tspan x="12.05" y="0" letter-spacing="-.017em">f</tspan><tspan class="eb203ff0-3a3e-40b1-982c-1d9861ab6244" x="15.99" y="0">e</tspan><tspan class="ad224ca0-4bc0-41f4-b6a4-0abbff171df1" x="21.72" y="0">r</tspan><tspan x="25.41" y="0">en</tspan><tspan class="bb107851-a916-45d5-a2da-5ef878b9721c" x="36.96" y="0">c</tspan><tspan class="eb203ff0-3a3e-40b1-982c-1d9861ab6244" x="42.04" y="0">e</tspan></text><path class="ef01564f-8331-4b8b-b5ad-8085b8afa415" d="M20.824 25.134h-1.5"/><path stroke-dasharray="3.465 3.465" stroke-linecap="round" stroke-linejoin="round" stroke="#151515" fill="none" d="M15.859 25.134H3.732"/><path class="ef01564f-8331-4b8b-b5ad-8085b8afa415" d="M2 25.134H.5"/><path class="e2658319-e9f8-4277-963f-4aa6ae2cffc0" d="M19.365 20.148L28 25.134l-8.635 4.987v-9.973z"/><text class="b37cefc7-c89d-4ef2-988c-5dde7ab8e95e" transform="translate(137.697 28.42)"><tspan class="a5c6e314-e32e-49a7-8dd2-8e8fc10d1bc3">C</tspan><tspan x="7.08" y="0">o</tspan><tspan class="bb107851-a916-45d5-a2da-5ef878b9721c" x="13.06" y="0">n</tspan><tspan x="18.729" y="0" letter-spacing="-.007em">t</tspan><tspan x="22.8" y="0">e</tspan><tspan class="a5c6e314-e32e-49a7-8dd2-8e8fc10d1bc3" x="28.53" y="0">n</tspan><tspan x="34.2" y="0" letter-spacing=".01em">t</tspan><tspan x="38.439" y="0" letter-spacing="0">s a</tspan><tspan class="ad224ca0-4bc0-41f4-b6a4-0abbff171df1" x="50.979" y="0">r</tspan><tspan x="54.669" y="0">e </tspan><tspan class="a5c6e314-e32e-49a7-8dd2-8e8fc10d1bc3" x="62.649" y="0">c</tspan><tspan x="67.729" y="0">opi</tspan><tspan x="82.339" y="0" letter-spacing=".003em">e</tspan><tspan x="88.099" y="0">d</tspan></text><path class="ef01564f-8331-4b8b-b5ad-8085b8afa415" d="M124.594 25.134H104.27"/><path class="e2658319-e9f8-4277-963f-4aa6ae2cffc0" d="M123.135 20.148l8.635 4.986-8.635 4.987v-9.973z"/><g><path class="ef01564f-8331-4b8b-b5ad-8085b8afa415" d="M590.327 136.622H544.94"/><path class="e2658319-e9f8-4277-963f-4aa6ae2cffc0" d="M588.868 131.636l8.635 4.986-8.635 4.987v-9.973z"/></g><g><path class="ef01564f-8331-4b8b-b5ad-8085b8afa415" d="M395.324 276.622H155"/><path class="e2658319-e9f8-4277-963f-4aa6ae2cffc0" d="M393.865 271.636l8.635 4.986-8.635 4.987v-9.973z"/></g><g><circle class="e2658319-e9f8-4277-963f-4aa6ae2cffc0" cx="85" cy="111.622" r="9"/><text class="b0a61633-007d-41ce-814d-9cb2809d6034" transform="translate(80.949 115.408)">0</text></g><g><path class="ef01564f-8331-4b8b-b5ad-8085b8afa415" d="M280 506.684v-45.385"/><path class="e2658319-e9f8-4277-963f-4aa6ae2cffc0" d="M284.986 462.758L280 454.122l-4.986 8.636h9.972z"/></g><g><path class="ef01564f-8331-4b8b-b5ad-8085b8afa415" d="M545 276.622h34.991v230.062H85v-45.385"/><path class="e2658319-e9f8-4277-963f-4aa6ae2cffc0" d="M89.986 462.758L85 454.122l-4.986 8.636h9.972z"/></g><path class="ec0fadf9-ba4b-483b-807f-0f40e78eae3f" d="M405 111.622h140v50H405z"/><text class="fca2d143-abea-490f-810c-15a93fa50fd2" transform="translate(429.993 135.768)">secrets/router-<tspan x="30.004" y="12">certs</tspan></text><g><circle class="e2658319-e9f8-4277-963f-4aa6ae2cffc0" cx="475" cy="111.622" r="9"/><text class="b0a61633-007d-41ce-814d-9cb2809d6034" transform="translate(470.955 115.408)">4</text></g><path class="ec0fadf9-ba4b-483b-807f-0f40e78eae3f" d="M405 181.622h140v50H405z"/><text class="fca2d143-abea-490f-810c-15a93fa50fd2" transform="translate(417.991 205.768)">configmaps/default-<tspan x="21.003" y="12">ingress-cert</tspan></text><g><circle class="e2658319-e9f8-4277-963f-4aa6ae2cffc0" cx="475" cy="181.622" r="9"/><text class="b0a61633-007d-41ce-814d-9cb2809d6034" transform="translate(471.17 185.408)">6</text></g><path class="ec0fadf9-ba4b-483b-807f-0f40e78eae3f" d="M15 251.622h140v50H15z"/><text class="fca2d143-abea-490f-810c-15a93fa50fd2" transform="translate(33.991 281.768)">secrets/router-ca</text><g><circle class="e2658319-e9f8-4277-963f-4aa6ae2cffc0" cx="85" cy="251.622" r="9"/><text class="b0a61633-007d-41ce-814d-9cb2809d6034" transform="translate(82.632 255.408)">1</text></g><text class="b6703298-2bab-4bba-9644-03677d2bebd8" transform="translate(405 364.947)"><tspan class="b256c96d-06f1-4f5c-ab01-e978e3f548ff">n</tspan><tspan class="ae6cb532-c279-49cb-86bc-cd2aeb5d58be" x="6.883" y="0">a</tspan><tspan class="f9a28ac0-72ec-4cce-87eb-601af228042c" x="13.388" y="0">me</tspan><tspan class="f1de2d9c-8e0b-4762-a4a7-220803d8d423" x="30.135" y="0">s</tspan><tspan class="bcef62c0-7bc7-41fb-bc98-8e23ec4cffad" x="35.887" y="0">p</tspan><tspan class="a6dec0f4-23ea-4b3b-a1a4-2af4ff159b07" x="42.993" y="0">a</tspan><tspan class="e435177c-c8cb-423e-8d64-f241b6ea28e6" x="49.441" y="0">c</tspan><tspan class="ae2b1719-f423-4b1a-824a-133be01c3424" x="55.317" y="0">e</tspan><tspan class="ec0350a5-0b13-4bb5-8ba1-e220a209fa6f" x="61.629" y="0">/</tspan><tspan class="a723c12f-b79d-4f32-843f-017bf9dadf96" x="66.745" y="0">o</tspan><tspan class="eb5ac40d-1905-430c-ae71-eb9c50af100c" x="73.638" y="0">p</tspan><tspan class="bf4eb03a-ac0b-441a-90fb-7e1a91f1e076" x="80.767" y="0">e</tspan><tspan class="a3912432-ceb5-40e7-9813-54224b8019ba" x="87.386" y="0">n</tspan><tspan class="b7bbafbe-ea6d-4a09-be8c-d81609906323" x="94.345" y="0">s</tspan><tspan class="af727f79-cf97-4195-bff2-ec9c5487bff0" x="100.098" y="0">h</tspan><tspan class="aacb8b8d-ce46-4b2a-ac9d-1b239efa7427" x="107.021" y="0">i</tspan><tspan class="a5837f0b-2958-4e55-aa6e-cac81dbe8cb3" x="110.167" y="0">f</tspan><tspan class="a33c094e-b4a8-44ee-9c73-bfd32f96441a" x="115.374" y="0">t</tspan><tspan x="120.426" y="0">-</tspan><tspan class="e435177c-c8cb-423e-8d64-f241b6ea28e6" x="0" y="12">c</tspan><tspan class="a723c12f-b79d-4f32-843f-017bf9dadf96" x="5.876" y="12">o</tspan><tspan x="12.769" y="12" letter-spacing=".015em">n</tspan><tspan x="19.729" y="12" letter-spacing=".005em">s</tspan><tspan class="a723c12f-b79d-4f32-843f-017bf9dadf96" x="25.409" y="12">ol</tspan><tspan x="35.554" y="12">e</tspan></text><path class="ec0fadf9-ba4b-483b-807f-0f40e78eae3f" d="M405 251.622h140v50H405z"/><text class="fca2d143-abea-490f-810c-15a93fa50fd2" transform="translate(441.995 275.768)">configmaps/<tspan x="6" y="12">router-ca</tspan></text><g><circle class="e2658319-e9f8-4277-963f-4aa6ae2cffc0" cx="475" cy="251.622" r="9"/><text class="b0a61633-007d-41ce-814d-9cb2809d6034" transform="translate(471.362 255.408)">5</text></g><path stroke="#fff" stroke-width="8" stroke-linecap="round" stroke-linejoin="round" fill="none" d="M587.678 486.683h-21.601"/><g><path class="ef01564f-8331-4b8b-b5ad-8085b8afa415" d="M545 205.768h54.991v280.916H475v-25.385"/><path class="e2658319-e9f8-4277-963f-4aa6ae2cffc0" d="M479.987 462.758L475 454.122l-4.986 8.636h9.973z"/></g></svg>