<svg id="f8863ab0-3e32-4b89-ac3e-36348357614b" data-name="artwork" xmlns="http://www.w3.org/2000/svg" width="760" height="463.845"><defs><style>.acaf3ffc-218d-4970-b12f-563f6e372118{fill:#f3f3f3}.aebdbc7e-26b9-4d60-9ebd-e0f050dde109,.b29f16aa-4bfc-4a65-a734-33aef807cbee{font-size:11px}.b29f16aa-4bfc-4a65-a734-33aef807cbee,.b2ad66aa-6fd1-4097-9b3a-2154489b1022,.b36e754d-650a-4731-821e-4ce15afebc15,.ba8983cc-f7db-4d4d-8bd7-a856ef2b11cb,.fd0444e3-7180-47f9-8da2-a6618fb428d8{fill:#151515}.aebdbc7e-26b9-4d60-9ebd-e0f050dde109,.b29f16aa-4bfc-4a65-a734-33aef807cbee,.b36e754d-650a-4731-821e-4ce15afebc15{font-family:RedHatText,&quot;Red Hat Text&quot;,Overpass,&quot;Helvetica Neue&quot;,Arial,sans-serif;font-weight:700}.ea8e6977-e0f1-4cfe-a8c6-28282f51b457{letter-spacing:.008em}.bce89848-8fcb-40de-a30f-6a59b2560370{letter-spacing:.012em}.a5615fdb-a0e3-43c8-b4f2-7aede6054734{letter-spacing:.009em}.a8ffeb41-01e6-4aad-b443-56cfbf1007a7{letter-spacing:.012em}.ad635266-3b80-4956-80dd-575598255fb2{letter-spacing:.002em}.af224ca9-fadd-4931-b5d2-574322cdfe6d{letter-spacing:.007em}.b8290bb7-4490-4365-841f-9e6a7fe9c583{letter-spacing:-.005em}.a44686bb-ce10-4c6a-aa6f-73b91b81e8c7{letter-spacing:-.018em}.e0c65b2b-a10e-4747-92a3-1b5e0ed3f6e1{letter-spacing:-.069em}.f75ddb35-6345-45a9-92ca-b5e92fefb98b{letter-spacing:.008em}.f7073f44-9db4-4579-bfb6-78ca36c79630{letter-spacing:.004em}.b29b1e51-75cf-4932-aa0b-de3eebf834e3{letter-spacing:.01em}.e5f83aa2-95f8-46d3-a11a-02e8cec1dcf7{letter-spacing:.015em}.ba4c2b9b-2261-4331-baa3-a33f4cbbee06{letter-spacing:.012em}.f0604f69-0fc8-4d02-aaee-95e78064b9eb{letter-spacing:.011em}.b792a11e-f7fb-4fe2-a4b2-01000ad88c85{letter-spacing:-.002em}.e680da50-fb81-48f0-979f-2ef61eb122c5{letter-spacing:.013em}.b8742427-0cb4-4888-9a7f-f949acb539de{letter-spacing:.001em}.f6d7e99a-daa8-47c9-a66d-8da90d1bfa16{letter-spacing:.022em}.a4eda0c0-5512-44ac-b711-89d8173e8756{letter-spacing:.007em}.b3ad0458-6462-45d4-a1d2-e29c90316119{letter-spacing:-.002em}.f8204c8f-23e2-4e3e-97f4-c9ae40ac2140{fill:#d9e8f7}.b2ad66aa-6fd1-4097-9b3a-2154489b1022,.ba8983cc-f7db-4d4d-8bd7-a856ef2b11cb{font-size:10px}.ba8983cc-f7db-4d4d-8bd7-a856ef2b11cb{font-family:LiberationMono,&quot;Liberation Mono&quot;,Consolas,Monaco,&quot;Andale Mono&quot;,monospace}.aebdbc7e-26b9-4d60-9ebd-e0f050dde109{fill:#fff}.a5ab3691-ff47-440c-9c36-0e2f66e43c56{letter-spacing:.005em}.f25df914-6f61-4c0a-9cfb-3a6385fcc84d{letter-spacing:.012em}.a390ef24-d575-4879-9cd0-d0a3849caf99{letter-spacing:.027em}.e94a41da-6047-44b9-bdc0-2db689da09a0{letter-spacing:.008em}.b36e754d-650a-4731-821e-4ce15afebc15{font-size:12px}.bbbafc55-2e5b-46fd-aea9-1b2d1944f2a6{letter-spacing:.004em}.b8b108d2-09b4-4722-80b1-db05a3bcf227{letter-spacing:.009em}.e5e63384-b171-4c48-baa3-9d64e25a741d{letter-spacing:.005em}.ac5e9165-5e1a-4f39-8d78-df3204529002{letter-spacing:.008em}.e005e10d-f2d5-492a-afa9-0f0ae4385c23{letter-spacing:-.002em}.eb69acf8-1d3d-42c0-8b0b-a91ce681e63d{letter-spacing:.003em}.a0b93d56-499a-4a23-8d91-235722b94ae8{letter-spacing:-.009em}.ea5e77c8-6a45-4fe1-8b7a-c68caaf58796{letter-spacing:-.023em}.e66471be-4c11-48f5-87b2-6f70c824e0fe{letter-spacing:-.074em}.e0e509fd-1dd5-47c6-9abb-816b3a1ca85a{letter-spacing:.004em}.a3f89df2-4a6f-4454-a3f1-c0e789b14e83{letter-spacing:.006em}.b6f674c9-f999-473d-906d-8ccac23950d6{letter-spacing:.011em}.a350d213-f7fd-4893-bcf0-1efb88d67ff1{letter-spacing:.008em}.f73a1de6-95ed-4041-bdef-9893bffee068{letter-spacing:-.006em}.b8549657-d9f0-4c30-8b3b-a7b341de58ee{letter-spacing:.01em}.a48e1505-26b5-4051-a982-f12ba38e438f{letter-spacing:-.003em}.aa7d68ee-0dc7-4d87-a86f-1e7c1549e145{letter-spacing:.007em}.a4168e8b-fcb5-4c53-8e16-588b2a955bb0{letter-spacing:.005em}.a6b4013b-1905-4d2b-91b2-24a971426eec{letter-spacing:.008em}.e273d5c8-32f1-414d-a5ca-f9d8435fbca5{letter-spacing:-.001em}.f2ac6e65-04c7-465b-9ea2-ba808276cd42{letter-spacing:.006em}.b2fc019e-f874-422a-8197-ab01f7952a84{fill:none;stroke:#151515;stroke-linecap:round;stroke-linejoin:round}.b2ad66aa-6fd1-4097-9b3a-2154489b1022{font-family:RedHatText,&quot;Red Hat Text&quot;,Overpass,&quot;Helvetica Neue&quot;,Arial,sans-serif;font-weight:500}.a6da5e96-fe97-4c2d-a115-e520c0f49b43{letter-spacing:-.015em}.ab52eac7-c26e-4da9-bdaa-5bf52573e019{letter-spacing:0}.b97d4971-d2a6-4dd7-98c8-77a72cc39b64{letter-spacing:-.024em}.ee170e02-87cd-4c81-8027-67326229fff4{letter-spacing:-.015em}</style></defs><path class="acaf3ffc-218d-4970-b12f-563f6e372118" d="M585 56.711h175v120H585z"/><text class="b29f16aa-4bfc-4a65-a734-33aef807cbee" transform="translate(600 82.535)"><tspan class="ea8e6977-e0f1-4cfe-a8c6-28282f51b457">n</tspan><tspan class="bce89848-8fcb-40de-a30f-6a59b2560370" x="6.883" y="0">a</tspan><tspan class="a5615fdb-a0e3-43c8-b4f2-7aede6054734" x="13.388" y="0">me</tspan><tspan class="a8ffeb41-01e6-4aad-b443-56cfbf1007a7" x="30.135" y="0">s</tspan><tspan class="ad635266-3b80-4956-80dd-575598255fb2" x="35.887" y="0">p</tspan><tspan class="af224ca9-fadd-4931-b5d2-574322cdfe6d" x="42.993" y="0">a</tspan><tspan class="b8290bb7-4490-4365-841f-9e6a7fe9c583" x="49.441" y="0">c</tspan><tspan class="a44686bb-ce10-4c6a-aa6f-73b91b81e8c7" x="55.317" y="0">e</tspan><tspan class="e0c65b2b-a10e-4747-92a3-1b5e0ed3f6e1" x="61.629" y="0">/</tspan><tspan class="f75ddb35-6345-45a9-92ca-b5e92fefb98b" x="66.745" y="0">o</tspan><tspan class="f7073f44-9db4-4579-bfb6-78ca36c79630" x="73.638" y="0">p</tspan><tspan class="b29b1e51-75cf-4932-aa0b-de3eebf834e3" x="80.767" y="0">e</tspan><tspan class="e5f83aa2-95f8-46d3-a11a-02e8cec1dcf7" x="87.386" y="0">n</tspan><tspan class="ba4c2b9b-2261-4331-baa3-a33f4cbbee06" x="94.345" y="0">s</tspan><tspan class="f0604f69-0fc8-4d02-aaee-95e78064b9eb" x="100.098" y="0">h</tspan><tspan class="b792a11e-f7fb-4fe2-a4b2-01000ad88c85" x="107.021" y="0">i</tspan><tspan class="e680da50-fb81-48f0-979f-2ef61eb122c5" x="110.167" y="0">f</tspan><tspan class="b8742427-0cb4-4888-9a7f-f949acb539de" x="115.374" y="0">t</tspan><tspan x="120.426" y="0">-</tspan><tspan x="0" y="12" letter-spacing=".012em">a</tspan><tspan x="6.496" y="12" letter-spacing=".001em">u</tspan><tspan class="f6d7e99a-daa8-47c9-a66d-8da90d1bfa16" x="13.31" y="12">t</tspan><tspan class="a4eda0c0-5512-44ac-b711-89d8173e8756" x="18.593" y="12">h</tspan><tspan x="25.471" y="12" letter-spacing=".01em">e</tspan><tspan class="b3ad0458-6462-45d4-a1d2-e29c90316119" x="32.089" y="12">n</tspan><tspan x="38.861" y="12" letter-spacing=".02em">t</tspan><tspan x="44.12" y="12" letter-spacing=".006em">i</tspan><tspan x="47.352" y="12" letter-spacing=".009em">c</tspan><tspan x="53.385" y="12" letter-spacing="-.003em">a</tspan><tspan x="59.717" y="12" letter-spacing=".02em">t</tspan><tspan x="64.977" y="12" letter-spacing=".006em">i</tspan><tspan class="f75ddb35-6345-45a9-92ca-b5e92fefb98b" x="68.207" y="12">o</tspan><tspan x="75.1" y="12">n</tspan></text><path class="f8204c8f-23e2-4e3e-97f4-c9ae40ac2140" d="M599.75 111.711h145v50h-145z"/><text class="ba8983cc-f7db-4d4d-8bd7-a856ef2b11cb" transform="translate(612.24 135.768)">secrets/v4-0-config-<tspan x="3.001" y="12">system-router-certs</tspan></text><circle class="fd0444e3-7180-47f9-8da2-a6618fb428d8" cx="672.25" cy="111.711" r="9"/><text class="aebdbc7e-26b9-4d60-9ebd-e0f050dde109" transform="translate(667.765 115.496)">11</text><path class="acaf3ffc-218d-4970-b12f-563f6e372118" d="M390 301.622h170v125H390z"/><path class="f8204c8f-23e2-4e3e-97f4-c9ae40ac2140" d="M405 361.622h140v50H405z"/><text class="ba8983cc-f7db-4d4d-8bd7-a856ef2b11cb" transform="translate(417.991 385.768)">configmaps/detault-<tspan x="21.003" y="12">ingress-cert</tspan></text><circle class="fd0444e3-7180-47f9-8da2-a6618fb428d8" cx="475" cy="361.622" r="9"/><text class="aebdbc7e-26b9-4d60-9ebd-e0f050dde109" transform="translate(470.515 365.408)">11</text><path class="acaf3ffc-218d-4970-b12f-563f6e372118" d="M0 301.622h170v125H0z"/><path class="f8204c8f-23e2-4e3e-97f4-c9ae40ac2140" d="M14.75 361.534h140v50h-140z"/><text class="ba8983cc-f7db-4d4d-8bd7-a856ef2b11cb" transform="translate(51.745 385.768)">configmaps/<tspan x="-15.003" y="12">serviceacount-ca</tspan></text><circle class="fd0444e3-7180-47f9-8da2-a6618fb428d8" cx="84.75" cy="361.534" r="9"/><text class="aebdbc7e-26b9-4d60-9ebd-e0f050dde109" transform="translate(80.265 365.32)">11</text><text class="b29f16aa-4bfc-4a65-a734-33aef807cbee" transform="translate(15 327.291)"><tspan class="ea8e6977-e0f1-4cfe-a8c6-28282f51b457">n</tspan><tspan class="bce89848-8fcb-40de-a30f-6a59b2560370" x="6.883" y="0">a</tspan><tspan class="a5615fdb-a0e3-43c8-b4f2-7aede6054734" x="13.388" y="0">me</tspan><tspan class="a8ffeb41-01e6-4aad-b443-56cfbf1007a7" x="30.135" y="0">s</tspan><tspan class="ad635266-3b80-4956-80dd-575598255fb2" x="35.887" y="0">p</tspan><tspan class="af224ca9-fadd-4931-b5d2-574322cdfe6d" x="42.993" y="0">a</tspan><tspan class="b8290bb7-4490-4365-841f-9e6a7fe9c583" x="49.441" y="0">c</tspan><tspan class="a44686bb-ce10-4c6a-aa6f-73b91b81e8c7" x="55.317" y="0">e</tspan><tspan class="e0c65b2b-a10e-4747-92a3-1b5e0ed3f6e1" x="61.629" y="0">/</tspan><tspan class="f75ddb35-6345-45a9-92ca-b5e92fefb98b" x="66.745" y="0">o</tspan><tspan class="f7073f44-9db4-4579-bfb6-78ca36c79630" x="73.638" y="0">p</tspan><tspan class="b29b1e51-75cf-4932-aa0b-de3eebf834e3" x="80.767" y="0">e</tspan><tspan class="e5f83aa2-95f8-46d3-a11a-02e8cec1dcf7" x="87.386" y="0">n</tspan><tspan class="ba4c2b9b-2261-4331-baa3-a33f4cbbee06" x="94.345" y="0">s</tspan><tspan class="f0604f69-0fc8-4d02-aaee-95e78064b9eb" x="100.098" y="0">h</tspan><tspan class="b792a11e-f7fb-4fe2-a4b2-01000ad88c85" x="107.021" y="0">i</tspan><tspan class="e680da50-fb81-48f0-979f-2ef61eb122c5" x="110.167" y="0">f</tspan><tspan class="b8742427-0cb4-4888-9a7f-f949acb539de" x="115.374" y="0">t</tspan><tspan x="120.426" y="0">-</tspan><tspan class="a5ab3691-ff47-440c-9c36-0e2f66e43c56" x="0" y="12">k</tspan><tspan class="f25df914-6f61-4c0a-9cfb-3a6385fcc84d" x="6.693" y="12">u</tspan><tspan class="f7073f44-9db4-4579-bfb6-78ca36c79630" x="13.62" y="12">b</tspan><tspan class="a390ef24-d575-4879-9cd0-d0a3849caf99" x="20.749" y="12">e</tspan><tspan x="27.556" y="12" letter-spacing=".025em">-</tspan><tspan class="b8290bb7-4490-4365-841f-9e6a7fe9c583" x="33.004" y="12">c</tspan><tspan class="f75ddb35-6345-45a9-92ca-b5e92fefb98b" x="38.88" y="12">o</tspan><tspan class="b3ad0458-6462-45d4-a1d2-e29c90316119" x="45.772" y="12">n</tspan><tspan class="f6d7e99a-daa8-47c9-a66d-8da90d1bfa16" x="52.545" y="12">t</tspan><tspan x="57.828" y="12" letter-spacing=".002em">r</tspan><tspan class="f75ddb35-6345-45a9-92ca-b5e92fefb98b" x="62.718" y="12">o</tspan><tspan x="69.61" y="12" letter-spacing=".011em">l</tspan><tspan class="e94a41da-6047-44b9-bdc0-2db689da09a0" x="72.896" y="12">l</tspan><tspan class="b29b1e51-75cf-4932-aa0b-de3eebf834e3" x="76.149" y="12">e</tspan><tspan x="82.769" y="12" letter-spacing=".004em">r</tspan><tspan x="87.673" y="12" letter-spacing=".018em">-</tspan><tspan x="93.037" y="12" letter-spacing=".009em">m</tspan><tspan class="bce89848-8fcb-40de-a30f-6a59b2560370" x="103.182" y="12">a</tspan><tspan class="ea8e6977-e0f1-4cfe-a8c6-28282f51b457" x="109.687" y="12">n</tspan><tspan class="af224ca9-fadd-4931-b5d2-574322cdfe6d" x="116.569" y="12">a</tspan><tspan x="123.018" y="12" letter-spacing=".009em">ge</tspan><tspan x="136.796" y="12">r</tspan></text><path class="acaf3ffc-218d-4970-b12f-563f6e372118" d="M195 301.622h170v125H195z"/><path class="f8204c8f-23e2-4e3e-97f4-c9ae40ac2140" d="M210 361.82h140v50H210z"/><text class="ba8983cc-f7db-4d4d-8bd7-a856ef2b11cb" transform="translate(246.995 385.768)">configmaps/<tspan x="-15.003" y="12">serviceacount-ca</tspan></text><circle class="fd0444e3-7180-47f9-8da2-a6618fb428d8" cx="280" cy="361.82" r="9"/><text class="aebdbc7e-26b9-4d60-9ebd-e0f050dde109" transform="translate(275.515 365.605)">11</text><text class="b29f16aa-4bfc-4a65-a734-33aef807cbee" transform="translate(210 326.791)"><tspan class="ea8e6977-e0f1-4cfe-a8c6-28282f51b457">n</tspan><tspan class="bce89848-8fcb-40de-a30f-6a59b2560370" x="6.883" y="0">a</tspan><tspan class="a5615fdb-a0e3-43c8-b4f2-7aede6054734" x="13.388" y="0">me</tspan><tspan class="a8ffeb41-01e6-4aad-b443-56cfbf1007a7" x="30.135" y="0">s</tspan><tspan class="ad635266-3b80-4956-80dd-575598255fb2" x="35.887" y="0">p</tspan><tspan class="af224ca9-fadd-4931-b5d2-574322cdfe6d" x="42.993" y="0">a</tspan><tspan class="b8290bb7-4490-4365-841f-9e6a7fe9c583" x="49.441" y="0">c</tspan><tspan class="a44686bb-ce10-4c6a-aa6f-73b91b81e8c7" x="55.317" y="0">e</tspan><tspan class="e0c65b2b-a10e-4747-92a3-1b5e0ed3f6e1" x="61.629" y="0">/</tspan><tspan class="f75ddb35-6345-45a9-92ca-b5e92fefb98b" x="66.745" y="0">o</tspan><tspan class="f7073f44-9db4-4579-bfb6-78ca36c79630" x="73.638" y="0">p</tspan><tspan class="b29b1e51-75cf-4932-aa0b-de3eebf834e3" x="80.767" y="0">e</tspan><tspan class="e5f83aa2-95f8-46d3-a11a-02e8cec1dcf7" x="87.386" y="0">n</tspan><tspan class="ba4c2b9b-2261-4331-baa3-a33f4cbbee06" x="94.345" y="0">s</tspan><tspan class="f0604f69-0fc8-4d02-aaee-95e78064b9eb" x="100.098" y="0">h</tspan><tspan class="b792a11e-f7fb-4fe2-a4b2-01000ad88c85" x="107.021" y="0">i</tspan><tspan class="e680da50-fb81-48f0-979f-2ef61eb122c5" x="110.167" y="0">f</tspan><tspan class="b8742427-0cb4-4888-9a7f-f949acb539de" x="115.374" y="0">t</tspan><tspan x="120.426" y="0">-</tspan><tspan class="a5ab3691-ff47-440c-9c36-0e2f66e43c56"><tspan x="0" y="12">k</tspan><tspan class="f25df914-6f61-4c0a-9cfb-3a6385fcc84d" x="6.693" y="12">u</tspan><tspan class="f7073f44-9db4-4579-bfb6-78ca36c79630" x="13.62" y="12">b</tspan><tspan class="a390ef24-d575-4879-9cd0-d0a3849caf99" x="20.749" y="12">e</tspan><tspan x="27.556" y="12" letter-spacing=".016em">-</tspan><tspan x="32.898" y="12" letter-spacing=".006em">s</tspan><tspan x="38.58" y="12" letter-spacing=".008em">c</tspan><tspan class="a4eda0c0-5512-44ac-b711-89d8173e8756" x="44.6" y="12">he</tspan><tspan x="58.068" y="12" letter-spacing=".013em">d</tspan><tspan class="f25df914-6f61-4c0a-9cfb-3a6385fcc84d" x="65.287" y="12">u</tspan><tspan class="e94a41da-6047-44b9-bdc0-2db689da09a0" x="72.214" y="12">l</tspan><tspan class="b29b1e51-75cf-4932-aa0b-de3eebf834e3" x="75.468" y="12">e</tspan><tspan x="82.087" y="12" letter-spacing="0">r</tspan></tspan></text><path class="acaf3ffc-218d-4970-b12f-563f6e372118" d="M390 56.711h170v220H390zM195 56.711h170v220H195zM0 56.711h170v220H0z"/><text class="b36e754d-650a-4731-821e-4ce15afebc15" transform="translate(210 80.035)"><tspan class="bbbafc55-2e5b-46fd-aea9-1b2d1944f2a6">n</tspan><tspan class="b8b108d2-09b4-4722-80b1-db05a3bcf227" x="7.462" y="0">a</tspan><tspan class="e5e63384-b171-4c48-baa3-9d64e25a741d" x="14.513" y="0">me</tspan><tspan class="ac5e9165-5e1a-4f39-8d78-df3204529002" x="32.688" y="0">s</tspan><tspan class="e005e10d-f2d5-492a-afa9-0f0ae4385c23" x="38.918" y="0">p</tspan><tspan class="eb69acf8-1d3d-42c0-8b0b-a91ce681e63d" x="46.622" y="0">a</tspan><tspan class="a0b93d56-499a-4a23-8d91-235722b94ae8" x="53.609" y="0">c</tspan><tspan class="ea5e77c8-6a45-4fe1-8b7a-c68caaf58796" x="59.971" y="0">e</tspan><tspan class="e66471be-4c11-48f5-87b2-6f70c824e0fe" x="66.801" y="0">/</tspan><tspan class="e0e509fd-1dd5-47c6-9abb-816b3a1ca85a" x="72.318" y="0">o</tspan><tspan x="79.791" y="0">p</tspan><tspan class="a3f89df2-4a6f-4454-a3f1-c0e789b14e83" x="87.519" y="0">e</tspan><tspan class="b6f674c9-f999-473d-906d-8ccac23950d6" x="94.693" y="0">n</tspan><tspan class="ac5e9165-5e1a-4f39-8d78-df3204529002" x="102.24" y="0">s</tspan><tspan class="a350d213-f7fd-4893-bcf0-1efb88d67ff1" x="108.471" y="0">h</tspan><tspan class="f73a1de6-95ed-4041-bdef-9893bffee068" x="115.979" y="0">i</tspan><tspan class="b8549657-d9f0-4c30-8b3b-a7b341de58ee" x="119.362" y="0">f</tspan><tspan class="a48e1505-26b5-4051-a982-f12ba38e438f" x="124.998" y="0">t</tspan><tspan x="130.458" y="0">-</tspan><tspan class="aa7d68ee-0dc7-4d87-a86f-1e7c1549e145" x="0" y="12">i</tspan><tspan class="a4168e8b-fcb5-4c53-8e16-588b2a955bb0" x="3.545" y="12">n</tspan><tspan class="a6b4013b-1905-4d2b-91b2-24a971426eec" x="11.023" y="12">g</tspan><tspan class="e273d5c8-32f1-414d-a5ca-f9d8435fbca5" x="18.828" y="12">r</tspan><tspan class="e5e63384-b171-4c48-baa3-9d64e25a741d" x="24.115" y="12">e</tspan><tspan class="f2ac6e65-04c7-465b-9ea2-ba808276cd42" x="31.276" y="12">s</tspan><tspan x="37.481" y="12">s</tspan></text><text class="b36e754d-650a-4731-821e-4ce15afebc15" transform="translate(15 80.035)"><tspan class="bbbafc55-2e5b-46fd-aea9-1b2d1944f2a6">n</tspan><tspan class="b8b108d2-09b4-4722-80b1-db05a3bcf227" x="7.462" y="0">a</tspan><tspan class="e5e63384-b171-4c48-baa3-9d64e25a741d" x="14.513" y="0">me</tspan><tspan class="ac5e9165-5e1a-4f39-8d78-df3204529002" x="32.688" y="0">s</tspan><tspan class="e005e10d-f2d5-492a-afa9-0f0ae4385c23" x="38.918" y="0">p</tspan><tspan class="eb69acf8-1d3d-42c0-8b0b-a91ce681e63d" x="46.622" y="0">a</tspan><tspan class="a0b93d56-499a-4a23-8d91-235722b94ae8" x="53.609" y="0">c</tspan><tspan class="ea5e77c8-6a45-4fe1-8b7a-c68caaf58796" x="59.971" y="0">e</tspan><tspan class="e66471be-4c11-48f5-87b2-6f70c824e0fe" x="66.801" y="0">/</tspan><tspan class="e0e509fd-1dd5-47c6-9abb-816b3a1ca85a" x="72.318" y="0">o</tspan><tspan x="79.791" y="0">p</tspan><tspan class="a3f89df2-4a6f-4454-a3f1-c0e789b14e83" x="87.519" y="0">e</tspan><tspan class="b6f674c9-f999-473d-906d-8ccac23950d6" x="94.693" y="0">n</tspan><tspan class="ac5e9165-5e1a-4f39-8d78-df3204529002" x="102.24" y="0">s</tspan><tspan class="a350d213-f7fd-4893-bcf0-1efb88d67ff1" x="108.471" y="0">h</tspan><tspan class="f73a1de6-95ed-4041-bdef-9893bffee068" x="115.979" y="0">i</tspan><tspan class="b8549657-d9f0-4c30-8b3b-a7b341de58ee" x="119.362" y="0">f</tspan><tspan class="a48e1505-26b5-4051-a982-f12ba38e438f" x="124.998" y="0">t</tspan><tspan x="130.458" y="0">-</tspan><tspan class="aa7d68ee-0dc7-4d87-a86f-1e7c1549e145" x="0" y="12">i</tspan><tspan class="a4168e8b-fcb5-4c53-8e16-588b2a955bb0" x="3.545" y="12">n</tspan><tspan class="a6b4013b-1905-4d2b-91b2-24a971426eec" x="11.023" y="12">g</tspan><tspan class="e273d5c8-32f1-414d-a5ca-f9d8435fbca5" x="18.828" y="12">r</tspan><tspan class="e5e63384-b171-4c48-baa3-9d64e25a741d" x="24.115" y="12">e</tspan><tspan class="f2ac6e65-04c7-465b-9ea2-ba808276cd42" x="31.276" y="12">s</tspan><tspan x="37.481" y="12" letter-spacing=".003em">s</tspan><tspan x="43.653" y="12" letter-spacing=".022em">-</tspan><tspan class="e0e509fd-1dd5-47c6-9abb-816b3a1ca85a" x="49.552" y="12">o</tspan><tspan x="57.024" y="12">p</tspan><tspan class="a3f89df2-4a6f-4454-a3f1-c0e789b14e83" x="64.752" y="12">e</tspan><tspan x="71.927" y="12" letter-spacing="-.001em">r</tspan><tspan x="77.22" y="12" letter-spacing="-.007em">a</tspan><tspan x="84.079" y="12" letter-spacing=".003em">to</tspan><tspan x="97.087" y="12">r</tspan></text><text class="b36e754d-650a-4731-821e-4ce15afebc15" transform="translate(405 80.035)"><tspan class="bbbafc55-2e5b-46fd-aea9-1b2d1944f2a6">n</tspan><tspan class="b8b108d2-09b4-4722-80b1-db05a3bcf227" x="7.462" y="0">a</tspan><tspan class="e5e63384-b171-4c48-baa3-9d64e25a741d" x="14.513" y="0">me</tspan><tspan class="ac5e9165-5e1a-4f39-8d78-df3204529002" x="32.688" y="0">s</tspan><tspan class="e005e10d-f2d5-492a-afa9-0f0ae4385c23" x="38.918" y="0">p</tspan><tspan class="eb69acf8-1d3d-42c0-8b0b-a91ce681e63d" x="46.622" y="0">a</tspan><tspan class="a0b93d56-499a-4a23-8d91-235722b94ae8" x="53.609" y="0">c</tspan><tspan class="ea5e77c8-6a45-4fe1-8b7a-c68caaf58796" x="59.971" y="0">e</tspan><tspan class="e66471be-4c11-48f5-87b2-6f70c824e0fe" x="66.801" y="0">/</tspan><tspan class="e0e509fd-1dd5-47c6-9abb-816b3a1ca85a" x="72.318" y="0">o</tspan><tspan x="79.791" y="0">p</tspan><tspan class="a3f89df2-4a6f-4454-a3f1-c0e789b14e83" x="87.519" y="0">e</tspan><tspan class="b6f674c9-f999-473d-906d-8ccac23950d6" x="94.693" y="0">n</tspan><tspan class="ac5e9165-5e1a-4f39-8d78-df3204529002" x="102.24" y="0">s</tspan><tspan class="a350d213-f7fd-4893-bcf0-1efb88d67ff1" x="108.471" y="0">h</tspan><tspan class="f73a1de6-95ed-4041-bdef-9893bffee068" x="115.979" y="0">i</tspan><tspan class="b8549657-d9f0-4c30-8b3b-a7b341de58ee" x="119.362" y="0">f</tspan><tspan class="a48e1505-26b5-4051-a982-f12ba38e438f" x="124.998" y="0">t</tspan><tspan x="130.458" y="0">-</tspan><tspan class="a0b93d56-499a-4a23-8d91-235722b94ae8" x="0" y="12">c</tspan><tspan x="6.361" y="12" letter-spacing=".004em">o</tspan><tspan x="13.833" y="12" letter-spacing="-.007em">n</tspan><tspan x="21.166" y="12" letter-spacing="-.001em">f</tspan><tspan x="26.67" y="12" letter-spacing=".002em">i</tspan><tspan x="30.147" y="12" letter-spacing=".015em">g</tspan><tspan x="38.028" y="12" letter-spacing=".014em">-</tspan><tspan x="43.834" y="12" letter-spacing=".005em">m</tspan><tspan class="b8b108d2-09b4-4722-80b1-db05a3bcf227" x="54.854" y="12">a</tspan><tspan class="bbbafc55-2e5b-46fd-aea9-1b2d1944f2a6" x="61.904" y="12">n</tspan><tspan class="eb69acf8-1d3d-42c0-8b0b-a91ce681e63d" x="69.366" y="12">a</tspan><tspan x="76.354" y="12" letter-spacing=".005em">g</tspan><tspan x="84.123" y="12" letter-spacing=".003em">e</tspan><tspan x="91.264" y="12">d</tspan></text><path class="f8204c8f-23e2-4e3e-97f4-c9ae40ac2140" d="M210 111.622h140v110H210z"/><text class="ba8983cc-f7db-4d4d-8bd7-a856ef2b11cb" transform="translate(220 132.797)">deployments/router-<tspan x="0" y="12">default</tspan></text><circle class="fd0444e3-7180-47f9-8da2-a6618fb428d8" cx="280" cy="111.622" r="9"/><text class="aebdbc7e-26b9-4d60-9ebd-e0f050dde109" transform="translate(276.268 115.408)">3</text><path class="b2fc019e-f874-422a-8197-ab01f7952a84" d="M395.324 136.622H380v50"/><path class="fd0444e3-7180-47f9-8da2-a6618fb428d8" d="M393.865 131.636l8.635 4.986-8.635 4.987v-9.973z"/><path class="b2fc019e-f874-422a-8197-ab01f7952a84" d="M395.324 206.622H380v-20h-40"/><path class="fd0444e3-7180-47f9-8da2-a6618fb428d8" d="M393.865 201.636l8.635 4.986-8.635 4.987v-9.973z"/><path fill="#bfd9f2" d="M220 161.622h120v50H220z"/><text class="ba8983cc-f7db-4d4d-8bd7-a856ef2b11cb" transform="translate(234.993 185.297)">secrets/router-<tspan x="6" y="12">certs-default</tspan></text><circle class="fd0444e3-7180-47f9-8da2-a6618fb428d8" cx="280" cy="161.622" r="9"/><text transform="translate(276.82 165.03)" font-size="9.9" fill="#fff" font-family="RedHatText,&quot;Red Hat Text&quot;,Overpass,&quot;Helvetica Neue&quot;,Arial,sans-serif" font-weight="700">2</text><path class="b2fc019e-f874-422a-8197-ab01f7952a84" d="M210.324 186.622h-1.5"/><path stroke-dasharray="2.99 2.99" stroke="#151515" stroke-linecap="round" stroke-linejoin="round" fill="none" d="M205.834 186.622H87.745"/><path class="b2fc019e-f874-422a-8197-ab01f7952a84" d="M86.25 186.622h-1.5v-1.5"/><path stroke-dasharray="3.143 3.143" stroke="#151515" stroke-linecap="round" stroke-linejoin="round" fill="none" d="M84.75 181.98v-17.286"/><path class="b2fc019e-f874-422a-8197-ab01f7952a84" d="M84.75 163.122v-1.5"/><path class="fd0444e3-7180-47f9-8da2-a6618fb428d8" d="M208.865 181.636l8.635 4.986-8.635 4.987v-9.973z"/><path class="f8204c8f-23e2-4e3e-97f4-c9ae40ac2140" d="M15 111.622h140v50H15z"/><text class="ba8983cc-f7db-4d4d-8bd7-a856ef2b11cb" transform="translate(27.991 135.768)">ingresscontrollers/<tspan x="36.006" y="12">default</tspan></text><text class="b2ad66aa-6fd1-4097-9b3a-2154489b1022" transform="translate(33.927 28.42)"><tspan letter-spacing="-.025em">R</tspan><tspan class="a6da5e96-fe97-4c2d-a115-e520c0f49b43" x="6.47" y="0">e</tspan><tspan x="12.05" y="0" letter-spacing="-.017em">f</tspan><tspan class="ab52eac7-c26e-4da9-bdaa-5bf52573e019" x="15.99" y="0">e</tspan><tspan class="b97d4971-d2a6-4dd7-98c8-77a72cc39b64" x="21.72" y="0">r</tspan><tspan x="25.41" y="0">en</tspan><tspan class="a6da5e96-fe97-4c2d-a115-e520c0f49b43" x="36.96" y="0">c</tspan><tspan class="ab52eac7-c26e-4da9-bdaa-5bf52573e019" x="42.04" y="0">e</tspan></text><path class="b2fc019e-f874-422a-8197-ab01f7952a84" d="M20.824 25.134h-1.5"/><path stroke-dasharray="3.465 3.465" stroke="#151515" stroke-linecap="round" stroke-linejoin="round" fill="none" d="M15.859 25.134H3.732"/><path class="b2fc019e-f874-422a-8197-ab01f7952a84" d="M2 25.134H.5"/><path class="fd0444e3-7180-47f9-8da2-a6618fb428d8" d="M19.365 20.148L28 25.134l-8.635 4.987v-9.973z"/><text class="b2ad66aa-6fd1-4097-9b3a-2154489b1022" transform="translate(137.697 28.42)"><tspan class="ee170e02-87cd-4c81-8027-67326229fff4">C</tspan><tspan x="7.08" y="0">o</tspan><tspan class="a6da5e96-fe97-4c2d-a115-e520c0f49b43" x="13.06" y="0">n</tspan><tspan x="18.729" y="0" letter-spacing="-.007em">t</tspan><tspan x="22.8" y="0">e</tspan><tspan class="ee170e02-87cd-4c81-8027-67326229fff4" x="28.53" y="0">n</tspan><tspan x="34.2" y="0" letter-spacing=".01em">t</tspan><tspan x="38.439" y="0" letter-spacing="0">s a</tspan><tspan class="b97d4971-d2a6-4dd7-98c8-77a72cc39b64" x="50.979" y="0">r</tspan><tspan x="54.669" y="0">e </tspan><tspan class="ee170e02-87cd-4c81-8027-67326229fff4" x="62.649" y="0">c</tspan><tspan x="67.729" y="0">opi</tspan><tspan x="82.339" y="0" letter-spacing=".003em">e</tspan><tspan x="88.099" y="0">d</tspan></text><g><path class="b2fc019e-f874-422a-8197-ab01f7952a84" d="M124.594 25.134H104.27"/><path class="fd0444e3-7180-47f9-8da2-a6618fb428d8" d="M123.135 20.148l8.635 4.986-8.635 4.987v-9.973z"/></g><g><path class="b2fc019e-f874-422a-8197-ab01f7952a84" d="M590.327 136.622H544.94"/><path class="fd0444e3-7180-47f9-8da2-a6618fb428d8" d="M588.868 131.636l8.635 4.986-8.635 4.987v-9.973z"/></g><g><circle class="fd0444e3-7180-47f9-8da2-a6618fb428d8" cx="85" cy="111.622" r="9"/><text class="aebdbc7e-26b9-4d60-9ebd-e0f050dde109" transform="translate(80.949 115.408)">0</text></g><g><path class="b2fc019e-f874-422a-8197-ab01f7952a84" d="M475 446.684v-25.385"/><path class="fd0444e3-7180-47f9-8da2-a6618fb428d8" d="M479.986 422.758L475 414.122l-4.987 8.636h9.973z"/></g><g><path class="b2fc019e-f874-422a-8197-ab01f7952a84" d="M280 446.684v-25.385"/><path class="fd0444e3-7180-47f9-8da2-a6618fb428d8" d="M284.986 422.758L280 414.122l-4.986 8.636h9.972z"/></g><g><path class="b2fc019e-f874-422a-8197-ab01f7952a84" d="M545 205.768h34.991v240.916H85v-25.385"/><path class="fd0444e3-7180-47f9-8da2-a6618fb428d8" d="M89.986 422.758L85 414.122l-4.986 8.636h9.972z"/></g><path class="f8204c8f-23e2-4e3e-97f4-c9ae40ac2140" d="M405 111.622h140v50H405z"/><text class="ba8983cc-f7db-4d4d-8bd7-a856ef2b11cb" transform="translate(429.993 135.768)">secrets/router-<tspan x="30.004" y="12">certs</tspan></text><g><circle class="fd0444e3-7180-47f9-8da2-a6618fb428d8" cx="475" cy="111.622" r="9"/><text class="aebdbc7e-26b9-4d60-9ebd-e0f050dde109" transform="translate(470.955 115.408)">4</text></g><path class="f8204c8f-23e2-4e3e-97f4-c9ae40ac2140" d="M405 181.622h140v50H405z"/><text class="ba8983cc-f7db-4d4d-8bd7-a856ef2b11cb" transform="translate(417.991 205.768)">configmaps/default-<tspan x="21.003" y="12">ingress-cert</tspan></text><g><circle class="fd0444e3-7180-47f9-8da2-a6618fb428d8" cx="475" cy="181.622" r="9"/><text class="aebdbc7e-26b9-4d60-9ebd-e0f050dde109" transform="translate(471.362 185.408)">5</text></g><path class="f8204c8f-23e2-4e3e-97f4-c9ae40ac2140" d="M15 211.622h140v50H15z"/><text class="ba8983cc-f7db-4d4d-8bd7-a856ef2b11cb" transform="translate(33.991 241.768)">secrets/router-ca</text><g><circle class="fd0444e3-7180-47f9-8da2-a6618fb428d8" cx="85" cy="211.622" r="9"/><text class="aebdbc7e-26b9-4d60-9ebd-e0f050dde109" transform="translate(82.632 215.408)">1</text></g><text class="b29f16aa-4bfc-4a65-a734-33aef807cbee" transform="translate(405 324.947)"><tspan class="ea8e6977-e0f1-4cfe-a8c6-28282f51b457">n</tspan><tspan class="bce89848-8fcb-40de-a30f-6a59b2560370" x="6.883" y="0">a</tspan><tspan class="a5615fdb-a0e3-43c8-b4f2-7aede6054734" x="13.388" y="0">me</tspan><tspan class="a8ffeb41-01e6-4aad-b443-56cfbf1007a7" x="30.135" y="0">s</tspan><tspan class="ad635266-3b80-4956-80dd-575598255fb2" x="35.887" y="0">p</tspan><tspan class="af224ca9-fadd-4931-b5d2-574322cdfe6d" x="42.993" y="0">a</tspan><tspan class="b8290bb7-4490-4365-841f-9e6a7fe9c583" x="49.441" y="0">c</tspan><tspan class="a44686bb-ce10-4c6a-aa6f-73b91b81e8c7" x="55.317" y="0">e</tspan><tspan class="e0c65b2b-a10e-4747-92a3-1b5e0ed3f6e1" x="61.629" y="0">/</tspan><tspan class="f75ddb35-6345-45a9-92ca-b5e92fefb98b" x="66.745" y="0">o</tspan><tspan class="f7073f44-9db4-4579-bfb6-78ca36c79630" x="73.638" y="0">p</tspan><tspan class="b29b1e51-75cf-4932-aa0b-de3eebf834e3" x="80.767" y="0">e</tspan><tspan class="e5f83aa2-95f8-46d3-a11a-02e8cec1dcf7" x="87.386" y="0">n</tspan><tspan class="ba4c2b9b-2261-4331-baa3-a33f4cbbee06" x="94.345" y="0">s</tspan><tspan class="f0604f69-0fc8-4d02-aaee-95e78064b9eb" x="100.098" y="0">h</tspan><tspan class="b792a11e-f7fb-4fe2-a4b2-01000ad88c85" x="107.021" y="0">i</tspan><tspan class="e680da50-fb81-48f0-979f-2ef61eb122c5" x="110.167" y="0">f</tspan><tspan class="b8742427-0cb4-4888-9a7f-f949acb539de" x="115.374" y="0">t</tspan><tspan x="120.426" y="0">-</tspan><tspan class="b8290bb7-4490-4365-841f-9e6a7fe9c583" x="0" y="12">c</tspan><tspan class="f75ddb35-6345-45a9-92ca-b5e92fefb98b" x="5.876" y="12">o</tspan><tspan x="12.769" y="12" letter-spacing=".015em">n</tspan><tspan x="19.729" y="12" letter-spacing=".005em">s</tspan><tspan class="f75ddb35-6345-45a9-92ca-b5e92fefb98b" x="25.409" y="12">ol</tspan><tspan x="35.554" y="12">e</tspan></text><g><text transform="translate(668.722 446.863)" font-family="RedHatText,&quot;Red Hat Text&quot;,Overpass,&quot;Helvetica Neue&quot;,Arial,sans-serif" font-size="10" fill="#f3f3f3">75_OpenShift_0520</text><path fill="none" d="M0 423.845h760v40H0z"/></g></svg>