<svg xmlns="http://www.w3.org/2000/svg" xmlns:xlink="http://www.w3.org/1999/xlink" width="384" height="1408" preserveAspectRatio="xMidYMid meet" viewBox="0 0 384 1408" style="-ms-transform: rotate(360deg); -webkit-transform: rotate(360deg); transform: rotate(360deg);"><path d="M384 1120v192q0 40-28 68t-68 28H96q-40 0-68-28t-28-68v-192q0-40 28-68t68-28h192q40 0 68 28t28 68zm0-512v192q0 40-28 68t-68 28H96q-40 0-68-28T0 800V608q0-40 28-68t68-28h192q40 0 68 28t28 68zm0-512v192q0 40-28 68t-68 28H96q-40 0-68-28T0 288V96q0-40 28-68T96 0h192q40 0 68 28t28 68z" fill="#626262"/><rect x="0" y="0" width="384" height="1408" fill="rgba(0, 0, 0, 0)" /></svg>