<svg id="affa3bab-70c6-43bd-ac4e-1e9c020f6372" data-name="Icon" xmlns="http://www.w3.org/2000/svg" viewBox="0 0 36 36">
  <defs>
    <style>
      .fc12c459-14b4-45e6-a239-f57f1c700504 {
        fill: #e00;
      }
    </style>
  </defs>
  <path class="fc12c459-14b4-45e6-a239-f57f1c700504" d="M31.44,7.56l-3-3a.61.61,0,0,0-.88,0l-3,3h0L7.07,24.91a1.53,1.53,0,0,0-.14.21l-2.5,5.63a.61.61,0,0,0,.13.69.6.6,0,0,0,.69.13l5.65-2.51.19-.13L28.44,11.44l3-3A.61.61,0,0,0,31.44,7.56ZM6.23,29.77l1.48-3.33,1.85,1.85ZM26,12.12l-.57-.56a.62.62,0,0,0-.88.88l.57.57L10.64,27.6,8.4,25.36,25,8.88,27.12,11Zm2-2L25.88,8,28,5.88,30.12,8Z"/>
</svg>
