<svg id="f9ecbde4-80a2-4c56-9f3e-b8e414b672da" data-name="Icon" xmlns="http://www.w3.org/2000/svg" viewBox="0 0 36 36">
  <defs>
    <style>
      .b14e08d6-ae6f-43f0-a1f7-9e5acbb8c256 {
        fill: #e00;
      }
    </style>
  </defs>
  <g>
    <path class="b14e08d6-ae6f-43f0-a1f7-9e5acbb8c256" d="M17.38,16v6a.62.62,0,0,0,1.24,0V16A.62.62,0,0,0,17.38,16Z"/>
    <path class="b14e08d6-ae6f-43f0-a1f7-9e5acbb8c256" d="M18.44,24.56a.62.62,0,0,0-.88.88C18.12,26,19,25.12,18.44,24.56Z"/>
    <path class="b14e08d6-ae6f-43f0-a1f7-9e5acbb8c256" d="M32.54,30.08,18.54,5.3a.64.64,0,0,0-1.08,0l-14,24.78A.62.62,0,0,0,4,31H32A.62.62,0,0,0,32.54,30.08ZM5.07,29.76,18,6.88,30.93,29.76Z"/>
  </g>
</svg>
