<svg id="f68254f6-b49f-4bc4-a995-c809daa4fcf6" data-name="Icon" xmlns="http://www.w3.org/2000/svg" viewBox="0 0 36 36">
  <defs>
    <style>
      .ed38edf7-011a-4cad-b0d3-b6dbef7a9ad2 {
        fill: #e00;
      }
    </style>
  </defs>
  <g>
    <path class="ed38edf7-011a-4cad-b0d3-b6dbef7a9ad2" d="M29.67,6.33a6.69,6.69,0,0,0-9.44,0l-5.35,5.35a6.71,6.71,0,0,0,1.85,10.74.63.63,0,0,0,.54-1.13,5.45,5.45,0,0,1-1.5-8.73l5.35-5.35c5.22-4.9,12.58,2.44,7.67,7.67l-3.21,3.21c-.59.57.32,1.47.88.89l3.21-3.21A6.69,6.69,0,0,0,29.67,6.33Z"/>
    <path class="ed38edf7-011a-4cad-b0d3-b6dbef7a9ad2" d="M19.27,13.58a.63.63,0,0,0-.54,1.13,5.45,5.45,0,0,1,1.5,8.73l-5.35,5.35a5.42,5.42,0,0,1-7.67-7.67l3.21-3.21c.58-.57-.32-1.47-.88-.89L6.33,20.23a6.68,6.68,0,0,0,9.44,9.44l5.35-5.35A6.71,6.71,0,0,0,19.27,13.58Z"/>
  </g>
</svg>
