<svg id="f458e605-73f6-43a1-83b5-5c3dfa0e1445" data-name="artwork" xmlns="http://www.w3.org/2000/svg" width="760" height="689.594"><defs><style>.aa12d2df-d250-4740-b7a6-23ab08c8b85f,.ae861af8-fa0c-4dc0-a53d-8ee0de8924f3,.b0270ce4-c410-40d0-895e-af6b41e4053a,.b565c635-18db-4221-975a-e8aa7b7f0a7d,.bed0b129-fe88-481e-9d18-c9823ac690ae,.eeddf89a-94b9-4987-b66e-e9ec58f59426,.fd0452f5-b781-41d1-bc45-cf40c0ce88b8{fill:none}.aa12d2df-d250-4740-b7a6-23ab08c8b85f,.eeddf89a-94b9-4987-b66e-e9ec58f59426{stroke:#adadad}.aa12d2df-d250-4740-b7a6-23ab08c8b85f,.ae861af8-fa0c-4dc0-a53d-8ee0de8924f3,.b565c635-18db-4221-975a-e8aa7b7f0a7d,.bed0b129-fe88-481e-9d18-c9823ac690ae,.eeddf89a-94b9-4987-b66e-e9ec58f59426{stroke-linecap:round;stroke-linejoin:round}.eeddf89a-94b9-4987-b66e-e9ec58f59426{stroke-dasharray:3.007 3.007}.ee0f3ab8-612d-4fcb-97d1-88270bb1e1b8{fill:#e8e8e8}.fd0452f5-b781-41d1-bc45-cf40c0ce88b8{stroke:#d5d5d5}.b0270ce4-c410-40d0-895e-af6b41e4053a,.fd0452f5-b781-41d1-bc45-cf40c0ce88b8{stroke-miterlimit:10;stroke-width:1.5px}.ae861af8-fa0c-4dc0-a53d-8ee0de8924f3,.b565c635-18db-4221-975a-e8aa7b7f0a7d{stroke:#06c}.e7fb0f8d-f2d6-4c05-a0f6-b76f33827068{fill:#06c}.b776aaa2-88fc-4ad7-871e-13856efe1480,.feda72f8-5373-41da-8bcb-76f3262322fe{font-size:11px}.b776aaa2-88fc-4ad7-871e-13856efe1480,.f1b2cc21-5702-4266-8bda-54f8b7dbd0ca,.feda72f8-5373-41da-8bcb-76f3262322fe{fill:#151515}.b776aaa2-88fc-4ad7-871e-13856efe1480{font-family:RedHatText,&quot;Red Hat Text&quot;,Overpass,&quot;Helvetica Neue&quot;,Arial,sans-serif;font-style:italic}.b914671c-1931-4ada-b4bc-956cf7161cdb{letter-spacing:.011em}.bd3840b9-6cb7-4491-8242-1c23b6882d74{letter-spacing:.006em}.a3c24c52-9c19-42b4-a753-18a0ae8ba3a6{letter-spacing:.005em}.e0e020ef-9e4b-4d7e-8b45-628bf7581ba6{letter-spacing:-.013em}.a5df6f32-09ed-4c4a-9434-ba3a5af73fdd{letter-spacing:.018em}.ed651917-3ebd-4936-bc99-3503e1882db0{letter-spacing:.004em}.a6c54076-49a0-4275-b9df-512e7eaa71a1{letter-spacing:.008em}.f3b1527c-aedd-415a-b0bf-2b3c9ee35ce9{letter-spacing:.011em}.f880bb5c-3725-4262-8e5e-65c02d6b5af9{letter-spacing:.005em}.f46b9eb8-d715-441e-89f5-a9532a00c237{letter-spacing:.007em}.bed0b129-fe88-481e-9d18-c9823ac690ae{stroke:#151515}.ee60533a-6838-466b-891c-6b437dc5add9{letter-spacing:.009em}.beb1b1be-7eb2-46db-bb78-8626afcb43f8{letter-spacing:.001em}.b73f42d3-e4f3-4460-b14d-b494c4399c32{fill:#fff}.feda72f8-5373-41da-8bcb-76f3262322fe{font-family:RedHatText,&quot;Red Hat Text&quot;,Overpass,&quot;Helvetica Neue&quot;,Arial,sans-serif;font-weight:500}.e45d1b5a-abc5-4813-939a-03a44af48537{letter-spacing:-.005em}.a733f3fa-012c-46dc-a253-f6ecac8fb2bc{letter-spacing:-.002em}.f89bf7f2-79c9-4c8c-b7c5-df98377c8cba{letter-spacing:.009em}.f813015f-2af9-4f8e-8e44-ebbb495e7c7c{letter-spacing:.008em}.be4d0261-c8b5-4b24-9d7b-76a75ebb599e{letter-spacing:-.006em}.ebbb246c-b2ac-4eb8-96cd-71794806e4e5{letter-spacing:.008em}.f49058a4-f4fd-49a1-9b9c-496df92910a7{letter-spacing:.007em}.a9cbb2d5-f636-4b5d-8b45-a669e66138d4{letter-spacing:.006em}.ecb2b511-fb85-46ff-8b4f-938d6e143b7f{letter-spacing:.017em}.b5ed35a4-5ef4-46f6-a808-64fac6b5ca0f{letter-spacing:.014em}.aabaf625-a660-45de-afb2-106d60e7bf7a{letter-spacing:.007em}.f03574de-abcf-483e-be34-1bdc3e36ec59{letter-spacing:.008em}.ac54f022-7046-45dc-b276-f543c0d9573d{letter-spacing:.004em}.faca580d-05c8-49d6-9ba2-f356418badea{letter-spacing:-.003em}.ad177acb-7b37-4069-b75c-e60ffe1a511e{letter-spacing:-.005em}.a2457a06-0787-4be9-bed0-ab1ac24aa5de{letter-spacing:.009em}.b68f53af-8aaa-468f-8589-aff909b6a25a{letter-spacing:.011em}.b0cec23a-e28d-4d67-9b6e-bae037ec05f8{letter-spacing:0}.b4ec597b-1beb-45f0-9da6-fcdf7bbf3359{letter-spacing:.008em}.a8ad9097-4abe-4d28-9656-fd650e23aa1d{letter-spacing:.004em}.e2a919bd-8453-4e52-8564-21ea4c796e44{letter-spacing:.017em}.f5476a98-4f59-4868-9262-5cda6f65e840{letter-spacing:.032em}.f389b198-9d77-4f83-af0b-6ab10623a003{letter-spacing:.026em}.b0270ce4-c410-40d0-895e-af6b41e4053a{stroke:#f3f3f3}.f7288bbc-966b-4f91-9c37-e79d63487f79{letter-spacing:0}.b3b42f37-44d5-4e8d-b1ce-c50d87eb9478,.f4ce6ae5-3379-448b-bbff-937f2183cfb8{letter-spacing:.005em}.a442dc8f-9988-4bdd-8167-2eb09282ff2e{letter-spacing:.024em}.f878efef-f891-49fe-9404-50f2a3f6d0c3{letter-spacing:.023em}.b189da0d-19df-4277-8811-73ff1314da3f{letter-spacing:.007em}.b565c635-18db-4221-975a-e8aa7b7f0a7d{stroke-dasharray:2.941 2.941}.a4d73876-6bce-4e43-a22c-db7edf8f3533{letter-spacing:.006em}.b8271340-c6ef-4322-ad71-ffb25b7a741a{letter-spacing:.011em}.b9ef2ecf-746d-4377-9529-8c03514c2ef0{letter-spacing:.007em}.f9607acc-c92f-463d-9876-75790c4e989f{letter-spacing:.011em}.a5b632ef-ef4c-4acb-b81a-04d9333c1ebd{letter-spacing:.01em}.b07914c6-ddfd-46e6-92dc-e748d962f890{letter-spacing:.017em}.ac2df839-044e-49e1-9dfa-306061c51594{letter-spacing:.01em}.f8c16f5e-9744-4c3d-ba36-fc5acd6c6c2d{letter-spacing:-.005em}</style></defs><path class="aa12d2df-d250-4740-b7a6-23ab08c8b85f" d="M433.5 305.367v1.5"/><path stroke-dasharray="3.067 3.067" stroke-linecap="round" stroke-linejoin="round" stroke="#adadad" fill="none" d="M433.5 309.934v96.614"/><path class="aa12d2df-d250-4740-b7a6-23ab08c8b85f" d="M433.5 408.082v1.5M433.5 153.5v1.5"/><path stroke-dasharray="2.955 2.955" stroke-linecap="round" stroke-linejoin="round" stroke="#adadad" fill="none" d="M433.5 157.955V292.39"/><path class="aa12d2df-d250-4740-b7a6-23ab08c8b85f" d="M433.5 293.867v1.5M433.5 420.5v1.5"/><path stroke-dasharray="2.965 2.965" stroke-linecap="round" stroke-linejoin="round" stroke="#adadad" fill="none" d="M433.5 424.965v241.647"/><path class="aa12d2df-d250-4740-b7a6-23ab08c8b85f" d="M433.5 668.094v1.5H432"/><path class="eeddf89a-94b9-4987-b66e-e9ec58f59426" d="M428.993 669.594H3.503"/><path class="aa12d2df-d250-4740-b7a6-23ab08c8b85f" d="M2 669.594H.5v-1.5"/><path stroke-dasharray="3.009 3.009" stroke-linecap="round" stroke-linejoin="round" stroke="#adadad" fill="none" d="M.5 665.085V119.004"/><path class="aa12d2df-d250-4740-b7a6-23ab08c8b85f" d="M.5 117.5V116H2"/><path class="eeddf89a-94b9-4987-b66e-e9ec58f59426" d="M5.007 116h425.489"/><path class="aa12d2df-d250-4740-b7a6-23ab08c8b85f" d="M432 116h1.5v1.5"/><path stroke-dasharray="2.722 2.722" stroke-linecap="round" stroke-linejoin="round" stroke="#adadad" fill="none" d="M433.5 120.222v20.417"/><path class="aa12d2df-d250-4740-b7a6-23ab08c8b85f" d="M433.5 142v1.5"/><path class="ee0f3ab8-612d-4fcb-97d1-88270bb1e1b8" d="M460.5 168.582h279v291h-279z"/><path class="fd0452f5-b781-41d1-bc45-cf40c0ce88b8" d="M577.5 219.582v60h-92"/><path class="fd0452f5-b781-41d1-bc45-cf40c0ce88b8" d="M572.5 214.582v60h-92"/><path class="ae861af8-fa0c-4dc0-a53d-8ee0de8924f3" d="M632.5 239.582h-55.324"/><path class="e7fb0f8d-f2d6-4c05-a0f6-b76f33827068" d="M578.635 234.596L570 239.582l8.635 4.986v-9.972z"/><path class="ae861af8-fa0c-4dc0-a53d-8ee0de8924f3" d="M312.5 517.595H128.676"/><path class="e7fb0f8d-f2d6-4c05-a0f6-b76f33827068" d="M130.135 512.608l-8.635 4.987 8.635 4.986v-9.973z"/><text class="b776aaa2-88fc-4ad7-871e-13856efe1480" transform="translate(586.059 231.554)"><tspan class="b914671c-1931-4ada-b4bc-956cf7161cdb">D</tspan><tspan class="bd3840b9-6cb7-4491-8242-1c23b6882d74" x="8.01" y="0">e</tspan><tspan class="a3c24c52-9c19-42b4-a753-18a0ae8ba3a6" x="14.071" y="0">pl</tspan><tspan class="e0e020ef-9e4b-4d7e-8b45-628bf7581ba6" x="22.877" y="0">o</tspan><tspan x="29.004" y="0">y</tspan></text><text class="b776aaa2-88fc-4ad7-871e-13856efe1480" transform="translate(683.513 324.582)"><tspan class="b914671c-1931-4ada-b4bc-956cf7161cdb">D</tspan><tspan class="bd3840b9-6cb7-4491-8242-1c23b6882d74" x="8.01" y="0">e</tspan><tspan class="a3c24c52-9c19-42b4-a753-18a0ae8ba3a6" x="14.071" y="0">pl</tspan><tspan class="e0e020ef-9e4b-4d7e-8b45-628bf7581ba6" x="22.877" y="0">o</tspan><tspan x="29.004" y="0">y</tspan></text><text class="b776aaa2-88fc-4ad7-871e-13856efe1480" transform="translate(539.914 406.554)"><tspan class="a5df6f32-09ed-4c4a-9434-ba3a5af73fdd">Q</tspan><tspan class="ed651917-3ebd-4936-bc99-3503e1882db0" x="8.919" y="0">u</tspan><tspan class="a6c54076-49a0-4275-b9df-512e7eaa71a1" x="14.917" y="0">e</tspan><tspan class="f3b1527c-aedd-415a-b0bf-2b3c9ee35ce9" x="20.998" y="0">r</tspan><tspan class="f880bb5c-3725-4262-8e5e-65c02d6b5af9" x="24.9" y="0">i</tspan><tspan class="f46b9eb8-d715-441e-89f5-a9532a00c237" x="27.375" y="0">e</tspan><tspan x="33.443" y="0">s</tspan></text><path class="bed0b129-fe88-481e-9d18-c9823ac690ae" d="M373.5 199.906V148.5h386v267l-34-.918"/><path class="f1b2cc21-5702-4266-8bda-54f8b7dbd0ca" d="M378.486 198.447l-4.986 8.635-4.986-8.635h9.972z"/><path class="ee0f3ab8-612d-4fcb-97d1-88270bb1e1b8" d="M18.5 168.582h279v291h-279z"/><text class="b776aaa2-88fc-4ad7-871e-13856efe1480" transform="translate(.901 97.407)"><tspan letter-spacing=".015em">I</tspan><tspan class="ee60533a-6838-466b-891c-6b437dc5add9" x="2.883" y="0">ns</tspan><tspan x="13.923" y="0" letter-spacing=".005em">t</tspan><tspan class="ee60533a-6838-466b-891c-6b437dc5add9" x="18.059" y="0">a</tspan><tspan x="23.837" y="0" letter-spacing=".012em">l</tspan><tspan class="beb1b1be-7eb2-46db-bb78-8626afcb43f8" x="26.39" y="0">l</tspan><tspan x="28.821" y="0" letter-spacing=".006em">e</tspan><tspan x="34.887" y="0">d </tspan><tspan x="43.73" y="0" letter-spacing="-.012em">b</tspan><tspan x="49.879" y="0">y </tspan><tspan x="57.82" y="0" letter-spacing=".001em">d</tspan><tspan x="64.108" y="0" letter-spacing="-.015em">e</tspan><tspan class="f3b1527c-aedd-415a-b0bf-2b3c9ee35ce9" x="69.935" y="0">f</tspan><tspan x="74.036" y="0" letter-spacing=".006em">a</tspan><tspan x="79.774" y="0" letter-spacing=".013em">u</tspan><tspan x="85.87" y="0" letter-spacing=".004em">l</tspan><tspan x="88.334" y="0">t</tspan></text><path class="fd0452f5-b781-41d1-bc45-cf40c0ce88b8" d="M282.5 219.582v60h-92"/><path class="fd0452f5-b781-41d1-bc45-cf40c0ce88b8" d="M277.5 214.582v60h-92"/><path class="ae861af8-fa0c-4dc0-a53d-8ee0de8924f3" d="M125.5 239.582h45.324"/><path class="e7fb0f8d-f2d6-4c05-a0f6-b76f33827068" d="M169.365 244.568l8.635-4.986-8.635-4.986v9.972z"/><path class="ae861af8-fa0c-4dc0-a53d-8ee0de8924f3" d="M79.5 209.582V148.5h274v51.406"/><path class="e7fb0f8d-f2d6-4c05-a0f6-b76f33827068" d="M348.514 198.447l4.986 8.635 4.986-8.635h-9.972z"/><path class="b73f42d3-e4f3-4460-b14d-b494c4399c32" d="M33.5 209.582h92v60h-92z"/><text class="feda72f8-5373-41da-8bcb-76f3262322fe" transform="translate(47.655 236.536)"><tspan class="e45d1b5a-abc5-4813-939a-03a44af48537">P</tspan><tspan class="a733f3fa-012c-46dc-a253-f6ecac8fb2bc" x="7.412" y="0">r</tspan><tspan class="f89bf7f2-79c9-4c8c-b7c5-df98377c8cba" x="11.711" y="0">o</tspan><tspan class="f813015f-2af9-4f8e-8e44-ebbb495e7c7c" x="18.385" y="0">m</tspan><tspan class="be4d0261-c8b5-4b24-9d7b-76a75ebb599e" x="28.107" y="0">e</tspan><tspan class="ebbb246c-b2ac-4eb8-96cd-71794806e4e5" x="34.348" y="0">t</tspan><tspan class="f49058a4-f4fd-49a1-9b9c-496df92910a7" x="38.989" y="0">h</tspan><tspan class="a9cbb2d5-f636-4b5d-8b45-a669e66138d4" x="45.467" y="0">e</tspan><tspan class="ecb2b511-fb85-46ff-8b4f-938d6e143b7f" x="51.835" y="0">u</tspan><tspan x="58.421" y="0">s</tspan><tspan class="b5ed35a4-5ef4-46f6-a808-64fac6b5ca0f" x="7.77" y="12">O</tspan><tspan class="aabaf625-a660-45de-afb2-106d60e7bf7a" x="16.849" y="12">p</tspan><tspan class="f03574de-abcf-483e-be34-1bdc3e36ec59" x="23.643" y="12">e</tspan><tspan class="ac54f022-7046-45dc-b276-f543c0d9573d" x="30.035" y="12">r</tspan><tspan class="faca580d-05c8-49d6-9ba2-f356418badea" x="34.405" y="12">a</tspan><tspan class="ad177acb-7b37-4069-b75c-e60ffe1a511e" x="40.421" y="12">t</tspan><tspan class="a2457a06-0787-4be9-bed0-ab1ac24aa5de" x="44.924" y="12">o</tspan><tspan x="51.598" y="12">r</tspan></text><path class="b73f42d3-e4f3-4460-b14d-b494c4399c32" d="M33.5 344.582h92v30h-92z"/><text class="feda72f8-5373-41da-8bcb-76f3262322fe" transform="translate(71.716 362.629)"><tspan letter-spacing=".013em">N</tspan><tspan x="8.517" y="0">E</tspan></text><path class="b73f42d3-e4f3-4460-b14d-b494c4399c32" d="M33.5 379.582h92v30h-92z"/><text class="feda72f8-5373-41da-8bcb-76f3262322fe" transform="translate(72.2 397.629)"><tspan letter-spacing="-.049em">P</tspan><tspan x="6.933" y="0">A</tspan></text><path class="b73f42d3-e4f3-4460-b14d-b494c4399c32" d="M124.5 415.582v28h-90v-28h90m1-1h-92v30h92v-30z"/><text class="feda72f8-5373-41da-8bcb-76f3262322fe" transform="translate(58.213 432.629)"><tspan letter-spacing=".011em">G</tspan><tspan class="ed651917-3ebd-4936-bc99-3503e1882db0" x="8.942" y="0">r</tspan><tspan x="13.312" y="0" letter-spacing="-.003em">a</tspan><tspan x="19.333" y="0" letter-spacing=".003em">f</tspan><tspan class="b68f53af-8aaa-468f-8589-aff909b6a25a" x="23.891" y="0">a</tspan><tspan class="bd3840b9-6cb7-4491-8242-1c23b6882d74" x="30.057" y="0">n</tspan><tspan x="36.525" y="0">a</tspan></text><path class="b73f42d3-e4f3-4460-b14d-b494c4399c32" d="M33.5 274.582h92v30h-92z"/><path class="ee0f3ab8-612d-4fcb-97d1-88270bb1e1b8" d="M33.5 182.573h92v15.891h-92z"/><text class="feda72f8-5373-41da-8bcb-76f3262322fe" transform="translate(67.311 292.629)"><tspan letter-spacing=".005em">K</tspan><tspan x="7.402" y="0" letter-spacing=".016em">S</tspan><tspan x="14.588" y="0">M</tspan></text><path class="b73f42d3-e4f3-4460-b14d-b494c4399c32" d="M33.5 309.582h92v30h-92z"/><text transform="translate(66.519 327.629)" font-family="RedHatText,&quot;Red Hat Text&quot;,Overpass,&quot;Helvetica Neue&quot;,Arial,sans-serif" font-weight="500" letter-spacing=".006em" fill="#151515" font-size="11">O<tspan x="8.987" y="0" letter-spacing=".016em">S</tspan><tspan class="b0cec23a-e28d-4d67-9b6e-bae037ec05f8" x="16.173" y="0">M</tspan></text><path class="ee0f3ab8-612d-4fcb-97d1-88270bb1e1b8" d="M18.5 487.595h102v60h-102z"/><text class="feda72f8-5373-41da-8bcb-76f3262322fe" transform="translate(43.029 514.641)"><tspan letter-spacing="-.081em">T</tspan><tspan class="f03574de-abcf-483e-be34-1bdc3e36ec59" x="6.135" y="0">e</tspan><tspan class="f46b9eb8-d715-441e-89f5-a9532a00c237" x="12.527" y="0">l</tspan><tspan class="b4ec597b-1beb-45f0-9da6-fcdf7bbf3359" x="15.371" y="0">em</tspan><tspan x="31.488" y="0" letter-spacing="-.006em">et</tspan><tspan class="f03574de-abcf-483e-be34-1bdc3e36ec59" x="42.228" y="0">e</tspan><tspan x="48.62" y="0">r</tspan><tspan x="10.987" y="12">C</tspan><tspan x="18.94" y="12" letter-spacing=".01em">l</tspan><tspan class="a8ad9097-4abe-4d28-9656-fd650e23aa1d" x="21.827" y="12">i</tspan><tspan class="f03574de-abcf-483e-be34-1bdc3e36ec59" x="24.642" y="12">e</tspan><tspan class="faca580d-05c8-49d6-9ba2-f356418badea" x="31.034" y="12">n</tspan><tspan x="37.402" y="12">t</tspan></text><text class="b776aaa2-88fc-4ad7-871e-13856efe1480" transform="translate(133.558 231.554)"><tspan class="b914671c-1931-4ada-b4bc-956cf7161cdb">D</tspan><tspan class="bd3840b9-6cb7-4491-8242-1c23b6882d74" x="8.01" y="0">e</tspan><tspan class="a3c24c52-9c19-42b4-a753-18a0ae8ba3a6" x="14.071" y="0">pl</tspan><tspan class="e0e020ef-9e4b-4d7e-8b45-628bf7581ba6" x="22.877" y="0">o</tspan><tspan x="29.004" y="0">y</tspan></text><text class="b776aaa2-88fc-4ad7-871e-13856efe1480" transform="translate(199.605 141.579)"><tspan class="b914671c-1931-4ada-b4bc-956cf7161cdb">D</tspan><tspan class="bd3840b9-6cb7-4491-8242-1c23b6882d74" x="8.01" y="0">e</tspan><tspan class="a3c24c52-9c19-42b4-a753-18a0ae8ba3a6" x="14.071" y="0">pl</tspan><tspan class="e0e020ef-9e4b-4d7e-8b45-628bf7581ba6" x="22.877" y="0">o</tspan><tspan x="29.004" y="0">y</tspan></text><text class="b776aaa2-88fc-4ad7-871e-13856efe1480" transform="translate(533.646 141.579)"><tspan class="e2a919bd-8453-4e52-8564-21ea4c796e44">A</tspan><tspan class="beb1b1be-7eb2-46db-bb78-8626afcb43f8" x="7.305" y="0">l</tspan><tspan class="f813015f-2af9-4f8e-8e44-ebbb495e7c7c" x="9.737" y="0">e</tspan><tspan class="f5476a98-4f59-4868-9262-5cda6f65e840" x="15.818" y="0">r</tspan><tspan class="f389b198-9d77-4f83-af0b-6ab10623a003" x="19.955" y="0">t</tspan><tspan x="24.318" y="0">s</tspan></text><text class="b776aaa2-88fc-4ad7-871e-13856efe1480" transform="translate(199.855 532.395)"><tspan class="b914671c-1931-4ada-b4bc-956cf7161cdb">D</tspan><tspan class="bd3840b9-6cb7-4491-8242-1c23b6882d74" x="8.01" y="0">e</tspan><tspan class="a3c24c52-9c19-42b4-a753-18a0ae8ba3a6" x="14.071" y="0">pl</tspan><tspan class="e0e020ef-9e4b-4d7e-8b45-628bf7581ba6" x="22.877" y="0">o</tspan><tspan x="29.004" y="0">y</tspan></text><text transform="translate(475.5 195.37)" font-size="14" font-family="RedHatText,&quot;Red Hat Text&quot;,Overpass,&quot;Helvetica Neue&quot;,Arial,sans-serif" font-weight="700" fill="#151515"><tspan letter-spacing=".008em">U</tspan><tspan x="10.603" y="0" letter-spacing=".001em">s</tspan><tspan x="17.768" y="0" letter-spacing=".005em">e</tspan><tspan x="26.128" y="0">r</tspan></text><path class="ee0f3ab8-612d-4fcb-97d1-88270bb1e1b8" d="M312.5 209.582h102v60h-102z"/><text class="feda72f8-5373-41da-8bcb-76f3262322fe" transform="translate(327.367 242.629)"><tspan letter-spacing=".015em">A</tspan><tspan class="f46b9eb8-d715-441e-89f5-a9532a00c237" x="7.836" y="0">l</tspan><tspan class="b4ec597b-1beb-45f0-9da6-fcdf7bbf3359" x="10.681" y="0">e</tspan><tspan x="17.073" y="0" letter-spacing=".024em">r</tspan><tspan class="ebbb246c-b2ac-4eb8-96cd-71794806e4e5" x="21.654" y="0">t</tspan><tspan x="26.295" y="0" letter-spacing=".007em">m</tspan><tspan class="b68f53af-8aaa-468f-8589-aff909b6a25a" x="36.008" y="0">a</tspan><tspan class="bd3840b9-6cb7-4491-8242-1c23b6882d74" x="42.174" y="0">n</tspan><tspan class="f49058a4-f4fd-49a1-9b9c-496df92910a7" x="48.642" y="0">a</tspan><tspan x="54.768" y="0" letter-spacing=".008em">ge</tspan><tspan x="67.943" y="0">r</tspan></text><path class="b0270ce4-c410-40d0-895e-af6b41e4053a" d="M424.5 219.582v60h-102"/><path class="b0270ce4-c410-40d0-895e-af6b41e4053a" d="M419.5 214.582v60h-102"/><path class="ee0f3ab8-612d-4fcb-97d1-88270bb1e1b8" d="M166 16h102v60H166z"/><text transform="translate(189.717 43.047)" letter-spacing=".014em" font-family="RedHatText,&quot;Red Hat Text&quot;,Overpass,&quot;Helvetica Neue&quot;,Arial,sans-serif" font-weight="500" fill="#151515" font-size="11">O<tspan class="aabaf625-a660-45de-afb2-106d60e7bf7a" x="9.079" y="0">p</tspan><tspan class="b4ec597b-1beb-45f0-9da6-fcdf7bbf3359" x="15.873" y="0">e</tspan><tspan x="22.265" y="0" letter-spacing=".012em">n</tspan><tspan x="28.795" y="0" letter-spacing=".015em">S</tspan><tspan class="f89bf7f2-79c9-4c8c-b7c5-df98377c8cba" x="35.965" y="0">h</tspan><tspan x="42.463" y="0" letter-spacing=".001em">i</tspan><tspan x="45.244" y="0" letter-spacing=".022em">f</tspan><tspan class="f7288bbc-966b-4f91-9c37-e79d63487f79" x="50.012" y="0">t</tspan><tspan class="e45d1b5a-abc5-4813-939a-03a44af48537"><tspan x="5.477" y="12">P</tspan><tspan class="a733f3fa-012c-46dc-a253-f6ecac8fb2bc" x="12.889" y="12">r</tspan><tspan class="b3b42f37-44d5-4e8d-b1ce-c50d87eb9478" x="17.188" y="12">o</tspan><tspan class="a8ad9097-4abe-4d28-9656-fd650e23aa1d" x="23.825" y="12">j</tspan><tspan class="f4ce6ae5-3379-448b-bbff-937f2183cfb8" x="26.64" y="12">e</tspan><tspan class="a442dc8f-9988-4bdd-8167-2eb09282ff2e" x="33.001" y="12">c</tspan><tspan class="f878efef-f891-49fe-9404-50f2a3f6d0c3" x="39.018" y="12">t</tspan><tspan class="b0cec23a-e28d-4d67-9b6e-bae037ec05f8" x="43.819" y="12">s</tspan></tspan></text><path class="b0270ce4-c410-40d0-895e-af6b41e4053a" d="M277.625 26v60h-102"/><path class="b0270ce4-c410-40d0-895e-af6b41e4053a" d="M272.625 21v60h-102"/><path class="ee0f3ab8-612d-4fcb-97d1-88270bb1e1b8" d="M544.125 16h102v60h-102z"/><text class="feda72f8-5373-41da-8bcb-76f3262322fe" transform="translate(559.928 43.047)"><tspan letter-spacing=".013em">U</tspan><tspan x="8.158" y="0" letter-spacing=".007em">s</tspan><tspan class="b4ec597b-1beb-45f0-9da6-fcdf7bbf3359" x="13.507" y="0">e</tspan><tspan x="19.899" y="0" letter-spacing="-.059em">r</tspan><tspan x="23.569" y="0" letter-spacing=".018em">-</tspan><tspan x="28.85" y="0" letter-spacing=".006em">D</tspan><tspan x="37.081" y="0" letter-spacing="-.005em">e</tspan><tspan x="43.327" y="0" letter-spacing=".01em">fi</tspan><tspan class="b189da0d-19df-4277-8811-73ff1314da3f" x="50.845" y="0">n</tspan><tspan class="b3b42f37-44d5-4e8d-b1ce-c50d87eb9478" x="57.322" y="0">e</tspan><tspan x="63.684" y="0">d</tspan><tspan class="e45d1b5a-abc5-4813-939a-03a44af48537"><tspan x="13.391" y="12">P</tspan><tspan class="a733f3fa-012c-46dc-a253-f6ecac8fb2bc" x="20.803" y="12">r</tspan><tspan class="b3b42f37-44d5-4e8d-b1ce-c50d87eb9478" x="25.103" y="12">o</tspan><tspan class="a8ad9097-4abe-4d28-9656-fd650e23aa1d" x="31.739" y="12">j</tspan><tspan class="f4ce6ae5-3379-448b-bbff-937f2183cfb8" x="34.554" y="12">e</tspan><tspan class="a442dc8f-9988-4bdd-8167-2eb09282ff2e" x="40.915" y="12">c</tspan><tspan class="f878efef-f891-49fe-9404-50f2a3f6d0c3" x="46.932" y="12">t</tspan><tspan class="b0cec23a-e28d-4d67-9b6e-bae037ec05f8" x="51.733" y="12">s</tspan></tspan></text><path class="b0270ce4-c410-40d0-895e-af6b41e4053a" d="M656.125 26v60h-102"/><path class="b0270ce4-c410-40d0-895e-af6b41e4053a" d="M651.125 21v60h-102"/><path class="bed0b129-fe88-481e-9d18-c9823ac690ae" d="M511.5 269.582v30.785h-270v-30.785"/><path class="ae861af8-fa0c-4dc0-a53d-8ee0de8924f3" d="M531.5 279.258v1.5"/><path class="b565c635-18db-4221-975a-e8aa7b7f0a7d" d="M531.5 283.699v127.913"/><path class="ae861af8-fa0c-4dc0-a53d-8ee0de8924f3" d="M531.5 413.082v1.5"/><path class="e7fb0f8d-f2d6-4c05-a0f6-b76f33827068" d="M526.513 280.717l4.987-8.635 4.986 8.635h-9.973z"/><path class="ae861af8-fa0c-4dc0-a53d-8ee0de8924f3" d="M215.75 471.937v45.418"/><path class="e7fb0f8d-f2d6-4c05-a0f6-b76f33827068" d="M210.764 473.396l4.986-8.635 4.986 8.635h-9.972z"/><path class="ae861af8-fa0c-4dc0-a53d-8ee0de8924f3" d="M678.5 269.582v105.324"/><path class="e7fb0f8d-f2d6-4c05-a0f6-b76f33827068" d="M673.513 373.447l4.987 8.635 4.986-8.635h-9.973z"/><g><path class="ae861af8-fa0c-4dc0-a53d-8ee0de8924f3" d="M221.5 279.258v1.5"/><path class="b565c635-18db-4221-975a-e8aa7b7f0a7d" d="M221.5 283.699v127.913"/><path class="ae861af8-fa0c-4dc0-a53d-8ee0de8924f3" d="M221.5 413.082v1.5h1.5"/><path stroke-dasharray="3.034 3.034" stroke="#06c" stroke-linecap="round" stroke-linejoin="round" fill="none" d="M226.034 414.582h83.449"/><path class="ae861af8-fa0c-4dc0-a53d-8ee0de8924f3" d="M311 414.582h1.5"/><path class="e7fb0f8d-f2d6-4c05-a0f6-b76f33827068" d="M216.514 280.717l4.986-8.635 4.986 8.635h-9.972z"/></g><g><path class="ae861af8-fa0c-4dc0-a53d-8ee0de8924f3" d="M622.823 414.582h-1.5"/><path stroke-dasharray="3.01 3.01" stroke="#06c" stroke-linecap="round" stroke-linejoin="round" fill="none" d="M618.314 414.582H427.181"/><path class="ae861af8-fa0c-4dc0-a53d-8ee0de8924f3" d="M425.676 414.582h-1.5"/><path class="e7fb0f8d-f2d6-4c05-a0f6-b76f33827068" d="M621.365 409.596l8.635 4.986-8.635 4.986v-9.972zM425.635 409.596L417 414.582l8.635 4.986v-9.972z"/></g><text class="b776aaa2-88fc-4ad7-871e-13856efe1480" transform="translate(348.904 314.582)"><tspan class="e2a919bd-8453-4e52-8564-21ea4c796e44">A</tspan><tspan class="beb1b1be-7eb2-46db-bb78-8626afcb43f8" x="7.305" y="0">l</tspan><tspan class="f813015f-2af9-4f8e-8e44-ebbb495e7c7c" x="9.737" y="0">e</tspan><tspan class="f5476a98-4f59-4868-9262-5cda6f65e840" x="15.818" y="0">r</tspan><tspan class="f389b198-9d77-4f83-af0b-6ab10623a003" x="19.955" y="0">t</tspan><tspan x="24.318" y="0">s</tspan></text><g><path class="bed0b129-fe88-481e-9d18-c9823ac690ae" d="M363.5 300.367v-21.109"/><path class="f1b2cc21-5702-4266-8bda-54f8b7dbd0ca" d="M368.486 280.717l-4.986-8.635-4.986 8.635h9.972z"/></g><path class="b73f42d3-e4f3-4460-b14d-b494c4399c32" d="M632.5 384.582h92v60h-92z"/><text class="feda72f8-5373-41da-8bcb-76f3262322fe" transform="translate(658.198 411.629)"><tspan class="a4d73876-6bce-4e43-a22c-db7edf8f3533">Th</tspan><tspan class="b8271340-c6ef-4322-ad71-ffb25b7a741a" x="13.554" y="0">a</tspan><tspan class="f49058a4-f4fd-49a1-9b9c-496df92910a7" x="19.72" y="0">n</tspan><tspan class="b9ef2ecf-746d-4377-9529-8c03514c2ef0" x="26.198" y="0">o</tspan><tspan x="32.858" y="0">s </tspan><tspan letter-spacing=".01em"><tspan x="6.514" y="12">R</tspan><tspan class="f9607acc-c92f-463d-9876-75790c4e989f" x="14.012" y="12">u</tspan><tspan class="f46b9eb8-d715-441e-89f5-a9532a00c237" x="20.529" y="12">l</tspan><tspan class="b4ec597b-1beb-45f0-9da6-fcdf7bbf3359" x="23.374" y="12">e</tspan><tspan class="f7288bbc-966b-4f91-9c37-e79d63487f79" x="29.766" y="12">r</tspan></tspan></text><path class="b73f42d3-e4f3-4460-b14d-b494c4399c32" d="M475.5 209.582h92v60h-92z"/><text class="feda72f8-5373-41da-8bcb-76f3262322fe" transform="translate(489.654 242.536)"><tspan class="e45d1b5a-abc5-4813-939a-03a44af48537">P</tspan><tspan class="a733f3fa-012c-46dc-a253-f6ecac8fb2bc" x="7.412" y="0">r</tspan><tspan class="f89bf7f2-79c9-4c8c-b7c5-df98377c8cba" x="11.711" y="0">o</tspan><tspan class="f813015f-2af9-4f8e-8e44-ebbb495e7c7c" x="18.385" y="0">m</tspan><tspan class="be4d0261-c8b5-4b24-9d7b-76a75ebb599e" x="28.107" y="0">e</tspan><tspan class="ebbb246c-b2ac-4eb8-96cd-71794806e4e5" x="34.348" y="0">t</tspan><tspan class="f49058a4-f4fd-49a1-9b9c-496df92910a7" x="38.989" y="0">h</tspan><tspan class="a9cbb2d5-f636-4b5d-8b45-a669e66138d4" x="45.467" y="0">e</tspan><tspan class="ecb2b511-fb85-46ff-8b4f-938d6e143b7f" x="51.835" y="0">u</tspan><tspan x="58.421" y="0">s</tspan></text><g><path class="ee0f3ab8-612d-4fcb-97d1-88270bb1e1b8" d="M312.5 384.582h102v60h-102z"/><text class="feda72f8-5373-41da-8bcb-76f3262322fe" transform="translate(344.437 411.629)"><tspan class="a4d73876-6bce-4e43-a22c-db7edf8f3533">Th</tspan><tspan class="b8271340-c6ef-4322-ad71-ffb25b7a741a" x="13.554" y="0">a</tspan><tspan class="f49058a4-f4fd-49a1-9b9c-496df92910a7" x="19.72" y="0">n</tspan><tspan class="b9ef2ecf-746d-4377-9529-8c03514c2ef0" x="26.198" y="0">o</tspan><tspan x="32.858" y="0">s</tspan><tspan letter-spacing=".017em"><tspan x="-.884" y="12">Q</tspan><tspan x="8.229" y="12" letter-spacing=".008em">u</tspan><tspan class="f03574de-abcf-483e-be34-1bdc3e36ec59" x="14.714" y="12">e</tspan><tspan class="ac54f022-7046-45dc-b276-f543c0d9573d" x="21.106" y="12">ri</tspan><tspan class="f03574de-abcf-483e-be34-1bdc3e36ec59" x="28.296" y="12">e</tspan><tspan class="f7288bbc-966b-4f91-9c37-e79d63487f79" x="34.688" y="12">r</tspan></tspan></text></g><text class="b776aaa2-88fc-4ad7-871e-13856efe1480" transform="translate(229.089 406.554)"><tspan class="a5df6f32-09ed-4c4a-9434-ba3a5af73fdd">Q</tspan><tspan class="ed651917-3ebd-4936-bc99-3503e1882db0" x="8.919" y="0">u</tspan><tspan class="a6c54076-49a0-4275-b9df-512e7eaa71a1" x="14.917" y="0">e</tspan><tspan class="f3b1527c-aedd-415a-b0bf-2b3c9ee35ce9" x="20.998" y="0">r</tspan><tspan class="f880bb5c-3725-4262-8e5e-65c02d6b5af9" x="24.9" y="0">i</tspan><tspan class="f46b9eb8-d715-441e-89f5-a9532a00c237" x="27.375" y="0">e</tspan><tspan x="33.443" y="0">s</tspan></text><path class="b73f42d3-e4f3-4460-b14d-b494c4399c32" d="M180.5 209.582h92v60h-92z"/><text class="feda72f8-5373-41da-8bcb-76f3262322fe" transform="translate(194.655 242.536)"><tspan class="e45d1b5a-abc5-4813-939a-03a44af48537">P</tspan><tspan class="a733f3fa-012c-46dc-a253-f6ecac8fb2bc" x="7.412" y="0">r</tspan><tspan class="f89bf7f2-79c9-4c8c-b7c5-df98377c8cba" x="11.711" y="0">o</tspan><tspan class="f813015f-2af9-4f8e-8e44-ebbb495e7c7c" x="18.385" y="0">m</tspan><tspan class="be4d0261-c8b5-4b24-9d7b-76a75ebb599e" x="28.107" y="0">e</tspan><tspan class="ebbb246c-b2ac-4eb8-96cd-71794806e4e5" x="34.348" y="0">t</tspan><tspan class="f49058a4-f4fd-49a1-9b9c-496df92910a7" x="38.989" y="0">h</tspan><tspan class="a9cbb2d5-f636-4b5d-8b45-a669e66138d4" x="45.467" y="0">e</tspan><tspan class="ecb2b511-fb85-46ff-8b4f-938d6e143b7f" x="51.835" y="0">u</tspan><tspan x="58.421" y="0">s</tspan></text><g><path class="bed0b129-fe88-481e-9d18-c9823ac690ae" d="M217 76v29.824"/><path class="f1b2cc21-5702-4266-8bda-54f8b7dbd0ca" d="M212.014 104.365L217 113l4.986-8.635h-9.972z"/></g><g><path class="bed0b129-fe88-481e-9d18-c9823ac690ae" d="M595.125 76l-.92 82.906"/><path class="f1b2cc21-5702-4266-8bda-54f8b7dbd0ca" d="M589.235 157.392l4.89 8.69 5.082-8.579-9.972-.111z"/></g><path class="bed0b129-fe88-481e-9d18-c9823ac690ae" d="M98.75 94.629L116.315 115"/><path class="b73f42d3-e4f3-4460-b14d-b494c4399c32" d="M632.5 209.582h92v60h-92z"/><text class="feda72f8-5373-41da-8bcb-76f3262322fe" transform="translate(646.654 236.536)"><tspan class="e45d1b5a-abc5-4813-939a-03a44af48537">P</tspan><tspan class="a733f3fa-012c-46dc-a253-f6ecac8fb2bc" x="7.412" y="0">r</tspan><tspan class="f89bf7f2-79c9-4c8c-b7c5-df98377c8cba" x="11.711" y="0">o</tspan><tspan class="f813015f-2af9-4f8e-8e44-ebbb495e7c7c" x="18.385" y="0">m</tspan><tspan class="be4d0261-c8b5-4b24-9d7b-76a75ebb599e" x="28.107" y="0">e</tspan><tspan class="ebbb246c-b2ac-4eb8-96cd-71794806e4e5" x="34.348" y="0">t</tspan><tspan class="f49058a4-f4fd-49a1-9b9c-496df92910a7" x="38.989" y="0">h</tspan><tspan class="a9cbb2d5-f636-4b5d-8b45-a669e66138d4" x="45.467" y="0">e</tspan><tspan class="ecb2b511-fb85-46ff-8b4f-938d6e143b7f" x="51.835" y="0">u</tspan><tspan x="58.421" y="0">s</tspan><tspan class="b5ed35a4-5ef4-46f6-a808-64fac6b5ca0f" x="7.77" y="12">O</tspan><tspan class="aabaf625-a660-45de-afb2-106d60e7bf7a" x="16.849" y="12">p</tspan><tspan class="f03574de-abcf-483e-be34-1bdc3e36ec59" x="23.643" y="12">e</tspan><tspan class="ac54f022-7046-45dc-b276-f543c0d9573d" x="30.035" y="12">r</tspan><tspan class="faca580d-05c8-49d6-9ba2-f356418badea" x="34.405" y="12">a</tspan><tspan class="ad177acb-7b37-4069-b75c-e60ffe1a511e" x="40.421" y="12">t</tspan><tspan class="a2457a06-0787-4be9-bed0-ab1ac24aa5de" x="44.924" y="12">o</tspan><tspan x="51.598" y="12">r</tspan></text><text transform="translate(33.501 195.37)" letter-spacing="-.011em" font-size="14" font-family="RedHatText,&quot;Red Hat Text&quot;,Overpass,&quot;Helvetica Neue&quot;,Arial,sans-serif" font-weight="700" fill="#151515">P<tspan x="9.779" y="0" letter-spacing=".004em">l</tspan><tspan x="13.862" y="0" letter-spacing="-.008em">a</tspan><tspan x="21.854" y="0" letter-spacing=".009em">t</tspan><tspan x="28.397" y="0" letter-spacing="-.009em">f</tspan><tspan x="34.708" y="0" letter-spacing=".003em">o</tspan><tspan x="43.415" y="0" letter-spacing="-.005em">r</tspan><tspan x="49.537" y="0" letter-spacing="0">m</tspan></text><g><text transform="translate(667.231 672.611)" font-size="10" fill="#f3f3f3" font-family="RedHatText,&quot;Red Hat Text&quot;,Overpass,&quot;Helvetica Neue&quot;,Arial,sans-serif">118_OpenShift_0920</text><path fill="none" d="M0 649.594h760v40H0z"/></g><text class="b776aaa2-88fc-4ad7-871e-13856efe1480" transform="translate(368.514 472.27)"><tspan class="b914671c-1931-4ada-b4bc-956cf7161cdb">D</tspan><tspan class="bd3840b9-6cb7-4491-8242-1c23b6882d74" x="8.01" y="0">e</tspan><tspan class="a3c24c52-9c19-42b4-a753-18a0ae8ba3a6" x="14.071" y="0">pl</tspan><tspan class="e0e020ef-9e4b-4d7e-8b45-628bf7581ba6" x="22.877" y="0">o</tspan><tspan x="29.004" y="0">y</tspan></text><g><path class="ae861af8-fa0c-4dc0-a53d-8ee0de8924f3" d="M363.5 455.177v32.418"/><path class="e7fb0f8d-f2d6-4c05-a0f6-b76f33827068" d="M358.514 456.636L363.5 448l4.986 8.636h-9.972z"/></g><text class="b776aaa2-88fc-4ad7-871e-13856efe1480" transform="translate(368.514 574.364)"><tspan class="b914671c-1931-4ada-b4bc-956cf7161cdb">D</tspan><tspan class="bd3840b9-6cb7-4491-8242-1c23b6882d74" x="8.01" y="0">e</tspan><tspan class="a3c24c52-9c19-42b4-a753-18a0ae8ba3a6" x="14.071" y="0">pl</tspan><tspan class="e0e020ef-9e4b-4d7e-8b45-628bf7581ba6" x="22.877" y="0">o</tspan><tspan x="29.004" y="0">y</tspan></text><g><path class="ae861af8-fa0c-4dc0-a53d-8ee0de8924f3" d="M363.5 557.271v32.418"/><path class="e7fb0f8d-f2d6-4c05-a0f6-b76f33827068" d="M358.514 558.73l4.986-8.635 4.986 8.635h-9.972z"/></g><path class="ee0f3ab8-612d-4fcb-97d1-88270bb1e1b8" d="M312.5 487.595h102v60h-102z"/><text class="feda72f8-5373-41da-8bcb-76f3262322fe" transform="translate(344.495 508.548)">C<tspan class="a5b632ef-ef4c-4acb-b81a-04d9333c1ebd" x="7.953" y="0">l</tspan><tspan class="b07914c6-ddfd-46e6-92dc-e748d962f890" x="10.833" y="0">u</tspan><tspan class="ac2df839-044e-49e1-9dfa-306061c51594" x="17.418" y="0">s</tspan><tspan class="f8c16f5e-9744-4c3d-ba36-fc5acd6c6c2d" x="22.798" y="0">t</tspan><tspan class="f03574de-abcf-483e-be34-1bdc3e36ec59" x="27.296" y="0">e</tspan><tspan x="33.688" y="0">r</tspan><tspan x="-9.72" y="12" letter-spacing=".009em">Mon</tspan><tspan x="13.347" y="12">i</tspan><tspan x="16.119" y="12" letter-spacing="-.005em">t</tspan><tspan class="f89bf7f2-79c9-4c8c-b7c5-df98377c8cba" x="20.622" y="12">o</tspan><tspan class="ed651917-3ebd-4936-bc99-3503e1882db0" x="27.296" y="12">r</tspan><tspan class="f9607acc-c92f-463d-9876-75790c4e989f" x="31.666" y="12">i</tspan><tspan class="b189da0d-19df-4277-8811-73ff1314da3f" x="34.554" y="12">n</tspan><tspan x="41.031" y="12">g</tspan><tspan class="b5ed35a4-5ef4-46f6-a808-64fac6b5ca0f" x="-5.07" y="24">O</tspan><tspan class="aabaf625-a660-45de-afb2-106d60e7bf7a" x="4.009" y="24">p</tspan><tspan class="f03574de-abcf-483e-be34-1bdc3e36ec59" x="10.803" y="24">e</tspan><tspan class="ac54f022-7046-45dc-b276-f543c0d9573d" x="17.195" y="24">r</tspan><tspan class="faca580d-05c8-49d6-9ba2-f356418badea" x="21.565" y="24">a</tspan><tspan class="ad177acb-7b37-4069-b75c-e60ffe1a511e" x="27.581" y="24">t</tspan><tspan class="a2457a06-0787-4be9-bed0-ab1ac24aa5de" x="32.084" y="24">o</tspan><tspan x="38.758" y="24">r</tspan></text><path class="ee0f3ab8-612d-4fcb-97d1-88270bb1e1b8" d="M312.5 589.689h102v60h-102z"/><text class="feda72f8-5373-41da-8bcb-76f3262322fe" transform="translate(344.495 610.642)">C<tspan class="a5b632ef-ef4c-4acb-b81a-04d9333c1ebd" x="7.953" y="0">l</tspan><tspan class="b07914c6-ddfd-46e6-92dc-e748d962f890" x="10.833" y="0">u</tspan><tspan class="ac2df839-044e-49e1-9dfa-306061c51594" x="17.418" y="0">s</tspan><tspan class="f8c16f5e-9744-4c3d-ba36-fc5acd6c6c2d" x="22.798" y="0">t</tspan><tspan class="f03574de-abcf-483e-be34-1bdc3e36ec59" x="27.296" y="0">e</tspan><tspan x="33.688" y="0">r</tspan><tspan x="-.695" y="12" letter-spacing="-.043em">V</tspan><tspan class="f03574de-abcf-483e-be34-1bdc3e36ec59" x="6.503" y="12">e</tspan><tspan x="12.896" y="12" letter-spacing=".019em">r</tspan><tspan x="17.427" y="12" letter-spacing=".011em">s</tspan><tspan class="a8ad9097-4abe-4d28-9656-fd650e23aa1d" x="22.815" y="12">i</tspan><tspan class="f89bf7f2-79c9-4c8c-b7c5-df98377c8cba" x="25.63" y="12">o</tspan><tspan x="32.304" y="12">n</tspan><tspan class="b5ed35a4-5ef4-46f6-a808-64fac6b5ca0f" x="-5.07" y="24">O</tspan><tspan class="aabaf625-a660-45de-afb2-106d60e7bf7a" x="4.009" y="24">p</tspan><tspan class="f03574de-abcf-483e-be34-1bdc3e36ec59" x="10.803" y="24">e</tspan><tspan class="ac54f022-7046-45dc-b276-f543c0d9573d" x="17.195" y="24">r</tspan><tspan class="faca580d-05c8-49d6-9ba2-f356418badea" x="21.565" y="24">a</tspan><tspan class="ad177acb-7b37-4069-b75c-e60ffe1a511e" x="27.581" y="24">t</tspan><tspan class="a2457a06-0787-4be9-bed0-ab1ac24aa5de" x="32.084" y="24">o</tspan><tspan x="38.758" y="24">r</tspan></text></svg>