<svg id="be0b1e41-0cc0-4885-b600-64d8eb985748" data-name="artwork" xmlns="http://www.w3.org/2000/svg" width="760" height="371"><defs><style>.abd8117f-3ab2-4bf2-a584-7e81104f0fb9{fill:none}.b88151b3-06e7-48d5-ac2b-702a38b11f74{fill:#e8e8e8}.abd8117f-3ab2-4bf2-a584-7e81104f0fb9{stroke:#151515;stroke-linecap:round;stroke-linejoin:round}.bc20439c-1d70-4739-865f-cd8c4815b55f,.bf04637f-4250-4ec4-9a01-f2796cc9edbd,.bfe6d3d1-0958-43ef-9260-064fa368b5b4,.ed3b8446-2254-44b1-bc88-ef97a8bd2359{fill:#151515}.e9183669-4eca-4c74-9ffa-68cfdfd29e54,.efe767cc-f685-42ba-8267-e45e1c2fce03{fill:#fff}.fae72ab9-d4d2-4a45-be16-8e536463664e{fill:#06c}.bfe6d3d1-0958-43ef-9260-064fa368b5b4,.e9183669-4eca-4c74-9ffa-68cfdfd29e54,.ed3b8446-2254-44b1-bc88-ef97a8bd2359{font-size:11px}.e9183669-4eca-4c74-9ffa-68cfdfd29e54,.ed3b8446-2254-44b1-bc88-ef97a8bd2359{font-family:RedHatText,&quot;Red Hat Text&quot;,Overpass,&quot;Helvetica Neue&quot;,Arial,sans-serif;font-weight:500}.b8b0efa3-14e5-4242-9911-bf3da28696e2{letter-spacing:.011em}.b12fccbf-5c5a-4e3f-afbe-43b42b5328ee{letter-spacing:.007em}.bafa8fcc-02f0-403f-a130-1bdc1dc6182d{letter-spacing:.008em}.bc3bccdf-d30e-45b3-a992-729a15197eca{letter-spacing:.004em}.aac142c2-d331-436f-bca9-3bee574d2988{letter-spacing:-.006em}.a9d92240-8912-4ca9-a1ae-ca66f5ce05ac{letter-spacing:.01em}.eba77bb4-0089-4ff1-a944-281a710cf3a2{letter-spacing:-.005em}.ef2acf76-fc08-416e-b931-e7db19c8a8f6{letter-spacing:.009em}.b9810075-1ba3-44bb-9ce1-5a0cc1eb9083{letter-spacing:.007em}.bfe6d3d1-0958-43ef-9260-064fa368b5b4{font-family:RedHatText,&quot;Red Hat Text&quot;,Overpass,&quot;Helvetica Neue&quot;,Arial,sans-serif;font-style:italic}.b466a780-b791-476f-b19d-27041b77cd07{letter-spacing:.006em}.a56754ed-18fe-4faf-9851-68db07a27be1{letter-spacing:.034em}.b3f4f3be-06ec-4e35-91a7-4b513b4be9da{letter-spacing:.004em}.b7afa9f9-549e-4a06-83db-fd9d2e583d35{letter-spacing:.014em}.bb2f68b3-746b-4334-99aa-8934d2bbb434{letter-spacing:-.075em}.a4679af0-0eac-42f7-b824-ff55eb9b28ea{letter-spacing:.027em}.b9f5a00a-e38d-4e35-912f-45adf2736ed7{letter-spacing:.012em}.f026f4c7-3dae-4ac8-a24f-ded8318b062c{letter-spacing:-.041em}.b3094086-12db-4364-99d0-57eeb934f946{letter-spacing:0}.a25d49ff-26c8-4e34-8603-c6ac16c5fdb4{letter-spacing:.008em}.b89434c6-fa79-4f2e-9acc-0b57a4bd402c{letter-spacing:.01em}.fb397d10-c655-4b79-8ab8-55931851f9c5{letter-spacing:.004em}.b4f1d1fa-8101-43ed-af93-ae6256bda5c7{letter-spacing:-.003em}.bf04637f-4250-4ec4-9a01-f2796cc9edbd{font-size:14px;font-family:RedHatText,&quot;Red Hat Text&quot;,Overpass,&quot;Helvetica Neue&quot;,Arial,sans-serif;font-weight:700}.ab813449-8bcf-44ac-a6d3-9f607c79e4bf{letter-spacing:.012em}.b1150773-7c45-4d64-8598-3034c9623fce{letter-spacing:.003em}.fc0eeafa-17ea-4f7b-9c29-7651ca657d63{letter-spacing:-.008em}.f3ff8332-6be1-43ba-8fc7-be9242a900d3{letter-spacing:.005em}.b8f53da7-2368-4e44-9718-f91b0a24cb4b{letter-spacing:.014em}.a0a7f024-fcc9-4dd5-bd2a-987e80431c5c{letter-spacing:.004em}.b9543da0-0a47-4c94-9449-f0ad2f82f872{letter-spacing:.009em}.f188c751-58bf-42b6-a115-23c8a05a0d05{letter-spacing:.011em}.f3c1e948-5e1a-4abd-b39f-748fcbfc7dbb{letter-spacing:.006em}.e125dc00-afb2-45cf-9a9c-65a5d87522c6{letter-spacing:.008em}.b8598041-ffac-4c2a-a990-8dc864390082{letter-spacing:.014em}.ad9eb416-3a97-4774-a525-abf205fb31da{letter-spacing:.001em}.add1f3ec-5217-4075-b7cb-9a5225c288be{letter-spacing:.01em}.ab3be15a-311b-4b24-a630-db02a9b27cbe{letter-spacing:.013em}.efd0bc69-fd43-4b0d-ba79-ccc4eec56b86{letter-spacing:.014em}.b491f6d9-0ee4-4d0e-938a-975c64565974{letter-spacing:.011em}.a7f58725-9640-45c3-9d82-7d43f7a2748a{letter-spacing:-.003em}.a168b056-6de6-414f-87f2-948c27c24070{letter-spacing:.023em}.b8b02ad7-0381-4e8a-ba47-c12968a4e0f5{letter-spacing:0}.bb88bc8e-eb26-4f11-873e-005c0530df42{letter-spacing:.026em}.b17a6c46-502d-4633-b063-dd844e59ef04{letter-spacing:-.005em}.f5fae57e-d335-45f2-8ca4-86b74c989eb2{letter-spacing:-.006em}</style></defs><text transform="translate(669.342 354.017)" font-size="10" fill="#f3f3f3" font-family="RedHatText,&quot;Red Hat Text&quot;,Overpass,&quot;Helvetica Neue&quot;,Arial,sans-serif">132_OpenShift_1220</text><path fill="none" d="M0 331h760v40H0z"/><path class="b88151b3-06e7-48d5-ac2b-702a38b11f74" d="M0 16h314v315H0z"/><path class="abd8117f-3ab2-4bf2-a584-7e81104f0fb9" d="M147 143.5h30.324"/><path class="bc20439c-1d70-4739-865f-cd8c4815b55f" d="M175.865 148.486l8.635-4.986-8.635-4.986v9.972z"/><path class="abd8117f-3ab2-4bf2-a584-7e81104f0fb9" d="M240.5 105.676V121"/><path class="bc20439c-1d70-4739-865f-cd8c4815b55f" d="M235.514 107.135L240.5 98.5l4.986 8.635h-9.972z"/><path class="abd8117f-3ab2-4bf2-a584-7e81104f0fb9" d="M147 223.5h30.324"/><path class="bc20439c-1d70-4739-865f-cd8c4815b55f" d="M175.865 228.486l8.635-4.986-8.635-4.986v9.972z"/><path class="abd8117f-3ab2-4bf2-a584-7e81104f0fb9" d="M147 208.5h17.5v-50h12.824"/><path class="bc20439c-1d70-4739-865f-cd8c4815b55f" d="M175.865 163.486l8.635-4.986-8.635-4.986v9.972z"/><path class="efe767cc-f685-42ba-8267-e45e1c2fce03" d="M20.5 121.5h126v59h-126z"/><path class="fae72ab9-d4d2-4a45-be16-8e536463664e" d="M146 122v58H21v-58h125m1-1H20v60h127v-60z"/><text class="ed3b8446-2254-44b1-bc88-ef97a8bd2359" transform="translate(53.425 148.047)"><tspan letter-spacing="-.014em">K</tspan><tspan class="b8b0efa3-14e5-4242-9911-bf3da28696e2" x="7.194" y="0">u</tspan><tspan class="b12fccbf-5c5a-4e3f-afbe-43b42b5328ee" x="13.711" y="0">b</tspan><tspan class="bafa8fcc-02f0-403f-a130-1bdc1dc6182d" x="20.505" y="0">e</tspan><tspan class="bc3bccdf-d30e-45b3-a992-729a15197eca" x="26.897" y="0">r</tspan><tspan x="31.267" y="0" letter-spacing=".007em">n</tspan><tspan class="aac142c2-d331-436f-bca9-3bee574d2988" x="37.745" y="0">et</tspan><tspan x="48.484" y="0" letter-spacing=".009em">e</tspan><tspan x="54.88" y="0">s</tspan><tspan class="a9d92240-8912-4ca9-a1ae-ca66f5ce05ac" x="20.954" y="12">A</tspan><tspan class="eba77bb4-0089-4ff1-a944-281a710cf3a2" x="28.734" y="12">P</tspan><tspan x="36.148" y="12">I</tspan></text><path class="efe767cc-f685-42ba-8267-e45e1c2fce03" d="M20.5 186.5h126v59h-126z"/><path class="fae72ab9-d4d2-4a45-be16-8e536463664e" d="M146 187v58H21v-58h125m1-1H20v60h127v-60z"/><text class="ed3b8446-2254-44b1-bc88-ef97a8bd2359" transform="translate(51.655 213.047)"><tspan letter-spacing="-.005em">P</tspan><tspan x="7.412" y="0" letter-spacing="-.002em">r</tspan><tspan class="ef2acf76-fc08-416e-b931-e7db19c8a8f6" x="11.711" y="0">o</tspan><tspan x="18.385" y="0" letter-spacing=".008em">m</tspan><tspan x="28.107" y="0" letter-spacing="-.006em">e</tspan><tspan x="34.348" y="0" letter-spacing=".008em">t</tspan><tspan class="b9810075-1ba3-44bb-9ce1-5a0cc1eb9083" x="38.989" y="0">h</tspan><tspan x="45.467" y="0" letter-spacing=".006em">e</tspan><tspan x="51.835" y="0" letter-spacing=".017em">u</tspan><tspan x="58.421" y="0">s</tspan><tspan class="a9d92240-8912-4ca9-a1ae-ca66f5ce05ac" x="22.725" y="12">A</tspan><tspan class="eba77bb4-0089-4ff1-a944-281a710cf3a2" x="30.505" y="12">P</tspan><tspan x="37.918" y="12">I</tspan></text><path class="abd8117f-3ab2-4bf2-a584-7e81104f0fb9" d="M436.324 216H323.676"/><path class="bc20439c-1d70-4739-865f-cd8c4815b55f" d="M434.865 211.014L443.5 216l-8.635 4.986v-9.972zM325.135 211.014L316.5 216l8.635 4.986v-9.972z"/><text class="bfe6d3d1-0958-43ef-9260-064fa368b5b4" transform="translate(347.188 230.624)"><tspan class="b466a780-b791-476f-b19d-27041b77cd07">H</tspan><tspan class="a56754ed-18fe-4faf-9851-68db07a27be1" x="7.954" y="0">T</tspan><tspan class="b3f4f3be-06ec-4e35-91a7-4b513b4be9da" x="14.979" y="0">T</tspan><tspan class="b7afa9f9-549e-4a06-83db-fd9d2e583d35" x="21.675" y="0">P</tspan><tspan x="28.88" y="0">S </tspan><tspan class="bb2f68b3-746b-4334-99aa-8934d2bbb434" x="38.175" y="0">(</tspan><tspan class="a4679af0-0eac-42f7-b824-ff55eb9b28ea" x="41.677" y="0">4</tspan><tspan class="b9f5a00a-e38d-4e35-912f-45adf2736ed7" x="48.638" y="0">4</tspan><tspan class="f026f4c7-3dae-4ac8-a24f-ded8318b062c" x="55.435" y="0">3</tspan><tspan class="b3094086-12db-4364-99d0-57eeb934f946" x="61.3" y="0">)</tspan></text><path class="abd8117f-3ab2-4bf2-a584-7e81104f0fb9" d="M436.324 151H323.676"/><path class="bc20439c-1d70-4739-865f-cd8c4815b55f" d="M434.865 146.014L443.5 151l-8.635 4.986v-9.972zM325.135 146.014L316.5 151l8.635 4.986v-9.972z"/><text class="bfe6d3d1-0958-43ef-9260-064fa368b5b4" transform="translate(347.188 144.124)"><tspan class="b466a780-b791-476f-b19d-27041b77cd07">H</tspan><tspan class="a56754ed-18fe-4faf-9851-68db07a27be1" x="7.954" y="0">T</tspan><tspan class="b3f4f3be-06ec-4e35-91a7-4b513b4be9da" x="14.979" y="0">T</tspan><tspan class="b7afa9f9-549e-4a06-83db-fd9d2e583d35" x="21.675" y="0">P</tspan><tspan x="28.88" y="0">S </tspan><tspan class="bb2f68b3-746b-4334-99aa-8934d2bbb434" x="38.175" y="0">(</tspan><tspan class="a4679af0-0eac-42f7-b824-ff55eb9b28ea" x="41.677" y="0">4</tspan><tspan class="b9f5a00a-e38d-4e35-912f-45adf2736ed7" x="48.638" y="0">4</tspan><tspan class="f026f4c7-3dae-4ac8-a24f-ded8318b062c" x="55.435" y="0">3</tspan><tspan class="b3094086-12db-4364-99d0-57eeb934f946" x="61.3" y="0">)</tspan></text><path class="fae72ab9-d4d2-4a45-be16-8e536463664e" d="M187 121h127v60H187zM187 186h127v60H187z"/><text class="e9183669-4eca-4c74-9ffa-68cfdfd29e54" transform="translate(224.029 213.047)"><tspan letter-spacing="-.081em">T</tspan><tspan class="a25d49ff-26c8-4e34-8603-c6ac16c5fdb4" x="6.135" y="0">e</tspan><tspan x="12.527" y="0" letter-spacing=".007em">l</tspan><tspan class="bafa8fcc-02f0-403f-a130-1bdc1dc6182d" x="15.371" y="0">em</tspan><tspan class="aac142c2-d331-436f-bca9-3bee574d2988" x="31.488" y="0">et</tspan><tspan class="a25d49ff-26c8-4e34-8603-c6ac16c5fdb4" x="42.228" y="0">e</tspan><tspan x="48.62" y="0">r</tspan><tspan x="10.987" y="12">C</tspan><tspan class="b89434c6-fa79-4f2e-9acc-0b57a4bd402c" x="18.94" y="12">l</tspan><tspan class="fb397d10-c655-4b79-8ab8-55931851f9c5" x="21.827" y="12">i</tspan><tspan class="a25d49ff-26c8-4e34-8603-c6ac16c5fdb4" x="24.642" y="12">e</tspan><tspan class="b4f1d1fa-8101-43ed-af93-ae6256bda5c7" x="31.034" y="12">n</tspan><tspan x="37.402" y="12">t</tspan></text><text class="bf04637f-4250-4ec4-9a01-f2796cc9edbd" transform="translate(20.001 47.788)"><tspan class="ab813449-8bcf-44ac-a6d3-9f607c79e4bf">O</tspan><tspan x="11.546" y="0" letter-spacing="-.001em">p</tspan><tspan x="20.552" y="0" letter-spacing=".005em">e</tspan><tspan x="28.912" y="0" letter-spacing=".011em">nS</tspan><tspan x="47.051" y="0" letter-spacing=".007em">h</tspan><tspan x="55.8" y="0" letter-spacing="-.007em">i</tspan><tspan x="59.736" y="0" letter-spacing=".009em">f</tspan><tspan x="66.301" y="0">t</tspan><tspan x="0" y="16" letter-spacing="-.005em">C</tspan><tspan class="b1150773-7c45-4d64-8598-3034c9623fce" x="10.01" y="16">o</tspan><tspan x="18.716" y="16" letter-spacing="-.007em">n</tspan><tspan x="27.268" y="16" letter-spacing=".011em">t</tspan><tspan x="33.828" y="16" letter-spacing=".006em">a</tspan><tspan x="42.014" y="16" letter-spacing=".007em">i</tspan><tspan x="46.138" y="16" letter-spacing=".002em">n</tspan><tspan x="54.824" y="16" letter-spacing=".005em">e</tspan><tspan x="63.186" y="16">r </tspan><tspan x="72.383" y="16" letter-spacing="-.011em">P</tspan><tspan x="82.162" y="16" letter-spacing=".004em">l</tspan><tspan class="fc0eeafa-17ea-4f7b-9c29-7651ca657d63" x="86.246" y="16">a</tspan><tspan x="94.237" y="16" letter-spacing=".009em">t</tspan><tspan x="100.78" y="16" letter-spacing="-.009em">f</tspan><tspan class="b1150773-7c45-4d64-8598-3034c9623fce" x="107.092" y="16">o</tspan><tspan x="115.798" y="16" letter-spacing="-.005em">r</tspan><tspan x="121.92" y="16">m</tspan></text><path class="b88151b3-06e7-48d5-ac2b-702a38b11f74" d="M446 16h314v315H446z"/><path class="abd8117f-3ab2-4bf2-a584-7e81104f0fb9" d="M603.324 151H588"/><path class="bc20439c-1d70-4739-865f-cd8c4815b55f" d="M601.865 146.014L610.5 151l-8.635 4.986v-9.972z"/><path class="abd8117f-3ab2-4bf2-a584-7e81104f0fb9" d="M603.324 216H588"/><path class="bc20439c-1d70-4739-865f-cd8c4815b55f" d="M601.865 211.014L610.5 216l-8.635 4.986v-9.972z"/><path class="abd8117f-3ab2-4bf2-a584-7e81104f0fb9" d="M588 151h-15M588 216h-15M603.324 281H588V86h15.324"/><path class="bc20439c-1d70-4739-865f-cd8c4815b55f" d="M601.865 276.014L610.5 281l-8.635 4.986v-9.972zM601.865 90.986L610.5 86l-8.635-4.986v9.972z"/><path class="efe767cc-f685-42ba-8267-e45e1c2fce03" d="M613 121h127v60H613z"/><text class="ed3b8446-2254-44b1-bc88-ef97a8bd2359" transform="translate(655.572 148.047)"><tspan letter-spacing="0">R</tspan><tspan class="f3ff8332-6be1-43ba-8fc7-be9242a900d3" x="7.397" y="0">e</tspan><tspan x="13.759" y="0">d </tspan><tspan x="22.943" y="0" letter-spacing=".012em">H</tspan><tspan class="b4f1d1fa-8101-43ed-af93-ae6256bda5c7" x="31.286" y="0">a</tspan><tspan class="b3094086-12db-4364-99d0-57eeb934f946" x="37.301" y="0">t</tspan><tspan class="b8f53da7-2368-4e44-9718-f91b0a24cb4b" x="-.61" y="12">S</tspan><tspan class="b8b0efa3-14e5-4242-9911-bf3da28696e2" x="6.554" y="12">u</tspan><tspan class="ef2acf76-fc08-416e-b931-e7db19c8a8f6" x="13.072" y="12">p</tspan><tspan class="a0a7f024-fcc9-4dd5-bd2a-987e80431c5c" x="19.888" y="12">p</tspan><tspan class="b9543da0-0a47-4c94-9449-f0ad2f82f872" x="26.657" y="12">o</tspan><tspan x="33.33" y="12" letter-spacing=".024em">r</tspan><tspan x="37.912" y="12">t</tspan></text><path class="efe767cc-f685-42ba-8267-e45e1c2fce03" d="M613 186h127v60H613z"/><text class="ed3b8446-2254-44b1-bc88-ef97a8bd2359" transform="translate(643.479 213.047)"><tspan class="b8f53da7-2368-4e44-9718-f91b0a24cb4b">S</tspan><tspan class="b8b0efa3-14e5-4242-9911-bf3da28696e2" x="7.164" y="0">u</tspan><tspan x="13.682" y="0" letter-spacing=".008em">bsc</tspan><tspan class="bc3bccdf-d30e-45b3-a992-729a15197eca" x="31.672" y="0">r</tspan><tspan class="b8b0efa3-14e5-4242-9911-bf3da28696e2" x="36.042" y="0">i</tspan><tspan x="38.93" y="0" letter-spacing="-.008em">p</tspan><tspan x="45.563" y="0" letter-spacing=".003em">t</tspan><tspan class="fb397d10-c655-4b79-8ab8-55931851f9c5" x="50.151" y="0">i</tspan><tspan class="ef2acf76-fc08-416e-b931-e7db19c8a8f6" x="52.966" y="0">o</tspan><tspan x="59.64" y="0">n</tspan><tspan x="-1.322" y="12" letter-spacing=".007em">m</tspan><tspan class="f188c751-58bf-42b6-a115-23c8a05a0d05" x="8.391" y="12">a</tspan><tspan class="f3c1e948-5e1a-4abd-b39f-748fcbfc7dbb" x="14.557" y="12">n</tspan><tspan class="b9810075-1ba3-44bb-9ce1-5a0cc1eb9083" x="21.025" y="12">a</tspan><tspan class="e125dc00-afb2-45cf-9a9c-65a5d87522c6" x="27.151" y="12">g</tspan><tspan class="bafa8fcc-02f0-403f-a130-1bdc1dc6182d" x="33.933" y="12">eme</tspan><tspan class="b4f1d1fa-8101-43ed-af93-ae6256bda5c7" x="56.442" y="12">n</tspan><tspan x="62.81" y="12">t</tspan></text><path class="efe767cc-f685-42ba-8267-e45e1c2fce03" d="M613 251h127v60H613z"/><text class="ed3b8446-2254-44b1-bc88-ef97a8bd2359" transform="translate(649.217 278.047)"><tspan class="b8598041-ffac-4c2a-a990-8dc864390082">O<tspan class="b12fccbf-5c5a-4e3f-afbe-43b42b5328ee" x="9.079" y="0">p</tspan><tspan class="bafa8fcc-02f0-403f-a130-1bdc1dc6182d" x="15.873" y="0">e</tspan><tspan class="ab813449-8bcf-44ac-a6d3-9f607c79e4bf" x="22.265" y="0">n</tspan><tspan x="28.795" y="0" letter-spacing=".015em">S</tspan><tspan class="ef2acf76-fc08-416e-b931-e7db19c8a8f6" x="35.965" y="0">h</tspan><tspan class="ad9eb416-3a97-4774-a525-abf205fb31da" x="42.463" y="0">i</tspan><tspan x="45.244" y="0" letter-spacing=".022em">f</tspan><tspan class="b3094086-12db-4364-99d0-57eeb934f946" x="50.012" y="0">t</tspan></tspan><tspan x="-16.039" y="12">C</tspan><tspan x="-8.086" y="12" letter-spacing=".01em">l</tspan><tspan x="-5.207" y="12" letter-spacing=".017em">u</tspan><tspan x="1.379" y="12" letter-spacing=".01em">s</tspan><tspan x="6.759" y="12" letter-spacing="-.005em">t</tspan><tspan class="a25d49ff-26c8-4e34-8603-c6ac16c5fdb4" x="11.257" y="12">e</tspan><tspan x="17.649" y="12">r </tspan><tspan class="add1f3ec-5217-4075-b7cb-9a5225c288be" x="24.447" y="12">M</tspan><tspan class="f188c751-58bf-42b6-a115-23c8a05a0d05" x="34.347" y="12">a</tspan><tspan class="f3c1e948-5e1a-4abd-b39f-748fcbfc7dbb" x="40.513" y="12">n</tspan><tspan class="b9810075-1ba3-44bb-9ce1-5a0cc1eb9083" x="46.981" y="12">a</tspan><tspan class="e125dc00-afb2-45cf-9a9c-65a5d87522c6" x="53.107" y="12">g</tspan><tspan class="a25d49ff-26c8-4e34-8603-c6ac16c5fdb4" x="59.889" y="12">e</tspan><tspan class="b3094086-12db-4364-99d0-57eeb934f946" x="66.281" y="12">r</tspan></text><path class="efe767cc-f685-42ba-8267-e45e1c2fce03" d="M613 56h127v60H613z"/><text class="ed3b8446-2254-44b1-bc88-ef97a8bd2359" transform="translate(655.891 83.047)"><tspan class="ab3be15a-311b-4b24-a630-db02a9b27cbe">I<tspan class="efd0bc69-fd43-4b0d-ba79-ccc4eec56b86" x="3.186" y="0">n</tspan><tspan class="b491f6d9-0ee4-4d0e-938a-975c64565974" x="9.741" y="0">s</tspan><tspan class="f3c1e948-5e1a-4abd-b39f-748fcbfc7dbb" x="15.129" y="0">i</tspan><tspan class="b8b0efa3-14e5-4242-9911-bf3da28696e2" x="17.967" y="0">g</tspan><tspan class="a7f58725-9640-45c3-9d82-7d43f7a2748a" x="24.781" y="0">h</tspan><tspan class="a168b056-6de6-414f-87f2-948c27c24070" x="31.149" y="0">t</tspan><tspan class="b8b02ad7-0381-4e8a-ba47-c12968a4e0f5" x="35.951" y="0">s</tspan></tspan><tspan class="f188c751-58bf-42b6-a115-23c8a05a0d05" x="-18.945" y="12">a</tspan><tspan class="f3c1e948-5e1a-4abd-b39f-748fcbfc7dbb" x="-12.778" y="12">n</tspan><tspan class="f188c751-58bf-42b6-a115-23c8a05a0d05" x="-6.311" y="12">a</tspan><tspan x="-.144" y="12" letter-spacing=".011em">l</tspan><tspan x="2.751" y="12" letter-spacing=".007em">y</tspan><tspan class="b491f6d9-0ee4-4d0e-938a-975c64565974" x="8.737" y="12">s</tspan><tspan x="14.125" y="12" letter-spacing=".015em">i</tspan><tspan x="17.059" y="12">s </tspan><tspan class="bafa8fcc-02f0-403f-a130-1bdc1dc6182d" x="24.802" y="12">e</tspan><tspan class="b9810075-1ba3-44bb-9ce1-5a0cc1eb9083" x="31.194" y="12">n</tspan><tspan x="37.672" y="12" letter-spacing=".011em">g</tspan><tspan class="b89434c6-fa79-4f2e-9acc-0b57a4bd402c" x="44.497" y="12">i</tspan><tspan class="b9810075-1ba3-44bb-9ce1-5a0cc1eb9083" x="47.384" y="12">n</tspan><tspan x="53.862" y="12">e</tspan></text><path class="fae72ab9-d4d2-4a45-be16-8e536463664e" d="M446 121h127v60H446z"/><text class="e9183669-4eca-4c74-9ffa-68cfdfd29e54" transform="translate(464.003 154.047)"><tspan letter-spacing=".007em">c</tspan><tspan class="b12fccbf-5c5a-4e3f-afbe-43b42b5328ee" x="5.831" y="0">lo</tspan><tspan x="15.326" y="0" letter-spacing=".009em">u</tspan><tspan x="21.829" y="0" letter-spacing=".016em">d</tspan><tspan x="28.712" y="0" letter-spacing=".013em">.</tspan><tspan x="31.552" y="0" letter-spacing="-.002em">r</tspan><tspan class="f3ff8332-6be1-43ba-8fc7-be9242a900d3" x="35.857" y="0">e</tspan><tspan class="add1f3ec-5217-4075-b7cb-9a5225c288be" x="42.218" y="0">d</tspan><tspan x="49.038" y="0" letter-spacing=".006em">h</tspan><tspan class="b4f1d1fa-8101-43ed-af93-ae6256bda5c7" x="55.506" y="0">a</tspan><tspan class="bb88bc8e-eb26-4f11-873e-005c0530df42" x="61.522" y="0">t</tspan><tspan class="b17a6c46-502d-4633-b063-dd844e59ef04" x="66.363" y="0">.</tspan><tspan class="f5fae57e-d335-45f2-8ca4-86b74c989eb2" x="68.999" y="0">c</tspan><tspan class="b9543da0-0a47-4c94-9449-f0ad2f82f872" x="74.686" y="0">o</tspan><tspan x="81.359" y="0">m</tspan></text><path class="fae72ab9-d4d2-4a45-be16-8e536463664e" d="M446 186h127v60H446z"/><text transform="translate(462.58 219.047)" letter-spacing=".011em" font-family="RedHatText,&quot;Red Hat Text&quot;,Overpass,&quot;Helvetica Neue&quot;,Arial,sans-serif" font-weight="500" font-size="11" fill="#fff">a<tspan x="6.167" y="0" letter-spacing=".007em">p</tspan><tspan x="12.959" y="0" letter-spacing=".013em">i</tspan><tspan class="b17a6c46-502d-4633-b063-dd844e59ef04" x="15.872" y="0">.</tspan><tspan class="b9543da0-0a47-4c94-9449-f0ad2f82f872" x="18.507" y="0">o</tspan><tspan class="b12fccbf-5c5a-4e3f-afbe-43b42b5328ee" x="25.181" y="0">p</tspan><tspan class="bafa8fcc-02f0-403f-a130-1bdc1dc6182d" x="31.974" y="0">e</tspan><tspan class="b7afa9f9-549e-4a06-83db-fd9d2e583d35" x="38.366" y="0">n</tspan><tspan x="44.922" y="0" letter-spacing=".012em">s</tspan><tspan class="ef2acf76-fc08-416e-b931-e7db19c8a8f6" x="50.321" y="0">h</tspan><tspan class="ad9eb416-3a97-4774-a525-abf205fb31da" x="56.818" y="0">i</tspan><tspan class="a168b056-6de6-414f-87f2-948c27c24070" x="59.599" y="0">f</tspan><tspan class="bb88bc8e-eb26-4f11-873e-005c0530df42" x="64.368" y="0">t</tspan><tspan class="b17a6c46-502d-4633-b063-dd844e59ef04" x="69.208" y="0">.</tspan><tspan class="f5fae57e-d335-45f2-8ca4-86b74c989eb2" x="71.844" y="0">c</tspan><tspan class="b9543da0-0a47-4c94-9449-f0ad2f82f872" x="77.531" y="0">o</tspan><tspan class="b3094086-12db-4364-99d0-57eeb934f946" x="84.205" y="0">m</tspan></text><text class="bf04637f-4250-4ec4-9a01-f2796cc9edbd" transform="translate(466.001 47.788)"><tspan letter-spacing=".001em">R</tspan><tspan x="9.857" y="0" letter-spacing=".002em">e</tspan><tspan x="18.178" y="0">d </tspan><tspan class="ab813449-8bcf-44ac-a6d3-9f607c79e4bf" x="30.189" y="0">H</tspan><tspan class="fc0eeafa-17ea-4f7b-9c29-7651ca657d63" x="41.035" y="0">a</tspan><tspan x="49.026" y="0" letter-spacing="0">t</tspan></text><path class="efe767cc-f685-42ba-8267-e45e1c2fce03" d="M187 36h107v60H187z"/><text transform="translate(228.886 63.047)" letter-spacing="-.017em" font-family="RedHatText,&quot;Red Hat Text&quot;,Overpass,&quot;Helvetica Neue&quot;,Arial,sans-serif" font-weight="500" font-size="11" fill="#151515">W<tspan class="bafa8fcc-02f0-403f-a130-1bdc1dc6182d" x="10.114" y="0">e</tspan><tspan class="b3094086-12db-4364-99d0-57eeb934f946" x="16.506" y="0">b</tspan><tspan class="f5fae57e-d335-45f2-8ca4-86b74c989eb2"><tspan x="-8.432" y="12">c</tspan><tspan class="b9543da0-0a47-4c94-9449-f0ad2f82f872" x="-2.745" y="12">o</tspan><tspan class="b7afa9f9-549e-4a06-83db-fd9d2e583d35" x="3.929" y="12">n</tspan><tspan x="10.485" y="12" letter-spacing=".008em">s</tspan><tspan class="b9543da0-0a47-4c94-9449-f0ad2f82f872" x="15.838" y="12">o</tspan><tspan class="b12fccbf-5c5a-4e3f-afbe-43b42b5328ee" x="22.512" y="12">l</tspan><tspan class="b3094086-12db-4364-99d0-57eeb934f946" x="25.356" y="12">e</tspan></tspan></text><text class="e9183669-4eca-4c74-9ffa-68cfdfd29e54" transform="translate(229.89 148.047)"><tspan class="ab3be15a-311b-4b24-a630-db02a9b27cbe">I<tspan class="efd0bc69-fd43-4b0d-ba79-ccc4eec56b86" x="3.186" y="0">n</tspan><tspan class="b491f6d9-0ee4-4d0e-938a-975c64565974" x="9.741" y="0">s</tspan><tspan class="f3c1e948-5e1a-4abd-b39f-748fcbfc7dbb" x="15.129" y="0">i</tspan><tspan class="b8b0efa3-14e5-4242-9911-bf3da28696e2" x="17.967" y="0">g</tspan><tspan class="a7f58725-9640-45c3-9d82-7d43f7a2748a" x="24.781" y="0">h</tspan><tspan class="a168b056-6de6-414f-87f2-948c27c24070" x="31.149" y="0">t</tspan><tspan class="b8b02ad7-0381-4e8a-ba47-c12968a4e0f5" x="35.951" y="0">s</tspan></tspan><tspan class="b8598041-ffac-4c2a-a990-8dc864390082" x="-3.465" y="12">O</tspan><tspan class="b12fccbf-5c5a-4e3f-afbe-43b42b5328ee" x="5.614" y="12">p</tspan><tspan class="a25d49ff-26c8-4e34-8603-c6ac16c5fdb4" x="12.407" y="12">e</tspan><tspan class="a0a7f024-fcc9-4dd5-bd2a-987e80431c5c" x="18.799" y="12">r</tspan><tspan class="b4f1d1fa-8101-43ed-af93-ae6256bda5c7" x="23.17" y="12">a</tspan><tspan x="29.186" y="12" letter-spacing="-.005em">t</tspan><tspan class="b9543da0-0a47-4c94-9449-f0ad2f82f872" x="33.689" y="12">o</tspan><tspan x="40.362" y="12">r</tspan></text></svg>