<?xml version="1.0" encoding="UTF-8"?><svg id="Icons" xmlns="http://www.w3.org/2000/svg" viewBox="0 0 38 38"><defs><style>.cls-1{fill:#e00;}.cls-2{fill:#fff;}</style></defs><g><path class="cls-2" d="M28,1.05H10C5.03,1.05,1,5.08,1,10.05V28.05c0,4.97,4.03,9,9,9H28c4.97,0,9-4.03,9-9V10.05c0-4.97-4.03-9-9-9h0Z"/><path d="M28,2.3c4.27,0,7.75,3.48,7.75,7.75V28.05c0,4.27-3.48,7.75-7.75,7.75H10c-4.27,0-7.75-3.48-7.75-7.75V10.05c0-4.27,3.48-7.75,7.75-7.75H28m0-1.25H10C5.03,1.05,1,5.08,1,10.05V28.05c0,4.97,4.03,9,9,9H28c4.97,0,9-4.03,9-9V10.05c0-4.97-4.03-9-9-9h0Z"/></g><path class="cls-1" d="M26.54,24.74c-.17-.3-.55-.4-.85-.23l-6.7,3.83-6.86-3.67c-.3-.17-.68-.05-.85,.26-.16,.3-.05,.68,.26,.85l7.15,3.83h.01c.09,.06,.19,.08,.29,.08h0c.1,0,.21-.03,.31-.08l7-4c.3-.17,.4-.55,.23-.85Z"/><g><path d="M26.47,12.64h0s-.05-.05-.07-.07c-.03-.03-.07-.05-.1-.07l-6.99-3.99c-.31-.17-.68-.07-.85,.23-.17,.3-.07,.68,.23,.85l6.05,3.46-5.74,3.28-.23-.13c-.3-.17-.68-.07-.85,.23-.17,.3-.07,.68,.23,.85l.23,.13v6.72c-.19,.03-.36,.12-.46,.3-.17,.3-.07,.68,.23,.85l.54,.31c.1,.06,.21,.08,.31,.08h0c.11,0,.21-.03,.31-.08l7-4c.19-.11,.31-.32,.31-.54V13.05h0c0-.16-.06-.3-.15-.41Zm-1.1,8.04l-5.75,3.29v-6.56l5.75-3.29v6.56Z"/><path d="M13.77,12.63c.11,0,.22-.03,.32-.09l1.07-.64c.3-.18,.39-.56,.21-.86s-.56-.39-.86-.21l-1.07,.64c-.3,.18-.39,.56-.21,.86,.12,.2,.32,.3,.54,.3Z"/><path d="M18.01,9.49c-.18-.29-.56-.39-.86-.21l-1.07,.64c-.3,.18-.39,.56-.21,.86,.12,.19,.32,.3,.54,.3,.11,0,.22-.03,.32-.09l1.07-.64c.3-.18,.39-.56,.21-.86Z"/><path d="M15.11,22.11l-.87-.5c-.3-.17-.68-.07-.85,.23-.17,.3-.07,.68,.23,.85l.87,.5c.1,.06,.2,.08,.31,.08,.22,0,.43-.11,.54-.32,.17-.3,.07-.68-.23-.85Z"/><path d="M17.38,23.4l-.87-.5c-.3-.17-.68-.07-.85,.23-.17,.3-.07,.68,.23,.85l.87,.5c.1,.06,.2,.08,.31,.08,.22,0,.43-.11,.54-.32,.17-.3,.07-.68-.23-.85Z"/><path d="M12.85,20.81l-.23-.13v-.26c0-.34-.28-.62-.62-.62s-.62,.28-.62,.62v.62c0,.22,.12,.43,.31,.54l.54,.31c.1,.06,.21,.08,.31,.08,.22,0,.43-.11,.54-.31,.17-.3,.07-.68-.23-.85Z"/><path d="M12,19.46c.34,0,.62-.28,.62-.62v-.99c0-.34-.28-.62-.62-.62s-.62,.28-.62,.62v.99c0,.34,.28,.62,.62,.62Z"/><path d="M12,16.88c.34,0,.62-.28,.62-.62v-.99c0-.34-.28-.62-.62-.62s-.62,.28-.62,.62v.99c0,.34,.28,.62,.62,.62Z"/><path d="M12.85,12.81l-.54-.31c-.19-.11-.43-.11-.62,0-.19,.11-.31,.32-.31,.54v.62c0,.34,.28,.62,.62,.62,.23,0,.43-.13,.54-.31,.22,0,.43-.11,.54-.31,.17-.3,.07-.68-.23-.85Z"/><path d="M17.38,15.4l-.87-.5c-.3-.17-.68-.07-.85,.23-.17,.3-.07,.68,.23,.85l.87,.5c.1,.06,.2,.08,.31,.08,.22,0,.43-.11,.54-.32,.17-.3,.07-.68-.23-.85Z"/><path d="M15.11,14.11l-.87-.5c-.3-.17-.68-.07-.85,.23-.17,.3-.07,.68,.23,.85l.87,.5c.1,.06,.2,.08,.31,.08,.22,0,.43-.11,.54-.32,.17-.3,.07-.68-.23-.85Z"/></g></svg>